<svg width="16" height="16" viewBox="0 0 16 16" fill="none" xmlns="http://www.w3.org/2000/svg">
<path d="M5.84969 14.7779C5.75193 14.747 5.64432 14.6958 5.50587 14.61C5.54751 14.6233 5.59193 14.6362 5.63841 14.6485C5.8322 14.6995 6.06506 14.7388 6.28569 14.7301C6.61791 14.7171 6.77893 14.6851 6.92102 14.648C6.94615 14.6415 6.97056 14.6348 6.99514 14.6281C7.08282 14.6041 7.17265 14.5795 7.30492 14.5577C7.22878 14.6042 7.12423 14.6552 6.99982 14.7003C6.80541 14.7708 6.56572 14.8254 6.31619 14.8254C6.12835 14.8254 5.99959 14.8252 5.84969 14.7779Z" fill="#5A6B6B" stroke="#5A6B6B" stroke-width="0.0634921"/>
<path d="M6.25368 14.6984C5.73505 14.684 5.39317 14.5505 5.1737 14.3731C4.99367 14.2276 4.89417 14.0511 4.84731 13.8821C5.00164 14.0265 5.22858 14.1493 5.4636 14.2399C5.74367 14.348 6.04132 14.4127 6.2528 14.4127C6.89145 14.4127 7.24584 14.3088 7.5013 14.1791C7.61348 14.1221 7.70611 14.0603 7.79379 14.0019C7.8054 13.9941 7.81692 13.9864 7.82838 13.9788C7.89219 13.9365 7.95452 13.8964 8.02201 13.8609C7.93687 13.963 7.78637 14.123 7.57543 14.2759C7.26193 14.5032 6.81626 14.714 6.25368 14.6984Z" fill="#3C486B" stroke="#3C486B" stroke-width="0.0634921"/>
<path d="M3.01493 11.9573C2.95683 12.577 3.12693 13.1404 3.33912 13.5057C2.98552 13.165 2.46176 12.5584 2.18715 11.8613C2.02423 11.4478 1.97684 10.9687 2.00992 10.5253C2.04302 10.0817 2.15644 9.6773 2.31196 9.41288L2.31205 9.41294L2.31321 9.41053C2.8819 8.22581 3.81463 7.22926 4.84459 6.37359C5.79141 5.587 6.81867 4.92083 7.71857 4.33725C7.79764 4.28598 7.87573 4.23534 7.95269 4.18531C9.75747 3.01218 12.4313 1.7386 14.0533 1.19004C13.9499 1.72276 13.6611 2.27709 13.2615 2.82602C12.8489 3.39274 12.3197 3.95171 11.7591 4.47274C10.6782 5.47726 9.48286 6.33839 8.78653 6.84006C8.7606 6.85873 8.73537 6.87691 8.71086 6.89458L6.67947 8.2753L4.64857 9.65569C3.51401 10.3271 3.08735 11.1849 3.01493 11.9573Z" fill="#3C486B" stroke="#3C486B" stroke-width="0.0634921" stroke-linejoin="round"/>
<path d="M6.64862 10.4177C5.72903 11.0055 5.10844 11.5271 4.71179 11.9886C4.31515 12.45 4.14091 12.8532 4.11784 13.2037C4.07607 13.8382 4.52944 14.2825 5.00433 14.5737C4.48393 14.4678 3.92028 14.2035 3.5305 13.7452C3.09824 13.237 2.87633 12.4864 3.17061 11.4371C3.35011 10.7972 3.97149 10.128 4.82811 9.48168C5.68322 8.83653 6.76683 8.21849 7.86141 7.67926C8.95581 7.14012 10.0602 6.68024 10.9563 6.35122C11.4043 6.18671 11.8001 6.05501 12.1163 5.96251C12.3825 5.88462 12.5905 5.83508 12.7255 5.81662C11.449 7.56253 10.4059 8.17378 8.70316 9.17165C8.11072 9.51883 7.43841 9.91282 6.64862 10.4177Z" fill="#5A6B6B" stroke="#5A6B6B" stroke-width="0.0634921"/>
<path d="M5.7917 12.2266C5.08556 12.6437 4.72778 13.0885 4.73209 13.5385C4.73614 13.9625 5.06166 14.3734 5.67671 14.7524C5.44108 14.7212 5.1105 14.6121 4.81439 14.4103C4.45886 14.168 4.1569 13.795 4.1259 13.268C4.09673 12.7721 4.41252 12.3047 4.89433 11.8786C5.37511 11.4534 6.01437 11.0754 6.61695 10.7583C8.27453 9.88576 9.83522 9.19443 11.2402 9.02306C11.0332 9.3613 10.6924 9.67538 10.2722 9.96902C9.82982 10.2781 9.30182 10.563 8.7548 10.8286C8.3201 11.0396 7.87419 11.2381 7.45027 11.4268C7.34072 11.4756 7.23264 11.5237 7.1266 11.5712C6.61083 11.8023 6.14284 12.0192 5.7917 12.2266Z" fill="#CFD9D8" stroke="#CFD9D8" stroke-width="0.0634921"/>
</svg>
