<svg width="32" height="32" viewBox="0 0 32 32" fill="none" xmlns="http://www.w3.org/2000/svg">
<path d="M11.6999 29.5558C11.5043 29.4941 11.2891 29.3916 11.0122 29.2201C11.0955 29.2465 11.1843 29.2725 11.2773 29.2969C11.6649 29.399 12.1306 29.4776 12.5719 29.4603C13.2363 29.4342 13.5583 29.3702 13.8425 29.296C13.8928 29.2829 13.9416 29.2696 13.9908 29.2561C14.1661 29.2082 14.3458 29.159 14.6103 29.1153C14.458 29.2083 14.2489 29.3105 14.0001 29.4007C13.6113 29.5416 13.1319 29.6508 12.6329 29.6508C12.2572 29.6508 11.9997 29.6504 11.6999 29.5558Z" fill="#5A6B6B" stroke="#5A6B6B" stroke-width="0.126984"/>
<path d="M12.5074 29.3968C11.4701 29.368 10.7863 29.101 10.3474 28.7463C9.98734 28.4552 9.78834 28.1021 9.69463 27.7643C10.0033 28.053 10.4572 28.2986 10.9272 28.4799C11.4873 28.6959 12.0826 28.8254 12.5056 28.8254C13.7829 28.8254 14.4917 28.6177 15.0026 28.3582C15.227 28.2442 15.4122 28.1207 15.5876 28.0037C15.6108 27.9882 15.6338 27.9729 15.6568 27.9577C15.7844 27.873 15.909 27.7929 16.044 27.7217C15.8737 27.926 15.5727 28.2459 15.1509 28.5518C14.5239 29.0063 13.6325 29.4281 12.5074 29.3968Z" fill="#3C486B" stroke="#3C486B" stroke-width="0.126984"/>
<path d="M6.02986 23.9147C5.91366 25.1541 6.25386 26.2808 6.67825 27.0114C5.97105 26.33 4.92351 25.1169 4.37429 23.7227C4.04846 22.8956 3.95369 21.9374 4.01984 21.0507C4.08604 20.1635 4.31288 19.3547 4.62392 18.8258L4.62411 18.8259L4.62643 18.8211C5.7638 16.4517 7.62925 14.4586 9.68919 12.7472C11.5828 11.1741 13.6373 9.84173 15.4371 8.67457C15.5953 8.57202 15.7515 8.47074 15.9054 8.37069C19.5149 6.02442 24.8627 3.47725 28.1065 2.38015C27.8998 3.44559 27.3222 4.55424 26.5229 5.65211C25.6978 6.78554 24.6394 7.90349 23.5181 8.94555C21.3563 10.9546 18.9657 12.6768 17.5731 13.6802C17.5212 13.7175 17.4707 13.7539 17.4217 13.7892L13.3589 16.5507L9.29713 19.3114C7.02802 20.6543 6.1747 22.3698 6.02986 23.9147Z" fill="#3C486B" stroke="#3C486B" stroke-width="0.126984" stroke-linejoin="round"/>
<path d="M13.2972 20.8354C11.4581 22.0111 10.2169 23.0542 9.42358 23.9771C8.6303 24.9 8.28181 25.7064 8.23568 26.4073C8.15215 27.6765 9.05888 28.5651 10.0087 29.1474C8.96786 28.9357 7.84057 28.4069 7.061 27.4904C6.19649 26.474 5.75267 24.9727 6.34123 22.8743C6.70022 21.5943 7.94298 20.2559 9.65621 18.9634C11.3664 17.6731 13.5337 16.437 15.7228 15.3585C17.9116 14.2802 20.1204 13.3605 21.9126 12.7024C22.8087 12.3734 23.6001 12.11 24.2325 11.925C24.765 11.7692 25.1809 11.6702 25.451 11.6332C22.8979 15.1251 20.8118 16.3476 17.4063 18.3433C16.2214 19.0377 14.8768 19.8256 13.2972 20.8354Z" fill="#5A6B6B" stroke="#5A6B6B" stroke-width="0.126984"/>
<path d="M11.5834 24.4533C10.1711 25.2874 9.45556 26.1771 9.46417 27.0769C9.47229 27.925 10.1233 28.7468 11.3534 29.5049C10.8822 29.4425 10.221 29.2241 9.62877 28.8205C8.91773 28.336 8.31381 27.5901 8.2518 26.536C8.19346 25.5443 8.82504 24.6095 9.78866 23.7572C10.7502 22.9068 12.0287 22.1509 13.2339 21.5165C16.5491 19.7715 19.6704 18.3889 22.4803 18.0461C22.0664 18.7226 21.3848 19.3508 20.5444 19.938C19.6596 20.5563 18.6036 21.126 17.5096 21.6572C16.6402 22.0793 15.7484 22.4763 14.9005 22.8537C14.6814 22.9512 14.4653 23.0474 14.2532 23.1425C13.2217 23.6046 12.2857 24.0385 11.5834 24.4533Z" fill="#CFD9D8" stroke="#CFD9D8" stroke-width="0.126984"/>
</svg>
