<?xml version="1.0" standalone="no"?>
<!DOCTYPE svg PUBLIC "-//W3C//DTD SVG 20010904//EN"
 "http://www.w3.org/TR/2001/REC-SVG-20010904/DTD/svg10.dtd">
<svg version="1.0" xmlns="http://www.w3.org/2000/svg"
 width="18544.000000pt" height="5372.000000pt" viewBox="0 0 18544.000000 5372.000000"
 preserveAspectRatio="xMidYMid meet">

<g transform="translate(0.000000,5372.000000) scale(0.100000,-0.100000)"
fill="#000000" stroke="none">
<path d="M22885 37060 c-2124 -132 -4042 -927 -5620 -2329 -172 -152 -561
-542 -711 -711 -730 -824 -1276 -1703 -1679 -2705 -758 -1885 -867 -3966 -310
-5932 305 -1074 819 -2109 1494 -3002 80 -106 152 -201 158 -210 11 -15 -220
-248 -1893 -1906 -1048 -1040 -1928 -1919 -1955 -1955 -70 -91 -144 -247 -174
-363 -105 -415 58 -850 408 -1086 74 -51 223 -117 317 -142 72 -20 110 -23
250 -23 181 0 262 15 402 74 182 78 82 -18 2154 2053 l1921 1919 124 -97 c524
-412 1180 -808 1826 -1101 992 -451 2110 -732 3178 -800 l110 -7 80 -64 c298
-240 639 -390 1045 -460 100 -17 328 -18 4940 -21 3439 -2 4873 0 4965 8 611
51 1154 352 1516 839 193 259 317 549 380 891 l24 125 3 1475 c2 1038 0 1508
-8 1585 -17 163 -46 304 -96 454 -233 709 -830 1240 -1561 1390 -315 64 -446
58 -1400 -62 -409 -51 -743 -91 -743 -88 0 3 29 94 66 203 36 110 87 274 113
366 l48 167 2059 5 c1918 5 2066 7 2164 24 318 54 593 160 842 326 521 345
850 883 923 1508 22 191 22 2915 0 3107 -26 223 -91 451 -185 652 -161 344
-458 679 -779 877 -264 163 -544 263 -850 301 -269 34 -258 36 -2586 -254
-1155 -143 -2114 -263 -2130 -266 -30 -5 -31 -4 -99 132 -1046 2109 -2835
3721 -5036 4541 -804 299 -1634 480 -2535 552 -179 15 -976 21 -1160 10z m870
-2060 c547 -32 1041 -115 1562 -262 l182 -51 -21 -51 c-216 -538 -309 -974
-325 -1516 -20 -707 141 -1422 460 -2035 25 -49 45 -90 44 -91 -1 -1 -36 -19
-77 -39 -279 -140 -554 -397 -724 -677 -149 -244 -235 -507 -265 -807 -15
-140 -15 -1810 0 -1957 40 -416 206 -827 464 -1149 74 -93 210 -232 310 -315
238 -201 571 -366 886 -440 233 -54 204 -53 1483 -59 l1190 -6 43 -140 c105
-335 268 -934 257 -944 -3 -3 -593 -79 -1312 -168 -1395 -174 -1424 -177
-1512 -137 -26 12 -552 442 -1240 1015 -657 546 -1361 1131 -1565 1300 -245
204 -371 303 -373 293 -2 -8 22 -291 53 -627 30 -337 92 -1003 136 -1482 43
-478 81 -882 84 -896 4 -24 -1 -27 -68 -48 -40 -13 -128 -50 -197 -82 -574
-274 -965 -806 -1055 -1440 -12 -83 -15 -231 -15 -721 0 -575 -1 -618 -17
-618 -35 0 -375 73 -558 120 -621 160 -1208 399 -1785 728 -831 473 -1549
1110 -2136 1892 -483 644 -869 1397 -1108 2163 -471 1511 -426 3129 126 4617
241 648 612 1321 1020 1852 862 1119 2021 1951 3353 2408 577 197 1267 332
1895 369 199 12 610 12 805 1z m12618 -4078 c185 -67 322 -184 401 -344 81
-162 77 -70 74 -1658 l-3 -1405 -29 -84 c-75 -213 -251 -381 -471 -447 -58
-18 -247 -19 -4835 -22 -3379 -2 -4799 0 -4858 8 -253 33 -473 190 -582 415
-78 162 -74 98 -77 1068 -3 573 0 887 7 925 34 191 194 343 390 373 339 51
580 184 753 415 138 183 217 413 217 630 0 41 2 74 5 74 3 0 114 -91 247 -201
133 -111 277 -228 320 -260 191 -141 423 -243 684 -299 76 -17 145 -23 299
-26 l200 -4 3480 434 c3179 397 3490 435 3600 431 89 -2 135 -8 178 -23z
m-6263 -5379 c0 -11 -58 -166 -120 -323 -74 -184 -165 -386 -255 -565 -78
-154 -65 -143 -189 -159 l-48 -6 7 38 c18 103 140 539 267 955 l21 67 159 0
c87 0 158 -3 158 -7z m3804 -1973 c193 -49 354 -178 440 -350 81 -166 77 -62
74 -1658 l-3 -1417 -23 -65 c-42 -115 -90 -190 -181 -280 -92 -91 -175 -141
-296 -177 -57 -17 -275 -18 -4840 -21 -3503 -2 -4801 0 -4860 8 -336 48 -598
310 -645 646 -14 105 -14 1679 1 1760 25 139 127 273 252 333 45 22 97 36 169
46 259 38 462 137 632 308 187 188 290 422 303 690 3 64 8 117 9 117 2 0 113
-91 246 -202 287 -238 370 -301 481 -363 264 -149 551 -225 852 -226 166 -1
-139 -37 4825 581 1273 158 2354 288 2401 289 56 1 113 -6 163 -19z"/>
<path d="M31365 29329 c-3581 -388 -3771 -410 -3787 -430 -25 -30 -22 -61 6
-89 l25 -23 3792 410 c3672 397 3793 411 3811 433 10 12 18 33 18 45 0 28 -44
65 -74 64 -11 -1 -1717 -185 -3791 -410z"/>
<path d="M31740 28050 c-3626 -393 -3765 -409 -3782 -430 -28 -35 -19 -78 21
-100 14 -7 1048 101 3808 400 3613 390 3789 410 3806 431 38 47 6 110 -55 108
-18 -1 -1727 -185 -3798 -409z"/>
<path d="M29040 22040 c-2071 -224 -3776 -412 -3790 -417 -52 -18 -49 -105 4
-119 14 -3 1723 177 3798 401 3113 336 3777 410 3798 425 37 25 39 72 4 99
-15 11 -32 21 -38 20 -6 -1 -1705 -185 -3776 -409z"/>
<path d="M29395 20759 c-3581 -388 -3771 -410 -3787 -430 -24 -29 -23 -53 5
-85 l23 -27 3792 410 c4124 446 3832 410 3832 474 0 32 -41 70 -74 68 -11 -1
-1717 -185 -3791 -410z"/>
<path d="M52855 35109 c-1786 -66 -3387 -688 -4630 -1801 -166 -149 -493 -480
-621 -628 -762 -885 -1323 -1989 -1628 -3207 -142 -570 -223 -1100 -278 -1828
-18 -232 -18 -1347 0 -1580 35 -461 72 -786 132 -1142 184 -1088 525 -2044
1031 -2886 1133 -1885 2964 -3058 5219 -3341 1038 -131 2120 -85 3077 130
1329 298 2502 954 3351 1874 950 1029 1495 2282 1647 3785 37 367 38 413 42
1678 l4 1267 -3360 0 -3361 0 0 -1275 0 -1275 1727 0 1726 0 -6 -147 c-45
-1017 -489 -1887 -1242 -2432 -484 -351 -1080 -568 -1775 -645 -836 -94 -1643
5 -2289 281 -642 274 -1182 731 -1599 1355 -403 603 -693 1403 -816 2258 -64
441 -89 821 -89 1335 0 587 34 1019 119 1505 224 1289 811 2346 1659 2987 693
523 1601 784 2561 734 598 -31 1052 -141 1509 -367 336 -165 672 -416 905
-676 309 -344 558 -788 702 -1250 l33 -108 1723 0 c947 0 1722 4 1722 8 0 28
-57 344 -86 477 -279 1280 -979 2428 -2007 3288 -723 606 -1577 1051 -2552
1332 -613 176 -1217 269 -1925 295 -299 11 -315 11 -625 -1z"/>
<path d="M95140 35110 c-1849 -69 -3417 -677 -4475 -1735 -727 -727 -1128
-1555 -1240 -2566 -22 -195 -31 -700 -16 -904 36 -486 132 -905 296 -1289 194
-455 492 -863 877 -1202 623 -549 1393 -971 2353 -1290 366 -121 497 -157
1745 -469 624 -156 1232 -312 1350 -345 429 -122 870 -282 1145 -415 636 -309
990 -719 1064 -1230 15 -104 7 -422 -14 -535 -40 -220 -144 -469 -273 -650
-77 -108 -243 -285 -350 -373 -289 -236 -710 -433 -1146 -537 -357 -85 -685
-115 -1154 -107 -494 9 -846 60 -1246 182 -653 198 -1199 608 -1484 1113 -167
297 -282 680 -308 1033 l-7 89 -1638 0 -1639 0 0 -96 c0 -203 38 -597 86 -878
120 -716 362 -1353 717 -1886 493 -739 1218 -1339 2098 -1733 1073 -482 2396
-709 3884 -667 1612 46 2848 375 3880 1032 297 190 565 408 820 669 623 637
1014 1432 1150 2339 49 323 68 793 46 1090 -56 726 -227 1286 -572 1865 -362
609 -907 1128 -1644 1565 -517 307 -1185 584 -1920 795 -238 68 -339 94 -950
239 -1598 380 -1639 390 -1985 505 -633 211 -1106 486 -1375 801 -181 211
-278 407 -321 650 -22 125 -21 414 1 563 80 536 438 979 1008 1247 418 196
847 284 1437 297 993 21 1721 -199 2244 -678 325 -297 566 -790 612 -1251 l7
-68 1625 0 1625 0 -6 163 c-20 517 -131 1055 -313 1517 -567 1432 -1877 2486
-3634 2925 -696 174 -1549 255 -2360 225z"/>
<path d="M122755 31035 c-391 -48 -725 -148 -1030 -309 -698 -369 -1163 -936
-1446 -1766 l-62 -180 -63 0 -64 0 0 1050 0 1050 -1615 0 -1615 0 0 -6020 0
-6020 1665 0 1665 0 0 3428 c0 2122 4 3482 10 3572 32 475 157 867 387 1215
373 564 963 941 1659 1060 369 63 820 53 1389 -31 175 -26 435 -77 481 -94 14
-6 30 -10 35 -10 5 0 9 568 9 1479 l0 1479 -69 16 c-111 25 -238 45 -418 67
-218 27 -751 35 -918 14z"/>
<path d="M171505 31044 c-16 -2 -73 -9 -125 -15 -582 -66 -1141 -319 -1592
-723 -370 -330 -670 -817 -859 -1393 l-43 -133 -63 0 -63 0 0 1050 0 1050
-1620 0 -1620 0 0 -6020 0 -6020 1670 0 1670 0 0 3473 c0 2292 4 3513 10 3592
53 614 278 1112 690 1525 364 366 867 614 1407 694 261 40 527 42 913 10 296
-25 719 -92 884 -140 27 -8 53 -14 58 -14 4 0 8 665 8 1479 l0 1478 -102 22
c-294 62 -498 82 -873 86 -176 2 -333 1 -350 -1z"/>
<path d="M67660 31029 c-872 -45 -1673 -245 -2361 -590 -227 -113 -342 -180
-574 -334 -593 -394 -1087 -894 -1488 -1505 -523 -799 -849 -1729 -972 -2777
-45 -385 -50 -493 -50 -1028 0 -632 21 -909 106 -1420 274 -1645 1083 -2974
2316 -3803 273 -183 678 -397 983 -517 617 -245 1295 -387 2070 -435 213 -13
757 -13 986 0 986 57 1807 260 2555 635 569 284 1041 642 1429 1083 456 517
769 1117 937 1794 20 81 35 150 32 152 -4 4 -3019 206 -3067 206 -7 0 -23 -24
-35 -52 -161 -394 -439 -731 -787 -953 -304 -195 -702 -324 -1133 -370 -169
-17 -526 -20 -697 -5 -532 48 -991 216 -1370 501 -559 420 -903 1056 -1005
1854 -14 113 -35 409 -35 503 l0 42 4101 0 4101 0 -5 753 c-4 788 -9 889 -58
1292 -100 819 -305 1516 -640 2175 -252 495 -534 886 -913 1265 -581 580
-1223 968 -2051 1238 -736 240 -1535 340 -2375 296z m825 -2504 c278 -37 506
-105 750 -224 485 -237 836 -583 1072 -1056 155 -309 253 -719 253 -1057 l0
-108 -2526 0 -2527 0 7 103 c43 618 330 1232 777 1662 419 402 954 642 1549
694 145 13 501 5 645 -14z"/>
<path d="M80930 31030 c-1323 -72 -2416 -452 -3330 -1159 -642 -497 -1163
-1147 -1536 -1916 -293 -604 -493 -1286 -588 -2005 -115 -867 -94 -1815 60
-2640 113 -609 294 -1156 555 -1680 267 -537 578 -976 983 -1389 909 -924
2058 -1453 3466 -1596 514 -51 1210 -45 1710 15 1074 131 1985 488 2771 1086
1242 945 2012 2420 2189 4189 54 545 56 1168 5 1715 -105 1120 -440 2117 -992
2955 -462 700 -1052 1253 -1788 1675 -748 428 -1563 665 -2550 740 -193 15
-755 20 -955 10z m810 -2564 c221 -39 388 -90 570 -177 221 -106 408 -244 600
-445 502 -523 821 -1342 926 -2374 21 -214 30 -795 15 -1035 -32 -521 -106
-936 -242 -1361 -139 -434 -318 -782 -558 -1082 -413 -518 -934 -775 -1621
-799 -576 -20 -1087 137 -1480 454 -184 149 -407 407 -549 634 -464 745 -670
1814 -590 3054 65 1006 356 1837 840 2400 367 427 805 666 1359 740 146 19
598 14 730 -9z"/>
<path d="M109020 31033 c-1348 -59 -2421 -420 -3363 -1130 -369 -279 -750
-662 -1030 -1038 -670 -897 -1068 -1999 -1182 -3275 -68 -761 -29 -1612 106
-2310 210 -1085 621 -1980 1265 -2755 136 -164 461 -489 623 -625 727 -603
1524 -977 2486 -1164 498 -97 936 -132 1540 -123 396 5 586 19 915 63 1045
140 1959 527 2695 1140 852 711 1412 1737 1585 2905 24 166 50 412 50 479 l0
50 -1572 -2 -1571 -3 -23 -120 c-96 -524 -318 -963 -652 -1292 -313 -309 -729
-506 -1196 -568 -137 -18 -459 -20 -604 -4 -691 75 -1271 439 -1673 1052 -227
346 -397 780 -498 1267 -160 778 -156 1829 10 2580 55 245 101 397 191 627
156 399 366 731 628 994 456 457 1039 680 1715 655 460 -16 846 -134 1149
-351 489 -349 809 -875 930 -1530 l23 -120 1571 -3 1572 -2 0 54 c0 127 -49
524 -91 736 -154 777 -469 1443 -967 2043 -109 132 -367 392 -506 511 -817
698 -1869 1118 -3086 1231 -322 29 -747 41 -1040 28z"/>
<path d="M130335 31033 c-969 -38 -1781 -218 -2514 -558 -740 -342 -1361 -866
-1786 -1505 -221 -332 -358 -611 -485 -987 -74 -218 -148 -502 -132 -511 19
-12 3063 -256 3071 -246 4 5 20 45 35 89 85 248 237 487 432 680 423 420 934
605 1671 605 542 0 924 -104 1242 -338 269 -198 443 -480 521 -847 30 -140 39
-485 16 -595 -42 -197 -168 -357 -361 -457 -354 -183 -695 -249 -2045 -398
-1039 -115 -1170 -132 -1575 -211 -727 -143 -1156 -279 -1635 -518 -420 -211
-755 -455 -1007 -736 -315 -349 -545 -761 -661 -1185 -148 -538 -180 -1208
-87 -1824 82 -547 269 -1020 558 -1411 552 -747 1363 -1209 2441 -1390 581
-97 1280 -99 1856 -4 994 163 1811 651 2348 1401 84 118 194 294 233 376 l23
47 53 0 53 0 0 -835 0 -835 1580 0 1580 0 -3 4238 c-2 3949 -4 4247 -20 4382
-77 648 -222 1083 -518 1561 -227 366 -528 695 -874 954 -114 85 -407 285
-419 285 -3 0 -23 11 -44 24 -67 42 -365 193 -456 231 -49 20 -96 41 -105 45
-9 5 -60 25 -113 45 -53 19 -107 39 -120 44 -148 60 -620 185 -923 245 -572
112 -1235 163 -1830 139z m2112 -7355 c-4 -764 -6 -795 -48 -1003 -78 -378
-284 -750 -576 -1042 -374 -371 -860 -604 -1438 -690 -96 -14 -187 -18 -460
-18 -368 0 -424 3 -566 36 -52 11 -105 23 -119 25 -30 6 -103 30 -127 43 -34
17 -78 34 -98 38 -10 2 -22 8 -26 14 -3 6 -12 12 -20 13 -8 2 -23 6 -34 10
-89 32 -352 213 -434 298 -133 138 -266 377 -296 534 -33 172 -37 226 -32 404
12 400 113 647 371 906 225 225 534 386 991 515 206 58 436 102 840 159 1037
146 1642 283 1949 440 61 32 115 58 119 59 5 0 7 -333 4 -741z"/>
<path d="M144895 31029 c-277 -18 -564 -62 -803 -124 -476 -125 -982 -405
-1377 -762 -297 -268 -632 -718 -842 -1129 l-78 -154 -77 0 -78 0 0 1010 0
1010 -1645 0 -1645 0 0 -8275 0 -8275 1670 0 1670 0 0 3220 0 3220 53 0 52 0
59 -117 c162 -327 426 -699 686 -967 241 -250 499 -441 845 -629 382 -208 764
-322 1275 -383 180 -21 721 -30 917 -15 628 49 1175 197 1695 457 468 234 808
483 1178 860 423 431 734 900 1040 1564 98 214 107 235 120 288 8 28 18 52 24
52 5 0 6 3 3 7 -4 3 -3 11 2 17 12 14 71 205 71 228 0 10 5 18 11 18 6 0 9 6
6 14 -3 7 3 26 14 42 10 16 19 38 19 48 0 10 9 50 21 89 11 38 22 77 24 87 2
9 8 34 14 56 17 61 62 247 66 269 2 11 4 21 5 23 3 3 5 11 14 62 10 55 11 57
35 150 11 41 22 102 26 135 3 33 8 69 10 80 4 18 8 39 20 120 2 11 6 34 8 50
3 17 8 57 12 90 8 83 14 139 25 215 11 81 19 166 25 295 3 55 8 114 11 130 21
125 25 1027 5 1360 -57 980 -219 1781 -501 2486 -77 193 -263 570 -370 754
-507 866 -1125 1453 -1964 1866 -723 357 -1513 511 -2351 458z m-310 -2678
c66 -12 170 -35 231 -51 750 -200 1325 -812 1628 -1735 111 -337 182 -696 223
-1125 24 -259 24 -889 0 -1150 -150 -1602 -838 -2656 -1907 -2919 -176 -43
-308 -61 -510 -68 -721 -25 -1310 212 -1753 705 -481 534 -761 1281 -854 2272
-24 259 -24 900 0 1160 63 671 197 1179 438 1651 381 747 967 1177 1736 1274
171 22 614 14 768 -14z"/>
<path d="M157295 31029 c-589 -30 -1180 -138 -1690 -310 -1155 -389 -2139
-1168 -2787 -2204 -481 -769 -781 -1631 -907 -2605 -85 -652 -92 -1379 -20
-2055 140 -1330 585 -2446 1330 -3340 102 -122 347 -374 487 -501 855 -775
1967 -1237 3292 -1368 304 -30 547 -39 955 -33 400 5 578 16 915 58 2130 259
3713 1427 4276 3157 41 125 128 452 122 458 -3 2 -3035 204 -3069 204 -9 0
-25 -24 -39 -57 -125 -308 -330 -589 -581 -799 -310 -259 -723 -430 -1219
-505 -141 -22 -187 -24 -495 -24 -303 1 -356 3 -485 23 -343 54 -586 129 -850
263 -581 294 -1004 797 -1220 1449 -104 316 -170 728 -170 1067 l0 103 4101 0
4101 0 -5 713 c-5 690 -9 813 -43 1152 -85 867 -295 1626 -640 2316 -294 588
-654 1064 -1131 1494 -744 673 -1745 1121 -2864 1285 -421 61 -906 82 -1364
59z m825 -2504 c348 -47 657 -154 940 -325 394 -237 685 -554 886 -965 152
-313 232 -635 250 -1012 l7 -143 -2532 0 c-2018 0 -2531 3 -2531 13 1 56 34
310 54 410 109 536 393 1041 781 1389 435 389 954 608 1545 652 111 8 488 -4
600 -19z"/>
</g>
</svg>
