<svg width="2700" height="2700" viewBox="0 0 2700 2700" fill="none" xmlns="http://www.w3.org/2000/svg">
<g clip-path="url(#clip0_2558_3145)">
<path opacity="0.15" d="M663.65 1597.28C754.804 1597.28 828.7 1523.38 828.7 1432.23C828.7 1341.07 754.804 1267.18 663.65 1267.18C572.495 1267.18 498.6 1341.07 498.6 1432.23C498.6 1523.38 572.495 1597.28 663.65 1597.28Z" fill="#8ACEBC"/>
<g opacity="0.5">
<path d="M1100.28 2075.12H870.225C868.4 2075.12 866.925 2076.6 866.925 2078.42V2137.77V2197.12V2256.47C866.925 2258.3 868.4 2259.77 870.225 2259.77H1100.28C1102.1 2259.77 1103.58 2258.3 1103.58 2256.47V2197.12V2137.77V2078.42C1103.58 2076.62 1102.08 2075.12 1100.28 2075.12ZM873.525 2141.07H1096.98V2193.82H873.525V2141.07ZM873.525 2081.72H1096.98V2134.47H873.525V2081.72ZM1096.98 2253.15H873.525V2200.4H1096.98V2253.15Z" fill="white"/>
<path d="M1063.98 2100.08C1060.73 2100.08 1057.9 2102.03 1056.68 2104.8H952.75C950.925 2104.8 949.45 2106.28 949.45 2108.1C949.45 2109.93 950.925 2111.4 952.75 2111.4H1056.68C1057.95 2114.2 1060.73 2116.13 1063.98 2116.13C1068.43 2116.13 1072 2112.53 1072 2108.1C1072.03 2103.68 1068.43 2100.08 1063.98 2100.08Z" fill="white"/>
<path d="M919.675 2091.15C917.85 2091.15 916.375 2092.62 916.375 2094.45V2124.47C916.375 2126.3 917.85 2127.77 919.675 2127.77C921.5 2127.77 922.975 2126.3 922.975 2124.47V2094.45C922.975 2092.62 921.5 2091.15 919.675 2091.15Z" fill="white"/>
<path d="M905.4 2091.15C903.575 2091.15 902.1 2092.62 902.1 2094.45V2124.47C902.1 2126.3 903.575 2127.77 905.4 2127.77C907.225 2127.77 908.7 2126.3 908.7 2124.47V2094.45C908.7 2092.62 907.2 2091.15 905.4 2091.15Z" fill="white"/>
<path d="M891.1 2091.15C889.275 2091.15 887.8 2092.62 887.8 2094.45V2124.47C887.8 2126.3 889.275 2127.77 891.1 2127.77C892.925 2127.77 894.4 2126.3 894.4 2124.47V2094.45C894.425 2092.62 892.925 2091.15 891.1 2091.15Z" fill="white"/>
<path d="M1063.98 2159.4C1060.73 2159.4 1057.9 2161.35 1056.68 2164.12H952.75C950.925 2164.12 949.45 2165.6 949.45 2167.42C949.45 2169.25 950.925 2170.72 952.75 2170.72H1056.68C1057.95 2173.52 1060.73 2175.45 1063.98 2175.45C1068.43 2175.45 1072 2171.85 1072 2167.42C1072.03 2163.02 1068.43 2159.4 1063.98 2159.4Z" fill="white"/>
<path d="M919.675 2150.5C917.85 2150.5 916.375 2151.98 916.375 2153.8V2183.83C916.375 2185.65 917.85 2187.13 919.675 2187.13C921.5 2187.13 922.975 2185.65 922.975 2183.83V2153.8C922.975 2151.98 921.5 2150.5 919.675 2150.5Z" fill="white"/>
<path d="M905.4 2150.5C903.575 2150.5 902.1 2151.98 902.1 2153.8V2183.83C902.1 2185.65 903.575 2187.13 905.4 2187.13C907.225 2187.13 908.7 2185.65 908.7 2183.83V2153.8C908.7 2151.98 907.2 2150.5 905.4 2150.5Z" fill="white"/>
<path d="M891.1 2150.5C889.275 2150.5 887.8 2151.98 887.8 2153.8V2183.83C887.8 2185.65 889.275 2187.13 891.1 2187.13C892.925 2187.13 894.4 2185.65 894.4 2183.83V2153.8C894.425 2151.98 892.925 2150.5 891.1 2150.5Z" fill="white"/>
<path d="M952.725 2230.1H1056.65C1057.93 2232.9 1060.7 2234.82 1063.95 2234.82C1068.4 2234.82 1071.98 2231.22 1071.98 2226.8C1071.98 2222.35 1068.38 2218.77 1063.95 2218.77C1060.7 2218.77 1057.88 2220.72 1056.65 2223.5H952.725C950.9 2223.5 949.425 2224.97 949.425 2226.8C949.425 2228.62 950.925 2230.1 952.725 2230.1Z" fill="white"/>
<path d="M919.675 2246.5C921.5 2246.5 922.975 2245.03 922.975 2243.2V2213.18C922.975 2211.35 921.5 2209.88 919.675 2209.88C917.85 2209.88 916.375 2211.35 916.375 2213.18V2243.2C916.375 2245.03 917.85 2246.5 919.675 2246.5Z" fill="white"/>
<path d="M905.4 2246.5C907.225 2246.5 908.7 2245.03 908.7 2243.2V2213.18C908.7 2211.35 907.225 2209.88 905.4 2209.88C903.575 2209.88 902.1 2211.35 902.1 2213.18V2243.2C902.075 2245.03 903.55 2246.5 905.4 2246.5Z" fill="white"/>
<path d="M891.1 2246.5C892.925 2246.5 894.4 2245.03 894.4 2243.2V2213.18C894.4 2211.35 892.925 2209.88 891.1 2209.88C889.275 2209.88 887.8 2211.35 887.8 2213.18V2243.2C887.8 2245.03 889.275 2246.5 891.1 2246.5Z" fill="white"/>
</g>
<path d="M349.325 1483.92C348.675 1483.92 348 1483.8 347.375 1483.5C345 1482.42 343.95 1479.62 345.025 1477.25C348.35 1469.92 351.875 1462.42 355.5 1454.92C356.625 1452.57 359.45 1451.6 361.8 1452.72C364.15 1453.85 365.125 1456.67 364 1459.02C360.425 1466.45 356.925 1473.9 353.625 1481.17C352.85 1482.9 351.125 1483.92 349.325 1483.92Z" fill="#E6E6E6"/>
<path d="M382.1 1417.8C381.35 1417.8 380.575 1417.62 379.875 1417.25C377.575 1416.02 376.7 1413.15 377.95 1410.85C385.7 1396.37 393.875 1381.87 402.225 1367.75C403.55 1365.5 406.45 1364.75 408.7 1366.1C410.95 1367.42 411.675 1370.32 410.35 1372.57C402.05 1386.6 393.95 1400.97 386.275 1415.35C385.425 1416.9 383.8 1417.8 382.1 1417.8ZM432.25 1333C431.375 1333 430.475 1332.75 429.675 1332.22C427.5 1330.8 426.875 1327.87 428.3 1325.7C437.25 1311.95 446.6 1298.17 456.125 1284.8C457.65 1282.67 460.575 1282.17 462.7 1283.7C464.825 1285.22 465.325 1288.15 463.8 1290.27C454.35 1303.55 445.075 1317.2 436.2 1330.85C435.325 1332.25 433.8 1333 432.25 1333ZM489.375 1252.72C488.375 1252.72 487.35 1252.4 486.475 1251.72C484.425 1250.12 484.05 1247.15 485.65 1245.1C495.725 1232.15 506.2 1219.22 516.8 1206.7C518.475 1204.7 521.475 1204.45 523.45 1206.15C525.45 1207.82 525.7 1210.82 524 1212.8C513.475 1225.22 503.075 1238.05 493.1 1250.9C492.175 1252.1 490.775 1252.72 489.375 1252.72ZM553 1177.57C551.85 1177.57 550.7 1177.15 549.8 1176.32C547.875 1174.55 547.75 1171.57 549.525 1169.65C560.625 1157.6 572.15 1145.6 583.775 1134C585.625 1132.15 588.6 1132.15 590.45 1134C592.3 1135.85 592.3 1138.82 590.45 1140.67C578.925 1152.2 567.5 1164.1 556.475 1176.05C555.525 1177.05 554.275 1177.57 553 1177.57ZM622.675 1108C621.4 1108 620.125 1107.47 619.2 1106.47C617.425 1104.55 617.575 1101.57 619.475 1099.8C631.55 1088.7 644.05 1077.7 656.575 1067.12C658.575 1065.45 661.55 1065.7 663.225 1067.67C664.9 1069.67 664.65 1072.65 662.675 1074.32C650.25 1084.82 637.875 1095.72 625.875 1106.72C624.95 1107.57 623.8 1108 622.675 1108ZM697.875 1044.47C696.475 1044.47 695.075 1043.85 694.15 1042.65C692.55 1040.6 692.925 1037.62 695 1036.02C707.975 1025.97 721.325 1016.07 734.675 1006.57C736.8 1005.07 739.75 1005.55 741.25 1007.7C742.75 1009.82 742.25 1012.77 740.125 1014.27C726.875 1023.7 713.625 1033.52 700.75 1043.5C699.9 1044.15 698.9 1044.47 697.875 1044.47ZM778.125 987.475C776.575 987.475 775.075 986.725 774.15 985.325C772.725 983.125 773.35 980.2 775.55 978.8C789.3 969.875 803.425 961.1 817.55 952.75C819.8 951.425 822.7 952.175 824.025 954.4C825.35 956.65 824.6 959.55 822.375 960.875C808.375 969.15 794.35 977.85 780.725 986.7C779.9 987.225 779 987.475 778.125 987.475ZM862.8 937.375C861.125 937.375 859.475 936.475 858.625 934.875C857.4 932.575 858.25 929.725 860.55 928.475C875 920.725 889.825 913.175 904.55 906.025C906.9 904.9 909.725 905.875 910.85 908.225C911.975 910.575 911 913.4 908.65 914.525C894.025 921.6 879.325 929.1 865 936.775C864.325 937.175 863.55 937.375 862.8 937.375ZM951.375 894.525C949.55 894.525 947.8 893.45 947.05 891.675C946.025 889.275 947.125 886.5 949.5 885.475C964.55 878.975 979.925 872.675 995.225 866.8C997.65 865.875 1000.4 867.075 1001.32 869.525C1002.25 871.95 1001.05 874.7 998.6 875.625C983.425 881.45 968.15 887.675 953.25 894.15C952.625 894.4 952 894.525 951.375 894.525ZM1043.17 859.275C1041.2 859.275 1039.37 858.025 1038.7 856.05C1037.87 853.575 1039.2 850.9 1041.67 850.075C1057.22 844.85 1073.07 839.875 1088.8 835.325C1091.3 834.6 1093.92 836.05 1094.65 838.55C1095.37 841.05 1093.92 843.675 1091.42 844.4C1075.82 848.925 1060.1 853.85 1044.67 859.025C1044.2 859.2 1043.67 859.275 1043.17 859.275ZM1769.25 852.7C1768.77 852.7 1768.3 852.625 1767.82 852.475C1752.3 847.6 1736.45 842.975 1720.75 838.775C1718.22 838.1 1716.75 835.5 1717.42 833C1718.1 830.475 1720.7 829 1723.2 829.675C1739.05 833.925 1755.02 838.575 1770.67 843.5C1773.17 844.275 1774.55 846.925 1773.77 849.425C1773.1 851.4 1771.25 852.7 1769.25 852.7ZM1137.6 831.9C1135.47 831.9 1133.55 830.45 1133.02 828.3C1132.4 825.775 1133.95 823.2 1136.5 822.6C1152.4 818.7 1168.62 815.1 1184.67 811.875C1187.22 811.35 1189.72 813.025 1190.22 815.575C1190.75 818.125 1189.07 820.625 1186.52 821.125C1170.6 824.325 1154.52 827.9 1138.72 831.75C1138.35 831.85 1137.97 831.9 1137.6 831.9ZM1674.15 827.15C1673.8 827.15 1673.45 827.125 1673.12 827.025C1657.25 823.475 1641.1 820.2 1625.05 817.3C1622.47 816.825 1620.77 814.375 1621.25 811.825C1621.72 809.25 1624.15 807.55 1626.72 808.025C1642.87 810.95 1659.17 814.225 1675.17 817.825C1677.72 818.4 1679.32 820.925 1678.75 823.475C1678.27 825.675 1676.32 827.15 1674.15 827.15ZM1233.97 812.575C1231.7 812.575 1229.67 810.9 1229.32 808.575C1228.92 806 1230.67 803.575 1233.25 803.175C1249.4 800.65 1265.85 798.425 1282.12 796.55C1284.7 796.25 1287.05 798.125 1287.35 800.7C1287.65 803.275 1285.77 805.625 1283.2 805.925C1267.05 807.775 1250.72 809.975 1234.7 812.475C1234.45 812.55 1234.2 812.575 1233.97 812.575ZM1577.27 809.675C1577.05 809.675 1576.85 809.65 1576.62 809.625C1566.92 808.275 1557.02 807.05 1547.22 805.95C1540.85 805.225 1534.35 804.55 1527.92 803.925C1525.32 803.675 1523.42 801.375 1523.67 798.775C1523.92 796.175 1526.22 794.275 1528.82 794.525C1535.3 795.15 1541.85 795.825 1548.27 796.55C1558.15 797.65 1568.12 798.9 1577.92 800.25C1580.5 800.6 1582.32 803 1581.95 805.575C1581.62 807.95 1579.6 809.675 1577.27 809.675ZM1331.67 801.45C1329.22 801.45 1327.15 799.55 1326.97 797.075C1326.8 794.475 1328.75 792.225 1331.35 792.025C1347.7 790.85 1364.32 790.025 1380.7 789.55C1383.32 789.5 1385.47 791.525 1385.55 794.125C1385.62 796.725 1383.57 798.9 1380.97 798.975C1364.7 799.45 1348.25 800.275 1332 801.425C1331.9 801.45 1331.77 801.45 1331.67 801.45ZM1479.27 800.25C1479.2 800.25 1479.1 800.25 1479.02 800.25C1462.77 799.35 1446.27 798.8 1430.02 798.6C1427.42 798.575 1425.32 796.425 1425.37 793.825C1425.4 791.25 1427.52 789.175 1430.1 789.175C1430.12 789.175 1430.15 789.175 1430.15 789.175C1446.55 789.375 1463.17 789.95 1479.55 790.85C1482.15 791 1484.15 793.225 1484 795.825C1483.85 798.3 1481.77 800.25 1479.27 800.25Z" fill="#E6E6E6"/>
<path d="M1839.4 877.199C1838.82 877.199 1838.25 877.099 1837.7 876.874C1830.67 874.149 1823.17 871.349 1814.8 868.324C1812.35 867.424 1811.07 864.724 1811.97 862.274C1812.87 859.824 1815.57 858.549 1818.02 859.449C1826.47 862.499 1834.02 865.324 1841.1 868.074C1843.52 869.024 1844.75 871.749 1843.8 874.174C1843.07 876.049 1841.3 877.199 1839.4 877.199Z" fill="#E6E6E6"/>
<path d="M985.25 1503.25C984.875 1503.25 984.525 1503.2 984.15 1503.13C981.625 1502.53 980.05 1499.98 980.65 1497.43C982.525 1489.58 984.6 1481.53 986.775 1473.5C987.475 1470.98 990.05 1469.5 992.575 1470.2C995.1 1470.9 996.575 1473.48 995.875 1476C993.7 1483.95 991.675 1491.9 989.8 1499.63C989.3 1501.8 987.375 1503.25 985.25 1503.25Z" fill="#E6E6E6"/>
<path d="M1006.13 1432.22C1005.6 1432.22 1005.08 1432.15 1004.55 1431.95C1002.1 1431.07 1000.8 1428.4 1001.65 1425.92C1007.12 1410.32 1013.22 1394.7 1019.77 1379.5C1020.8 1377.1 1023.58 1376 1025.98 1377.02C1028.38 1378.05 1029.47 1380.82 1028.45 1383.22C1022 1398.22 1015.98 1413.62 1010.58 1429.02C1009.9 1431.02 1008.08 1432.22 1006.13 1432.22ZM1045.27 1341.35C1044.55 1341.35 1043.8 1341.17 1043.12 1340.82C1040.8 1339.62 1039.9 1336.77 1041.1 1334.47C1048.67 1319.77 1056.85 1305.15 1065.43 1290.97C1066.78 1288.75 1069.68 1288.02 1071.9 1289.37C1074.13 1290.72 1074.85 1293.62 1073.5 1295.85C1065.05 1309.82 1056.97 1324.27 1049.5 1338.77C1048.62 1340.42 1046.97 1341.35 1045.27 1341.35ZM1096.47 1256.7C1095.52 1256.7 1094.6 1256.42 1093.78 1255.85C1091.65 1254.35 1091.12 1251.4 1092.62 1249.27C1102.12 1235.75 1112.22 1222.37 1122.65 1209.52C1124.3 1207.5 1127.27 1207.17 1129.3 1208.82C1131.32 1210.47 1131.65 1213.45 1130 1215.47C1119.72 1228.17 1109.75 1241.37 1100.37 1254.72C1099.42 1256 1097.97 1256.7 1096.47 1256.7ZM1158.78 1179.82C1157.63 1179.82 1156.47 1179.4 1155.55 1178.55C1153.65 1176.77 1153.52 1173.77 1155.3 1171.87C1166.57 1159.75 1178.4 1147.87 1190.45 1136.57C1192.35 1134.8 1195.35 1134.87 1197.13 1136.8C1198.9 1138.7 1198.83 1141.7 1196.9 1143.47C1185 1154.62 1173.33 1166.35 1162.2 1178.32C1161.3 1179.32 1160.03 1179.82 1158.78 1179.82ZM1230.95 1112.15C1229.58 1112.15 1228.23 1111.55 1227.3 1110.42C1225.65 1108.4 1225.95 1105.42 1227.97 1103.77C1240.77 1093.32 1254.12 1083.15 1267.62 1073.6C1269.75 1072.1 1272.7 1072.6 1274.2 1074.72C1275.7 1076.85 1275.2 1079.8 1273.08 1081.3C1259.75 1090.72 1246.6 1100.75 1233.95 1111.07C1233.05 1111.8 1232 1112.15 1230.95 1112.15ZM1311.67 1054.97C1310.07 1054.97 1308.52 1054.17 1307.65 1052.7C1306.3 1050.47 1307 1047.57 1309.22 1046.2C1323.35 1037.6 1337.95 1029.37 1352.62 1021.75C1354.95 1020.55 1357.8 1021.45 1359 1023.77C1360.2 1026.1 1359.3 1028.95 1356.97 1030.15C1342.5 1037.65 1328.08 1045.77 1314.13 1054.27C1313.38 1054.75 1312.52 1054.97 1311.67 1054.97ZM1399.5 1009.45C1397.67 1009.45 1395.93 1008.37 1395.18 1006.6C1394.15 1004.2 1395.22 1001.42 1397.62 1000.4C1412.8 993.824 1428.4 987.699 1443.98 982.174C1446.43 981.299 1449.12 982.599 1450 985.049C1450.87 987.499 1449.57 990.199 1447.12 991.074C1431.75 996.524 1416.35 1002.57 1401.37 1009.05C1400.77 1009.32 1400.12 1009.45 1399.5 1009.45ZM1492.75 976.474C1490.67 976.474 1488.78 975.099 1488.2 973.024C1487.5 970.499 1488.98 967.899 1491.48 967.199C1507.4 962.774 1523.7 958.849 1539.9 955.549C1542.45 955.024 1544.95 956.674 1545.47 959.224C1546 961.774 1544.35 964.274 1541.8 964.799C1525.8 968.074 1509.72 971.949 1494 976.299C1493.6 976.424 1493.17 976.474 1492.75 976.474ZM1589.67 956.624C1587.35 956.624 1585.32 954.899 1585 952.524C1584.65 949.949 1586.47 947.574 1589.05 947.224C1601.55 945.549 1614.3 944.174 1626.93 943.124C1630.83 942.799 1634.73 942.524 1638.63 942.249C1641.2 942.074 1643.48 944.049 1643.65 946.649C1643.83 949.249 1641.85 951.499 1639.25 951.674C1635.4 951.924 1631.55 952.224 1627.7 952.524C1615.25 953.549 1602.68 954.899 1590.33 956.574C1590.08 956.599 1589.87 956.624 1589.67 956.624ZM1737.88 951.874C1737.75 951.874 1737.65 951.874 1737.52 951.874C1721.27 950.724 1704.72 950.124 1688.37 950.099C1685.77 950.099 1683.65 947.974 1683.65 945.374C1683.65 942.774 1685.77 940.649 1688.37 940.649C1704.95 940.674 1721.7 941.274 1738.18 942.449C1740.78 942.624 1742.73 944.899 1742.55 947.499C1742.4 949.974 1740.33 951.874 1737.88 951.874Z" fill="#E6E6E6"/>
<path d="M1811.58 960.925C1811.3 960.925 1811.03 960.9 1810.75 960.85C1802.6 959.425 1794.5 958.125 1786.65 957.05C1784.08 956.7 1782.28 954.3 1782.63 951.725C1782.98 949.15 1785.38 947.35 1787.95 947.7C1795.9 948.8 1804.13 950.1 1812.38 951.55C1814.95 952 1816.65 954.45 1816.2 957.025C1815.8 959.3 1813.83 960.925 1811.58 960.925Z" fill="#E6E6E6"/>
<path d="M1052.23 1222.4L1126.53 1243.88L1141.88 1295.88L1015.78 1325.13L1002.6 1280.38L1052.23 1222.4Z" fill="#8EAFBF"/>
<path d="M1106.25 1214.26L1002.27 1244.89L1024.63 1320.77L1128.61 1290.13L1106.25 1214.26Z" fill="#F2F2F2"/>
<path d="M1099.66 1228.99L1017.04 1253.33L1017.4 1254.55L1100.02 1230.21L1099.66 1228.99Z" fill="#8A8B8B"/>
<path d="M1102.66 1239.22L1020.04 1263.56L1020.4 1264.78L1103.02 1240.44L1102.66 1239.22Z" fill="#8A8B8B"/>
<path d="M1105.68 1249.44L1023.06 1273.78L1023.42 1275L1106.04 1250.66L1105.68 1249.44Z" fill="#8A8B8B"/>
<path d="M1108.68 1259.67L1026.06 1284.01L1026.42 1285.23L1109.04 1260.89L1108.68 1259.67Z" fill="#8A8B8B"/>
<path d="M1111.71 1269.89L1029.09 1294.23L1029.45 1295.45L1112.07 1271.11L1111.71 1269.89Z" fill="#8A8B8B"/>
<path d="M1114.71 1280.12L1032.09 1304.46L1032.45 1305.68L1115.07 1281.34L1114.71 1280.12Z" fill="#8A8B8B"/>
<path d="M1147.33 1314.43L1023.38 1350.93L1002.6 1280.38L1071.08 1284.17L1126.53 1243.88L1147.33 1314.43Z" fill="#A6D8F7"/>
<path d="M1510.15 1884.73L1400.6 1829.95V1856.53H1144.32V1912.95H1400.6V1939.5L1510.15 1884.73Z" fill="#A6D8F7"/>
<path d="M1144.32 1994.25L1253.87 2049.02V2022.47H1510.15V1966.02H1253.87V1939.5L1144.32 1994.25Z" fill="#A6D8F7"/>
<path d="M1285.87 981.351L1510.15 915.276L1503.32 892.176L1293.85 953.876L1285.87 981.351Z" fill="#DDB510"/>
<path d="M1478.51 839.377L1307.91 889.639L1376.78 1123.4L1547.38 1073.14L1478.51 839.377Z" fill="#F2F2F2"/>
<path d="M1469.25 866.272L1339.06 904.629L1339.86 907.339L1470.05 868.982L1469.25 866.272Z" fill="#8A8B8B"/>
<path d="M1476.05 889.243L1345.86 927.601L1346.66 930.31L1476.85 891.953L1476.05 889.243Z" fill="#8A8B8B"/>
<path d="M1482.8 912.219L1352.61 950.576L1353.41 953.286L1483.6 914.929L1482.8 912.219Z" fill="#8A8B8B"/>
<path d="M1509.72 1003.65L1379.53 1042.01L1380.33 1044.72L1510.52 1006.36L1509.72 1003.65Z" fill="#8A8B8B"/>
<path d="M1516.55 1026.77L1386.36 1065.13L1387.16 1067.84L1517.35 1029.48L1516.55 1026.77Z" fill="#8A8B8B"/>
<path d="M1489.58 935.222L1359.39 973.579L1360.19 976.289L1490.38 937.932L1489.58 935.222Z" fill="#8A8B8B"/>
<path d="M1496.35 958.196L1366.16 996.553L1366.96 999.263L1497.15 960.905L1496.35 958.196Z" fill="#8A8B8B"/>
<path d="M1503.13 981.169L1372.93 1019.53L1373.73 1022.24L1503.92 983.879L1503.13 981.169Z" fill="#8A8B8B"/>
<path d="M1566.33 1092.43L1321.5 1164.58L1266.07 987.203L1516.72 913.353L1566.33 1092.43Z" fill="#FED710"/>
<path d="M824.55 805.025C818.7 805.025 813.925 809.775 813.925 815.65V1034.95C813.925 1040.8 818.675 1045.58 824.55 1045.58H969.825C975.675 1045.58 980.45 1040.83 980.45 1034.95V824.225L961.65 805L824.55 805.025Z" fill="#F2F2F2"/>
<path d="M951.025 998.898H843.325V1006.75H951.025V998.898Z" fill="#666666"/>
<path d="M951.025 967.9H843.325V975.75H951.025V967.9Z" fill="#666666"/>
<path d="M951.025 936.875H843.325V944.725H951.025V936.875Z" fill="#666666"/>
<path d="M951.025 905.85H843.325V913.7H951.025V905.85Z" fill="#666666"/>
<path d="M951.025 874.824H843.325V882.674H951.025V874.824Z" fill="#666666"/>
<path d="M884.825 843.799H843.325V851.649H884.825V843.799Z" fill="#666666"/>
<path d="M980.675 824.225L961.65 805.225V824.225H980.675Z" fill="#CCCCCC"/>
<path d="M501.875 1034.13C496.9 1034.13 492.85 1038.18 492.85 1043.15V1229.83C492.85 1234.8 496.9 1238.85 501.875 1238.85H625.55C630.525 1238.85 634.575 1234.8 634.575 1229.83V1050.5L618.575 1034.15L501.875 1034.13Z" fill="#F2F2F2"/>
<path d="M609.55 1199.15H517.85V1205.83H609.55V1199.15Z" fill="#666666"/>
<path d="M609.55 1172.75H517.85V1179.43H609.55V1172.75Z" fill="#666666"/>
<path d="M609.55 1146.35H517.85V1153.02H609.55V1146.35Z" fill="#666666"/>
<path d="M609.55 1119.93H517.85V1126.6H609.55V1119.93Z" fill="#666666"/>
<path d="M609.55 1093.53H517.85V1100.2H609.55V1093.53Z" fill="#666666"/>
<path d="M553.175 1067.13H517.85V1073.8H553.175V1067.13Z" fill="#666666"/>
<path d="M634.75 1050.48L618.55 1034.3V1050.48H634.75Z" fill="#CCCCCC"/>
<path d="M313.375 1363.02C309.25 1363.02 305.85 1366.37 305.85 1370.55V1525.87C305.85 1530 309.2 1533.4 313.375 1533.4H416.275C420.4 1533.4 423.8 1530.05 423.8 1525.87V1376.67L410.475 1363.05L313.375 1363.02Z" fill="#F2F2F2"/>
<path d="M402.976 1500.32H326.701V1505.9H402.976V1500.32Z" fill="#666666"/>
<path d="M402.976 1478.37H326.701V1483.95H402.976V1478.37Z" fill="#666666"/>
<path d="M402.976 1456.4H326.701V1461.97H402.976V1456.4Z" fill="#666666"/>
<path d="M402.976 1434.42H326.701V1440H402.976V1434.42Z" fill="#666666"/>
<path d="M402.976 1412.45H326.701V1418.02H402.976V1412.45Z" fill="#666666"/>
<path d="M356.101 1390.5H326.701V1396.07H356.101V1390.5Z" fill="#666666"/>
<path d="M423.926 1376.65L410.476 1363.17V1376.65H423.926Z" fill="#CCCCCC"/>
<path opacity="0.05" d="M2351 528.323C2410.39 528.323 2458.53 480.183 2458.53 420.798C2458.53 361.414 2410.39 313.273 2351 313.273C2291.62 313.273 2243.48 361.414 2243.48 420.798C2243.48 480.183 2291.62 528.323 2351 528.323Z" fill="#8ACEBC"/>
<path d="M2187.53 553.2H2219.83C2267.25 553.2 2305.73 514.75 2305.73 467.3C2305.73 419.85 2267.28 381.4 2219.83 381.4C2208.35 381.4 2197.45 383.65 2187.43 387.725C2186.4 341.175 2148.35 303.75 2101.55 303.75C2054.75 303.75 2016.7 341.175 2015.68 387.725C2005.68 383.65 1994.75 381.4 1983.28 381.4C1935.85 381.4 1897.38 419.85 1897.38 467.3C1897.38 514.75 1935.83 553.2 1983.28 553.2H2015.55" fill="#A6D8F7"/>
<path d="M2105.2 516.75V576.625H2081.45L2119.15 614.325L2156.88 576.625H2133.13V516.75" fill="white"/>
<path d="M2070 565.4V505.625H2046.25L2083.95 467.925L2121.65 505.625H2097.92V565.325" fill="white"/>
<path d="M2028.8 669.226C2022.95 669.226 2018.18 673.976 2018.18 679.851V899.151C2018.18 905.001 2022.93 909.776 2028.8 909.776H2174.08C2179.93 909.776 2184.7 905.026 2184.7 899.151V688.451L2165.9 669.226H2028.8Z" fill="#F2F2F2"/>
<path d="M2155.28 863.1H2047.58V870.95H2155.28V863.1Z" fill="#666666"/>
<path d="M2155.28 832.102H2047.58V839.952H2155.28V832.102Z" fill="#666666"/>
<path d="M2155.28 801.076H2047.58V808.926H2155.28V801.076Z" fill="#666666"/>
<path d="M2155.28 770.051H2047.58V777.901H2155.28V770.051Z" fill="#666666"/>
<path d="M2155.28 739.025H2047.58V746.875H2155.28V739.025Z" fill="#666666"/>
<path d="M2089.08 708H2047.58V715.85H2089.08V708Z" fill="#666666"/>
<path d="M2184.92 688.451L2165.9 669.426V688.451H2184.92Z" fill="#CCCCCC"/>
<path d="M737.4 2375.73C737.4 2375.73 737.15 2381.93 734.775 2383.6V2375.73H737.4Z" fill="#E6F2FF"/>
<path d="M2264.55 1100.35H1694.45V2429.3H2264.55V1100.35Z" fill="#4D4D4D"/>
<path d="M2264.55 1100.35L2378.33 1036.53V2314.75L2264.55 2429.28V1100.35Z" fill="#333333"/>
<path d="M1694.45 1100.35L1861.18 1036.53H2378.33L2264.55 1100.35H1694.45Z" fill="#808080"/>
<path d="M2217.28 1162.93H1741.75V1273.28H2217.28V1162.93Z" fill="#666666"/>
<path d="M2175.15 1186.15H1937.38V1250.08H2175.15V1186.15Z" fill="#808080"/>
<path d="M1874.55 1239.5C1886.37 1239.5 1895.95 1229.92 1895.95 1218.1C1895.95 1206.28 1886.37 1196.7 1874.55 1196.7C1862.73 1196.7 1853.15 1206.28 1853.15 1218.1C1853.15 1229.92 1862.73 1239.5 1874.55 1239.5Z" fill="#218C74"/>
<path d="M1805.28 1239.5C1817.09 1239.5 1826.68 1229.92 1826.68 1218.1C1826.68 1206.28 1817.09 1196.7 1805.28 1196.7C1793.46 1196.7 1783.88 1206.28 1783.88 1218.1C1783.88 1229.92 1793.46 1239.5 1805.28 1239.5Z" fill="#CC2E2E"/>
<path d="M2217.28 1315.9H1741.75V1426.25H2217.28V1315.9Z" fill="#666666"/>
<path d="M2175.15 1339.1H1937.38V1403.03H2175.15V1339.1Z" fill="#808080"/>
<path d="M1874.55 1392.48C1886.37 1392.48 1895.95 1382.89 1895.95 1371.08C1895.95 1359.26 1886.37 1349.68 1874.55 1349.68C1862.73 1349.68 1853.15 1359.26 1853.15 1371.08C1853.15 1382.89 1862.73 1392.48 1874.55 1392.48Z" fill="#218C74"/>
<path d="M1805.28 1392.48C1817.09 1392.48 1826.68 1382.89 1826.68 1371.08C1826.68 1359.26 1817.09 1349.68 1805.28 1349.68C1793.46 1349.68 1783.88 1359.26 1783.88 1371.08C1783.88 1382.89 1793.46 1392.48 1805.28 1392.48Z" fill="#CC2E2E"/>
<path d="M2217.28 1468.88H1741.75V1579.23H2217.28V1468.88Z" fill="#666666"/>
<path d="M2175.15 1492.05H1937.38V1555.98H2175.15V1492.05Z" fill="#808080"/>
<path d="M1874.55 1545.43C1886.37 1545.43 1895.95 1535.85 1895.95 1524.03C1895.95 1512.21 1886.37 1502.63 1874.55 1502.63C1862.73 1502.63 1853.15 1512.21 1853.15 1524.03C1853.15 1535.85 1862.73 1545.43 1874.55 1545.43Z" fill="#218C74"/>
<path d="M1805.28 1545.43C1817.09 1545.43 1826.68 1535.85 1826.68 1524.03C1826.68 1512.21 1817.09 1502.63 1805.28 1502.63C1793.46 1502.63 1783.88 1512.21 1783.88 1524.03C1783.88 1535.85 1793.46 1545.43 1805.28 1545.43Z" fill="#CC2E2E"/>
<path d="M2217.28 1621.8H1741.75V1732.15H2217.28V1621.8Z" fill="#666666"/>
<path d="M2175.15 1645.03H1937.38V1708.95H2175.15V1645.03Z" fill="#808080"/>
<path d="M1874.55 1698.4C1886.37 1698.4 1895.95 1688.82 1895.95 1677C1895.95 1665.18 1886.37 1655.6 1874.55 1655.6C1862.73 1655.6 1853.15 1665.18 1853.15 1677C1853.15 1688.82 1862.73 1698.4 1874.55 1698.4Z" fill="#218C74"/>
<path d="M1805.28 1698.4C1817.09 1698.4 1826.68 1688.82 1826.68 1677C1826.68 1665.18 1817.09 1655.6 1805.28 1655.6C1793.46 1655.6 1783.88 1665.18 1783.88 1677C1783.88 1688.82 1793.46 1698.4 1805.28 1698.4Z" fill="#CC2E2E"/>
<path d="M2217.28 1774.78H1741.75V1885.13H2217.28V1774.78Z" fill="#666666"/>
<path d="M2175.15 1798H1937.38V1861.93H2175.15V1798Z" fill="#808080"/>
<path d="M1874.55 1851.35C1886.37 1851.35 1895.95 1841.77 1895.95 1829.95C1895.95 1818.13 1886.37 1808.55 1874.55 1808.55C1862.73 1808.55 1853.15 1818.13 1853.15 1829.95C1853.15 1841.77 1862.73 1851.35 1874.55 1851.35Z" fill="#218C74"/>
<path d="M1805.28 1851.35C1817.09 1851.35 1826.68 1841.77 1826.68 1829.95C1826.68 1818.13 1817.09 1808.55 1805.28 1808.55C1793.46 1808.55 1783.88 1818.13 1783.88 1829.95C1783.88 1841.77 1793.46 1851.35 1805.28 1851.35Z" fill="#CC2E2E"/>
<path d="M700.575 2392.32C700.575 2392.32 678.175 2448.25 677.125 2467.55C676.525 2478.87 677.875 2482.77 681.725 2484.7C684.675 2486.17 722.8 2486.52 740.35 2486.6C745.725 2486.62 750.25 2482.65 751.025 2477.32C751.6 2473.35 750.925 2465.3 750.275 2461.87C748.6 2453.22 741.675 2411.85 738.725 2393.65C738.075 2389.55 734.525 2386.55 730.35 2386.55H708.6C704.975 2386.57 701.75 2388.9 700.575 2392.32Z" fill="#333333"/>
<path d="M731.05 2398.33C723.975 2403.1 714.625 2402.9 707.75 2397.78L704 2367.48H734.775L731.05 2398.33Z" fill="#F7C5A0"/>
<path d="M891.025 1549.6C891.025 1549.6 897.5 1629.82 913.55 1634.2C929.575 1638.57 1055.78 1625.3 1055.78 1625.3H1109.75C1109.75 1625.3 1097.35 1647.32 1081.3 1645.12C1065.25 1642.92 1049.95 1639.3 1049.95 1639.3C1049.95 1639.3 920 1678.67 894.9 1669.95C869.825 1661.2 858.825 1573.45 858.825 1573.45L891.025 1549.6Z" fill="#F7C5A0"/>
<path d="M866.501 1497.27C883.151 1503.05 893.201 1541.95 897.301 1559.45C901.376 1576.95 904.526 1597.85 904.526 1597.85L866.551 1599.3C866.551 1599.32 854.551 1493.12 866.501 1497.27Z" fill="#FED710"/>
<path d="M831.851 2358.55L835.701 2418.22C835.701 2418.22 838.826 2425.92 853.026 2424C867.226 2422.07 866.501 2414.37 866.501 2414.37L874.201 2358.55H831.851Z" fill="#F7C5A0"/>
<path d="M831.075 2398.87C828.95 2398.22 826.75 2399.67 826.375 2401.85C824.4 2413.17 819.075 2445.47 822.25 2447.05C826.1 2448.97 862.675 2448.97 872.3 2452.82C881.925 2456.67 901.175 2466.3 922.35 2464.37C943.525 2462.45 970.45 2462.45 970.45 2456.67C970.45 2450.9 970.1 2437.67 956.8 2430.82C943.5 2423.97 922.325 2423.97 912.7 2408.57C903.075 2393.17 897.525 2383.55 891.65 2379.7C885.75 2375.85 874 2373.92 871.225 2379.7C868.45 2385.47 867.475 2394.12 867.475 2394.12C867.475 2394.12 858.825 2393.15 854.975 2398.95C851.125 2404.72 841.5 2410.5 837.65 2406.65C834.325 2403.35 837.4 2400.75 831.075 2398.87Z" fill="#333333"/>
<path d="M814.525 2061.18L783.751 1861.03L774.125 1780.18L887.676 1787.9L893.451 2066.98L878.051 2369.13H826.976L814.525 2061.18Z" fill="#534741"/>
<path d="M832.825 1765.75L799.125 2053.47L743.325 2378.72H696.425L699.05 2036.15L697.125 1760.92L832.825 1765.75Z" fill="#736357"/>
<path d="M675.95 1836C675.95 1836 812.5 1851.53 897.275 1828.3C897.275 1828.3 883.25 1668.93 878.025 1597.33C872.8 1525.73 866.475 1497.25 866.475 1497.25L802.975 1474.15C802.975 1474.15 801.25 1491.65 770.775 1490.18C740.275 1488.73 739.45 1464.53 739.45 1464.53L675.95 1485.7C675.95 1485.7 702.55 1581.65 699.65 1639.7C696.75 1697.8 675.95 1836 675.95 1836Z" fill="#FED710"/>
<path d="M745.25 1460.7C745.25 1460.7 737.55 1460.7 735.625 1462.63C730.175 1468.08 743.325 1491.5 772.2 1491.5C803 1491.5 807.325 1478.18 807.1 1474.23C806.85 1470.3 745.25 1460.7 745.25 1460.7Z" fill="#DDB510"/>
<path d="M745.9 1468.77C745.9 1468.77 745.075 1408.6 745.075 1401.17C745.075 1401.17 762.6 1427.05 780.975 1435.4C799.325 1443.75 796.85 1442.92 796.85 1442.92L796.025 1477.15C796.025 1477.15 787.675 1483.82 776 1483.82C750.85 1483.77 745.9 1468.77 745.9 1468.77Z" fill="#F7C5A0"/>
<path d="M769.276 1340.22C769.276 1340.22 783.576 1345.22 810.651 1349.4C837.726 1353.57 841.051 1346.9 841.051 1346.9C841.051 1346.9 829.351 1301.82 789.301 1303.5C749.226 1305.15 732.126 1328.7 729.201 1346.9C722.526 1388.62 735.876 1396.97 735.876 1396.97L745.876 1433.7C745.876 1433.7 745.876 1371.92 749.226 1373.6C752.576 1375.25 752.426 1390.05 752.426 1390.05H759.376C759.376 1390.05 755.876 1373.6 762.576 1365.25C769.276 1356.92 769.276 1340.22 769.276 1340.22Z" fill="#34234F"/>
<path d="M755.925 1433.7C755.925 1433.7 769.275 1455.4 797.65 1455.4C811.125 1455.4 821.025 1447.05 829.375 1422C837.725 1396.95 832.725 1346.03 829.375 1344.78C826.025 1343.53 762.6 1333.53 762.6 1333.53L744.25 1358.58C744.225 1358.58 737.55 1410.35 755.925 1433.7Z" fill="#F7C5A0"/>
<path d="M752.575 1330.22C752.575 1330.22 756.25 1351.3 793.475 1356.1C845.225 1362.77 851.9 1339.4 851.9 1339.4C851.9 1339.4 841.9 1339.4 825.2 1319.35C811.3 1302.7 752.575 1330.22 752.575 1330.22Z" fill="#34234F"/>
<path d="M785.15 1346.08C785.15 1346.08 778.475 1361.1 763.45 1371.13C757.55 1375.05 760.1 1401.18 760.1 1401.18L754.35 1403.68C754.35 1403.68 756.025 1380.95 751.75 1376.13C747.575 1371.45 746.75 1384.48 746.75 1384.48L735.9 1365.28C735.9 1365.28 745.1 1344.68 750.525 1339.13C755.925 1333.55 785.15 1346.08 785.15 1346.08Z" fill="#34234F"/>
<path d="M750.5 1384.02C750.5 1384.02 747.575 1368.6 737.55 1371.92C727.55 1375.27 729.4 1392.72 734.2 1400.3C740.025 1409.47 750.075 1411.15 750.075 1411.15" fill="#F7C5A0"/>
<path d="M797.65 1455.42C784.475 1456.32 771.025 1450.5 762.05 1440.97C772.7 1448.37 784.75 1453.65 797.65 1455.42Z" fill="#F7C5A0"/>
<path d="M736.725 1377.8C735 1388.17 736.625 1399.2 746.725 1404.5C735 1401.82 732.025 1387.55 736.725 1377.8Z" fill="#F7C5A0"/>
<path d="M685.651 1767.62C685.651 1767.62 707.726 1711.87 711.576 1669.52C712.551 1658.7 718.476 1624.22 716.876 1591.55C714.676 1545.6 692.326 1534.8 692.326 1534.8C692.326 1534.8 703.601 1619.3 698.926 1655.97C694.251 1692.6 685.651 1767.62 685.651 1767.62Z" fill="#DDB510"/>
<path d="M866.55 1504.03C876.375 1534.75 877.675 1567.28 878.05 1599.33C875.3 1583.53 873.6 1567.58 872.15 1551.6C870.85 1535.73 868.075 1519.95 866.55 1504.03Z" fill="#DDB510"/>
<path d="M927.725 1623.68V1627.78C927.725 1627.78 993 1630.33 1004.85 1630.53C1016.7 1630.73 1176.43 1623.68 1176.43 1623.68L1178.95 1621.9L1025.98 1613.2L927.725 1623.68Z" fill="#B3B3B3"/>
<path d="M1027.25 1613.05L1025.98 1618.3C1025.98 1618.3 995.725 1623.77 978.4 1625.95C961.075 1628.15 927.725 1627.77 927.725 1627.77V1623.67L1027.25 1613.05Z" fill="#808080"/>
<path d="M1155.3 1487.2C1155.3 1487.2 1219.73 1489.87 1223.58 1489.87C1227.4 1489.87 1227.43 1493.72 1225.5 1499.5C1223.58 1505.27 1183.15 1614.97 1181.25 1618.82C1179.33 1622.67 1179.33 1622.67 1169.7 1622.67C1160.08 1622.67 1033.05 1620.75 1029.2 1620.75C1025.35 1620.75 1025.35 1618.82 1027.28 1613.05C1029.2 1607.27 1067.7 1493.72 1069.63 1487.95C1071.55 1482.17 1077.18 1484.1 1090.8 1484.1C1111.95 1484.1 1155.3 1487.2 1155.3 1487.2Z" fill="#CCCCCC"/>
<path d="M698.101 1599.32C698.101 1599.32 689.876 1665.7 689.876 1675.4C689.876 1685.1 717.151 1829.55 717.151 1829.55C717.151 1829.55 730.226 1836.35 726.826 1848.52C723.426 1860.7 708.476 1882.32 706.276 1868.7C704.076 1855.07 696.426 1831.02 696.426 1831.02C696.426 1831.02 655.351 1691 654.851 1674.47C654.351 1657.95 654.851 1592.8 654.851 1592.8L698.101 1599.32Z" fill="#F7C5A0"/>
<path d="M678.025 1484.62C685.725 1483.42 694.475 1496.27 700.725 1507.87C706.175 1518 709.1 1529.32 709.35 1540.82L708.7 1610.82L643.275 1614.67C643.25 1614.67 647.025 1489.5 678.025 1484.62Z" fill="#FED710"/>
</g>
<defs>
<clipPath id="clip0_2558_3145">
<rect width="2700" height="2700" fill="white"/>
</clipPath>
</defs>
</svg>
