<svg width="3000" height="3000" viewBox="0 0 3000 3000" fill="none" xmlns="http://www.w3.org/2000/svg">
<g opacity="0.07">
<path d="M1096.11 2041.9L1499.05 2268.22L1502.84 2215.89L1096.11 1991.04V2041.9Z" fill="black"/>
<path d="M1421.7 2245.47H1477.93L1334.29 2529.61H1278.07L1421.7 2245.47Z" fill="black"/>
<path d="M1537.85 2224.96L1567.3 2184.8L1855.03 2189.59L1825.58 2229.75L1537.85 2224.96Z" fill="black"/>
<path d="M1223.9 2513.79L1362.91 2592.37L1970.72 2242.03L1831.71 2163.45L1223.9 2513.79Z" fill="black"/>
<path d="M1463.48 2251.62L1617.93 2341.38L1662.03 2315.92L1507.58 2226.16L1463.48 2251.62Z" fill="black"/>
<path d="M1415.4 2266.78L1453.05 2288.07L1614.57 2194.81L1576.92 2173.53L1415.4 2266.78Z" fill="black"/>
</g>
<path d="M1096.06 2043.78L1135.69 2020.75L1531.82 1191.37L1492.2 1214.4L1096.06 2043.78Z" fill="#7C4A26"/>
<path d="M1492.2 1214.4L1531.82 1191.37L1500.25 1158.15L1460.62 1181.18L1492.2 1214.4Z" fill="#B37D4B"/>
<path d="M1460.62 1181.18L1064.52 2010.57L1096.06 2043.78L1492.2 1214.4L1460.62 1181.18Z" fill="#C27A36"/>
<path d="M1555.81 881.431L1530.34 866.627L1534.62 2215.41L1560.09 2230.21L1555.81 881.431Z" fill="#7D4A25"/>
<path d="M1590.02 861.683L1564.54 846.879L1530.34 866.627L1555.81 881.431L1590.02 861.683Z" fill="#D29358"/>
<path d="M1555.81 881.431L1560.09 2230.21L1594.3 2210.46L1590.02 861.683L1555.81 881.431Z" fill="#8F5A27"/>
<path d="M1348.23 2261.02L1334.08 2252.79L1334.21 2298.64L1348.36 2306.86L1348.23 2261.02Z" fill="#6E4D2E"/>
<path d="M1806.92 1996.2L1792.77 1987.97L1334.08 2252.79L1348.23 2261.02L1806.92 1996.2Z" fill="#D39458"/>
<path d="M1348.23 2261.02L1348.36 2306.86L1807.05 2042.04L1806.92 1996.2L1348.23 2261.02Z" fill="#BA713A"/>
<path d="M1711.7 801.333L1686.23 786.529L1643.97 818.07L1669.44 832.874L1711.7 801.333Z" fill="#CB8E55"/>
<path d="M1669.44 832.874L1643.97 818.07L1796.13 2218.53L1821.6 2233.34L1669.44 832.874Z" fill="#7C4A26"/>
<path d="M1711.7 801.333L1669.44 832.874L1821.6 2233.34L1864.6 2208.51L1711.7 801.333Z" fill="#9C622C"/>
<path d="M1435.09 961.034L1409.62 946.23L1265.21 2525.06L1290.69 2539.86L1435.09 961.034Z" fill="#804D27"/>
<path d="M1477.42 943.739L1451.94 928.936L1409.62 946.231L1435.09 961.035L1477.42 943.739Z" fill="#D59559"/>
<path d="M1435.09 961.034L1290.69 2539.86L1333.66 2515.05L1477.42 943.738L1435.09 961.034Z" fill="#9C622C"/>
<path d="M1550.48 2037.1C1560.77 2043.08 1564.26 2054.83 1564.57 2055.9L1462.68 1996.68C1462.36 1995.62 1458.87 1983.86 1448.59 1977.89L1550.48 2037.1Z" fill="#543B23"/>
<path d="M1374.59 2097.41L1272.69 2038.2L1272.76 2061.71L1374.66 2120.92L1374.59 2097.41Z" fill="#69482C"/>
<path d="M1990.91 1741.58L1889.02 1682.36L1272.69 2038.2L1374.59 2097.41L1990.91 1741.58Z" fill="#ED9E53"/>
<path d="M1374.59 2097.41L1374.66 2120.92C1381.02 2117.25 1501.83 2047.5 1511.53 2041.9C1553.27 2017.8 1564.01 2053.99 1564.57 2055.9L1682.96 1987.55L1801.31 1919.21C1801.87 1916.66 1812.37 1868.21 1854.11 1844.11C1863.8 1838.52 1984.62 1768.76 1990.98 1765.09L1990.91 1741.58L1374.59 2097.41Z" fill="#BA713A"/>
<mask id="mask0_2558_2733" style="mask-type:luminance" maskUnits="userSpaceOnUse" x="1073" y="716" width="1090" height="1408">
<path d="M2162.38 1496.76L2160.17 716.18L1073.8 1343.4L1076.01 2123.98L2162.38 1496.76Z" fill="white"/>
</mask>
<g mask="url(#mask0_2558_2733)">
<path d="M2217.1 1436.25L2216.36 1177.52L2205.19 1189.85L2171.45 1190.73L2205.19 1189.85L2216.36 1177.52L2216.29 1151.35C2195.74 1131.47 2176.86 1116.29 2160.99 1108.3C2160.99 1108.3 2160.99 1108.3 2160.99 1108.3C2176.87 1116.29 2195.74 1131.47 2216.29 1151.35L2216.11 1087.78C2216.11 1087.78 2216.11 1087.78 2216.11 1087.78L2214.97 683.553L1000.12 1384.94L1002.01 2052.37L1002.35 2169.89L1504.21 1880.13C1505.56 1877.52 1506.94 1874.86 1508.33 1872.17C1506.94 1874.86 1505.56 1877.52 1504.22 1880.13L1661.15 1789.53L2217.19 1468.5L2217.1 1436.25ZM2028.42 1279.48C2024.69 1287.67 2020.91 1296.05 2017.1 1304.58C2018.41 1305.14 2019.74 1305.76 2021.06 1306.34C1998.55 1296.31 1978.61 1290.62 1963.59 1291.86C1977.66 1290.65 1996.16 1295.6 2017.1 1304.58C2020.91 1296.05 2024.69 1287.67 2028.41 1279.49C2028.78 1278.68 2029.15 1277.9 2029.51 1277.09C2029.15 1277.89 2028.79 1278.68 2028.42 1279.48L2075.75 1224.29L2028.42 1279.48ZM2041.22 1316.09C2039.91 1315.41 2038.61 1314.76 2037.31 1314.1C2038.61 1314.76 2039.91 1315.41 2041.22 1316.09ZM2034.24 1312.56C2032.75 1311.82 2031.28 1311.11 2029.82 1310.4C2031.28 1311.11 2032.75 1311.82 2034.24 1312.56ZM2027.45 1309.28C2025.87 1308.53 2024.3 1307.8 2022.75 1307.1C2024.3 1307.8 2025.87 1308.53 2027.45 1309.28ZM1663.52 1622.61C1663.52 1622.61 1663.52 1622.61 1663.52 1622.61C1664.21 1622.48 1664.93 1622.39 1665.68 1622.32C1664.94 1622.39 1664.22 1622.48 1663.52 1622.61ZM1665.86 1622.31C1666.34 1622.27 1666.84 1622.25 1667.35 1622.24C1666.85 1622.25 1666.34 1622.27 1665.86 1622.31ZM1691.68 1627.25C1691.69 1627.25 1691.71 1627.26 1691.72 1627.26C1695.08 1628.5 1698.58 1629.96 1702.16 1631.58C1698.57 1629.96 1695.06 1628.5 1691.68 1627.25ZM1715.55 1638.13C1717.03 1638.91 1718.52 1639.71 1720.01 1640.52C1718.52 1639.71 1717.03 1638.91 1715.55 1638.13ZM2102.12 1135.59C2102.77 1134.58 2103.42 1133.6 2104.06 1132.63C2097.58 1142.48 2090.44 1154.59 2082.73 1168.68C2082.67 1168.78 2082.62 1168.87 2082.57 1168.97C2082.63 1168.86 2082.69 1168.74 2082.76 1168.62C2089.66 1155.99 2096.14 1144.89 2102.12 1135.59ZM2068.38 1152.96C2071.53 1151.29 2074.66 1149.65 2077.77 1148.03C2074.66 1149.65 2071.53 1151.29 2068.38 1152.96ZM2034.78 1171.24C2036.26 1170.42 2037.73 1169.61 2039.19 1168.79C2037.73 1169.61 2036.26 1170.42 2034.78 1171.24ZM2049.69 1163.03C2050.93 1162.35 2052.17 1161.67 2053.4 1161C2052.17 1161.67 2050.93 1162.35 2049.69 1163.03ZM2063.53 1205.69C2062.67 1207.41 2061.81 1209.14 2060.95 1210.87C2061.81 1209.14 2062.67 1207.41 2063.53 1205.69ZM2057.21 1218.45C2056.3 1220.29 2055.4 1222.13 2054.5 1223.99C2055.4 1222.13 2056.3 1220.29 2057.21 1218.45ZM2050.89 1231.44C2049.96 1233.38 2049.03 1235.31 2048.09 1237.26C2049.03 1235.31 2049.96 1233.38 2050.89 1231.44ZM2044.47 1244.91C2043.55 1246.84 2042.64 1248.76 2041.72 1250.72C2042.64 1248.76 2043.55 1246.84 2044.47 1244.91ZM2035.65 1263.73C2035.33 1264.43 2035.01 1265.12 2034.69 1265.82C2035.01 1265.13 2035.33 1264.42 2035.65 1263.73ZM1885.45 1378.05C1886.29 1376.72 1887.13 1375.43 1887.96 1374.12C1887.1 1375.47 1886.24 1376.81 1885.37 1378.18C1885.4 1378.13 1885.43 1378.09 1885.45 1378.05ZM1889.59 1371.57C1889.47 1371.76 1889.35 1371.94 1889.23 1372.13C1889.35 1371.95 1889.47 1371.76 1889.59 1371.57ZM1959.53 1292.37C1960.75 1292.15 1962.01 1292 1963.3 1291.88C1962 1292 1960.74 1292.16 1959.52 1292.38C1959.53 1292.38 1959.53 1292.38 1959.53 1292.37ZM2020.26 1179.41C2021.57 1178.66 2022.86 1177.94 2024.17 1177.2C2022.86 1177.94 2021.57 1178.66 2020.26 1179.41ZM2104.42 1132.09C2104.59 1131.83 2104.77 1131.57 2104.95 1131.31C2104.77 1131.57 2104.59 1131.83 2104.42 1132.09ZM2160.04 1107.85C2150.55 1103.21 2142.11 1101.22 2133.86 1102.68C2133.94 1102.63 2134.01 1102.57 2134.1 1102.51C2141.3 1100.97 2150.07 1102.98 2160.04 1107.85ZM2102.12 1135.59C2098.74 1137.28 2095.32 1139.01 2091.88 1140.75C2095.32 1139 2098.74 1137.28 2102.12 1135.59ZM1327.36 1684.66C1321.16 1690.14 1315.02 1695.61 1308.92 1701.07C1315.02 1695.61 1321.16 1690.14 1327.36 1684.66ZM1101.66 1427.64C1084.55 1459.25 1074.18 1494.12 1074.27 1525.77C1074.46 1593.24 1122.21 1620.45 1180.97 1586.53C1225 1561.11 1262.72 1508.51 1278.75 1455.34C1262.72 1508.51 1225 1561.11 1180.97 1586.53C1122.21 1620.45 1074.46 1593.24 1074.27 1525.77C1074.18 1494.12 1084.55 1459.25 1101.66 1427.64ZM1108.85 1415.19C1106.41 1419.16 1104.08 1423.2 1101.85 1427.29C1104.08 1423.2 1106.41 1419.16 1108.85 1415.19ZM1804.43 1516.77C1818.81 1490.77 1833.15 1465.37 1847.01 1441.6C1849.06 1438.08 1851.1 1434.59 1853.19 1431.05C1851.15 1434.53 1849.09 1438.04 1847.02 1441.59C1833.16 1465.37 1818.81 1490.77 1804.43 1516.77ZM1966.82 1352.26L1929.2 1403.46L1914.26 1374.85L1929.2 1403.46L1966.82 1352.26ZM2102.18 1352.32C2140.7 1377.56 2179.07 1406.36 2208.83 1429.73C2179.07 1406.36 2140.7 1377.56 2102.18 1352.32Z" fill="#F2F2F2"/>
</g>
<path d="M1430.15 2033.96L1964.8 1725.28C1938.84 1710.3 1911.83 1694.7 1884.38 1678.85L1349.73 1987.53L1430.15 2033.96Z" fill="#D9D9D9"/>
<path d="M2195.01 1515.72L2162.38 1496.76L2160.06 678.445L2192.69 697.404L2195.01 1515.72Z" fill="#A4A4A4"/>
<path d="M1076.12 2161.72L1043.49 2142.76L2162.38 1496.76L2195.01 1515.72L1076.12 2161.72Z" fill="white"/>
<path d="M1046.84 2212.43L1014.21 2193.47L1011.7 1307.64L1044.32 1326.6L1046.84 2212.43Z" fill="#A4A4A4"/>
<path d="M1044.32 1326.6L1011.7 1307.64L2189.34 627.727L2221.97 646.687L1044.32 1326.6Z" fill="white"/>
<path d="M1044.32 1326.6L2221.97 646.687L2224.48 1532.52L1046.84 2212.43L1044.32 1326.6ZM2195.01 1515.72L2192.69 697.405L1073.8 1343.4L1076.12 2161.72L2195.01 1515.72Z" fill="#DEDEDE"/>
<path d="M1553.06 1080.21L1533.25 1068.69L1533.33 1098.13L1553.14 1109.64L1553.06 1080.21Z" fill="#7D5733"/>
<path d="M1566.81 1049.31C1589.53 1036.2 1599.94 1012.25 1603.83 1000.61L1724.42 930.99L1744.24 942.504L1743.9 942.697C1748.75 942.535 1754.58 940.906 1761.6 936.852C1764.01 935.46 1776.19 928.429 1791.29 919.709L1811.11 931.223C1796 939.942 1783.83 946.974 1781.41 948.366C1768.04 956.088 1758.9 955.158 1752.84 951.635L1740.67 944.561L1623.65 1012.12C1619.75 1023.76 1609.34 1047.71 1586.62 1060.83C1584.01 1062.34 1569.93 1070.47 1553.06 1080.21L1533.25 1068.69C1550.12 1058.95 1564.19 1050.83 1566.81 1049.31Z" fill="#D68B47"/>
<path d="M1623.65 1012.13C1619.75 1023.76 1609.34 1047.71 1586.62 1060.83C1584.01 1062.34 1569.93 1070.47 1553.06 1080.21L1553.14 1109.64L1811.19 960.657L1811.11 931.223C1796 939.942 1783.82 946.974 1781.41 948.366C1758.67 961.497 1748.18 949.608 1744.23 942.504L1623.65 1012.13Z" fill="#BA713A"/>
<path d="M1495.62 870.167L1495.82 913.283L1560.49 950.864L1560.29 907.747L1495.62 870.167Z" fill="#91552C"/>
<path d="M1560.29 907.747L1560.49 950.864L1625.58 913.284L1625.38 870.167L1560.29 907.747Z" fill="#BA713A"/>
<path d="M1495.62 870.167L1560.29 907.747L1625.38 870.167L1560.71 832.586L1495.62 870.167Z" fill="#E8974E"/>
<path d="M1598.52 870.985L1565.72 851.922L1523.69 876.186L1556.49 895.248L1598.52 870.985Z" fill="#6E3F18"/>
<path d="M1555.81 744.888L1530.34 730.084L1530.6 874.073L1556.08 888.877L1555.81 744.888Z" fill="#734421"/>
<path d="M1590.02 725.14L1564.54 710.336L1530.34 730.084L1555.81 744.888L1590.02 725.14Z" fill="#D29358"/>
<path d="M1555.81 744.888L1556.08 888.877L1590.28 869.129L1590.02 725.14L1555.81 744.888Z" fill="#9C622C"/>
<path d="M1668.22 987.117L1702.19 967.378L1702.22 954.297L1668.26 974.035L1668.22 987.117Z" fill="#A17143"/>
<path d="M1668.26 974.035L1702.22 954.297L1607.74 899.612L1573.77 919.35L1668.26 974.035Z" fill="#D6965A"/>
<path d="M1573.77 919.351L1573.73 932.433L1668.22 987.118L1668.26 974.036L1573.77 919.351Z" fill="#735030"/>
<path d="M1583.45 2131.1C1587.13 2128.97 1590.47 2128.77 1592.88 2130.17L1598.53 2133.45C1596.11 2132.05 1592.77 2132.25 1589.09 2134.38C1581.76 2138.61 1575.86 2148.84 1575.88 2157.26C1575.89 2161.44 1577.37 2164.38 1579.75 2165.77L1574.1 2162.49C1571.72 2161.1 1570.25 2158.16 1570.24 2153.98C1570.21 2145.56 1576.12 2135.33 1583.45 2131.1Z" fill="#5C5C5C"/>
<path d="M1589.09 2134.38C1581.76 2138.61 1575.86 2148.83 1575.88 2157.26C1575.9 2165.66 1581.85 2169.07 1589.18 2164.84C1596.49 2160.62 1602.42 2150.35 1602.39 2141.95C1602.37 2133.53 1596.4 2130.16 1589.09 2134.38Z" fill="#757575"/>
<path d="M1331.76 2274.24C1335.44 2272.12 1338.78 2271.92 1341.2 2273.32L1346.84 2276.6C1344.43 2275.2 1341.09 2275.4 1337.41 2277.52C1330.07 2281.76 1324.17 2291.98 1324.19 2300.41C1324.21 2304.58 1325.68 2307.53 1328.06 2308.91L1322.42 2305.63C1320.04 2304.25 1318.56 2301.3 1318.55 2297.13C1318.53 2288.7 1324.43 2278.48 1331.76 2274.24Z" fill="#4F4F4F"/>
<path d="M1337.41 2277.52C1330.07 2281.76 1324.17 2291.98 1324.19 2300.41C1324.22 2308.81 1330.16 2312.22 1337.49 2307.99C1344.8 2303.77 1350.73 2293.5 1350.71 2285.1C1350.68 2276.68 1344.71 2273.3 1337.41 2277.52Z" fill="#686868"/>
<path d="M1820.98 2002.11C1824.66 1999.98 1828 1999.78 1830.41 2001.19L1836.06 2004.47C1833.64 2003.06 1830.3 2003.26 1826.62 2005.39C1819.29 2009.62 1813.39 2019.85 1813.41 2028.27C1813.42 2032.45 1814.9 2035.39 1817.28 2036.78L1811.63 2033.5C1809.25 2032.11 1807.78 2029.17 1807.76 2024.99C1807.74 2016.57 1813.64 2006.34 1820.98 2002.11Z" fill="#4F4F4F"/>
<path d="M1826.62 2005.39C1819.29 2009.62 1813.39 2019.85 1813.41 2028.27C1813.43 2036.67 1819.38 2040.09 1826.71 2035.85C1834.02 2031.63 1839.95 2021.36 1839.92 2012.97C1839.9 2004.54 1833.93 2001.17 1826.62 2005.39Z" fill="#686868"/>
<g opacity="0.07">
<path d="M2393.38 2554.58C2408.85 2473.83 2308.38 2386.74 2168.98 2360.04C2029.58 2333.35 1904.04 2377.16 1888.58 2457.91C1873.12 2538.65 1973.59 2625.74 2112.98 2652.44C2252.38 2679.13 2377.92 2635.32 2393.38 2554.58Z" fill="black"/>
<path d="M2705.64 2537.71L2786.28 2618.7L2624.08 2612.08L1815.83 2313.78L1897.41 2239.39L2705.64 2537.71Z" fill="black"/>
</g>
<path d="M2850 1200.35C2850 1202.21 2849.2 1202.81 2848.33 1203.07C2846.93 1203.51 2845.17 1202.1 2845.17 1200.24C2845.17 1198.38 2846.27 1196.73 2847.71 1197.03C2849.09 1197.31 2850 1198.49 2850 1200.35Z" fill="#1F6300"/>
<path d="M2622.2 1243.97C2619.94 1236.48 2617.29 1228.46 2615.11 1217.89C2609.94 1198.41 2554.59 1212.83 2548.26 1231.68C2548.31 1240.42 2546.85 1250.5 2546.48 1262.41C2546.26 1269.28 2624.13 1250.4 2622.2 1243.97Z" fill="#858585"/>
<path d="M2613.74 1186.54C2611.62 1207.81 2612.73 1244.38 2612.73 1244.38L2559.05 1251.22C2559.05 1251.22 2566.69 1197.2 2570.86 1182.77C2570.99 1182.3 2614.19 1182.04 2613.74 1186.54Z" fill="#F0C7AD"/>
<path d="M2619.58 1235.71C2618.64 1230.41 2562.35 1254.32 2553.75 1240.53C2553.89 1266.66 2543.29 1328.97 2544.34 1366.64C2544.69 1379.2 2587.57 1434.12 2606.77 1423.4C2616.02 1418.24 2622.93 1254.64 2619.58 1235.71Z" fill="#E3E3E3"/>
<path d="M2625.5 1261.06C2626.28 1249.82 2621.79 1239.52 2615.11 1224.44C2614.63 1251.75 2558.06 1253.95 2548.26 1238.23C2548.32 1248.99 2544.88 1261.87 2546.43 1277.54C2547.91 1292.56 2623.89 1284.31 2625.5 1261.06Z" fill="white"/>
<path d="M2122.07 1444.49C2146.16 1414.91 2157.39 1373.1 2129.55 1343.17C2105.8 1317.64 2078.53 1355.72 2055.25 1381.67C2010.12 1431.98 1943.36 1523.71 1931.01 1556.3C1925.48 1570.91 1965.93 1598.69 2001.56 1578.23C2005.6 1575.91 2083.42 1491.96 2122.07 1444.49Z" fill="#E3E3E3"/>
<path d="M2070.88 1671.09C2073.02 1678.62 2075.11 1686.8 2078.98 1696.88C2085.13 1716.08 2030.75 1733.78 2015.25 1721.32C2010.58 1713.94 2003.91 1706.23 1997.17 1696.41C1993.29 1690.74 2069.04 1664.64 2070.88 1671.09Z" fill="#B0B0B0"/>
<path d="M2092.77 1723.46C2082.47 1703.75 2063.24 1675.35 2063.24 1675.35L2011.39 1699.66C2011.39 1699.66 2048.83 1737.31 2054.71 1751.6C2054.89 1752.05 2094.87 1727.47 2092.77 1723.46Z" fill="#F0C7AD"/>
<path d="M2073.13 1679.46C2075.2 1684.43 2014.9 1694.66 2015.1 1710.91C1996.47 1681.47 1928 1584.44 1930.27 1560.06C1932.19 1539.57 1982.46 1537.86 2013.58 1566.08C2021.43 1573.19 2065.75 1661.72 2073.13 1679.46Z" fill="#EBEBEB"/>
<path d="M2067.98 1660.44C2074.69 1669.48 2076.47 1680.58 2078.98 1696.88C2063.85 1674.14 2015.02 1702.8 2015.25 1721.32C2009.5 1712.23 1999.65 1703.24 1992.51 1689.21C1985.65 1675.76 2054.09 1641.72 2067.98 1660.44Z" fill="#F7F7F7"/>
<path d="M2134.57 1790.47C2128.19 1785.62 2116.62 1768.12 2113.67 1767.59C2101.77 1765.71 2095.6 1789.42 2103.07 1802.32C2112.71 1818.97 2121.44 1828.31 2122.6 1834.03C2125.67 1849.2 2087.11 1843.67 2074.47 1821.12C2067.11 1808 2049.51 1774.76 2051.78 1764.98C2053.27 1758.54 2050.87 1751.31 2049.38 1746.42C2043.43 1726.91 2083.5 1699.62 2088.5 1710.23C2093.16 1719.92 2097.76 1724.55 2106.09 1727.81C2121.64 1733.88 2134.6 1753.44 2135.44 1757.82C2137.27 1767.42 2147.47 1781.03 2152.48 1785.7C2153.8 1786.93 2153.95 1789.03 2152.7 1790.33C2148.85 1794.33 2142.65 1796.59 2134.57 1790.47Z" fill="#F0C7AD"/>
<path d="M2670.58 1179.52L1904.82 1273.14L1949.67 1253.17L2715.43 1159.56L2670.58 1179.52Z" fill="#38AFFF"/>
<path d="M2664.7 1233.44L1898.94 1327.05L1904.82 1273.14L2670.58 1179.52L2664.7 1233.44Z" fill="#2895E0"/>
<path d="M2703.67 1267.4L1937.91 1361.02L1898.94 1327.05L2664.7 1233.44L2703.67 1267.4Z" fill="#196095"/>
<path d="M2715.43 1159.56L2670.58 1179.52L2664.7 1233.44L2815.32 1206.23L2815.62 1189.28L2715.43 1159.56Z" fill="#FAC285"/>
<path d="M2847.71 1197.03L2815.62 1189.28C2812.29 1196.3 2812.69 1199.8 2815.32 1206.23L2846.95 1201.23C2846.45 1198.77 2847.71 1197.03 2847.71 1197.03Z" fill="#3EC200"/>
<path d="M2815.32 1206.23L2664.7 1233.44L2703.67 1267.4L2820.33 1213.47L2815.32 1206.23Z" fill="#D4A471"/>
<path d="M2846.95 1201.23L2815.32 1206.23C2816.48 1209.4 2817.12 1211.09 2820.33 1213.47L2848.25 1203.12C2847.58 1202.62 2847.15 1201.99 2846.95 1201.23Z" fill="#2A8500"/>
<mask id="mask1_2558_2733" style="mask-type:luminance" maskUnits="userSpaceOnUse" x="1898" y="1159" width="818" height="203">
<path d="M2670.58 1179.52L2715.43 1159.56L1949.67 1253.17L1904.82 1273.14L1898.94 1327.05L1937.91 1361.02L2703.67 1267.4L2664.7 1233.44L2670.58 1179.52Z" fill="white"/>
</mask>
<g mask="url(#mask1_2558_2733)">
<path d="M2266.42 1336.24C2262.01 1331.7 2265.99 1328.11 2265.96 1328.1C2264 1327.31 2260.12 1317.19 2260.05 1313.88C2259.5 1310.38 2259.09 1306.69 2258.8 1302.86C2263.53 1297.92 2267.7 1291.69 2271.32 1284.62C2278.76 1287.22 2286.09 1248.77 2290.94 1230.39C2308.09 1165.46 2292.59 1113.3 2224.03 1106.12C2185.88 1102.13 2139.71 1118.03 2129.24 1157.84C2127.44 1164.7 2116.92 1177.87 2127.24 1180.58C2127.33 1180.39 2127.45 1180.23 2127.55 1180.06C2128.15 1184.92 2129.36 1188.76 2129.29 1192.64C2129.08 1204.06 2129.3 1225.2 2128.86 1236.29C2127.37 1274.14 2136.71 1308.56 2151.78 1328.59V1349.15H2165.02C2169.7 1358.55 2177.66 1367.25 2191.23 1369.28C2207.93 1371.77 2228.25 1367.05 2244.55 1360.54C2248.13 1355.14 2253.18 1350.67 2258.96 1347.66C2261.82 1337.9 2257.25 1340.77 2266.42 1336.24Z" fill="#CCCCCC"/>
</g>
<path d="M2128.75 2465.99C2116.97 2473.84 2070.55 2473.24 2070.55 2473.24L2058.01 2457.06L2128.75 2465.99Z" fill="black"/>
<path d="M2105.64 2483.06L2093.49 2477.35L2098.32 2470.4L2109.81 2473.76L2105.64 2483.06Z" fill="#636363"/>
<path d="M2105.53 2483.09C2105.53 2483.09 2146.59 2461.12 2153.17 2448.55C2154.71 2445.6 2152.51 2426.17 2152.51 2426.17L2101.53 2465.64L2105.53 2483.09Z" fill="white"/>
<path d="M1962.73 2501.24C1961.86 2486.05 1989.65 2475.98 2018.91 2457.58C2036.16 2446.73 2048.21 2427.23 2065.93 2418.23C2113.7 2393.97 2133.6 2370.08 2147.45 2397.81C2161.3 2425.53 2153.67 2446.66 2105.9 2470.93C2084.37 2481.86 2066.35 2506.88 2039.22 2518.01C2010.15 2529.94 1963.69 2518 1962.73 2501.24Z" fill="white"/>
<path d="M1962.04 2497.58C1955.23 2484.69 1986.19 2470.98 2018.9 2451.3C2035.36 2441.4 2061.05 2419.04 2067.88 2404.07C2090.13 2355.32 2132.91 2366.43 2146.76 2394.15C2160.61 2421.87 2152.4 2441.56 2104.63 2465.82C2083.09 2476.76 2060.84 2503.93 2033.27 2513.91C2007.56 2523.22 1970.1 2512.82 1962.04 2497.58Z" fill="#424242"/>
<path d="M2060.95 2409.12C2061.54 2419.37 2068.1 2402.82 2080.26 2409.94C2109.76 2427.19 2147.57 2428.53 2149.49 2397.8C2134.83 2285.04 2149.55 2207.27 2131.54 2152.41L2228.41 1812.86L2064.35 1786.38C2064.35 1786.38 2034.01 2090.7 2035.46 2136.66C2037.43 2199.09 2053.86 2284.47 2060.95 2409.12Z" fill="#D14C3A"/>
<path d="M2226.46 2493.88C2228.07 2490.68 2227.19 2449.16 2227.19 2449.16C2227.19 2449.16 2295.84 2413.74 2302.12 2480.77C2303.26 2492.94 2292.88 2501.05 2284.14 2512.52C2278.24 2511.25 2226.46 2493.88 2226.46 2493.88Z" fill="#636363"/>
<path d="M2280.5 2448.36C2290.14 2453.92 2303.2 2461.17 2305.1 2481.5C2306.24 2493.66 2292.88 2501.04 2284.14 2512.52C2284.11 2512.5 2284.04 2512.46 2284 2512.43L2280.5 2448.36Z" fill="white"/>
<path d="M2182.97 2570.43C2188.79 2582.84 2240.65 2586.56 2265.51 2559.7C2274.96 2549.5 2273.1 2533.05 2279.02 2514.8C2290.33 2479.96 2306.09 2486.51 2304.38 2468.32C2298.11 2401.29 2230.07 2434.87 2230.07 2434.87C2230.07 2434.87 2220.46 2473.34 2204.75 2510.63C2191.84 2541.3 2175.21 2553.9 2182.97 2570.43Z" fill="white"/>
<path d="M2184.95 2568.86C2200.89 2577.32 2244.2 2573.43 2265.03 2550.92C2274.48 2540.72 2272.62 2524.27 2278.54 2506.02C2289.85 2471.18 2305.61 2477.73 2303.91 2459.54C2297.63 2392.51 2229.59 2426.09 2229.59 2426.09C2229.59 2426.09 2219.98 2464.56 2204.27 2501.85C2191.36 2532.52 2169.92 2560.9 2184.95 2568.86Z" fill="#424242"/>
<path d="M2225.28 2440C2215.87 2317.18 2207.29 2286.7 2197.95 2179.8C2186.42 2048 2142.66 1842.03 2149.38 1826.97C2162.44 1797.68 2305.35 1801.64 2312.45 1831.3C2327.26 1893.2 2287.38 2046.46 2297.59 2187.45C2308.69 2285.93 2300.34 2410.94 2299.59 2441.58C2280.62 2460.86 2257.09 2429.57 2225.28 2440Z" fill="#E85744"/>
<path d="M2262.38 1349.15H2139.65V1327.48C2178.51 1307.99 2216.23 1300.99 2253.8 1316.01C2256.47 1317.08 2259.44 1320.46 2262.12 1321.75C2266.17 1332.14 2267.38 1345.83 2262.38 1349.15Z" fill="#CCCCCC"/>
<path d="M2295.6 1736.46L2307.77 1396.23C2293.38 1384.51 2296.7 1354.08 2279.74 1347.17C2237.54 1329.97 2181.54 1325.03 2137.59 1327.03C2123.26 1327.68 2108.65 1358.39 2094.52 1368.2L2086.99 1736.46H2295.6Z" fill="#F0C7AD"/>
<path d="M2057.98 1778.43C2065.48 1752.49 2080.71 1727.49 2081.57 1696.43C2082.89 1648.76 2080.03 1595.08 2077.95 1549.88C2075.41 1494.67 2060.2 1445.24 2064.69 1415.57C2067.46 1397.28 2080.48 1341.15 2135.76 1331.71C2133.02 1335.23 2130.8 1339.59 2129.12 1344.8C2116.08 1385.07 2139.94 1467.86 2152.89 1482.11L2156.69 1486.29L2159.82 1481.59C2166.61 1471.38 2197.64 1439.62 2225.02 1411.6C2261.71 1374.04 2276.18 1358.76 2281.25 1351.58C2299.63 1358.33 2332.2 1374.44 2342.44 1382.03C2375.15 1406.26 2294.73 1642.3 2291.23 1655.3C2278.81 1701.5 2294.61 1775.74 2288.24 1816.07C2277.64 1883.16 2043.24 1829.4 2057.98 1778.43Z" fill="#EDEDED"/>
<path d="M2333.74 1373.7C2321.92 1364.95 2296.62 1352 2279.27 1346.21C2278.23 1354.31 2159.63 1525.87 2145.46 1547.15L2123.84 1780.21C2123.84 1780.21 2140.14 1877.9 2152.13 1885.49C2196.19 1913.39 2325.81 1865.56 2317.12 1819.86C2308.99 1777.08 2298.35 1697.94 2303.94 1645.76C2308.59 1602.37 2327.37 1565.16 2345.1 1495.09C2355.78 1452.93 2368.69 1399.59 2333.74 1373.7Z" fill="#8F457A"/>
<path d="M2123.48 1372.12C2126.94 1346.2 2139.2 1328.79 2152.69 1325.95C2089.35 1325.77 2066.03 1377.32 2060.34 1414.91C2051.95 1470.24 2083.37 1626.17 2072.52 1694.62C2068.07 1722.73 2062.56 1765.99 2050.81 1785.08C2052.45 1817.66 2076.14 1861.07 2094.47 1843.36C2115.14 1823.39 2125.31 1778.74 2125.31 1778.74L2145.46 1547.15C2134.44 1535.03 2115.26 1433.57 2123.48 1372.12Z" fill="#8F3D79"/>
<path d="M2132.65 1333.57C2132.65 1333.57 2142.34 1323.43 2149.79 1320.17C2163.4 1314.22 2191.56 1310.6 2191.56 1310.6L2192.04 1332.26L2132.65 1333.57Z" fill="#E3E3E3"/>
<path d="M2158.91 1216.88L2146.22 1321.86C2146.22 1321.86 2146.8 1364.46 2179.1 1369.27C2212.63 1374.28 2260.87 1350.26 2261.63 1340.95C2234.21 1329.2 2251.4 1219.94 2251.4 1219.94L2158.91 1216.88Z" fill="#D9B49C"/>
<path d="M2129.79 1380.11C2125.43 1369.16 2092.25 1382.74 2089.23 1384.11C2086.6 1357.81 2126.17 1328.38 2135.57 1323.69C2145.73 1318.62 2157.74 1320.48 2157.74 1320.48C2140.21 1327.76 2132.43 1346.01 2129.79 1380.11Z" fill="white"/>
<path d="M2281.99 1400.21C2275.56 1391.22 2242.03 1384.95 2230.46 1389.1C2256.27 1362.35 2263.74 1328.48 2253.82 1315.94C2264.94 1319.49 2284.4 1345.99 2284.82 1354.06C2285.63 1369.45 2281.99 1400.21 2281.99 1400.21Z" fill="white"/>
<path d="M2254.24 1386.12C2218.94 1416.83 2185.32 1457.1 2156.18 1486.28C2179.63 1457.44 2200.74 1417.56 2230.98 1388.88C2235.23 1386.91 2248 1384.83 2254.24 1386.12Z" fill="white"/>
<path d="M2113.86 1372.85C2120.38 1421.18 2131.86 1455.28 2157.17 1488.07C2141.63 1455.6 2133.55 1422.2 2129.66 1378.92C2127 1375.06 2119.89 1374.92 2113.86 1372.85Z" fill="white"/>
<path d="M2144.57 1550.6C2144.57 1550.6 2144.26 1564.67 2143.12 1585.72C2142.44 1596.24 2141.9 1608.53 2140.87 1621.66C2139.85 1634.79 2138.76 1648.79 2137.67 1662.79C2136.32 1676.78 2134.98 1690.76 2133.71 1703.87C2132.48 1716.98 2130.87 1729.17 2129.72 1739.65C2127.21 1760.58 2125.07 1774.49 2125.07 1774.49C2125.07 1774.49 2125.37 1760.42 2126.51 1739.37C2127.19 1728.85 2127.72 1716.56 2128.77 1703.43C2129.79 1690.31 2130.88 1676.3 2131.97 1662.3C2133.32 1648.32 2134.67 1634.33 2135.93 1621.23C2137.18 1608.12 2138.77 1595.92 2139.92 1585.45C2142.44 1564.52 2144.57 1550.6 2144.57 1550.6Z" fill="#AB9384"/>
<path d="M2142 1586.55C2145.77 1588.73 2148.83 1594.02 2148.81 1598.38C2148.8 1602.72 2145.73 1604.47 2141.95 1602.29C2138.18 1600.11 2135.12 1594.82 2135.13 1590.48C2135.15 1586.12 2138.22 1584.37 2142 1586.55Z" fill="#4A3D35"/>
<path d="M2139.2 1587.28C2139.24 1587.14 2142.39 1588.64 2144.39 1591.47C2145.3 1592.9 2145.97 1594.46 2146.36 1595.65C2146.71 1596.87 2146.72 1597.71 2146.72 1597.71C2146.72 1597.71 2146.35 1596.98 2145.79 1595.88C2145.28 1594.77 2144.46 1593.37 2143.46 1592.12C2141.79 1589.38 2139.2 1587.28 2139.2 1587.28Z" fill="#A8A8A8"/>
<path d="M2134.05 1658.79C2137.83 1660.97 2140.88 1666.26 2140.87 1670.63C2140.85 1674.97 2137.78 1676.72 2134 1674.54C2130.23 1672.36 2127.17 1667.07 2127.19 1662.73C2127.2 1658.37 2130.27 1656.61 2134.05 1658.79Z" fill="#4A3D35"/>
<path d="M2131.26 1659.53C2131.29 1659.39 2134.44 1660.88 2136.45 1663.71C2137.35 1665.15 2138.03 1666.7 2138.41 1667.9C2138.76 1669.12 2138.78 1669.96 2138.78 1669.96C2138.78 1669.96 2138.4 1669.23 2137.84 1668.13C2137.33 1667.02 2136.51 1665.62 2135.51 1664.37C2133.85 1661.63 2131.26 1659.53 2131.26 1659.53Z" fill="#A8A8A8"/>
<path d="M2128.49 1741.12C2132.26 1743.3 2135.32 1748.59 2135.3 1752.96C2135.29 1757.3 2132.22 1759.05 2128.44 1756.87C2124.66 1754.69 2121.61 1749.4 2121.62 1745.06C2121.64 1740.69 2124.71 1738.94 2128.49 1741.12Z" fill="#4A3D35"/>
<path d="M2125.69 1741.86C2125.73 1741.71 2128.88 1743.21 2130.89 1746.04C2131.79 1747.48 2132.46 1749.03 2132.85 1750.22C2133.2 1751.44 2133.22 1752.29 2133.22 1752.29C2133.22 1752.29 2132.84 1751.55 2132.28 1750.45C2131.77 1749.35 2130.95 1747.95 2129.95 1746.69C2128.28 1743.95 2125.69 1741.86 2125.69 1741.86Z" fill="#A8A8A8"/>
<path d="M2144.38 1811.05C2148.16 1813.23 2151.21 1818.52 2151.2 1822.89C2151.19 1827.23 2148.11 1828.98 2144.34 1826.8C2140.56 1824.62 2137.51 1819.33 2137.52 1814.99C2137.53 1810.62 2140.6 1808.87 2144.38 1811.05Z" fill="#4A3D35"/>
<path d="M2141.59 1811.79C2141.62 1811.65 2144.77 1813.14 2146.78 1815.97C2147.68 1817.41 2148.36 1818.96 2148.74 1820.16C2149.09 1821.37 2149.11 1822.22 2149.11 1822.22C2149.11 1822.22 2148.73 1821.49 2148.17 1820.39C2147.67 1819.28 2146.84 1817.88 2145.84 1816.63C2144.18 1813.88 2141.59 1811.79 2141.59 1811.79Z" fill="#A8A8A8"/>
<path d="M2126.22 1194.77L2134 1245.23C2132.17 1233.33 2138.41 1213.57 2150.23 1199.29C2143.16 1190.04 2141.46 1172.77 2143.88 1158.28C2132.06 1172.57 2124.38 1182.88 2126.22 1194.77Z" fill="#2B2B2B"/>
<path d="M2276.75 1218.63C2273.48 1253.23 2261.26 1294.59 2239.07 1309.32C2215.84 1324.74 2197.91 1346.64 2170.18 1346.76C2138.8 1346.89 2114.38 1295.79 2116.74 1236.28C2117.18 1225.2 2116.95 1204.06 2117.16 1192.64C2117.33 1183.51 2110.36 1174.61 2121.1 1151.87C2135.22 1121.99 2171.42 1107.37 2211.42 1111.14C2280.27 1117.64 2283.28 1149.44 2276.75 1218.63Z" fill="#F0C7AD"/>
<path d="M2130.61 1317.86C2133.79 1335.55 2144.34 1343.21 2160.14 1347.45C2197.94 1357.6 2229.83 1324.13 2245.33 1305.04C2254.13 1294.21 2249.19 1242.12 2249.19 1242.12L2237.05 1245.06C2237.05 1245.06 2239 1284.56 2231.95 1296.22C2222.28 1312.23 2183.15 1347.21 2157.26 1330.72C2151.89 1327.3 2146.41 1319.83 2142.08 1317.27C2136.36 1313.87 2132.62 1316.91 2130.61 1317.86Z" fill="#734731"/>
<path d="M2211.9 1106.12C2173.75 1102.13 2127.58 1118.03 2117.12 1157.84C2115.31 1164.7 2104.79 1177.87 2115.11 1180.58C2120.67 1169.28 2146.14 1194.84 2171.59 1194.19C2196.07 1193.57 2202.31 1197.49 2230.1 1220.81C2235.81 1225.6 2236.98 1242.36 2236.97 1246.62C2239.73 1247.73 2243.26 1249.09 2247.53 1251.33C2250.65 1240.36 2247.41 1223.22 2257.39 1223.67C2267.73 1224.13 2268 1238.98 2265.28 1251.65C2263.43 1260.24 2258.76 1280.89 2258.89 1284.52C2266.43 1288.3 2273.9 1249.02 2278.81 1230.39C2295.96 1165.46 2280.46 1113.3 2211.9 1106.12Z" fill="#734731"/>
<path d="M2170.91 1177.92L2110.84 1176.72C2106.04 1167.5 2107.13 1144.59 2110.99 1133.23C2116.98 1115.56 2138.97 1122.74 2156.67 1114.79L2170.91 1177.92Z" fill="#734731"/>
<path d="M2166.65 1294.95C2161.91 1280.76 2146.65 1267.85 2132.6 1267.69C2132.06 1267.69 2133.47 1282.09 2134.81 1282.26C2144.67 1283.51 2157.74 1289.54 2162.6 1302.43C2166.49 1306.03 2169.34 1303.73 2166.65 1294.95Z" fill="#734731"/>
<path d="M2134.49 1317.17C2132.07 1309.85 2124.75 1283.67 2134.79 1282.33C2135.74 1282.2 2133.17 1267.74 2132.78 1267.75C2116.06 1268.34 2124.05 1308.98 2131.07 1319.76L2134.49 1317.17Z" fill="#734731"/>
<path d="M2170.71 1336.97L2160.94 1338.98C2158.25 1321.01 2167.11 1310.16 2159.87 1294.82L2164.27 1292.72C2171.36 1307.96 2167.05 1318.65 2170.71 1336.97Z" fill="#734731"/>
<path d="M2333.74 1373.7C2304.79 1382.31 2323.1 1460.88 2349.96 1468.76C2363.02 1472.58 2596.8 1438.91 2606.2 1425.07C2617.71 1408.12 2583.53 1379.9 2544.5 1367.07C2540.08 1365.61 2351.16 1368.52 2333.74 1373.7Z" fill="#D9D9D9"/>
<path d="M2637.02 1176.95C2643.01 1187.68 2621.58 1199.83 2596.12 1198.47C2572.95 1197.24 2556.95 1192.47 2553.14 1181.46C2565.1 1176.88 2565.14 1166.85 2588.3 1165.6C2611.46 1164.35 2631.82 1167.64 2637.02 1176.95Z" fill="#D9D9D9"/>
<path d="M2542.6 1186.61C2549.22 1187.05 2559.29 1180.87 2559.02 1178.15C2558.73 1175.11 2545.71 1175.52 2541.05 1177.3C2539.28 1177.98 2536.35 1180.26 2536.16 1181.65C2535.87 1183.79 2539.56 1186.41 2542.6 1186.61Z" fill="#D9D9D9"/>
<path d="M2639.44 1174.52C2645.44 1185.25 2624 1197.41 2598.54 1196.05C2575.38 1194.81 2559.37 1190.05 2555.57 1179.04C2552.08 1168.97 2567.56 1164.42 2590.73 1163.18C2613.89 1161.93 2634.25 1165.22 2639.44 1174.52Z" fill="#F0C7AD"/>
<path d="M2542.06 1185.67C2548.68 1186.11 2558.75 1179.93 2558.49 1177.21C2558.19 1174.17 2545.17 1174.58 2540.51 1176.36C2538.74 1177.04 2535.81 1179.32 2535.62 1180.71C2535.33 1182.85 2539.02 1185.47 2542.06 1185.67Z" fill="#F0C7AD"/>
<path d="M1863.88 1267.62C1863.12 1267.77 1862.11 1267.92 1861.36 1268.12C1860.25 1268.4 1858.76 1268.83 1857.68 1269.23C1856.96 1269.49 1856 1269.87 1855.31 1270.2C1854.24 1270.72 1852.83 1271.47 1851.8 1272.08C1851.13 1272.48 1850.26 1273.06 1849.64 1273.53C1848.59 1274.33 1847.24 1275.45 1846.26 1276.33C1845.03 1277.42 1843.56 1279.06 1842.55 1280.36C1841.53 1281.67 1840.24 1283.48 1839.42 1284.92C1838.97 1285.69 1838.37 1286.73 1837.98 1287.53C1837.43 1288.65 1836.69 1290.15 1836.26 1291.32C1835.93 1292.22 1835.46 1293.41 1835.17 1294.31C1834.81 1295.4 1834.35 1296.86 1834.09 1297.98C1833.65 1299.86 1833.16 1302.38 1832.84 1304.28C1832.66 1305.34 1832.52 1306.75 1832.43 1307.82C1832.25 1310.08 1831.77 1316.09 1832.96 1324.24C1833.27 1326.37 1833.27 1326.37 1834.2 1330.66C1834.4 1331.61 1834.78 1332.87 1835.03 1333.81C1835.4 1335.22 1836.52 1338.54 1837.13 1340.01C1837.52 1340.94 1838 1342.2 1838.44 1343.11C1839.29 1344.85 1840.48 1347.15 1841.42 1348.84C1841.44 1348.86 1842.92 1351.46 1845.16 1354.37C1849.24 1359.67 1853.37 1362.89 1856.1 1364.63C1860.19 1367.24 1863.78 1368.66 1867.83 1369.57C1870.13 1370.09 1872.47 1370.26 1873.18 1370.28C1873.94 1370.31 1874.96 1370.35 1875.72 1370.31C1876.92 1370.25 1878.51 1370.1 1879.69 1369.94C1871.99 1371.13 1863.49 1367.16 1856.09 1357.78C1841.54 1339.32 1836.77 1306.89 1845.44 1285.35C1849.7 1274.76 1856.42 1268.78 1863.88 1267.62Z" fill="#C24848"/>
<path d="M1845.44 1285.35C1849.67 1274.85 1856.31 1268.87 1863.7 1267.65C1871.82 1266.31 1879.94 1264.97 1888.06 1263.63C1890.42 1261.39 1892.99 1259.76 1895.69 1258.76C1893.01 1260.09 1892.51 1262.55 1888.97 1263.48C1889.22 1263.44 1889.48 1263.4 1889.73 1263.36C1889.35 1263.42 1888.96 1263.5 1888.58 1263.59C1888.34 1263.65 1888.1 1263.75 1887.86 1263.82C1887.88 1263.8 1887.89 1263.79 1887.91 1263.77C1887.36 1263.92 1886.82 1264.1 1886.29 1264.3C1886.8 1264.11 1887.33 1263.97 1887.86 1263.82C1884.57 1267.01 1881.69 1271.4 1879.44 1276.98C1870.05 1300.31 1875.22 1335.43 1890.98 1355.43C1895.02 1360.56 1899.36 1364.14 1903.75 1366.32C1904.38 1366.3 1905.01 1366.3 1905.63 1366.21C1905.38 1366.25 1905.12 1366.28 1904.87 1366.32C1908.47 1366.14 1909.71 1368.28 1912.59 1368.77C1909.76 1368.62 1906.88 1367.83 1904.01 1366.44C1895.84 1367.62 1887.68 1368.79 1879.52 1369.97C1871.85 1371.07 1863.43 1367.09 1856.09 1357.78C1841.54 1339.32 1836.77 1306.89 1845.44 1285.35Z" fill="#E35554"/>
<path d="M1879.55 1276.4C1883.98 1265.39 1890.82 1258.91 1898.49 1257.16C1898.93 1257.06 1899.38 1256.97 1899.83 1256.9C1904.01 1256.25 1908.4 1257 1912.75 1259.14C1912.27 1259.18 1911.79 1259.23 1911.31 1259.3C1903.7 1260.48 1896.85 1266.59 1892.5 1277.39C1883.65 1299.36 1888.52 1332.45 1903.36 1351.28C1910.91 1360.85 1919.58 1364.9 1927.45 1363.69C1927.92 1363.62 1928.39 1363.52 1928.86 1363.41C1925.36 1366.77 1921.4 1368.8 1917.23 1369.44C1916.78 1369.51 1916.32 1369.57 1915.87 1369.6C1907.76 1370.27 1898.97 1365.84 1891.27 1356.07C1875.26 1335.76 1870.02 1300.09 1879.55 1276.4Z" fill="#FFBB00"/>
<path d="M1921.53 1253.55C1916.1 1254.39 1916.73 1258.46 1911.31 1259.3C1903.7 1260.48 1896.85 1266.58 1892.5 1277.39C1883.65 1299.36 1888.52 1332.44 1903.37 1351.28C1910.91 1360.85 1919.58 1364.9 1927.45 1363.69C1932.87 1362.85 1933.5 1366.93 1938.92 1366.09C1930.44 1367.4 1921.1 1363.03 1912.96 1352.71C1896.96 1332.41 1891.71 1296.74 1901.24 1273.05C1905.93 1261.4 1913.32 1254.82 1921.53 1253.55Z" fill="#EBAB00"/>
<path d="M1901.24 1273.05C1905.93 1261.4 1913.32 1254.82 1921.53 1253.55C1925.71 1252.9 1930.09 1253.64 1934.45 1255.79C1933.96 1255.82 1933.49 1255.88 1933.01 1255.95C1925.4 1257.13 1918.54 1263.23 1914.2 1274.04C1905.35 1296.01 1910.22 1329.09 1925.06 1347.93C1932.61 1357.5 1941.28 1361.55 1949.14 1360.34C1949.62 1360.26 1950.09 1360.17 1950.56 1360.06C1947.05 1363.42 1943.09 1365.45 1938.92 1366.09C1930.44 1367.4 1921.1 1363.03 1912.96 1352.71C1896.95 1332.41 1891.71 1296.74 1901.24 1273.05Z" fill="#FFBB00"/>
<path d="M1943.23 1250.2C1937.81 1251.03 1938.44 1255.11 1933.01 1255.95C1925.4 1257.13 1918.54 1263.23 1914.2 1274.04C1905.35 1296.01 1910.22 1329.09 1925.06 1347.93C1932.61 1357.5 1941.28 1361.55 1949.15 1360.34C1954.57 1359.5 1955.2 1363.58 1960.62 1362.74C1952.14 1364.05 1942.8 1359.68 1934.66 1349.36C1918.65 1329.05 1913.41 1293.39 1922.94 1269.7C1927.63 1258.05 1935.02 1251.46 1943.23 1250.2Z" fill="#EBAB00"/>
<path d="M1922.94 1269.7C1927.63 1258.05 1935.02 1251.46 1943.23 1250.19C1943.56 1250.14 1943.87 1250.11 1944.17 1250.09C1944.07 1250.1 1943.97 1250.11 1943.88 1250.12C1944.11 1250.09 1944.35 1250.05 1944.58 1250.03C1945.58 1249.88 1946.41 1249.89 1947.14 1250C1950.12 1250.15 1953.17 1250.97 1956.2 1252.47C1955.93 1252.48 1955.66 1252.48 1955.39 1252.5C1954.97 1252.54 1954.55 1252.59 1954.13 1252.65C1946.52 1253.83 1939.66 1259.94 1935.31 1270.75C1926.46 1292.74 1931.33 1325.84 1946.18 1344.68C1953.73 1354.26 1962.41 1358.31 1970.28 1357.1C1970.69 1357.03 1971.11 1356.95 1971.52 1356.86C1971.79 1356.8 1972.04 1356.72 1972.3 1356.65C1969.86 1359 1967.2 1360.7 1964.4 1361.74C1963.74 1362.07 1962.96 1362.32 1961.96 1362.48C1961.73 1362.53 1961.5 1362.57 1961.26 1362.61C1961.04 1362.66 1960.82 1362.7 1960.63 1362.73C1960.63 1362.73 1960.62 1362.73 1960.62 1362.73C1952.14 1364.04 1942.79 1359.68 1934.66 1349.36C1918.65 1329.05 1913.41 1293.39 1922.94 1269.7Z" fill="#FFBB00"/>
<path opacity="0.07" d="M150 1923.96L550.475 1691.23L953.322 1923.81L552.847 2156.54L150 1923.96Z" fill="black"/>
<path d="M904.851 1866.23L904.72 1912.47L562.87 2111.13L563.001 2064.89L904.851 1866.23Z" fill="#D9D9D9"/>
<path d="M563.001 2064.89L562.87 2111.13L218.839 1912.51L218.97 1866.27L563.001 2064.89Z" fill="#949494"/>
<path d="M904.851 1866.23L563.001 2064.89L218.97 1866.27L560.82 1667.61L904.851 1866.23Z" fill="#F0F0F0"/>
<path d="M703.92 1903.92C625.948 1949.23 499.221 1949.24 420.795 1903.96C381.302 1881.16 361.578 1851.24 361.663 1821.37L361.56 1857.64C361.475 1887.51 381.199 1917.43 420.693 1940.23C499.119 1985.51 625.846 1985.51 703.818 1940.19C742.539 1917.69 761.929 1888.23 762.013 1858.73L762.116 1822.46C762.032 1851.96 742.642 1881.42 703.92 1903.92Z" fill="#C2C2C2"/>
<path d="M703.053 1739.93C781.479 1785.21 781.836 1858.64 703.92 1903.92C625.948 1949.24 499.221 1949.24 420.795 1903.96C342.313 1858.65 341.9 1785.24 419.872 1739.93C497.789 1694.65 624.572 1694.61 703.053 1739.93Z" fill="white"/>
<path d="M693.165 1231.66L687.509 1873.55C697.739 1864.49 704.724 1854.52 708.297 1844.2L713.953 1202.31C710.38 1212.63 703.395 1222.6 693.165 1231.66Z" fill="#ACACAC"/>
<path d="M426.47 1202.34L420.815 1844.23C424.56 1854.52 431.545 1864.49 441.933 1873.59L447.589 1231.7C437.2 1222.6 430.216 1212.63 426.47 1202.34Z" fill="#A5A5A5"/>
<path d="M652.997 1232.86C647.185 1236.24 644.279 1240.66 644.267 1245.09L638.611 1886.97C638.624 1882.55 641.529 1878.13 647.341 1874.75C658.313 1868.37 675.689 1868.02 687.509 1873.55L693.165 1231.66C681.344 1226.13 663.969 1226.49 652.997 1232.86Z" fill="#DBDBDB"/>
<path d="M487.826 1232.86C476.783 1226.49 459.347 1226.1 447.589 1231.7L441.933 1873.58C453.691 1867.98 471.127 1868.37 482.17 1874.75C488.088 1878.17 491.044 1882.65 491.031 1887.13L496.687 1245.24C496.7 1240.76 493.744 1236.28 487.826 1232.86Z" fill="#C9C9C9"/>
<path d="M600.448 1268.27L594.793 1910.16C612.605 1908.05 629.736 1904.01 645.404 1898.02L651.06 1256.13C635.392 1262.12 618.261 1266.17 600.448 1268.27Z" fill="#BBBBBB"/>
<path d="M489.969 1256.17L484.314 1898.05C500.049 1904.04 517.281 1908.05 535.062 1910.19L540.717 1268.3C522.936 1266.17 505.704 1262.15 489.969 1256.17Z" fill="#BBBBBB"/>
<path d="M591.785 1257.78C580.012 1250.99 561.015 1250.99 549.319 1257.78C544.251 1260.73 541.422 1264.45 540.717 1268.3L535.062 1910.19C535.767 1906.34 538.596 1902.62 543.664 1899.67C555.36 1892.87 574.358 1892.87 586.13 1899.67C591.231 1902.62 594.101 1906.34 594.793 1910.16L600.449 1268.27C599.756 1264.45 596.886 1260.73 591.785 1257.78Z" fill="#E4E4E4"/>
<path d="M692.64 1138.39C703.028 1147.48 710.013 1157.45 713.759 1167.74C707.168 1168.13 700.696 1169.82 695.683 1172.73C683.987 1179.52 684.049 1190.53 695.821 1197.32C700.922 1200.27 707.357 1201.92 713.953 1202.31C710.379 1212.63 703.395 1222.6 693.164 1231.67C681.343 1226.13 663.968 1226.49 652.996 1232.86C642.024 1239.24 641.41 1249.34 651.059 1256.13C635.391 1262.12 618.26 1266.17 600.448 1268.27C599.756 1264.45 596.885 1260.73 591.784 1257.79C580.012 1250.99 561.014 1250.99 549.318 1257.79C544.25 1260.73 541.421 1264.45 540.716 1268.3C522.935 1266.17 505.703 1262.15 489.968 1256.17C499.596 1249.34 498.869 1239.24 487.825 1232.86C476.782 1226.49 459.346 1226.1 447.587 1231.7C437.199 1222.6 430.214 1212.64 426.468 1202.34C433.115 1201.92 439.531 1200.27 444.6 1197.33C456.296 1190.53 456.234 1179.53 444.462 1172.73C439.36 1169.78 432.926 1168.13 426.274 1167.71C429.904 1157.42 436.832 1147.48 447.062 1138.36C458.883 1143.95 476.315 1143.57 487.287 1137.19C498.259 1130.82 498.816 1120.75 489.167 1113.89C504.835 1107.96 522.022 1103.89 539.779 1101.75C540.527 1105.6 543.398 1109.32 548.499 1112.27C560.271 1119.07 579.269 1119.07 590.965 1112.27C595.977 1109.36 598.862 1105.6 599.511 1101.78C617.292 1103.92 634.524 1107.93 650.259 1113.92C640.631 1120.75 641.414 1130.82 652.457 1137.19C663.502 1143.57 680.881 1143.99 692.64 1138.39Z" fill="#F8F8F8"/>
<path d="M693.103 1253.62L562.883 1329.3L447.501 1262.68L447.384 1304.18L562.765 1370.79L692.986 1295.11L693.103 1253.62Z" fill="#ECECEC"/>
<path d="M447.384 1304.17L447.501 1262.68L426.334 1250.46L426.216 1291.95L447.384 1304.17Z" fill="#ECECEC"/>
<path d="M692.986 1295.11L713.724 1283.06L713.842 1241.57L693.103 1253.62L692.986 1295.11Z" fill="#ECECEC"/>
<path d="M823.459 1100.02C736.003 1049.53 648.548 999.037 561.092 948.544C561.007 948.495 560.875 931.898 560.867 930.917L879.484 1114.87C877.323 1114.6 840.767 1110.01 823.459 1100.02Z" fill="#BABABA"/>
<path d="M561.093 948.544C513.101 976.434 465.112 1004.32 417.12 1032.21C413.017 1034.6 407.546 1037.78 403.443 1040.16C395.325 1044.88 384.501 1051.17 376.383 1055.89C355.059 1068.28 333.736 1080.67 312.412 1093.06C308.864 1095.12 303.486 1097.03 300.584 1099.94C283.282 1109.99 246.489 1114.6 244.321 1114.87L560.867 930.917C560.875 931.901 561.008 948.593 561.093 948.544Z" fill="#B3B3B3"/>
<path d="M817.768 1096.5C817.997 1014.66 703.644 948.001 562.355 947.606C421.065 947.212 306.343 1013.24 306.114 1095.07C305.885 1176.91 420.238 1243.58 561.527 1243.97C702.817 1244.37 817.539 1178.34 817.768 1096.5Z" fill="#F8F8F8"/>
<path d="M562.938 1298.83L562.823 1339.23L244.207 1155.28L244.321 1114.87L562.938 1298.83Z" fill="#949494"/>
<path d="M817.782 1095.83C830.633 1108.74 877.041 1114.56 879.484 1114.87L562.938 1298.83C562.931 1297.11 562.796 1264.39 562.791 1244.01L817.782 1095.83Z" fill="#F0F0F0"/>
<path d="M879.484 1114.87L879.369 1155.27L562.823 1339.23L562.938 1298.83L879.484 1114.87Z" fill="#D9D9D9"/>
<path d="M562.79 1244.01C562.795 1264.39 562.93 1297.1 562.937 1298.83L244.32 1114.87C246.764 1114.57 293.206 1108.75 306.13 1095.83L562.79 1244.01Z" fill="#D6D6D6"/>
<path d="M697.723 1090.21C697.846 1045.94 635.98 1009.87 559.54 1009.66C483.1 1009.44 421.033 1045.16 420.91 1089.44C420.786 1133.71 482.652 1169.78 559.092 1169.99C635.532 1170.21 697.599 1134.49 697.723 1090.21Z" fill="#D9D9D9"/>
<path d="M748.634 897.205C748.531 895.889 748.375 894.574 748.191 893.26C748.025 891.589 747.829 889.916 747.574 888.24C748.009 890.632 748.347 893.072 748.556 895.575C748.273 889.974 747.805 883.925 746.983 879.082C745.732 871.705 743.008 862.067 740.778 854.925C739.624 851.229 737.683 846.414 735.921 842.966C732.449 836.171 727.625 827.177 723.362 820.848C719.837 815.613 714.655 808.937 710.388 804.287C707.871 801.544 704.494 797.901 701.817 795.314C698.622 792.228 694.276 788.191 690.828 785.39C685.318 780.913 677.834 775.071 671.842 771.262C668.225 768.963 663.432 765.845 659.711 763.72C656.785 762.049 653.075 759.962 649.454 758.009C649.792 759.869 649.965 761.737 649.959 763.604C649.424 766.378 649.531 769.089 650.18 771.764C649.543 771.269 649.185 770.451 649.393 769.378C647.145 780.979 638.203 792.205 622.617 800.951C611.121 807.402 597.411 811.718 582.945 813.913C567.635 816.237 551.479 816.186 536.203 813.778C521.044 811.388 506.752 806.677 495.016 799.661C480.436 790.945 472.119 780.058 470.018 768.876C469.657 766.957 469.48 765.028 469.485 763.101C469.49 761.263 469.668 759.426 470.005 757.597C467.472 758.898 464.884 760.244 462.291 761.699C458.219 764.029 452.86 767.26 448.888 769.758C446.463 771.283 443.314 773.447 440.976 775.102C435.097 779.263 427.658 785.364 422.204 790.068C419.399 792.487 415.887 795.973 413.31 798.635C410.714 801.316 407.467 805.091 404.971 807.866C402.454 810.664 399.485 814.727 397.274 817.773C393.568 822.879 389.127 830.064 386.21 835.658C383.198 841.435 379.594 849.388 377.561 855.577C375.092 863.097 372.627 873.403 371.309 881.207C370.299 887.185 370.134 895.306 369.827 901.361C369.816 905.409 370.188 909.458 370.945 913.489C375.357 936.973 392.824 959.836 423.442 978.14C496.389 1021.75 616.363 1022.96 691.411 980.848C724.142 962.481 742.922 938.907 747.642 914.544C748.422 910.517 748.818 906.469 748.83 902.419C748.781 900.787 748.716 899.028 748.634 897.205Z" fill="#FFDF71"/>
<path d="M471.267 760.878C471.309 760.802 471.351 760.722 471.392 760.653C471.511 760.453 471.645 760.223 471.783 759.991C471.715 760.101 471.648 760.202 471.579 760.319C471.479 760.485 471.373 760.679 471.267 760.878Z" fill="white"/>
<path d="M469.813 766.39C469.815 766.538 469.822 766.701 469.829 766.864C469.824 766.224 469.84 765.512 469.933 764.953C470.026 764.394 470.2 763.724 470.385 763.101C470.217 763.64 470.064 764.194 469.977 764.671C469.885 765.18 469.807 765.872 469.813 766.39Z" fill="white"/>
<path d="M470.385 763.1C470.514 762.686 470.652 762.279 470.781 761.93C470.9 761.606 471.081 761.23 471.268 760.878C471.036 761.302 470.8 761.817 470.657 762.238C470.567 762.5 470.475 762.796 470.385 763.1Z" fill="white"/>
<path d="M496.829 725.752C481.122 734.565 472.168 745.898 470.008 757.594C473.425 755.84 476.739 754.17 479.804 752.45C490.702 746.335 498.484 739.549 496.829 725.752Z" fill="white"/>
<path d="M469.839 767.472C469.849 767.896 469.966 768.453 470.02 768.874C469.935 768.28 469.86 767.527 469.829 766.864C469.831 767.077 469.835 767.283 469.839 767.472Z" fill="white"/>
<path d="M477.4 754.03C478.095 753.519 479.068 752.902 479.804 752.451C479.13 752.856 478.232 753.401 477.605 753.875C477.55 753.916 477.48 753.969 477.4 754.03Z" fill="white"/>
<path d="M474.378 756.673C474.681 756.366 474.992 756.067 475.316 755.757C475.158 755.901 475.001 756.048 474.847 756.199C474.701 756.34 474.541 756.504 474.378 756.673Z" fill="white"/>
<path d="M475.338 755.736C475.331 755.743 475.324 755.75 475.317 755.757C476.13 755.015 476.952 754.372 477.4 754.031L477.398 754.032C476.752 754.507 475.918 755.181 475.338 755.736Z" fill="white"/>
<path d="M471.783 759.991C472.033 759.586 472.277 759.211 472.515 758.877C472.503 758.893 472.489 758.911 472.477 758.927C472.245 759.225 472.006 759.613 471.783 759.991Z" fill="white"/>
<path d="M472.514 758.877C472.81 758.494 473.179 757.995 473.488 757.639C473.744 757.344 474.066 756.996 474.377 756.673C473.746 757.313 473.145 757.988 472.514 758.877Z" fill="white"/>
<path d="M656.684 657.21C604.712 626.141 519.235 625.278 465.766 655.281C412.297 685.284 411.084 734.793 463.056 765.861C467.321 768.411 471.812 770.756 476.492 772.898C477.262 772.332 478.002 772.107 478.617 772.242C486.103 776.096 493.632 779.858 498.464 782.602C507.416 787.685 485.391 769.101 483.705 761.689C480.646 748.242 488.21 734.176 506.284 724.033C536.66 706.988 585.219 707.479 614.744 725.129C631.829 735.342 638.797 749.063 635.75 762.115C634.019 769.532 611.935 788.021 620.873 782.951C625.902 780.098 633.759 776.434 641.449 772.69C641.904 772.765 642.397 772.989 642.904 773.366C646.723 771.644 650.419 769.786 653.974 767.791C707.443 737.787 708.657 688.278 656.684 657.21ZM465.882 765.508C465.518 765.291 465.171 765.068 464.812 764.849C468.584 767.007 473.014 769.347 477.514 771.672C473.481 769.773 469.59 767.724 465.882 765.508Z" fill="#F0D16B"/>
<path d="M478.925 772.341C480.962 773.213 483.649 774.448 485.716 775.247C488.826 776.451 493.001 777.987 496.173 779.015C505.795 782.135 514.685 783.946 514.774 783.964C517.564 784.528 521.288 785.264 524.098 785.723C527.152 786.222 531.235 786.834 534.312 787.155C537.293 787.467 541.268 787.906 544.26 788.082C548.849 788.353 554.977 788.633 559.574 788.646C566.353 788.665 573.131 788.386 579.722 787.818C591.046 786.841 599.393 785.22 599.476 785.203C602.142 784.681 605.702 784.009 608.348 783.395C611.389 782.69 615.439 781.713 618.427 780.809C622.874 779.463 628.742 777.467 633.108 775.88C635.36 775.061 638.288 773.775 640.474 772.793C641.142 772.489 642.005 772.695 642.904 773.364C594 795.418 525.05 795.126 476.492 772.898C477.395 772.234 478.259 772.033 478.925 772.341Z" fill="white"/>
<path d="M747.644 914.539C742.924 938.902 724.144 962.477 691.413 980.843C616.365 1022.96 496.392 1021.74 423.445 978.135C392.827 959.832 375.36 936.968 370.948 913.484C370.191 909.453 369.818 905.404 369.83 901.356C369.917 908.114 370.54 917.112 370.995 923.856C371.127 925.818 371.511 928.416 371.787 930.363C373.114 939.731 375.609 952.151 378.308 961.22C380.074 967.154 382.706 974.986 384.851 980.795C386.419 985.039 388.833 990.574 390.677 994.705C392.988 999.881 396.46 1006.6 399.134 1011.6C401.148 1015.37 404.145 1020.21 406.297 1023.9C408.878 1028.32 412.798 1033.93 415.727 1038.13C417.975 1041.36 421.137 1045.54 423.549 1048.65C426.036 1051.85 429.36 1055.87 432.164 1059.15C438.521 1066.52 446.902 1073.47 457.334 1079.7C511.905 1112.32 601.656 1113.23 657.798 1081.73C668.53 1075.71 677.232 1068.93 683.947 1061.69C684.835 1060.7 685.738 1059.71 686.539 1058.8C689.63 1055.3 693.469 1050.4 696.364 1046.74C699.925 1042.24 707.641 1031.59 713.768 1021.36C716.689 1016.48 720.377 1009.85 723.004 1004.8C725.061 1000.85 727.613 995.485 729.374 991.394C731.86 985.619 734.887 977.794 736.974 971.863C738.521 967.468 740.159 961.468 741.477 956.998C743.43 950.372 745.329 941.317 746.251 934.471C747.54 924.909 748.426 912.054 748.832 902.414C748.82 906.464 748.425 910.513 747.644 914.539Z" fill="#B39B51"/>
<path d="M441.019 1068.99C438.448 1066.15 435.049 1062.47 432.454 1059.49C432.685 1059.76 432.938 1060.06 433.16 1060.31C435.888 1063.46 439.605 1067.6 442.529 1070.57C442.573 1070.62 442.626 1070.67 442.67 1070.71L441.019 1068.99Z" fill="#C2B076"/>
<path d="M651.283 1089.34C598.824 1118.78 514.962 1117.93 463.971 1087.45C456.118 1082.75 449.542 1077.62 444.161 1072.21C448.341 1076.39 453.459 1081.31 457.511 1085.09C459.868 1087.28 463.145 1090.07 465.64 1092.11C467.547 1093.67 470.096 1095.74 472.043 1097.24C474.028 1098.78 476.705 1100.79 478.745 1102.26C481.019 1103.89 485.75 1107.28 492.252 1111.19C492.836 1111.54 493.623 1111.99 494.211 1112.34C529.625 1132.78 586.845 1133.14 622.783 1112.97C630.402 1108.67 638.523 1103.18 646.921 1096.65C649.299 1094.8 652.417 1092.27 654.723 1090.33C656.886 1088.51 659.695 1086 661.816 1084.14C664.617 1081.67 668.225 1078.24 670.854 1075.6C671.669 1074.78 672.563 1073.85 673.442 1072.94C667.509 1078.83 660.151 1084.36 651.283 1089.34Z" fill="#9C8D5F"/>
<path d="M744.996 941.643L741.798 955.778C736.016 978.1 718.023 999.523 687.909 1016.42C614.792 1057.45 497.905 1056.27 426.835 1013.78C398.746 996.992 382.018 976.261 376.571 954.795C374.986 947.507 372.962 937.764 371.791 930.398C375.124 954.828 392.628 978.781 424.414 997.782C496.81 1041.06 615.878 1042.26 690.359 1000.47C724.302 981.423 743.127 956.733 746.712 931.404L744.996 941.643Z" fill="#E65C4E"/>
<path d="M674.355 1072.08C668.281 1078.3 660.588 1084.12 651.282 1089.34C598.823 1118.78 514.961 1117.93 463.97 1087.45C455.735 1082.53 448.862 1077.13 443.345 1071.42L441.018 1068.99C438.312 1066 434.664 1062.05 432.029 1059.01C438.401 1066.43 446.833 1073.43 457.333 1079.7C511.904 1112.32 601.655 1113.23 657.797 1081.73C669.471 1075.18 678.773 1067.74 685.694 1059.78C682.325 1063.5 677.847 1068.47 674.355 1072.08Z" fill="#C95144"/>
<path d="M748.781 899.719C748.808 900.613 748.835 901.507 748.832 902.415C748.834 901.517 748.816 900.618 748.781 899.719Z" fill="white"/>
<path d="M748.781 899.718C748.738 898.321 748.67 896.935 748.556 895.572C748.584 896.121 748.61 896.664 748.634 897.203C748.7 898.042 748.748 898.88 748.781 899.718Z" fill="white"/>
<path d="M648.471 768.268C648.585 767.419 651.48 739.512 621.711 724.007C585.818 705.313 531.641 704.591 495.905 724.644C460.119 749.918 468.673 765.028 469.611 766.872C483.827 794.815 648.78 815.263 648.471 768.268Z" fill="#B59D50"/>
<path d="M653.691 779.735C653.685 781.744 653.489 783.753 653.102 785.751C651.429 782.964 650.223 780.195 649.582 777.425C649.954 775.503 650.144 773.571 650.149 771.638C650.793 774.366 652.007 777.056 653.691 779.735Z" fill="#FF6756"/>
<path d="M466.22 785.227C465.844 783.227 465.66 781.218 465.665 779.21C467.364 776.54 468.593 773.857 469.253 771.132C469.248 773.064 469.425 774.997 469.787 776.921C469.131 779.688 467.909 782.449 466.22 785.227Z" fill="#FF6756"/>
<path d="M398.719 838.475C398.771 820.284 407.966 802.131 426.245 786.527C438.635 776.597 438.871 776.408 446.767 771.142C422.356 787.298 410.073 807.531 410.015 827.815C406.135 831.215 402.336 834.759 398.719 838.475Z" fill="#FF6756"/>
<path d="M399.668 848.764C399.025 845.344 398.709 841.908 398.719 838.474C402.337 834.758 406.135 831.215 410.016 827.815C410.007 831.009 410.301 834.204 410.898 837.384C407.04 841.031 403.264 844.818 399.668 848.764Z" fill="#FF6756"/>
<path d="M617.818 789.552C617.569 789.399 617.326 789.245 617.072 789.093C586.197 770.636 535.418 770.123 503.654 787.947C503.467 791.506 503.325 795.179 503.247 798.963C527.203 785.52 561.902 782.44 590.871 789.552H617.818Z" fill="#8F2C22"/>
<path d="M653.101 785.75C650.759 797.837 641.442 809.532 625.204 818.644C587.972 839.536 528.453 838.934 492.263 817.301C477.073 808.221 468.408 796.878 466.219 785.227C467.908 782.449 469.13 779.687 469.786 776.921C471.892 788.13 480.228 799.042 494.842 807.779C529.659 828.592 586.922 829.171 622.741 809.071C638.363 800.305 647.327 789.053 649.58 777.425C650.222 780.195 651.428 782.963 653.101 785.75Z" fill="#FF6756"/>
<path d="M710.827 804.738C712.586 813.052 708.742 835.04 708.127 838.217C704.403 857.441 689.585 876.042 663.758 890.534C604.542 923.762 509.878 922.805 452.32 888.397C428.161 873.955 414.379 855.915 410.898 837.385C407.04 841.033 403.265 844.819 399.668 848.766C403.411 868.692 418.232 888.092 444.211 903.622C506.106 940.622 607.903 941.651 671.581 905.92C699.353 890.336 715.288 870.333 719.293 849.661C719.955 846.244 724.055 826.777 721.981 818.88C718.781 814.334 714.447 808.399 710.827 804.738Z" fill="#FF6756"/>
<path d="M647.516 774.723C647.153 775.447 646.569 776.36 646.108 777.026C645.69 777.628 645.068 778.384 644.592 778.942C643.987 779.65 642.431 781.224 640.83 782.435C640.243 782.879 639.458 783.47 638.839 783.869C638.403 784.15 637.828 784.535 637.384 784.803C636.7 785.216 635.785 785.763 635.078 786.136C633.91 786.752 632.335 787.541 631.139 788.103C630.233 788.529 629.006 789.057 628.076 789.428C627.009 789.854 625.587 790.423 624.502 790.801C622.617 791.458 620.093 792.31 618.178 792.875C613.346 794.301 609.961 795.07 606.346 795.858C603.113 796.563 598.757 797.279 595.493 797.822C571.992 801.389 547.19 801.311 523.74 797.614C524.321 797.704 524.942 797.832 525.585 798.01C526.067 798.144 526.561 798.306 527.059 798.503C526.56 798.306 526.066 798.144 525.585 798.01C524.942 797.832 524.322 797.704 523.74 797.614C520.037 797.029 516.339 796.34 513.047 795.621C507.321 794.37 503.681 793.313 502.702 793.019C499.333 792.007 496.672 791.207 492.287 789.477C488.43 787.955 485.795 786.545 484.38 785.788C483.414 785.271 482.156 784.523 481.243 783.918C479.693 782.891 479.693 782.891 477.956 781.53C477.4 781.095 476.7 780.464 476.199 779.967C475.59 779.362 474.816 778.516 474.26 777.861C473.421 776.873 472.282 775.126 471.772 774.047C471.531 773.536 471.186 772.863 471.004 772.328C470.658 771.308 470.264 769.924 470.017 768.875C472.118 780.058 480.435 790.945 495.015 799.66C506.75 806.676 521.042 811.387 536.202 813.777C551.478 816.185 567.634 816.236 582.944 813.912C597.41 811.716 611.12 807.4 622.616 800.95C637.679 792.498 646.517 781.728 649.124 770.542C648.617 772.519 647.97 773.82 647.516 774.723Z" fill="#A6904A"/>
<path d="M462.881 654.913C473.812 649.241 474.021 649.133 480.497 646.511C492.818 641.958 492.818 641.958 499.575 640.075C512.775 636.77 512.775 636.77 519.741 635.564C533.536 633.513 533.536 633.513 540.619 632.953C554.735 632.156 554.735 632.156 561.832 632.228C575.996 632.685 575.996 632.685 583.001 633.382C596.941 635.09 596.941 635.09 603.747 636.415C616.932 639.315 617.184 639.371 623.692 641.334C636.1 645.447 636.337 645.525 642.462 648.159C653.571 653.35 654.005 653.552 659.681 656.925C669.178 663.045 669.548 663.284 674.422 667.288C681.46 673.604 682.035 674.12 685.997 678.766C690.797 685.044 691.414 685.851 694.339 691.201C697.174 697.301 697.685 698.401 699.312 704.369C700.467 710.415 700.707 711.673 700.766 717.906C700.307 724.069 700.211 725.352 698.66 731.353C696.396 737.89 696.048 738.895 693.092 744.304C688.76 751.07 688.307 751.777 684.205 756.479C677.717 763.12 677.186 763.662 672.114 767.678C663.201 774.098 662.853 774.349 656.889 777.727C646.594 783.066 645.011 783.887 635.219 787.703C622.663 791.993 622.663 791.993 615.855 793.724C602.493 796.759 602.493 796.759 595.493 797.823C571.992 801.39 547.19 801.312 523.741 797.615C511.58 795.404 508.69 794.878 496 791.323C483.571 787.203 483.333 787.124 477.21 784.491C466.057 779.278 465.622 779.075 459.969 775.714C450.394 769.538 450.02 769.297 445.216 765.343C437.924 758.787 437.488 758.395 433.651 753.876C428.64 747.299 428.116 746.611 425.34 741.489C422.381 735.091 421.926 734.107 420.394 728.392C419.234 722.289 418.993 721.019 418.945 714.886C419.392 708.802 419.485 707.536 421.059 701.396C423.204 695.161 423.591 694.038 426.657 688.375C430.79 681.897 431.321 681.064 435.573 676.159C441.959 669.61 442.481 669.075 447.67 664.953C456.337 658.704 456.856 658.33 462.881 654.913C463.591 654.515 464.576 654.569 465.766 655.281C412.297 685.284 411.084 734.793 463.056 765.861C515.028 796.93 600.505 797.794 653.974 767.79C707.443 737.787 708.656 688.278 656.684 657.21C604.712 626.141 519.235 625.278 465.766 655.281C464.576 654.569 463.591 654.515 462.881 654.913Z" fill="#FF6A59"/>
<path d="M612.912 735.289C584.356 718.219 537.392 717.744 508.014 734.229C508.014 734.259 508.013 734.292 508.014 734.322C506.087 735.395 504.238 736.534 502.479 737.749C502.479 737.73 502.479 737.711 502.479 737.693C490.46 746.093 484.825 756.559 485.616 766.914C486.844 759.156 491.696 751.569 500.137 745.069L500.161 745.106C503.259 742.774 506.615 740.685 510.218 738.829L510.185 738.757C539.754 723.515 585.157 724.393 613.052 741.069C625.454 748.483 632.359 757.802 633.811 767.329C634.754 755.865 627.814 744.197 612.912 735.289Z" fill="#C45043"/>
<path d="M633.812 767.328C633.71 768.575 633.517 769.82 633.228 771.059C633.198 772.819 633.274 774.788 633.43 776.945C634.173 773.759 634.301 770.532 633.812 767.328Z" fill="#FF6756"/>
<path d="M485.941 776.532C486.109 774.376 486.196 772.408 486.176 770.648C485.894 769.407 485.711 768.161 485.616 766.914C485.109 770.112 485.215 773.34 485.941 776.532Z" fill="#FF6756"/>
<path d="M505.109 915.516C512.186 895.016 492.557 869.642 461.268 858.842C429.979 848.041 398.878 855.904 391.802 876.404C384.726 896.903 404.354 922.277 435.643 933.078C466.932 943.878 498.033 936.015 505.109 915.516Z" fill="#C2C2C2"/>
<mask id="mask2_2558_2733" style="mask-type:luminance" maskUnits="userSpaceOnUse" x="369" y="757" width="380" height="255">
<path d="M748.634 897.205C748.531 895.889 748.375 894.574 748.191 893.26C748.025 891.589 747.829 889.916 747.574 888.24C748.009 890.632 748.347 893.072 748.556 895.575C748.273 889.974 747.805 883.925 746.983 879.082C745.732 871.705 743.008 862.067 740.778 854.925C739.624 851.229 737.683 846.414 735.921 842.966C732.449 836.171 727.625 827.177 723.362 820.848C719.837 815.613 714.655 808.937 710.388 804.287C707.871 801.544 704.494 797.901 701.817 795.314C698.622 792.228 694.276 788.191 690.828 785.39C685.318 780.913 677.834 775.071 671.842 771.262C668.225 768.963 663.432 765.845 659.711 763.72C656.785 762.049 653.075 759.962 649.454 758.009C649.792 759.869 649.965 761.737 649.959 763.604C649.424 766.378 649.531 769.089 650.18 771.764C649.543 771.269 649.185 770.451 649.393 769.378C647.145 780.979 638.203 792.205 622.617 800.951C611.121 807.402 597.411 811.718 582.945 813.913C567.635 816.237 551.479 816.186 536.203 813.778C521.044 811.388 506.752 806.677 495.016 799.661C480.436 790.945 472.119 780.058 470.018 768.876C469.657 766.957 469.48 765.028 469.485 763.101C469.49 761.263 469.668 759.426 470.005 757.597C467.472 758.898 464.884 760.244 462.291 761.699C458.219 764.029 452.86 767.26 448.888 769.758C446.463 771.283 443.314 773.447 440.976 775.102C435.097 779.263 427.658 785.364 422.204 790.068C419.399 792.487 415.887 795.973 413.31 798.635C410.714 801.316 407.467 805.091 404.971 807.866C402.454 810.664 399.485 814.727 397.274 817.773C393.568 822.879 389.127 830.064 386.21 835.658C383.198 841.435 379.594 849.388 377.561 855.577C375.092 863.097 372.627 873.403 371.309 881.207C370.299 887.185 370.134 895.306 369.827 901.361C369.816 905.409 370.188 909.458 370.945 913.489C375.357 936.973 392.824 959.836 423.442 978.14C496.389 1021.75 616.363 1022.96 691.411 980.848C724.142 962.481 742.922 938.907 747.642 914.544C748.422 910.517 748.818 906.469 748.83 902.419C748.781 900.787 748.716 899.028 748.634 897.205Z" fill="white"/>
</mask>
<g mask="url(#mask2_2558_2733)">
<path d="M737.679 949.698L687.878 986.883C705.806 925.794 659.116 830.616 614.213 793.594L637.234 783.355C684.248 807.523 747.639 892.594 737.679 949.698Z" fill="#C2C2C2"/>
</g>
<path d="M2235.39 825.047C2266.89 825.047 2292.43 808.214 2292.43 787.451C2292.43 766.687 2266.89 749.854 2235.39 749.854C2203.88 749.854 2178.34 766.687 2178.34 787.451C2178.34 808.214 2203.88 825.047 2235.39 825.047Z" fill="#C4C4C4"/>
<path d="M2194.53 825.251C2217.63 838.214 2254.56 837.841 2277.01 824.418C2288.06 817.817 2293.54 809.288 2293.52 800.783C2293.47 805.071 2292.99 807.884 2291.86 811.6C2291.44 812.952 2290.76 814.717 2290.15 815.991C2289.4 817.548 2288.24 819.545 2287.33 821.013C2286.42 822.489 2284.93 824.285 2283.8 825.599C2282.85 826.696 2281.45 828.045 2280.39 829.032C2277.27 831.927 2273.65 834.156 2272.28 834.996C2271.6 835.416 2269.07 836.915 2265.25 838.585C2262.31 839.866 2259.75 840.67 2258.06 841.202C2253.85 842.524 2247.94 843.684 2243.35 844.088C2242.24 844.186 2240.76 844.337 2239.64 844.373C2238.53 844.409 2237.04 844.482 2235.92 844.493C2234.8 844.504 2233.31 844.462 2232.19 844.448C2229.97 844.42 2227.65 844.171 2224.72 843.856C2221 843.456 2214.54 842.14 2209.89 840.488C2207.61 839.679 2205.46 838.914 2202.55 837.488C2199.34 835.914 2197.68 834.907 2195.38 833.372C2194.54 832.808 2193.44 832.02 2192.65 831.382C2191.48 830.438 2189.97 829.117 2188.87 828.103C2187.61 826.956 2186.15 825.216 2185.06 823.916C2183.4 821.935 2180.62 817.642 2179.17 813.611C2178.03 810.462 2177.83 809.51 2177.31 806.696C2177.1 805.55 2177 804.122 2176.93 802.791C2177.66 811.007 2183.53 819.083 2194.53 825.251Z" fill="#525252"/>
<path d="M2293.4 763.599L2293.52 800.782C2293.54 809.287 2288.06 819.752 2277.01 826.353C2254.56 839.777 2217.63 840.15 2194.53 827.187C2182.79 820.599 2176.88 809.897 2176.85 801.108L2176.73 763.925C2177.5 730.355 2294.15 727.201 2293.4 763.599Z" fill="#858585"/>
<path d="M2194.41 783.509C2217.51 796.472 2254.44 796.099 2276.9 782.675C2287.94 776.074 2293.42 767.545 2293.4 759.04L2293.52 800.782C2293.54 809.287 2288.06 819.752 2277.01 826.353C2254.56 839.777 2217.63 840.15 2194.53 827.187C2182.78 820.599 2176.88 809.897 2176.85 801.108L2176.73 759.366C2176.76 768.155 2182.67 776.92 2194.41 783.509Z" fill="#787878"/>
<path d="M2190.84 778.666C2215.96 792.761 2256.11 792.355 2280.53 777.76C2291.13 771.423 2297.02 763.453 2298.24 755.308C2297.57 760.337 2295.7 765.018 2292.5 769.561C2291.36 771.173 2289.19 773.815 2286.78 775.957C2285.24 777.326 2282.92 779.395 2278.33 782.169C2277.07 782.936 2274.38 784.468 2270.61 786.103C2268.98 786.811 2266.23 787.905 2262.39 789.095C2261.23 789.454 2258.07 790.379 2253.78 791.218C2249.93 791.973 2247.03 792.286 2244.91 792.515C2242.14 792.815 2235.11 793.362 2226.74 792.687C2218.2 791.998 2212.83 790.578 2209.27 789.639C2205.26 788.579 2199.27 786.319 2196.18 784.704C2191.9 782.466 2191.65 782.332 2188.38 780.147C2187.39 779.478 2184.82 777.563 2183.13 775.96C2182.23 775.103 2180.54 773.508 2179.38 772.052C2178.87 771.416 2178.18 770.583 2177.71 769.913C2176.81 768.595 2176.02 767.456 2175.41 766.29C2173.93 763.449 2173.53 762.448 2172.66 759.569C2172.35 758.548 2172.17 757.503 2171.91 756.057C2171.81 755.441 2171.75 754.606 2171.68 753.984C2172.37 763.006 2178.77 771.894 2190.84 778.666Z" fill="#85821C"/>
<g opacity="0.8">
<path d="M2118.05 582.066C2118.56 577.836 2119.48 572.21 2120.57 568.093C2121.95 562.906 2124.16 556.082 2126.16 551.101C2127.79 547.017 2130.46 541.767 2132.65 537.953C2142.78 520.349 2157.47 505.634 2175.15 495.399C2178.8 493.284 2183.84 490.745 2187.71 489.067C2193.65 486.493 2199.39 484.714 2200.5 484.412C2202.2 483.944 2204.46 483.243 2206.19 482.861C2213.21 481.307 2213.21 481.307 2217.35 480.68C2218.97 480.435 2221.14 480.141 2222.77 480.015C2229.53 479.491 2229.93 479.459 2233.41 479.434C2236.6 479.411 2240.85 479.616 2244.04 479.799C2245.68 479.893 2247.86 480.143 2249.49 480.357C2251.19 480.579 2253.45 480.909 2255.14 481.204C2256.83 481.499 2259.07 481.987 2260.75 482.324C2262.47 482.669 2264.72 483.314 2266.42 483.748C2266.47 483.763 2272.36 485.278 2279.98 488.427C2283.86 490.026 2288.84 492.594 2292.55 494.535C2295.18 496.047 2298.62 498.174 2301.15 499.852C2303.06 501.124 2305.49 502.988 2307.34 504.36C2310.35 506.605 2314.12 509.944 2316.79 512.584C2320.04 515.788 2324.19 520.259 2326.99 523.857C2330.14 527.893 2333.97 533.561 2336.57 537.969C2341.94 547.098 2345.95 558.073 2347.33 563.222C2348.42 567.314 2349.84 572.803 2350.44 576.996C2351.23 582.475 2351.71 589.856 2351.95 595.387C2351.95 596.353 2351.92 597.32 2351.85 598.286C2351.99 647.689 2302.61 694.053 2298.42 753.63C2297.81 762.352 2291.86 770.989 2280.53 777.762C2256.11 792.358 2215.95 792.764 2190.84 778.668C2178.77 771.896 2172.37 763.009 2171.68 753.983C2167.15 694.431 2117.51 648.343 2117.37 598.94C2117.3 597.974 2117.26 597.008 2117.26 596.041C2117.33 591.841 2117.56 586.235 2118.05 582.066Z" fill="#FFDD00"/>
<path d="M2118.05 582.066C2118.56 577.836 2119.48 572.21 2120.57 568.093C2121.95 562.906 2124.16 556.082 2126.16 551.101C2127.79 547.017 2130.46 541.767 2132.65 537.954C2142.78 520.35 2157.47 505.635 2175.15 495.399C2178.8 493.284 2183.84 490.745 2187.71 489.067C2193.65 486.493 2199.39 484.714 2200.5 484.412C2202.2 483.944 2204.46 483.243 2206.19 482.861C2213.21 481.307 2213.21 481.307 2217.35 480.68C2218.97 480.435 2221.14 480.141 2222.77 480.015C2229.53 479.491 2229.93 479.459 2233.41 479.434C2236.6 479.411 2240.85 479.616 2244.04 479.799C2245.68 479.893 2247.86 480.143 2249.49 480.357C2251.19 480.579 2253.45 480.909 2255.14 481.204C2256.83 481.499 2259.07 481.987 2260.75 482.324C2262.47 482.669 2264.72 483.314 2266.42 483.748C2266.47 483.763 2272.36 485.278 2279.98 488.427C2283.86 490.026 2288.84 492.594 2292.55 494.535C2295.18 496.047 2298.62 498.174 2301.15 499.852C2303.06 501.124 2305.49 502.988 2307.34 504.36C2310.35 506.605 2314.12 509.944 2316.79 512.584C2320.04 515.788 2324.19 520.259 2326.99 523.857C2330.14 527.893 2333.97 533.561 2336.57 537.969C2341.94 547.098 2345.95 558.073 2347.33 563.222C2348.42 567.314 2349.84 572.803 2350.44 576.996C2351.23 582.475 2351.71 589.856 2351.95 595.387C2351.95 596.353 2351.92 597.32 2351.85 598.286C2350.71 614.422 2339.71 630.402 2318.75 642.931C2273.57 669.934 2199.28 670.685 2152.81 644.608C2130.48 632.079 2118.64 615.638 2117.37 598.94C2117.3 597.974 2117.26 597.008 2117.26 596.041C2117.33 591.841 2117.56 586.235 2118.05 582.066Z" fill="#FFE929"/>
</g>
<path d="M2177.07 789.236C2177.8 797.454 2183.68 805.529 2194.67 811.697C2217.77 824.66 2254.7 824.287 2277.16 810.864C2288.2 804.263 2293.69 795.734 2293.66 787.229C2297.3 792.312 2294.71 798.488 2293.34 801.995C2291.3 807.208 2285.18 813.815 2277.16 818.609C2254.7 832.033 2217.77 832.406 2194.67 819.443C2187.15 815.223 2182.64 810.713 2178.79 805.112C2173.8 797.852 2175.08 788.938 2177.07 789.236Z" fill="#EBEBEB"/>
<path d="M2177.07 773.1C2177.8 781.318 2183.68 789.393 2194.67 795.561C2217.77 808.524 2254.7 808.151 2277.16 794.727C2288.2 788.126 2293.69 779.597 2293.66 771.092C2297.3 776.175 2294.71 782.351 2293.34 785.859C2291.3 791.072 2285.18 797.678 2277.16 802.472C2254.7 815.896 2217.77 816.269 2194.67 803.306C2187.15 799.086 2182.64 794.577 2178.79 788.976C2173.8 781.717 2175.08 772.802 2177.07 773.1Z" fill="#E6E6E6"/>
<g opacity="0.5">
<path d="M2243.51 788.623C2238.09 789.054 2232.59 789.086 2227.16 788.705L2204.94 569.375C2204.83 568.311 2205.6 567.361 2206.67 567.254C2207.74 567.143 2208.68 567.921 2208.79 568.986L2231.01 788.215L2239.63 788.448L2262.34 602.087C2262.47 601.025 2263.43 600.278 2264.5 600.399C2265.56 600.529 2266.31 601.494 2266.18 602.556L2243.51 788.623Z" fill="#696969"/>
<path d="M2266.08 606.888L2265.66 606.646C2263.97 605.672 2262.01 603.122 2260.25 599.61C2261.84 597.565 2262.78 594.912 2262.79 592.407C2262.8 590.864 2262.46 589.411 2261.78 588.088C2261.25 587.049 2260.23 585.589 2258.42 584.542C2257.54 584.035 2256.73 583.777 2256.01 583.777C2255.42 583.777 2254.87 583.959 2254.44 584.303C2253.61 584.955 2253.19 586.135 2253.18 587.81C2253.17 590.288 2254.09 593.965 2255.65 597.743C2254.96 598.264 2254.02 598.752 2252.94 598.752C2252.31 598.752 2251.68 598.577 2251.08 598.23C2249.4 597.262 2247.45 594.711 2245.67 591.193C2247.26 589.15 2248.21 586.498 2248.22 583.99C2248.22 582.429 2247.88 580.975 2247.2 579.668C2246.68 578.643 2245.68 577.189 2243.85 576.132C2242.97 575.625 2242.16 575.368 2241.45 575.368C2240.85 575.368 2240.31 575.55 2239.87 575.894C2239.05 576.526 2238.62 577.709 2238.62 579.403C2238.61 581.879 2239.53 585.556 2241.09 589.334C2240.39 589.855 2239.45 590.344 2238.38 590.344C2237.74 590.344 2237.12 590.168 2236.52 589.821C2234.83 588.847 2232.87 586.296 2231.11 582.785C2232.7 580.742 2233.64 578.089 2233.65 575.581C2233.65 574.02 2233.31 572.566 2232.63 571.259C2232.11 570.226 2231.09 568.768 2229.28 567.717C2228.4 567.21 2227.59 566.953 2226.88 566.953C2226.27 566.953 2225.73 567.139 2225.3 567.493C2224.48 568.12 2224.05 569.301 2224.04 570.986C2224.03 573.451 2224.96 577.129 2226.52 580.922C2225.82 581.442 2224.88 581.933 2223.81 581.933C2223.17 581.933 2222.55 581.758 2221.95 581.412C2220.27 580.438 2218.31 577.887 2216.54 574.375C2218.13 572.33 2219.08 569.678 2219.09 567.172C2219.09 565.628 2218.75 564.175 2218.07 562.853C2217.54 561.816 2216.53 560.358 2214.71 559.307C2213.83 558.8 2213.02 558.542 2212.31 558.542C2211.71 558.542 2211.17 558.725 2210.73 559.068C2209.91 559.719 2209.48 560.899 2209.48 562.575C2209.47 565.054 2210.39 568.732 2211.95 572.508C2211.25 573.029 2210.31 573.52 2209.24 573.52C2208.61 573.52 2207.98 573.343 2207.38 572.995L2206.14 572.282L2206.11 576.585L2206.53 576.827C2207.72 577.513 2208.95 577.861 2210.19 577.861C2211.48 577.861 2212.76 577.478 2213.95 576.747C2215.42 579.443 2217.99 583.443 2221.11 585.242C2222.29 585.924 2223.51 586.27 2224.75 586.27C2226.04 586.27 2227.33 585.885 2228.52 585.147C2229.98 587.847 2232.55 591.848 2235.67 593.652C2236.85 594.335 2238.08 594.682 2239.32 594.682C2240.62 594.682 2241.9 594.298 2243.09 593.563C2244.55 596.259 2247.11 600.255 2250.24 602.06C2251.42 602.744 2252.65 603.091 2253.89 603.091C2255.18 603.091 2256.47 602.706 2257.66 601.971C2259.13 604.671 2261.69 608.673 2264.81 610.476L2266.04 611.189L2266.08 606.888ZM2257.05 588.14C2257.14 588.164 2257.31 588.224 2257.58 588.379C2258.12 588.691 2258.47 589.038 2258.7 589.469C2258.92 589.896 2259.04 590.506 2259.03 591.19C2259.03 592.289 2258.71 593.509 2258.15 594.649C2257.38 592.39 2256.94 590.359 2256.94 589.027C2256.94 588.525 2257.01 588.262 2257.05 588.14ZM2242.48 579.729C2242.57 579.752 2242.74 579.814 2243.01 579.971C2243.54 580.278 2243.91 580.634 2244.13 581.061C2244.35 581.487 2244.47 582.097 2244.47 582.781C2244.46 583.867 2244.15 585.086 2243.58 586.233C2242.81 583.967 2242.36 581.936 2242.36 580.612C2242.37 580.137 2242.43 579.86 2242.48 579.729ZM2227.91 571.317C2228 571.341 2228.17 571.401 2228.44 571.555C2228.98 571.867 2229.34 572.221 2229.55 572.637C2229.78 573.086 2229.9 573.7 2229.9 574.373C2229.9 575.464 2229.58 576.683 2229.02 577.825C2228.24 575.554 2227.8 573.523 2227.8 572.204C2227.8 571.702 2227.86 571.439 2227.91 571.317ZM2213.34 562.907C2213.44 562.93 2213.6 562.991 2213.87 563.146C2214.41 563.457 2214.77 563.803 2214.99 564.236C2215.21 564.665 2215.33 565.275 2215.33 565.956C2215.32 567.056 2215.01 568.277 2214.45 569.417C2213.67 567.162 2213.23 565.131 2213.24 563.795C2213.24 563.291 2213.3 563.028 2213.34 562.907Z" fill="#9E9E9E"/>
</g>
<mask id="mask3_2558_2733" style="mask-type:luminance" maskUnits="userSpaceOnUse" x="2117" y="598" width="235" height="191">
<path d="M2152.81 644.606C2199.29 670.683 2273.58 669.932 2318.75 642.929C2339.71 630.4 2350.72 614.42 2351.85 598.284C2351.99 647.687 2302.62 694.051 2298.42 753.628C2297.81 762.35 2291.86 770.987 2280.53 777.76C2256.11 792.356 2215.96 792.762 2190.84 778.666C2178.77 771.894 2172.37 763.007 2171.68 753.981C2167.15 694.429 2117.51 648.341 2117.37 598.938C2118.64 615.635 2130.49 632.077 2152.81 644.606Z" fill="white"/>
</mask>
<g mask="url(#mask3_2558_2733)">
<g opacity="0.75">
<path d="M2213.18 718.508C2213.4 717.782 2213.79 716.841 2214.12 716.16C2214.52 715.358 2215.13 714.331 2215.61 713.575C2216.2 712.639 2217.65 710.914 2218.78 709.937C2218.91 709.817 2219.02 709.637 2219.17 709.513C2219.26 710.179 2219.8 715.655 2219.87 716.469C2220.1 717.423 2223.51 717.923 2223.64 715.924C2223.69 715.242 2222.87 707.743 2222.78 707.072C2223.05 706.922 2223.34 706.768 2223.64 706.611C2226.17 705.308 2228.65 704.78 2229.71 704.554C2230.81 704.319 2232.69 704.05 2235.39 704.108C2236.04 704.122 2238.39 704.227 2241.18 704.99C2242.05 705.229 2242.96 705.542 2243.88 705.92C2244.62 706.226 2245.58 706.721 2246.29 707.094C2247.09 707.552 2248.17 708.211 2249.32 709.136C2249.42 709.953 2248.21 719.708 2248 720.99C2248.35 722.272 2251.06 722.841 2251.63 721.275C2252.05 718.356 2252.71 713.354 2252.76 712.666C2253.33 713.424 2253.77 714.125 2254.19 714.825C2254.88 715.969 2255.69 717.862 2256.03 719.136C2256.22 719.828 2256.46 720.757 2256.56 721.466C2256.69 722.391 2256.77 723.636 2256.81 724.57C2256.82 727.823 2254.72 731.084 2250.5 733.609C2241.91 738.743 2227.79 738.885 2218.95 733.928C2214.46 731.408 2212.2 728.056 2212.19 724.695C2212.25 721.967 2212.55 720.569 2213.18 718.508Z" fill="white"/>
<path d="M2218.96 733.927C2227.79 738.885 2241.92 738.742 2250.5 733.608C2254.73 731.083 2256.83 727.822 2256.82 724.569L2257.01 793.4C2257.02 796.653 2254.92 799.914 2250.7 802.439C2242.11 807.573 2227.99 807.715 2219.15 802.758C2214.66 800.238 2212.4 796.886 2212.39 793.525L2212.2 724.694C2212.21 728.055 2214.47 731.407 2218.96 733.927Z" fill="#F0F0F0"/>
</g>
</g>
<path d="M2323.76 571.658C2334.26 558.648 2326.7 535.131 2306.88 519.132C2287.05 503.133 2262.47 500.711 2251.97 513.721C2241.47 526.732 2249.03 550.249 2268.85 566.248C2288.68 582.247 2313.26 584.669 2323.76 571.658Z" fill="#A6A6A6"/>
<path d="M2231.56 349.874C2233.91 348.516 2235.79 349.618 2235.8 352.291L2236 423.377C2236.01 426.05 2234.14 429.289 2231.79 430.647C2229.46 431.99 2227.58 430.918 2227.57 428.245L2227.37 357.158C2227.36 354.485 2229.23 351.217 2231.56 349.874Z" fill="#FFE929"/>
<path d="M2063.66 470.956C2064.74 470.331 2065.83 470.181 2066.66 470.653L2110.53 495.653C2111.35 496.125 2111.77 497.13 2111.77 498.369C2111.78 499.609 2111.37 501.083 2110.54 502.494C2109.72 503.919 2108.65 505.015 2107.57 505.636C2106.5 506.257 2105.42 506.404 2104.59 505.932L2060.7 480.947C2059.88 480.468 2059.47 479.459 2059.47 478.22C2059.46 476.981 2059.87 475.51 2060.68 474.106C2061.5 472.68 2062.58 471.581 2063.66 470.956Z" fill="#FFE929"/>
<path d="M2362.36 638.952C2363.44 638.331 2364.52 638.184 2365.34 638.656L2409.24 663.669C2410.06 664.134 2410.47 665.135 2410.47 666.375C2410.47 667.614 2410.07 669.092 2409.26 670.51C2408.44 671.935 2407.36 673.034 2406.27 673.659C2405.19 674.284 2404.11 674.435 2403.28 673.963L2359.41 648.934C2358.58 648.476 2358.17 647.478 2358.16 646.239C2358.16 644.999 2358.57 643.518 2359.39 642.093C2360.21 640.669 2361.29 639.573 2362.36 638.952Z" fill="#FFE929"/>
<path d="M2087.8 650.601C2090.13 649.258 2092.03 650.345 2092.04 653.018C2092.05 655.692 2090.16 658.945 2087.83 660.288L2025.96 696.005C2023.64 697.348 2021.76 696.276 2021.75 693.602C2021.74 690.929 2023.61 687.661 2025.94 686.318L2087.8 650.601Z" fill="#FFE929"/>
<path d="M2432.64 451.677C2434.96 450.334 2436.87 451.421 2436.88 454.066C2436.88 456.768 2434.99 460.022 2432.66 461.365L2370.8 497.082C2368.47 498.425 2366.59 497.352 2366.58 494.679C2366.58 492.006 2368.45 488.738 2370.77 487.395L2432.64 451.677Z" fill="#FFE929"/>
<path d="M2130.66 744.004C2131.74 743.383 2132.82 743.237 2133.64 743.708C2134.47 744.18 2134.89 745.184 2134.89 746.424C2134.9 747.663 2134.49 749.138 2133.66 750.549L2090.08 826.07C2089.25 827.495 2088.17 828.594 2087.09 829.219C2086.01 829.844 2084.93 829.994 2084.1 829.522C2083.28 829.043 2082.87 828.034 2082.87 826.795C2082.87 825.555 2083.27 824.084 2084.08 822.681L2127.69 747.146C2128.51 745.721 2129.59 744.625 2130.66 744.004Z" fill="#FFE929"/>
<path d="M2363.79 340.2C2364.87 339.579 2365.94 339.432 2366.77 339.904C2367.6 340.362 2368.02 341.359 2368.02 342.599C2368.02 343.839 2367.61 345.321 2366.79 346.746L2323.21 422.238C2322.38 423.663 2321.3 424.762 2320.22 425.385C2319.15 426.008 2318.07 426.154 2317.25 425.675C2316.43 425.217 2316.01 424.22 2316.01 422.98C2316 421.74 2316.41 420.259 2317.23 418.834L2360.82 343.342C2361.64 341.916 2362.72 340.821 2363.79 340.2Z" fill="#FFE929"/>
<path d="M1525.82 1861.1L1525.94 1689.36L1460.81 1727.21L1460.95 1677.17L1461.92 1676.61L1821.51 1467.64L1821.37 1517.68L1773.42 1545.55L1773.29 1721.45L1525.82 1861.1ZM1529.85 1682.58L1529.73 1854.41L1769.39 1719.17L1769.52 1543.3L1817.47 1515.43L1817.58 1474.43L1464.85 1679.42L1464.74 1720.42L1529.85 1682.58Z" fill="#B0B0B0"/>
<path d="M1797.99 1298.02L1794.13 1297.47L1794.23 1296.69L1798.11 1297.09C1798.09 1297.38 1798.04 1297.7 1797.99 1298.02Z" fill="#B0B0B0"/>
<path d="M1544.75 1561.57C1544.43 1561.34 1544.11 1561.11 1543.79 1560.87L1546.07 1557.7L1547.07 1558.43L1544.75 1561.57Z" fill="#B0B0B0"/>
<path d="M1795.8 1266.96C1795.77 1266.25 1795.73 1265.53 1795.66 1264.79L1795.62 1263.15L1799.52 1263.03C1799.59 1264.27 1799.66 1265.52 1799.7 1266.82L1795.8 1266.96Z" fill="#B0B0B0"/>
<path d="M1598.61 1581.73C1597.26 1581.73 1595.95 1581.68 1594.67 1581.57C1594.1 1581.48 1593.54 1581.44 1593.12 1581.41C1589.22 1580.96 1585.49 1580.28 1581.96 1579.39C1580.75 1579.09 1579.25 1578.66 1577.89 1578.26L1576.53 1577.88C1574.86 1577.33 1572.77 1576.61 1571.24 1576.01C1568.39 1574.99 1566.13 1574.05 1564.55 1573.25C1561.38 1571.7 1557.24 1569.51 1553.78 1567.53C1549.85 1565.3 1546.74 1563.06 1544.74 1561.57L1544.76 1561.55C1544.57 1561.42 1544.39 1561.28 1544.2 1561.15C1541.63 1559.21 1538.97 1557.04 1536.89 1555.18C1535 1553.48 1532.37 1551.03 1530.48 1549.03L1530.19 1548.73C1527.79 1546.15 1524.81 1542.95 1522.74 1540.09C1522.15 1539.27 1521.49 1538.37 1520.8 1537.45C1519.45 1535.64 1518.02 1533.72 1516.92 1532.02C1515.24 1529.37 1512.11 1524.34 1510.04 1520.21C1508.87 1517.94 1506.67 1513.54 1505.27 1509.95C1503.5 1505.58 1501.35 1499.52 1499.94 1494.88C1497.86 1488.17 1495.76 1478.11 1494.59 1469.26C1494.35 1467.55 1494.04 1465.3 1493.89 1463.54L1493.73 1460.79C1493.41 1455.35 1493 1448.57 1492.93 1443.25L1493.05 1439.81C1493.22 1434.62 1493.41 1428.73 1494.06 1423.81C1495.16 1415.59 1497.16 1404.88 1499.03 1397.17C1500.77 1390.03 1503.73 1380.88 1505.93 1374.69C1508.23 1368.26 1511.8 1359.54 1514.82 1352.98C1516.22 1349.93 1518.83 1344.26 1520.97 1340.23L1523.03 1336.38C1524.58 1333.47 1526.24 1330.35 1527.67 1327.84C1529.95 1323.77 1532.75 1319.04 1534.8 1315.82C1535.42 1314.81 1536.16 1313.64 1536.91 1312.51L1537.25 1311.94C1537.5 1311.52 1537.76 1311.1 1538.03 1310.68C1546.83 1297.45 1547.96 1295.75 1552.49 1289.62C1553.43 1288.33 1554.4 1287.03 1555.28 1285.85C1555.05 1285.74 1554.72 1285.61 1554.22 1285.42L1553.36 1285.04C1548 1282.58 1547.44 1282.32 1544.29 1279.91C1540.09 1276.01 1539.56 1275.47 1537.18 1271.85C1534.68 1267.15 1534.25 1266.33 1532.93 1261.56C1531.96 1256.21 1531.75 1255.02 1531.69 1249.31C1532.02 1243.38 1532.12 1242.08 1533.36 1235.59L1533.47 1235.16C1535.12 1228.67 1535.46 1227.32 1537.91 1220.7L1538.21 1220C1541.28 1212.66 1541.75 1211.53 1545.08 1205.16L1545.49 1204.44C1550.27 1196.05 1550.77 1195.18 1554.86 1189.11C1561.87 1179.2 1562.33 1178.59 1567.06 1172.74L1567.74 1171.95C1575.86 1162.42 1576.18 1162.05 1581.24 1156.75C1591.16 1146.81 1591.16 1146.81 1596.59 1141.94C1607.18 1132.78 1607.18 1132.78 1612.78 1128.42C1623.88 1120.13 1623.87 1120.13 1629.58 1116.29C1638.23 1110.74 1640.27 1109.43 1643.26 1107.7L1646.7 1105.75C1658.08 1099.6 1658.08 1099.6 1663.73 1096.96C1674.98 1092.06 1674.98 1092.06 1680.48 1090.12L1681.25 1089.87C1691.11 1086.68 1691.5 1086.56 1696.66 1085.36C1706.57 1083.44 1706.95 1083.37 1711.95 1082.94C1720.92 1082.57 1721.45 1082.55 1726.11 1083.04C1733.83 1084.3 1734.29 1084.37 1738.37 1085.9L1738.82 1086.1C1744.19 1088.5 1744.88 1088.81 1748.18 1091.36C1752.29 1095.13 1752.9 1095.74 1755.31 1099.4C1757.72 1103.91 1758.2 1104.88 1759.56 1109.76C1760.56 1114.99 1760.78 1116.17 1760.83 1122.03C1760.48 1128.04 1760.4 1129.41 1759.17 1135.72C1757.33 1142.97 1757.02 1144.13 1754.65 1150.51L1754.29 1151.36C1751.11 1158.94 1750.7 1159.91 1747.48 1166.02C1742.28 1175.19 1741.79 1176.02 1737.74 1182.07L1737.34 1182.63C1742.26 1183.56 1747.82 1185.35 1751.78 1186.74C1755.23 1188 1759.28 1190.06 1760.86 1190.89C1763.12 1192.1 1765.96 1194.01 1767.91 1195.33C1770.19 1196.67 1772.78 1198.81 1775.92 1202.01C1776.45 1202.49 1776.96 1203.03 1777.47 1203.62C1777.88 1204 1778.31 1204.46 1778.68 1204.88C1781.46 1207.97 1784.84 1212.8 1789 1219.63C1790.41 1222 1792.04 1225.67 1793.08 1228.79C1794.21 1232.24 1796.97 1241.05 1798.18 1248.43C1798.76 1251.89 1799.2 1256.67 1799.52 1263.04L1799.43 1263.05C1799.48 1263.53 1799.52 1264.01 1799.55 1264.49L1799.58 1265.22C1799.64 1266.63 1799.7 1267.98 1799.73 1269.26L1799.73 1269.37C1799.49 1277.06 1798.88 1288.76 1797.91 1298.55C1797.03 1306.85 1795.56 1316.09 1793.97 1323.27L1793.02 1327.59C1792.18 1331.44 1791.27 1335.64 1790.39 1339.05C1788.75 1345.4 1786.33 1354.05 1784.35 1360.58C1782.84 1365.47 1780.79 1371.63 1779.26 1375.91C1777.2 1381.69 1774.23 1389.54 1771.88 1395.45C1767.08 1407.5 1760.95 1420.88 1757.99 1426.92L1756.81 1429.32C1754.69 1433.65 1752.2 1438.72 1750.13 1442.59C1749.83 1443.18 1749.49 1443.81 1749.14 1444.45C1746.77 1448.87 1743.21 1455.5 1740.41 1460.46C1739.37 1462.23 1738.71 1463.39 1738.19 1464.31L1737.61 1465.32C1735.54 1468.93 1732.63 1473.79 1730.36 1477.4L1729.05 1479.5C1727.61 1481.8 1726.02 1484.36 1724.7 1486.39C1722.87 1489.23 1720.36 1493.02 1718.46 1495.81C1711.64 1505.87 1705.13 1514.72 1699.11 1522.1C1685.3 1539.02 1667.06 1554.48 1647.75 1565.62C1629.61 1576.1 1612.35 1581.73 1598.61 1581.73ZM1551.36 1561.46C1552.66 1562.32 1554.11 1563.23 1555.71 1564.14C1559.11 1566.08 1563.16 1568.23 1566.3 1569.76C1567.75 1570.5 1569.87 1571.37 1572.62 1572.36C1574.14 1572.95 1576.14 1573.64 1577.68 1574.15L1578.97 1574.51C1580.28 1574.89 1581.72 1575.31 1582.91 1575.6C1586.29 1576.45 1589.84 1577.1 1593.49 1577.52C1593.93 1577.55 1594.63 1577.62 1595.15 1577.7C1608.51 1578.86 1626.56 1573.36 1645.81 1562.24C1664.71 1551.33 1682.57 1536.2 1696.09 1519.63C1702.03 1512.34 1708.48 1503.59 1715.24 1493.62C1717.13 1490.85 1719.61 1487.09 1721.43 1484.28C1722.73 1482.26 1724.32 1479.72 1725.74 1477.44L1727.06 1475.33C1729.3 1471.76 1732.18 1466.95 1734.23 1463.37L1734.8 1462.38C1735.33 1461.45 1736 1460.28 1737.03 1458.52C1739.8 1453.61 1743.34 1447.01 1745.63 1442.75C1746.04 1441.99 1746.37 1441.38 1746.67 1440.79C1748.74 1436.92 1751.21 1431.89 1753.31 1427.6L1754.49 1425.21C1757.42 1419.22 1763.5 1405.96 1768.26 1394.01C1770.6 1388.14 1773.54 1380.34 1775.59 1374.6C1777.1 1370.36 1779.13 1364.27 1780.63 1359.44C1782.58 1352.97 1784.99 1344.38 1786.61 1338.07C1787.48 1334.71 1788.38 1330.57 1789.21 1326.77L1790.16 1322.43C1791.72 1315.38 1793.16 1306.3 1794.03 1298.15C1794.99 1288.49 1795.59 1276.92 1795.83 1269.3C1795.8 1268.06 1795.75 1266.75 1795.69 1265.39L1795.66 1264.7C1795.59 1263.63 1795.46 1262.52 1795.33 1261.45C1795.19 1259.97 1795.02 1258.56 1794.82 1257.14L1795.24 1257.07C1794.99 1253.82 1794.69 1251.18 1794.33 1249.07C1793.16 1241.95 1790.48 1233.37 1789.38 1230.01C1788.42 1227.14 1786.92 1223.78 1785.66 1221.65C1781.63 1215.04 1778.39 1210.4 1775.76 1207.47C1775.44 1207.1 1775.07 1206.72 1774.65 1206.3C1774.12 1205.71 1773.69 1205.26 1773.21 1204.81C1770.25 1201.8 1767.92 1199.86 1765.82 1198.63C1763.84 1197.28 1761.11 1195.46 1759.03 1194.34C1757.54 1193.56 1753.68 1191.59 1750.46 1190.42C1747.09 1189.23 1740.64 1187.1 1735.62 1186.29C1735.07 1186.24 1734.34 1186.12 1733.57 1185.98L1730.54 1185.41L1734.53 1179.86C1738.56 1173.83 1738.98 1173.1 1744.06 1164.15C1747.17 1158.25 1747.57 1157.29 1750.7 1149.85L1751.02 1149.08C1753.3 1142.94 1753.57 1141.95 1755.36 1134.87C1756.52 1128.92 1756.59 1127.74 1756.93 1122.06C1756.89 1116.56 1756.72 1115.67 1755.78 1110.74C1754.52 1106.19 1754.18 1105.55 1751.96 1101.39C1749.81 1098.15 1749.42 1097.79 1745.67 1094.35C1742.86 1092.19 1742.55 1092.04 1737.23 1089.66C1733.32 1088.18 1733.21 1088.16 1725.59 1086.91C1721.32 1086.46 1720.99 1086.47 1712.35 1086.84C1707.49 1087.24 1707.31 1087.28 1697.55 1089.17C1692.55 1090.33 1692.36 1090.39 1682.46 1093.59L1681.73 1093.82C1676.41 1095.7 1676.41 1095.7 1665.34 1100.52C1659.84 1103.1 1659.84 1103.1 1648.56 1109.19L1645.21 1111.09C1642.31 1112.77 1640.28 1114.07 1631.75 1119.54C1626.14 1123.32 1626.14 1123.32 1615.16 1131.53C1609.67 1135.8 1609.67 1135.8 1599.18 1144.87C1593.86 1149.65 1593.86 1149.65 1584.04 1159.48C1579.08 1164.67 1578.77 1165.04 1570.71 1174.49L1570.07 1175.24C1565.4 1181.01 1565.06 1181.47 1558.08 1191.33C1554.09 1197.24 1553.6 1198.11 1548.89 1206.38L1548.51 1207.03C1545.29 1213.2 1544.83 1214.31 1541.81 1221.51L1541.55 1222.14C1539.2 1228.49 1538.91 1229.66 1537.26 1236.13C1536 1242.59 1535.91 1243.71 1535.6 1249.4C1535.65 1254.66 1535.84 1255.67 1536.71 1260.53C1537.9 1264.88 1538.2 1265.45 1540.55 1269.87C1542.57 1272.93 1542.81 1273.2 1546.81 1276.94C1549.47 1278.96 1549.78 1279.1 1555 1281.5L1555.59 1281.77C1557.3 1282.41 1559.05 1283.07 1559.62 1285.41L1559.84 1286.31L1559.27 1287.05C1558.18 1288.48 1556.89 1290.22 1555.64 1291.93C1551.16 1298 1550.04 1299.69 1541.29 1312.83C1541.06 1313.19 1540.83 1313.58 1540.6 1313.96L1540.2 1314.61C1539.45 1315.76 1538.73 1316.9 1538.11 1317.9C1536.09 1321.08 1533.33 1325.74 1531.08 1329.77C1529.65 1332.26 1528.01 1335.35 1526.48 1338.22L1524.42 1342.07C1522.34 1345.99 1519.75 1351.6 1518.37 1354.61C1515.39 1361.08 1511.88 1369.68 1509.61 1376C1507.45 1382.09 1504.53 1391.1 1502.83 1398.09C1500.98 1405.69 1499.02 1416.23 1497.93 1424.32C1497.31 1429.06 1497.12 1434.84 1496.95 1439.94L1496.83 1443.31C1496.91 1448.43 1497.31 1455.16 1497.63 1460.56L1497.79 1463.28C1497.92 1464.92 1498.23 1467.08 1498.46 1468.74C1499.58 1477.27 1501.68 1487.31 1503.67 1493.73C1505.06 1498.28 1507.16 1504.22 1508.9 1508.52C1510.24 1511.97 1512.37 1516.22 1513.52 1518.45C1515.52 1522.44 1518.57 1527.34 1520.21 1529.92C1521.26 1531.54 1522.63 1533.38 1523.93 1535.12C1524.64 1536.07 1525.32 1536.98 1525.92 1537.81C1527.84 1540.46 1530.73 1543.58 1533.05 1546.07L1533.32 1546.37C1535.12 1548.26 1537.67 1550.63 1539.5 1552.29C1541.47 1554.04 1544.1 1556.19 1546.54 1558.02C1547.7 1558.88 1548.96 1559.66 1550.25 1560.35H1550.26C1550.26 1560.35 1550.26 1560.35 1550.26 1560.35L1550.12 1560.62C1550.27 1560.73 1550.42 1560.83 1550.58 1560.94L1550.75 1560.6L1551.58 1561.01L1551.36 1561.46Z" fill="#B0B0B0"/>
</svg>
