<svg width="754" height="475" viewBox="0 0 754 475" fill="none" xmlns="http://www.w3.org/2000/svg">
<path d="M78.9787 343.605C78.4885 338.663 76.3849 334.823 72.6678 332.086C68.9506 329.349 63.906 327.981 57.5338 327.981C53.2039 327.981 49.5481 328.594 46.5662 329.819C43.5843 331.004 41.2969 332.658 39.7038 334.782C38.1516 336.906 37.3755 339.316 37.3755 342.012C37.2938 344.259 37.7635 346.219 38.7847 347.894C39.8468 349.569 41.2969 351.019 43.135 352.244C44.9731 353.429 47.0972 354.471 49.5072 355.369C51.9172 356.227 54.4906 356.962 57.2274 357.575L68.5013 360.271C73.9749 361.496 78.9991 363.13 83.5741 365.173C88.149 367.215 92.1112 369.727 95.4607 372.709C98.8102 375.691 101.404 379.204 103.242 383.248C105.121 387.292 106.081 391.928 106.122 397.156C106.081 404.836 104.12 411.494 100.24 417.131C96.4002 422.727 90.8449 427.077 83.5741 430.182C76.344 433.245 67.6231 434.777 57.4112 434.777C47.281 434.777 38.458 433.225 30.942 430.12C23.4669 427.016 17.6257 422.42 13.4184 416.334C9.25197 410.207 7.06662 402.63 6.86239 393.603H32.5351C32.821 397.81 34.026 401.323 36.1501 404.141C38.315 406.919 41.1947 409.022 44.7893 410.452C48.4248 411.841 52.5299 412.535 57.1049 412.535C61.5981 412.535 65.499 411.882 68.8077 410.575C72.1572 409.268 74.751 407.45 76.5891 405.122C78.4273 402.793 79.3463 400.118 79.3463 397.095C79.3463 394.277 78.509 391.907 76.8342 389.988C75.2003 388.068 72.7903 386.434 69.6042 385.086C66.4589 383.738 62.5989 382.512 58.0239 381.41L44.3604 377.978C33.7809 375.405 25.4276 371.381 19.3005 365.908C13.1733 360.434 10.1302 353.061 10.171 343.789C10.1302 336.191 12.1521 329.554 16.2369 323.876C20.3625 318.198 26.0199 313.766 33.209 310.58C40.3982 307.394 48.5677 305.801 57.7176 305.801C67.0308 305.801 75.1595 307.394 82.1035 310.58C89.0885 313.766 94.5212 318.198 98.4017 323.876C102.282 329.554 104.284 336.13 104.406 343.605H78.9787ZM165.999 434.838C156.359 434.838 148.067 432.796 141.123 428.711C134.22 424.585 128.91 418.867 125.193 411.555C121.516 404.243 119.678 395.829 119.678 386.311C119.678 376.671 121.537 368.216 125.254 360.945C129.012 353.633 134.342 347.935 141.246 343.85C148.149 339.725 156.359 337.662 165.877 337.662C174.087 337.662 181.276 339.153 187.444 342.135C193.612 345.117 198.493 349.303 202.088 354.695C205.683 360.087 207.664 366.419 208.031 373.689H183.4C182.706 368.992 180.868 365.214 177.886 362.354C174.945 359.454 171.085 358.004 166.306 358.004C162.262 358.004 158.728 359.107 155.706 361.313C152.724 363.477 150.396 366.643 148.721 370.81C147.046 374.976 146.209 380.021 146.209 385.944C146.209 391.948 147.026 397.054 148.66 401.261C150.334 405.469 152.683 408.675 155.706 410.881C158.728 413.087 162.262 414.19 166.306 414.19C169.288 414.19 171.963 413.577 174.332 412.352C176.742 411.126 178.723 409.349 180.275 407.021C181.869 404.652 182.91 401.813 183.4 398.504H208.031C207.623 405.693 205.662 412.025 202.149 417.498C198.677 422.931 193.878 427.179 187.751 430.243C181.623 433.306 174.373 434.838 165.999 434.838ZM224.743 433V338.887H250.048V355.308H251.029C252.744 349.467 255.624 345.055 259.668 342.073C263.712 339.051 268.368 337.539 273.638 337.539C274.945 337.539 276.354 337.621 277.865 337.784C279.377 337.948 280.704 338.172 281.848 338.458V361.619C280.623 361.251 278.927 360.925 276.762 360.639C274.598 360.353 272.616 360.21 270.819 360.21C266.98 360.21 263.548 361.047 260.526 362.722C257.544 364.356 255.175 366.643 253.418 369.584C251.703 372.525 250.845 375.916 250.845 379.755V433H224.743ZM319.484 434.777C313.479 434.777 308.128 433.735 303.431 431.652C298.733 429.528 295.016 426.403 292.279 422.278C289.584 418.111 288.236 412.923 288.236 406.715C288.236 401.486 289.195 397.095 291.115 393.541C293.035 389.988 295.649 387.128 298.958 384.963C302.267 382.798 306.025 381.164 310.232 380.062C314.48 378.959 318.932 378.183 323.589 377.733C329.063 377.161 333.474 376.63 336.824 376.14C340.173 375.609 342.604 374.833 344.115 373.812C345.626 372.791 346.382 371.279 346.382 369.278V368.91C346.382 365.03 345.157 362.027 342.706 359.903C340.296 357.779 336.865 356.717 332.412 356.717C327.715 356.717 323.977 357.759 321.2 359.842C318.422 361.884 316.584 364.458 315.685 367.562L291.544 365.602C292.77 359.883 295.18 354.94 298.774 350.774C302.369 346.567 307.005 343.34 312.683 341.093C318.401 338.806 325.019 337.662 332.535 337.662C337.763 337.662 342.767 338.275 347.546 339.5C352.366 340.725 356.635 342.625 360.352 345.198C364.11 347.772 367.071 351.08 369.236 355.124C371.401 359.127 372.484 363.927 372.484 369.523V433H347.73V419.949H346.995C345.483 422.89 343.461 425.484 340.929 427.731C338.396 429.936 335.353 431.672 331.799 432.939C328.246 434.164 324.141 434.777 319.484 434.777ZM326.959 416.763C330.799 416.763 334.189 416.007 337.13 414.496C340.071 412.944 342.379 410.861 344.054 408.246C345.728 405.632 346.566 402.671 346.566 399.362V389.375C345.749 389.906 344.626 390.396 343.196 390.845C341.807 391.254 340.234 391.642 338.478 392.009C336.722 392.336 334.965 392.643 333.209 392.929C331.452 393.174 329.859 393.398 328.43 393.603C325.366 394.052 322.69 394.767 320.403 395.747C318.116 396.727 316.339 398.055 315.072 399.73C313.806 401.364 313.173 403.406 313.173 405.857C313.173 409.411 314.46 412.127 317.033 414.006C319.647 415.844 322.956 416.763 326.959 416.763ZM392.734 468.292V338.887H418.468V354.695H419.632C420.776 352.163 422.43 349.589 424.595 346.975C426.801 344.32 429.66 342.114 433.173 340.358C436.727 338.56 441.138 337.662 446.407 337.662C453.27 337.662 459.601 339.459 465.402 343.054C471.202 346.607 475.838 351.979 479.31 359.168C482.782 366.316 484.518 375.282 484.518 386.066C484.518 396.564 482.823 405.428 479.433 412.658C476.083 419.847 471.508 425.3 465.708 429.017C459.948 432.694 453.494 434.532 446.346 434.532C441.281 434.532 436.972 433.694 433.418 432.02C429.905 430.345 427.025 428.241 424.779 425.709C422.532 423.135 420.816 420.542 419.632 417.927H418.835V468.292H392.734ZM418.284 385.944C418.284 391.54 419.06 396.421 420.612 400.587C422.164 404.754 424.411 408.001 427.352 410.33C430.293 412.617 433.867 413.761 438.075 413.761C442.323 413.761 445.917 412.597 448.858 410.268C451.799 407.899 454.025 404.631 455.537 400.465C457.089 396.258 457.865 391.417 457.865 385.944C457.865 380.511 457.109 375.732 455.598 371.606C454.087 367.481 451.861 364.254 448.92 361.925C445.979 359.597 442.364 358.433 438.075 358.433C433.826 358.433 430.232 359.556 427.291 361.803C424.391 364.049 422.164 367.235 420.612 371.361C419.06 375.487 418.284 380.348 418.284 385.944ZM501.919 468.292V338.887H527.653V354.695H528.817C529.961 352.163 531.615 349.589 533.78 346.975C535.986 344.32 538.845 342.114 542.358 340.358C545.912 338.56 550.324 337.662 555.593 337.662C562.455 337.662 568.787 339.459 574.587 343.054C580.387 346.607 585.024 351.979 588.496 359.168C591.968 366.316 593.704 375.282 593.704 386.066C593.704 396.564 592.008 405.428 588.618 412.658C585.269 419.847 580.694 425.3 574.893 429.017C569.134 432.694 562.68 434.532 555.532 434.532C550.467 434.532 546.157 433.694 542.603 432.02C539.09 430.345 536.211 428.241 533.964 425.709C531.717 423.135 530.002 420.542 528.817 417.927H528.021V468.292H501.919ZM527.469 385.944C527.469 391.54 528.245 396.421 529.798 400.587C531.35 404.754 533.596 408.001 536.537 410.33C539.479 412.617 543.053 413.761 547.26 413.761C551.508 413.761 555.103 412.597 558.044 410.268C560.985 407.899 563.211 404.631 564.722 400.465C566.274 396.258 567.051 391.417 567.051 385.944C567.051 380.511 566.295 375.732 564.784 371.606C563.272 367.481 561.046 364.254 558.105 361.925C555.164 359.597 551.549 358.433 547.26 358.433C543.012 358.433 539.417 359.556 536.476 361.803C533.576 364.049 531.35 367.235 529.798 371.361C528.245 375.487 527.469 380.348 527.469 385.944ZM611.105 433V338.887H637.206V433H611.105ZM624.217 326.756C620.336 326.756 617.007 325.469 614.229 322.895C611.493 320.281 610.124 317.156 610.124 313.521C610.124 309.926 611.493 306.842 614.229 304.269C617.007 301.655 620.336 300.348 624.217 300.348C628.097 300.348 631.406 301.655 634.143 304.269C636.92 306.842 638.309 309.926 638.309 313.521C638.309 317.156 636.92 320.281 634.143 322.895C631.406 325.469 628.097 326.756 624.217 326.756ZM700.637 434.838C691.12 434.838 682.889 432.816 675.945 428.772C669.042 424.688 663.711 419.01 659.953 411.739C656.195 404.427 654.316 395.951 654.316 386.311C654.316 376.59 656.195 368.093 659.953 360.822C663.711 353.511 669.042 347.833 675.945 343.789C682.889 339.704 691.12 337.662 700.637 337.662C710.155 337.662 718.365 339.704 725.268 343.789C732.213 347.833 737.564 353.511 741.322 360.822C745.08 368.093 746.958 376.59 746.958 386.311C746.958 395.951 745.08 404.427 741.322 411.739C737.564 419.01 732.213 424.688 725.268 428.772C718.365 432.816 710.155 434.838 700.637 434.838ZM700.76 414.619C705.09 414.619 708.705 413.393 711.605 410.942C714.505 408.451 716.69 405.06 718.161 400.771C719.672 396.482 720.428 391.601 720.428 386.127C720.428 380.654 719.672 375.773 718.161 371.484C716.69 367.195 714.505 363.804 711.605 361.313C708.705 358.821 705.09 357.575 700.76 357.575C696.389 357.575 692.713 358.821 689.731 361.313C686.79 363.804 684.564 367.195 683.053 371.484C681.582 375.773 680.847 380.654 680.847 386.127C680.847 391.601 681.582 396.482 683.053 400.771C684.564 405.06 686.79 408.451 689.731 410.942C692.713 413.393 696.389 414.619 700.76 414.619Z" fill="black"/>
<circle opacity="0.6" cx="344.5" cy="153.5" r="106.5" fill="#5856D6"/>
<circle cx="210" cy="153" r="8" fill="#AF52DE"/>
<circle cx="242" cy="241" r="9" fill="#FF9500"/>
<circle cx="367" cy="15" r="15" fill="#FF2D55"/>
<circle cx="511" cy="142" r="19" fill="#5856D6"/>
<circle cx="476.5" cy="173.5" r="8.5" fill="#FF2D55"/>
<circle opacity="0.6" cx="408" cy="108" r="66" fill="#FF9500"/>
<circle opacity="0.6" cx="314" cy="127" r="84" fill="#AF52DE"/>
<circle opacity="0.6" cx="393" cy="192" r="61" fill="#FF2D55"/>
<path d="M312.5 106L305 150.5L351.5 143.5L343.5 135C348.667 129 365.3 118.8 390.5 126C366.9 89.5997 334.333 102.833 321 114L312.5 106Z" fill="white" stroke="white"/>
<path d="M387 196L394 152L348 158.5L355.5 166.5C350.833 172.5 335 182.7 309 175.5C335 213.5 363 198.166 378 187.5L387 196Z" fill="white" stroke="white"/>
</svg>
