<svg width="1500" height="320" viewBox="0 0 1500 320" fill="none" xmlns="http://www.w3.org/2000/svg">
<g clip-path="url(#clip0_2562_3824)">
<circle opacity="0.6" cx="175.35" cy="188.885" r="131.05" fill="#5856D6"/>
<circle cx="9.84414" cy="188.269" r="9.84414" fill="#AF52DE"/>
<circle cx="49.2221" cy="296.555" r="11.0747" fill="#FF9500"/>
<circle cx="203.034" cy="18.4578" r="18.4578" fill="#FF2D55"/>
<circle cx="380.23" cy="174.734" r="23.3798" fill="#5856D6"/>
<circle cx="337.776" cy="213.495" r="10.4594" fill="#FF2D55"/>
<circle opacity="0.6" cx="253.486" cy="132.896" r="81.2141" fill="#FF9500"/>
<circle opacity="0.6" cx="137.817" cy="156.276" r="103.363" fill="#AF52DE"/>
<circle opacity="0.6" cx="235.028" cy="236.26" r="75.0615" fill="#FF2D55"/>
<path d="M135.97 130.435L126.741 185.193L183.96 176.58L174.116 166.12C180.474 158.737 200.941 146.186 231.95 155.045C202.91 110.255 162.836 126.538 146.429 140.279L135.97 130.435Z" fill="white" stroke="white" stroke-width="1.23052"/>
<path d="M227.643 241.181L236.257 187.039L179.653 195.037L188.882 204.881C183.14 212.264 163.657 224.815 131.663 215.956C163.657 262.715 198.111 243.847 216.569 230.722L227.643 241.181Z" fill="white" stroke="white" stroke-width="1.23052"/>
<path d="M593.098 109.674C586.208 105.901 579.153 102.783 571.934 100.322C564.879 97.8614 558.234 96.6308 551.999 96.6308C544.288 96.6308 538.217 98.1895 533.788 101.307C529.358 104.424 527.143 109.1 527.143 115.335C527.143 119.6 528.783 123.456 532.065 126.902C535.51 130.183 539.858 133.136 545.108 135.761C550.523 138.386 556.101 140.765 561.843 142.898C567.094 144.867 572.262 147.246 577.348 150.035C582.598 152.66 587.274 156.024 591.376 160.126C595.477 164.063 598.759 169.067 601.22 175.138C603.681 181.044 604.911 188.345 604.911 197.041C604.911 206.229 602.532 214.76 597.774 222.636C593.016 230.511 586.043 236.91 576.856 241.832C567.668 246.59 556.347 248.969 542.893 248.969C536.002 248.969 528.948 248.313 521.728 247C514.674 245.523 507.701 243.39 500.81 240.601C493.919 237.648 487.274 233.957 480.875 229.527L496.626 201.717C500.892 204.834 505.486 207.623 510.408 210.084C515.494 212.381 520.58 214.186 525.666 215.499C530.752 216.811 535.428 217.468 539.694 217.468C543.96 217.468 548.226 216.893 552.491 215.745C556.921 214.432 560.531 212.299 563.32 209.346C566.273 206.393 567.75 202.291 567.75 197.041C567.75 193.431 566.519 190.15 564.058 187.197C561.761 184.244 558.562 181.537 554.46 179.075C550.523 176.614 546.175 174.482 541.417 172.677C535.838 170.544 530.096 168.083 524.19 165.294C518.283 162.505 512.705 159.141 507.454 155.203C502.368 151.102 498.185 146.098 494.903 140.191C491.786 134.121 490.227 126.737 490.227 118.042C490.227 107.541 492.524 98.4356 497.118 90.7244C501.876 83.0131 508.521 76.9426 517.053 72.5127C525.584 67.9188 535.428 65.3757 546.585 64.8835C561.187 64.8835 573 66.6062 582.024 70.0517C591.212 73.4971 599.415 77.5988 606.634 82.3568L593.098 109.674ZM725.504 237.402C720.746 241.176 714.757 244.211 707.538 246.508C700.483 248.805 693.511 249.953 686.62 249.953C674.314 249.953 663.568 247.738 654.38 243.308C645.356 238.715 638.301 232.234 633.215 223.866C628.293 215.335 625.832 205.08 625.832 193.103C625.832 181.126 628.539 170.954 633.954 162.587C639.368 154.055 646.423 147.574 655.118 143.144C663.978 138.715 673.248 136.5 682.928 136.5C692.608 136.5 700.976 137.812 708.031 140.437C715.25 143.062 721.402 146.508 726.488 150.774L709.753 172.923C707.456 171.118 704.257 169.313 700.155 167.509C696.218 165.54 691.542 164.555 686.127 164.555C681.369 164.555 677.022 165.786 673.084 168.247C669.146 170.708 666.029 174.071 663.732 178.337C661.435 182.603 660.287 187.525 660.287 193.103C660.287 198.354 661.517 203.194 663.978 207.623C666.439 212.053 669.803 215.581 674.068 218.206C678.498 220.667 683.666 221.897 689.573 221.897C693.346 221.897 696.792 221.405 699.909 220.421C703.191 219.272 705.98 217.714 708.277 215.745L725.504 237.402ZM782.973 139.453L786.172 168.985L785.434 164.555C788.551 158.157 792.817 152.742 798.231 148.313C803.646 143.719 808.978 140.191 814.228 137.73C819.642 135.269 823.744 134.039 826.533 134.039L824.811 168.493C816.771 167.509 809.88 168.821 804.138 172.431C798.395 176.04 793.966 180.798 790.848 186.705C787.731 192.611 786.172 198.682 786.172 204.916V247H751.964V139.453H782.973ZM894.583 249.953C884.575 249.953 875.469 247.984 867.265 244.047C859.226 239.945 852.827 233.71 848.069 225.343C843.311 216.975 840.932 206.311 840.932 193.349C840.932 181.208 843.393 170.708 848.315 161.848C853.237 152.989 859.718 146.18 867.757 141.422C875.797 136.5 884.328 134.039 893.352 134.039C904.017 134.039 912.056 135.843 917.47 139.453C923.049 142.898 927.643 146.754 931.252 151.02L929.776 155.203L932.975 139.453H964.968V247H930.514V223.62L933.221 231.003C932.893 231.003 931.908 231.988 930.268 233.957C928.627 235.761 926.166 237.976 922.885 240.601C919.767 243.062 915.83 245.195 911.072 247C906.478 248.969 900.981 249.953 894.583 249.953ZM904.427 221.897C908.529 221.897 912.22 221.323 915.502 220.175C918.783 218.862 921.654 217.057 924.115 214.76C926.576 212.299 928.709 209.264 930.514 205.655V179.322C929.201 175.712 927.232 172.677 924.607 170.216C921.982 167.591 918.865 165.622 915.255 164.309C911.646 162.833 907.626 162.094 903.196 162.094C898.274 162.094 893.68 163.407 889.415 166.032C885.313 168.493 882.031 171.938 879.57 176.368C877.109 180.798 875.879 185.884 875.879 191.627C875.879 197.369 877.191 202.537 879.817 207.131C882.442 211.725 885.887 215.335 890.153 217.96C894.583 220.585 899.341 221.897 904.427 221.897ZM1067.9 249.953C1061.5 249.953 1055.19 248.805 1048.95 246.508C1042.88 244.047 1037.8 240.601 1033.69 236.171L1034.68 226.081V298.682H1000.47V136.992H1030L1034.93 157.911L1032.22 150.527C1037.8 145.769 1044.03 141.832 1050.92 138.715C1057.81 135.597 1065.77 134.039 1074.79 134.039C1084.8 134.039 1093.74 136.418 1101.62 141.176C1109.49 145.769 1115.65 152.496 1120.08 161.356C1124.67 170.052 1126.97 180.552 1126.97 192.857C1126.97 204.998 1124.42 215.335 1119.34 223.866C1114.25 232.398 1107.28 238.879 1098.42 243.308C1089.56 247.738 1079.39 249.953 1067.9 249.953ZM1061.01 222.882C1066.59 222.882 1071.68 221.651 1076.27 219.19C1081.03 216.729 1084.8 213.284 1087.59 208.854C1090.54 204.26 1092.02 199.092 1092.02 193.349C1092.02 187.279 1090.71 182.029 1088.08 177.599C1085.62 173.005 1082.18 169.477 1077.75 167.016C1073.48 164.391 1068.72 163.079 1063.47 163.079C1058.88 163.079 1054.78 163.735 1051.17 165.048C1047.72 166.196 1044.61 168.001 1041.82 170.462C1039.19 172.759 1036.89 175.712 1034.93 179.322V205.655C1036.24 209.1 1038.12 212.135 1040.59 214.76C1043.05 217.386 1046 219.436 1049.45 220.913C1053.05 222.226 1056.91 222.882 1061.01 222.882ZM1221.48 249.953C1215.08 249.953 1208.76 248.805 1202.53 246.508C1196.46 244.047 1191.37 240.601 1187.27 236.171L1188.25 226.081V298.682H1154.04V136.992H1183.58L1188.5 157.911L1185.79 150.527C1191.37 145.769 1197.61 141.832 1204.5 138.715C1211.39 135.597 1219.34 134.039 1228.37 134.039C1238.38 134.039 1247.32 136.418 1255.19 141.176C1263.07 145.769 1269.22 152.496 1273.65 161.356C1278.25 170.052 1280.54 180.552 1280.54 192.857C1280.54 204.998 1278 215.335 1272.91 223.866C1267.83 232.398 1260.85 238.879 1251.99 243.308C1243.13 247.738 1232.96 249.953 1221.48 249.953ZM1214.59 222.882C1220.16 222.882 1225.25 221.651 1229.84 219.19C1234.6 216.729 1238.38 213.284 1241.17 208.854C1244.12 204.26 1245.6 199.092 1245.6 193.349C1245.6 187.279 1244.28 182.029 1241.66 177.599C1239.2 173.005 1235.75 169.477 1231.32 167.016C1227.06 164.391 1222.3 163.079 1217.05 163.079C1212.45 163.079 1208.35 163.735 1204.74 165.048C1201.3 166.196 1198.18 168.001 1195.39 170.462C1192.77 172.759 1190.47 175.712 1188.5 179.322V205.655C1189.81 209.1 1191.7 212.135 1194.16 214.76C1196.62 217.386 1199.57 219.436 1203.02 220.913C1206.63 222.226 1210.48 222.882 1214.59 222.882ZM1307.62 139.453H1342.07V247H1307.62V139.453ZM1306.88 101.307C1306.88 96.2207 1308.85 92.0369 1312.79 88.7555C1316.89 85.4742 1321.24 83.8335 1325.83 83.8335C1330.42 83.8335 1334.61 85.4742 1338.38 88.7555C1342.32 92.0369 1344.29 96.2207 1344.29 101.307C1344.29 106.393 1342.32 110.577 1338.38 113.858C1334.61 116.975 1330.42 118.534 1325.83 118.534C1321.24 118.534 1316.89 116.975 1312.79 113.858C1308.85 110.577 1306.88 106.393 1306.88 101.307ZM1369.19 191.873C1369.19 180.88 1371.73 171.036 1376.82 162.34C1382.07 153.645 1389.37 146.836 1398.72 141.914C1408.07 136.828 1418.82 134.285 1430.96 134.285C1443.27 134.285 1453.93 136.828 1462.95 141.914C1471.98 146.836 1478.87 153.645 1483.63 162.34C1488.55 171.036 1491.01 180.88 1491.01 191.873C1491.01 202.865 1488.55 212.792 1483.63 221.651C1478.87 230.347 1471.98 237.238 1462.95 242.324C1453.93 247.41 1443.1 249.953 1430.47 249.953C1418.66 249.953 1408.07 247.656 1398.72 243.062C1389.53 238.468 1382.31 231.824 1377.06 223.128C1371.81 214.432 1369.19 204.014 1369.19 191.873ZM1403.89 192.119C1403.89 197.697 1405.04 202.783 1407.34 207.377C1409.63 211.807 1412.75 215.335 1416.69 217.96C1420.62 220.585 1425.05 221.897 1429.98 221.897C1435.39 221.897 1440.07 220.585 1444 217.96C1447.94 215.335 1450.98 211.807 1453.11 207.377C1455.24 202.783 1456.31 197.697 1456.31 192.119C1456.31 186.377 1455.24 181.29 1453.11 176.861C1450.98 172.431 1447.94 168.903 1444 166.278C1440.07 163.653 1435.39 162.34 1429.98 162.34C1425.05 162.34 1420.62 163.653 1416.69 166.278C1412.75 168.903 1409.63 172.431 1407.34 176.861C1405.04 181.29 1403.89 186.377 1403.89 192.119Z" fill="white"/>
</g>
<defs>
<clipPath id="clip0_2562_3824">
<rect width="1500" height="319.934" fill="white"/>
</clipPath>
</defs>
</svg>
