<svg width="500" height="169" viewBox="0 0 500 169" fill="none" xmlns="http://www.w3.org/2000/svg">
<g clip-path="url(#clip0_2552_2714)">
<path opacity="0.991" fill-rule="evenodd" clip-rule="evenodd" d="M130.65 0.5C132.083 0.5 133.517 0.5 134.95 0.5C140.817 1.24201 145.167 4.20868 148 9.4C150.025 13.3321 151.292 17.4988 151.8 21.9C152.531 28.6445 152.398 35.3779 151.4 42.1C150.901 45.7636 150.184 49.3803 149.25 52.95C157.133 55.1422 164.633 58.2422 171.75 62.25C175.685 64.5276 179.268 67.2776 182.5 70.5C190.866 79.4242 191.033 88.4909 183 97.7C178.815 102.02 174.065 105.57 168.75 108.35C162.638 111.543 156.271 114.11 149.65 116.05C151.932 124.721 152.882 133.538 152.5 142.5C152.276 147.556 151.209 152.423 149.3 157.1C147.791 160.705 145.441 163.622 142.25 165.85C139.778 167.335 137.111 168.185 134.25 168.4C133.217 168.4 132.183 168.4 131.15 168.4C126.658 167.909 122.358 166.692 118.25 164.75C111.448 161.402 105.215 157.235 99.5501 152.25C97.9668 150.8 96.3834 149.35 94.8001 147.9C89.0026 153.667 82.5526 158.55 75.4501 162.55C71.0619 165.044 66.3952 166.81 61.4501 167.85C59.9778 168.112 58.5112 168.295 57.0501 168.4C56.4501 168.4 55.8501 168.4 55.2501 168.4C48.8965 168.066 44.1132 165.166 40.9001 159.7C38.5245 155.232 37.1579 150.466 36.8001 145.4C36.3316 139.136 36.5983 132.903 37.6001 126.7C38.1876 123.246 38.871 119.812 39.6501 116.4C31.3312 114.111 23.4979 110.728 16.1501 106.25C12.7105 104.079 9.56053 101.529 6.70012 98.6C4.13581 95.9071 2.20247 92.8071 0.900119 89.3C-0.352195 85.2798 -0.118862 81.3465 1.60012 77.5C3.26891 74.0295 5.55224 71.0128 8.45012 68.45C13.146 64.3994 18.346 61.0994 24.0501 58.55C29.1621 56.2348 34.4288 54.3348 39.8501 52.85C37.1133 42.7988 36.1633 32.5822 37.0001 22.2C37.4574 17.3953 38.8574 12.8953 41.2001 8.7C44.9061 2.90516 50.2228 0.221823 57.1501 0.65C61.9489 1.02743 66.5155 2.26076 70.8501 4.35C76.5499 7.09021 81.8499 10.4235 86.7501 14.35C89.4242 16.5403 92.0242 18.8236 94.5501 21.2C98.6955 17.2971 103.062 13.6804 107.65 10.35C112.139 7.15473 116.972 4.55473 122.15 2.55C124.918 1.53299 127.751 0.84966 130.65 0.5ZM131.65 8.6C135.92 8.15933 139.037 9.826 141 13.6C142.825 17.4928 143.825 21.5928 144 25.9C144.293 31.2273 144.026 36.5273 143.2 41.8C142.724 44.8558 142.141 47.8891 141.45 50.9C133.134 49.0573 124.734 47.7406 116.25 46.95C111.425 39.9725 106.125 33.3558 100.35 27.1C105.446 22.0519 111.046 17.6686 117.15 13.95C120.831 11.7118 124.765 10.0784 128.95 9.05C129.862 8.88435 130.762 8.73435 131.65 8.6ZM54.5501 8.8C58.372 8.71438 62.0387 9.43105 65.5501 10.95C70.2168 12.9654 74.5834 15.4654 78.6501 18.45C82.2434 21.0923 85.6434 23.9757 88.8501 27.1C83.1189 33.3792 77.7855 39.9625 72.8501 46.85C64.478 47.6898 56.178 49.0064 47.9501 50.8C47.8559 50.7892 47.7726 50.7559 47.7001 50.7C45.4859 42.4054 44.5526 33.9721 44.9001 25.4C45.0671 21.7326 45.8337 18.1992 47.2001 14.8C48.0543 12.6708 49.4377 10.9875 51.3501 9.75C52.3838 9.2772 53.4505 8.96053 54.5501 8.8ZM94.5501 32.9C98.4752 37.0911 102.142 41.4911 105.55 46.1C105.367 46.1333 105.183 46.1667 105 46.2C98.0167 45.8011 91.0333 45.8011 84.0501 46.2C83.8834 46.1667 83.7168 46.1333 83.5501 46.1C87.0307 41.552 90.6974 37.152 94.5501 32.9ZM89.7501 54.1C97.0597 54.004 104.36 54.2206 111.65 54.75C118.036 64.1322 123.752 73.9488 128.8 84.2C128.832 84.4053 128.799 84.6053 128.7 84.8C123.689 94.9969 118.039 104.78 111.75 114.15C100.32 114.98 88.8867 115.013 77.4501 114.25C70.9886 104.883 65.2719 95.0331 60.3001 84.7C60.2727 84.3851 60.3393 84.0851 60.5001 83.8C65.3981 73.6507 71.0148 63.9674 77.3501 54.75C81.4954 54.4571 85.6288 54.2405 89.7501 54.1ZM66.4501 55.8C66.5874 55.7843 66.7208 55.801 66.8501 55.85C62.9096 61.9787 59.2596 68.2953 55.9001 74.8C53.6127 69.5886 51.6293 64.2553 49.9501 58.8C51.794 58.3011 53.6607 57.8845 55.5501 57.55C59.187 56.8993 62.8203 56.316 66.4501 55.8ZM122.15 55.9C127.644 56.4991 133.111 57.4158 138.55 58.65C138.801 58.6615 139.001 58.7615 139.15 58.95C137.423 64.3661 135.439 69.6828 133.2 74.9C129.792 68.3801 126.108 62.0468 122.15 55.9ZM41.8501 60.7C41.9498 60.697 42.0165 60.747 42.0501 60.85C44.6025 68.9248 47.6359 76.8081 51.1501 84.5C47.5589 92.3398 44.4589 100.373 41.8501 108.6C33.3342 106.275 25.4342 102.658 18.1501 97.75C15.3821 95.7824 12.9321 93.4657 10.8001 90.8C9.76985 89.4061 9.00318 87.8728 8.50012 86.2C8.00429 83.9711 8.33762 81.8711 9.50012 79.9C11.1794 77.2285 13.2627 74.9119 15.7501 72.95C21.422 68.7467 27.622 65.48 34.3501 63.15C36.8521 62.2992 39.3521 61.4826 41.8501 60.7ZM147.05 60.9C155.679 63.1487 163.712 66.6987 171.15 71.55C174.154 73.5875 176.738 76.0708 178.9 79C180.012 80.5739 180.628 82.3239 180.75 84.25C180.657 86.0305 180.14 87.6805 179.2 89.2C177.088 92.3457 174.471 94.9957 171.35 97.15C166.017 100.817 160.284 103.75 154.15 105.95C152 106.717 149.833 107.433 147.65 108.1C147.535 108.068 147.452 108.002 147.4 107.9C144.759 99.8425 141.609 91.9925 137.95 84.35C141.524 76.745 144.557 68.9283 147.05 60.9ZM133.25 93.8C135.678 99.1325 137.761 104.599 139.5 110.2C133.773 111.524 127.99 112.507 122.15 113.15C126.118 106.866 129.818 100.416 133.25 93.8ZM55.8501 94.1C59.2697 100.641 62.9697 107.007 66.9501 113.2C61.2009 112.707 55.5009 111.841 49.8501 110.6C51.5738 104.995 53.5738 99.4952 55.8501 94.1ZM141.45 118.1C141.583 118.1 141.717 118.1 141.85 118.1C143.067 123.235 143.884 128.435 144.3 133.7C144.702 138.671 144.435 143.605 143.5 148.5C142.892 151.681 141.659 154.581 139.8 157.2C137.945 159.386 135.578 160.386 132.7 160.2C130.531 160.173 128.414 159.823 126.35 159.15C121.408 157.413 116.808 155.046 112.55 152.05C108.316 149.018 104.316 145.685 100.55 142.05C106.229 135.736 111.463 129.086 116.25 122.1C123.157 121.411 130.024 120.428 136.85 119.15C138.409 118.855 139.943 118.505 141.45 118.1ZM47.5501 118.5C55.9431 120.216 64.4097 121.432 72.9501 122.15C76.9047 127.639 81.088 132.956 85.5001 138.1C86.68 139.447 87.8967 140.763 89.1501 142.05C82.9921 148.174 76.0254 153.174 68.2501 157.05C65.1608 158.513 61.9274 159.513 58.5501 160.05C56.6279 160.321 54.7279 160.221 52.8501 159.75C51.0641 159.197 49.6474 158.147 48.6001 156.6C47.1119 154.303 46.1119 151.803 45.6001 149.1C44.7975 144.902 44.5308 140.669 44.8001 136.4C45.1752 130.349 46.0919 124.383 47.5501 118.5ZM83.6501 122.8C87.2502 122.857 90.8502 122.923 94.4501 123C98.219 122.929 101.986 122.846 105.75 122.75C102.365 127.436 98.7151 131.92 94.8001 136.2C90.8362 131.921 87.1195 127.455 83.6501 122.8Z" fill="#8C98A4"/>
<path opacity="0.992" fill-rule="evenodd" clip-rule="evenodd" d="M217.85 44.1C229.05 44.0833 240.25 44.1 251.45 44.15C257.127 44.3579 262.194 46.1913 266.65 49.65C271.58 53.9608 274.23 59.4108 274.6 66C275.086 71.7234 273.786 76.9901 270.7 81.8C266.596 87.2784 261.113 90.3617 254.25 91.05C254.204 91.0914 254.171 91.1414 254.15 91.2C261.242 101.883 268.308 112.583 275.35 123.3C271.45 123.417 267.55 123.433 263.65 123.35C256.925 112.9 250.225 102.434 243.55 91.95C238.283 91.9 233.017 91.8833 227.75 91.9C227.75 102.4 227.75 112.9 227.75 123.4C224.45 123.4 221.15 123.4 217.85 123.4C217.85 96.9667 217.85 70.5333 217.85 44.1ZM227.75 53C235.15 52.9833 242.55 53 249.95 53.05C254.955 53.3654 258.939 55.5154 261.9 59.5C264.666 64.233 265.066 69.1663 263.1 74.3C260.97 78.892 257.42 81.7086 252.45 82.75C251.261 82.9819 250.061 83.1153 248.85 83.15C241.817 83.2 234.783 83.2167 227.75 83.2C227.75 73.1333 227.75 63.0667 227.75 53Z" fill="#8C98A4"/>
<path opacity="0.992" fill-rule="evenodd" clip-rule="evenodd" d="M476.35 50.2998C479.383 50.2998 482.417 50.2998 485.45 50.2998C485.45 55.5331 485.45 60.7665 485.45 65.9998C489.317 65.9998 493.183 65.9998 497.05 65.9998C497.05 68.6331 497.05 71.2665 497.05 73.8998C493.183 73.8998 489.317 73.8998 485.45 73.8998C485.433 86.0332 485.45 98.1665 485.5 110.3C485.951 115.487 488.701 117.503 493.75 116.35C495.05 115.931 496.183 115.248 497.15 114.3C498.118 116.519 499.018 118.769 499.85 121.05C497.832 122.959 495.432 124.125 492.65 124.55C489.41 125.092 486.244 124.825 483.15 123.75C479.806 122.281 477.723 119.764 476.9 116.2C476.65 115.147 476.483 114.08 476.4 113C476.35 99.9665 476.333 86.9332 476.35 73.8998C473.183 73.8998 470.017 73.8998 466.85 73.8998C466.85 71.2665 466.85 68.6331 466.85 65.9998C470.017 65.9998 473.183 65.9998 476.35 65.9998C476.35 60.7665 476.35 55.5331 476.35 50.2998Z" fill="#8C98A4"/>
<path opacity="0.991" fill-rule="evenodd" clip-rule="evenodd" d="M310.15 64.5C316.411 64.2821 322.111 65.9321 327.25 69.45C332.775 73.8096 336.292 79.4596 337.8 86.4C338.588 90.0924 338.905 93.8257 338.75 97.6C323.317 97.6 307.883 97.6 292.45 97.6C292.836 103.513 295.169 108.497 299.45 112.55C303.926 116.186 309.06 117.753 314.85 117.25C321.021 116.69 326.321 114.273 330.75 110C331.978 111.678 333.228 113.345 334.5 115C334.7 115.302 334.867 115.602 335 115.9C329.502 121.189 322.919 124.106 315.25 124.65C308.684 125.263 302.517 123.997 296.75 120.85C289.836 116.547 285.486 110.397 283.7 102.4C281.931 94.1886 282.964 86.3553 286.8 78.9C292.006 69.9696 299.79 65.1696 310.15 64.5ZM309.35 72C314.704 71.5906 319.437 73.0739 323.55 76.45C327.598 80.3988 329.698 85.2155 329.85 90.9C317.35 90.9 304.85 90.9 292.35 90.9C292.801 84.4809 295.501 79.2643 300.45 75.25C303.133 73.3835 306.1 72.3002 309.35 72Z" fill="#8C98A4"/>
<path opacity="0.99" fill-rule="evenodd" clip-rule="evenodd" d="M439.95 64.4999C444.509 64.3262 448.875 65.1429 453.05 66.9499C456.685 68.7338 459.685 71.2671 462.05 74.5499C460.131 76.4016 458.148 78.1849 456.1 79.8999C451.731 74.1856 445.948 71.8022 438.75 72.7499C431.18 73.9537 426.03 78.137 423.3 85.2999C421.542 90.5557 421.275 95.889 422.5 101.3C423.779 106.74 426.729 110.99 431.35 114.05C436.321 116.825 441.554 117.459 447.05 115.95C449.582 115.102 451.815 113.768 453.75 111.95C454.57 111.097 455.353 110.214 456.1 109.3C458.095 111.062 460.062 112.862 462 114.7C462.032 114.841 461.998 114.974 461.9 115.1C457.121 121.181 450.838 124.398 443.05 124.75C435.201 125.256 428.267 123.022 422.25 118.05C416.836 113.005 413.652 106.789 412.7 99.3999C411.733 92.2666 412.867 85.4666 416.1 78.9999C421.382 69.8475 429.332 65.0142 439.95 64.4999Z" fill="#8C98A4"/>
<path opacity="0.989" fill-rule="evenodd" clip-rule="evenodd" d="M372.95 64.6C376.806 64.3703 380.606 64.7203 384.35 65.65C392.689 68.0229 397.172 73.5396 397.8 82.2C397.85 95.9333 397.867 109.667 397.85 123.4C394.85 123.4 391.85 123.4 388.85 123.4C388.867 121.266 388.85 119.133 388.8 117C384.788 121.301 379.838 123.817 373.95 124.55C367.477 125.53 361.643 124.063 356.45 120.15C351.623 115.907 349.473 110.557 350 104.1C350.86 95.673 355.343 90.223 363.45 87.75C367.691 86.7246 371.958 86.6246 376.25 87.45C381.204 88.4102 385.387 90.7269 388.8 94.4C388.867 90.6333 388.867 86.8667 388.8 83.1C388.236 78.6358 385.886 75.5191 381.75 73.75C378.755 72.5888 375.655 72.1554 372.45 72.45C367.607 72.8061 363.34 74.5394 359.65 77.65C358.702 78.5151 357.768 79.3984 356.85 80.3C355.501 78.3371 354.151 76.3704 352.8 74.4C352.702 74.2741 352.668 74.1408 352.7 74C358.216 68.243 364.966 65.1097 372.95 64.6ZM371.55 93.4C376.503 93.0633 381.07 94.2133 385.25 96.85C386.596 97.8294 387.779 98.9794 388.8 100.3C388.867 103.967 388.867 107.633 388.8 111.3C386.092 114.669 382.608 116.819 378.35 117.75C375.115 118.476 371.881 118.476 368.65 117.75C361.844 115.689 358.694 111.106 359.2 104C360.168 98.9979 363.085 95.7145 367.95 94.15C369.146 93.8142 370.346 93.5642 371.55 93.4Z" fill="#8C98A4"/>
<path opacity="0.994" fill-rule="evenodd" clip-rule="evenodd" d="M92.9501 67.3999C99.9547 67.0935 105.338 69.8601 109.1 75.6999C112.185 81.3497 112.218 87.0163 109.2 92.6999C106.102 97.7598 101.585 100.577 95.6501 101.15C88.7362 101.335 83.4529 98.5186 79.8001 92.6999C76.7817 87.0163 76.815 81.3497 79.9001 75.6999C82.9277 70.8765 87.2777 68.1099 92.9501 67.3999Z" fill="#8C98A4"/>
</g>
<defs>
<clipPath id="clip0_2552_2714">
<rect width="500" height="167.9" fill="white" transform="translate(0 0.549805)"/>
</clipPath>
</defs>
</svg>
