<svg width="1200" height="1022" viewBox="0 0 1200 1022" fill="none" xmlns="http://www.w3.org/2000/svg">
<g clip-path="url(#clip0_2552_2680)">
<path d="M1199.49 656.731C1195.58 629.623 1177.85 608.599 1150.76 592.114C1157.45 596.18 1163.12 599.621 1150.63 592.032C1133.78 581.804 1142.71 587.226 1150.52 591.968C1083.72 551.501 996.589 560.495 923.799 582.976C894.626 542.521 893.361 511.648 910.168 467.487C912.345 461.906 910.859 458.808 904.018 456.317C887.41 450.277 863.492 453.472 846.778 457.24C841.008 458.527 836.808 461.027 835.529 465.972C823.449 514.297 786.289 558.56 753.9 599.3C731.093 562.12 732.9 533.346 748.243 494.617C750.113 489.901 749.253 487.393 743.703 484.891C726.687 477.402 700.575 481.08 683.234 485.441C663.291 490.389 633.336 574.333 623.768 590.982C603.774 625.75 586.055 680.015 552.085 707.597C523.257 676.088 604.88 604.905 577.589 576.333C568.36 566.669 551.661 566.918 541.06 575.105C543.603 559.939 544.922 549.97 540.31 537.105C535.432 523.57 523.057 515.802 504.943 516.195C462.767 517.245 425.623 543.733 400.315 568.814C376.228 592.943 312.703 607.937 278.55 622.489C219.882 579.02 92.8761 532.893 89.5691 458.872C85.9879 375.458 202.817 318.849 280.812 284.996C382.25 240.935 538.533 186.109 653.792 234.293C684.375 247.078 696.68 274.501 688.261 300.767C666.305 369.271 577.641 414.972 500.52 435.931C462.577 446.246 420.905 453.925 380.754 451.929C326.953 449.252 285.059 421.582 279.314 419.864C274.512 419.089 274.889 424.371 276.157 427.168C331.976 551.619 614.635 460.419 688.554 396.528C724.153 365.788 745.772 336 755.002 289.098C765.821 234.115 718.36 199.712 682.336 185.529C499.716 113.625 247.252 207.791 109.165 303.789C49.2402 345.452 -25.7223 411.649 8.67926 481.09C46.0152 556.449 160.404 595.09 234.858 641.18C174.614 666.642 99.2441 692.974 60.2066 740.715C37.8847 768.081 29.9652 797.244 46.5871 828.354C76.0527 883.307 183.193 859.495 228.399 835.273C269.813 813.087 297.687 783.307 309.727 745.118C320.168 712.01 318.026 677.611 300.689 646.423L367.686 617.603C349.646 663.602 341.677 721.263 379.125 762.829C394.13 779.45 433.071 780.121 449.009 763.449C469.671 741.636 483.378 714.303 497.063 689.284C495.464 707.968 492.713 729.143 500.29 745.427C508.986 764.111 528.711 767.934 549.021 756.077C611.178 719.792 650.736 619.23 681.357 560.605C689.682 586.178 698.871 609.538 714.068 633.115C717.823 638.902 717.366 642.632 712.203 647.457C689.503 668.737 635.267 704.226 630.01 732.97C628.782 739.69 634.025 746.125 643.336 747.661C679.836 753.857 720.3 742.616 749.935 725.579C780.844 707.794 790.824 683.545 783.321 654.785C772.596 613.381 809.086 567.117 843.793 533.131C850.165 558.861 859.768 583.624 876.94 606.099C846.296 628.989 800.581 661.443 807.146 699.665C809.461 713.35 823.868 722.192 841.163 719.073C878.154 712.447 910.107 698.914 933.436 674.928C954.584 653.29 947.011 629.677 937.786 605.888C993.736 592.303 1050.34 589.588 1106.14 605.834C1133.08 613.628 1154.78 626.764 1167.66 647.332C1183.42 672.536 1174.55 695.754 1144.1 712.323C1136.4 716.517 1131.07 719.964 1133.67 721.778C1136.28 723.594 1145.16 725.99 1164.81 715.495C1184.46 704.996 1196.47 690.811 1199.55 672.189C1200.17 667.049 1200.15 661.868 1199.49 656.731ZM264.718 707.081C261.535 740.316 242.133 767.266 210.401 789.036C192.549 801.311 170.318 811.313 148.245 813.139C126.171 814.967 108.985 810.227 107.515 790.754C103.381 735.95 203.428 682.267 258.98 666.103C263.714 679.778 266.037 693.344 264.68 707.141L264.718 707.081ZM506.363 562.656C497.215 607.126 471.605 686.936 430.627 718.808C425.105 723.079 419.822 722.83 417.012 717.271C392.766 669.313 425.616 570.422 494.548 555.155C502.65 553.383 507.678 556.315 506.363 562.656ZM671.154 725.649C690.893 707.784 710.609 689.936 730.378 671.974C732.823 691.949 689.196 731.703 671.154 725.649ZM860.328 690.374C854.825 692.912 842.466 695.388 841.983 692.039C838.51 667.949 869.677 642.456 889.015 630.51C899.452 653.121 887.098 678.02 860.328 690.374Z" fill="#8C98A4"/>
</g>
<defs>
<clipPath id="clip0_2552_2680">
<rect width="1200" height="1020.6" fill="white" transform="translate(0 0.701172)"/>
</clipPath>
</defs>
</svg>
