<svg width="16" height="16" viewBox="0 0 16 16" fill="none" xmlns="http://www.w3.org/2000/svg">
<circle opacity="0.6" cx="6.95098" cy="9.0877" r="5.19512" fill="#5856D6"/>
<circle cx="0.390244" cy="9.06334" r="0.390244" fill="#AF52DE"/>
<circle cx="1.95074" cy="13.356" r="0.439024" fill="#FF9500"/>
<circle cx="8.04811" cy="2.3318" r="0.731707" fill="#FF2D55"/>
<circle cx="15.0733" cy="8.52693" r="0.926829" fill="#5856D6"/>
<circle cx="13.3902" cy="10.0636" r="0.414634" fill="#FF2D55"/>
<circle opacity="0.6" cx="10.0486" cy="6.86844" r="3.21951" fill="#FF9500"/>
<circle opacity="0.6" cx="5.4628" cy="7.79507" r="4.09756" fill="#AF52DE"/>
<circle opacity="0.6" cx="9.31741" cy="10.9658" r="2.97561" fill="#FF2D55"/>
<path d="M5.39027 6.77084L5.02441 8.94157L7.29271 8.60011L6.90246 8.18548C7.1545 7.89279 7.96588 7.39522 9.19515 7.74645C8.04393 5.97084 6.45531 6.61637 5.8049 7.16108L5.39027 6.77084Z" fill="white" stroke="white" stroke-width="0.0487805"/>
<path d="M9.0246 11.161L9.36607 9.01465L7.12217 9.33172L7.48802 9.72197C7.26038 10.0146 6.48802 10.5122 5.21973 10.161C6.48802 12.0146 7.85387 11.2667 8.58558 10.7464L9.0246 11.161Z" fill="white" stroke="white" stroke-width="0.0487805"/>
</svg>
