<svg width="32" height="32" viewBox="0 0 32 32" fill="none" xmlns="http://www.w3.org/2000/svg">
<circle opacity="0.6" cx="13.902" cy="18.1756" r="10.3902" fill="#5856D6"/>
<circle cx="0.780488" cy="18.1267" r="0.780488" fill="#AF52DE"/>
<circle cx="3.90246" cy="26.712" r="0.878049" fill="#FF9500"/>
<circle cx="16.0972" cy="4.66337" r="1.46341" fill="#FF2D55"/>
<circle cx="30.1466" cy="17.0536" r="1.85366" fill="#5856D6"/>
<circle cx="26.7804" cy="20.1269" r="0.829268" fill="#FF2D55"/>
<circle opacity="0.6" cx="20.0972" cy="13.7366" r="6.43902" fill="#FF9500"/>
<circle opacity="0.6" cx="10.9266" cy="15.5901" r="8.19512" fill="#AF52DE"/>
<circle opacity="0.6" cx="18.6338" cy="21.9317" r="5.95122" fill="#FF2D55"/>
<path d="M10.7805 13.5414L10.0488 17.8829L14.5854 17.2L13.8049 16.3707C14.309 15.7853 15.9318 14.7902 18.3903 15.4926C16.0879 11.9414 12.9106 13.2325 11.6098 14.3219L10.7805 13.5414Z" fill="white" stroke="white" stroke-width="0.097561"/>
<path d="M18.0492 22.322L18.7321 18.0293L14.2443 18.6634L14.976 19.4439C14.5208 20.0293 12.976 21.0244 10.4395 20.322C12.976 24.0293 15.7077 22.5334 17.1712 21.4927L18.0492 22.322Z" fill="white" stroke="white" stroke-width="0.097561"/>
</svg>
