<svg width="100" height="100" viewBox="0 0 100 100" fill="none" xmlns="http://www.w3.org/2000/svg">
<path d="M28.125 18.75C28.125 14.606 29.7712 10.6317 32.7015 7.70146C35.6317 4.7712 39.606 3.125 43.75 3.125C47.894 3.125 51.8683 4.7712 54.7985 7.70146C57.7288 10.6317 59.375 14.606 59.375 18.75V75C59.375 77.4864 58.3873 79.871 56.6291 81.6291C54.871 83.3873 52.4864 84.375 50 84.375C47.5136 84.375 45.129 83.3873 43.3709 81.6291C41.6127 79.871 40.625 77.4864 40.625 75V31.25C40.625 30.4212 40.9542 29.6263 41.5403 29.0403C42.1263 28.4542 42.9212 28.125 43.75 28.125C44.5788 28.125 45.3737 28.4542 45.9597 29.0403C46.5458 29.6263 46.875 30.4212 46.875 31.25V75C46.875 75.8288 47.2042 76.6237 47.7903 77.2097C48.3763 77.7958 49.1712 78.125 50 78.125C50.8288 78.125 51.6237 77.7958 52.2097 77.2097C52.7958 76.6237 53.125 75.8288 53.125 75V18.75C53.125 17.5189 52.8825 16.2998 52.4114 15.1623C51.9402 14.0249 51.2497 12.9914 50.3791 12.1209C49.5086 11.2503 48.4751 10.5598 47.3377 10.0886C46.2002 9.61749 44.9811 9.375 43.75 9.375C42.5189 9.375 41.2998 9.61749 40.1623 10.0886C39.0249 10.5598 37.9914 11.2503 37.1209 12.1209C36.2503 12.9914 35.5598 14.0249 35.0886 15.1623C34.6175 16.2998 34.375 17.5189 34.375 18.75V75C34.375 79.144 36.0212 83.1183 38.9515 86.0485C41.8817 88.9788 45.856 90.625 50 90.625C54.144 90.625 58.1183 88.9788 61.0485 86.0485C63.9788 83.1183 65.625 79.144 65.625 75V31.25C65.625 30.4212 65.9542 29.6263 66.5403 29.0403C67.1263 28.4542 67.9212 28.125 68.75 28.125C69.5788 28.125 70.3737 28.4542 70.9597 29.0403C71.5458 29.6263 71.875 30.4212 71.875 31.25V75C71.875 80.8016 69.5703 86.3656 65.468 90.468C61.3656 94.5703 55.8016 96.875 50 96.875C44.1984 96.875 38.6344 94.5703 34.532 90.468C30.4297 86.3656 28.125 80.8016 28.125 75V18.75Z" fill="black"/>
</svg>
