<svg width="100" height="100" viewBox="0 0 100 100" fill="none" xmlns="http://www.w3.org/2000/svg">
<g clip-path="url(#clip0_2242_2481)">
<path d="M58.0813 0H25C21.6848 0 18.5054 1.31696 16.1612 3.66117C13.817 6.00537 12.5 9.18479 12.5 12.5V87.5C12.5 90.8152 13.817 93.9946 16.1612 96.3388C18.5054 98.683 21.6848 100 25 100H75C78.3152 100 81.4946 98.683 83.8388 96.3388C86.183 93.9946 87.5 90.8152 87.5 87.5V29.4187C87.4996 27.7613 86.8409 26.1718 85.6687 25L62.5 1.83125C61.3282 0.659067 59.7387 0.000353984 58.0813 0ZM59.375 21.875V9.375L78.125 28.125H65.625C63.9674 28.125 62.3777 27.4665 61.2056 26.2944C60.0335 25.1223 59.375 23.5326 59.375 21.875ZM53.125 46.875V70.5813L60.2875 63.4125C60.8743 62.8257 61.6702 62.4961 62.5 62.4961C63.3298 62.4961 64.1257 62.8257 64.7125 63.4125C65.2993 63.9993 65.6289 64.7952 65.6289 65.625C65.6289 66.4548 65.2993 67.2507 64.7125 67.8375L52.2125 80.3375C51.9222 80.6285 51.5774 80.8594 51.1977 81.017C50.8181 81.1745 50.411 81.2556 50 81.2556C49.589 81.2556 49.1819 81.1745 48.8023 81.017C48.4226 80.8594 48.0778 80.6285 47.7875 80.3375L35.2875 67.8375C34.7007 67.2507 34.3711 66.4548 34.3711 65.625C34.3711 64.7952 34.7007 63.9993 35.2875 63.4125C35.8743 62.8257 36.6702 62.4961 37.5 62.4961C38.3298 62.4961 39.1257 62.8257 39.7125 63.4125L46.875 70.5813V46.875C46.875 46.0462 47.2042 45.2513 47.7903 44.6653C48.3763 44.0792 49.1712 43.75 50 43.75C50.8288 43.75 51.6237 44.0792 52.2097 44.6653C52.7958 45.2513 53.125 46.0462 53.125 46.875Z" fill="black"/>
</g>
<defs>
<clipPath id="clip0_2242_2481">
<rect width="100" height="100" fill="white"/>
</clipPath>
</defs>
</svg>
