<svg width="86" height="86" viewBox="0 0 86 86" fill="none" xmlns="http://www.w3.org/2000/svg">
<g clip-path="url(#clip0_2242_2491)">
<mask id="mask0_2242_2491" style="mask-type:luminance" maskUnits="userSpaceOnUse" x="0" y="0" width="86" height="86">
<path d="M85.3333 0H0V85.3333H85.3333V0Z" fill="white"/>
</mask>
<g mask="url(#mask0_2242_2491)">
<path d="M17.168 36.2306H6.95601C4.90668 36.2306 3.24268 37.8946 3.24268 39.944V77.0773C3.24268 79.1266 4.90668 80.7906 6.95601 80.7906H17.168C17.68 80.7906 18.096 80.3746 18.096 79.8626V37.1586C18.096 36.6466 17.68 36.2306 17.168 36.2306ZM24.0733 32.0213C33.0645 24.5484 36.7227 16.688 35.048 8.43997C32.5347 -3.93069 49.352 5.15464 47.4187 20.812C45.4853 36.468 44.9053 33.1826 72.16 33.1826C84.4889 33.1826 85.3373 47.4075 74.7053 75.8573C73.3013 79.616 68.904 82.6666 64.892 82.6666H29.9453C25.9333 82.6666 22.676 79.4093 22.676 75.3973V35C22.676 33.9973 23.3027 32.6626 24.0733 32.0213Z" fill="black"/>
</g>
</g>
<defs>
<clipPath id="clip0_2242_2491">
<rect width="85.3333" height="85.3333" fill="white"/>
</clipPath>
</defs>
</svg>
