<svg width="1500" height="320" viewBox="0 0 1500 320" fill="none" xmlns="http://www.w3.org/2000/svg">
<g clip-path="url(#clip0_2292_3105)">
<circle opacity="0.6" cx="175.35" cy="188.885" r="131.05" fill="#5856D6"/>
<circle cx="9.84414" cy="188.269" r="9.84414" fill="#AF52DE"/>
<circle cx="49.2221" cy="296.555" r="11.0747" fill="#FF9500"/>
<circle cx="203.034" cy="18.4578" r="18.4578" fill="#FF2D55"/>
<circle cx="380.23" cy="174.734" r="23.3798" fill="#5856D6"/>
<circle cx="337.776" cy="213.495" r="10.4594" fill="#FF2D55"/>
<circle opacity="0.6" cx="253.486" cy="132.896" r="81.2141" fill="#FF9500"/>
<circle opacity="0.6" cx="137.817" cy="156.276" r="103.363" fill="#AF52DE"/>
<circle opacity="0.6" cx="235.028" cy="236.26" r="75.0615" fill="#FF2D55"/>
<path d="M135.97 130.435L126.741 185.193L183.96 176.58L174.116 166.12C180.474 158.737 200.941 146.186 231.95 155.045C202.91 110.255 162.836 126.538 146.429 140.279L135.97 130.435Z" fill="white" stroke="white" stroke-width="1.23052"/>
<path d="M227.643 241.181L236.257 187.039L179.653 195.037L188.882 204.881C183.14 212.264 163.657 224.815 131.663 215.956C163.657 262.715 198.111 243.847 216.569 230.722L227.643 241.181Z" fill="white" stroke="white" stroke-width="1.23052"/>
<path d="M592.616 109.505C585.725 105.732 578.67 102.614 571.451 100.153C564.396 97.6924 557.751 96.4619 551.517 96.4619C543.806 96.4619 537.735 98.0206 533.305 101.138C528.875 104.255 526.66 108.931 526.66 115.166C526.66 119.432 528.301 123.287 531.582 126.733C535.028 130.014 539.376 132.967 544.626 135.592C550.04 138.217 555.618 140.596 561.361 142.729C566.611 144.698 571.779 147.077 576.865 149.866C582.116 152.491 586.792 155.855 590.893 159.957C594.995 163.894 598.276 168.898 600.737 174.969C603.198 180.875 604.429 188.176 604.429 196.872C604.429 206.06 602.05 214.592 597.292 222.467C592.534 230.342 585.561 236.741 576.373 241.663C567.185 246.421 555.865 248.8 542.411 248.8C535.52 248.8 528.465 248.144 521.246 246.831C514.191 245.354 507.218 243.222 500.327 240.432C493.436 237.479 486.792 233.788 480.393 229.358L496.144 201.548C500.409 204.665 505.003 207.455 509.925 209.916C515.011 212.213 520.098 214.017 525.184 215.33C530.27 216.642 534.946 217.299 539.212 217.299C543.477 217.299 547.743 216.724 552.009 215.576C556.439 214.263 560.048 212.13 562.838 209.177C565.791 206.224 567.267 202.122 567.267 196.872C567.267 193.263 566.037 189.981 563.576 187.028C561.279 184.075 558.08 181.368 553.978 178.907C550.04 176.445 545.692 174.313 540.934 172.508C535.356 170.375 529.614 167.914 523.707 165.125C517.801 162.336 512.222 158.972 506.972 155.034C501.886 150.933 497.702 145.929 494.421 140.022C491.303 133.952 489.745 126.569 489.745 117.873C489.745 107.372 492.042 98.2667 496.636 90.5554C501.394 82.8442 508.038 76.7736 516.57 72.3438C525.102 67.7498 534.946 65.2068 546.102 64.7146C560.705 64.7146 572.518 66.4373 581.541 69.8827C590.729 73.3282 598.933 77.4299 606.152 82.1879L592.616 109.505ZM725.022 237.233C720.264 241.007 714.275 244.042 707.056 246.339C700.001 248.636 693.028 249.784 686.137 249.784C673.832 249.784 663.086 247.569 653.898 243.14C644.874 238.546 637.819 232.065 632.733 223.697C627.811 215.166 625.35 204.911 625.35 192.934C625.35 180.957 628.057 170.785 633.471 162.418C638.885 153.886 645.94 147.405 654.636 142.975C663.496 138.546 672.766 136.331 682.446 136.331C692.126 136.331 700.493 137.643 707.548 140.268C714.767 142.893 720.92 146.339 726.006 150.605L709.271 172.754C706.974 170.949 703.775 169.144 699.673 167.34C695.735 165.371 691.059 164.386 685.645 164.386C680.887 164.386 676.539 165.617 672.602 168.078C668.664 170.539 665.547 173.902 663.25 178.168C660.953 182.434 659.804 187.356 659.804 192.934C659.804 198.185 661.035 203.025 663.496 207.455C665.957 211.884 669.32 215.412 673.586 218.037C678.016 220.498 683.184 221.729 689.09 221.729C692.864 221.729 696.309 221.236 699.427 220.252C702.708 219.103 705.497 217.545 707.794 215.576L725.022 237.233ZM782.491 139.284L785.69 168.816L784.952 164.386C788.069 157.988 792.335 152.573 797.749 148.144C803.163 143.55 808.495 140.022 813.746 137.561C819.16 135.1 823.262 133.87 826.051 133.87L824.328 168.324C816.289 167.34 809.398 168.652 803.655 172.262C797.913 175.871 793.483 180.629 790.366 186.536C787.249 192.442 785.69 198.513 785.69 204.747V246.831H751.481V139.284H782.491ZM894.1 249.784C884.092 249.784 874.986 247.815 866.783 243.878C858.743 239.776 852.345 233.541 847.587 225.174C842.829 216.806 840.45 206.142 840.45 193.181C840.45 181.039 842.911 170.539 847.833 161.679C852.755 152.82 859.236 146.011 867.275 141.253C875.314 136.331 883.846 133.87 892.87 133.87C903.534 133.87 911.574 135.674 916.988 139.284C922.566 142.729 927.16 146.585 930.77 150.851L929.293 155.034L932.492 139.284H964.486V246.831H930.031V223.451L932.739 230.834C932.41 230.834 931.426 231.819 929.785 233.788C928.145 235.592 925.684 237.807 922.402 240.432C919.285 242.893 915.347 245.026 910.589 246.831C905.995 248.8 900.499 249.784 894.1 249.784ZM903.944 221.729C908.046 221.729 911.738 221.154 915.019 220.006C918.301 218.693 921.172 216.888 923.633 214.592C926.094 212.13 928.227 209.095 930.031 205.486V179.153C928.719 175.543 926.75 172.508 924.125 170.047C921.5 167.422 918.383 165.453 914.773 164.14C911.164 162.664 907.144 161.925 902.714 161.925C897.792 161.925 893.198 163.238 888.932 165.863C884.83 168.324 881.549 171.77 879.088 176.199C876.627 180.629 875.396 185.715 875.396 191.458C875.396 197.2 876.709 202.368 879.334 206.962C881.959 211.556 885.405 215.166 889.67 217.791C894.1 220.416 898.858 221.729 903.944 221.729ZM1067.42 249.784C1061.02 249.784 1054.71 248.636 1048.47 246.339C1042.4 243.878 1037.31 240.432 1033.21 236.003L1034.2 225.912V298.513H999.988V136.823H1029.52L1034.44 157.742L1031.74 150.359C1037.31 145.601 1043.55 141.663 1050.44 138.546C1057.33 135.428 1065.29 133.87 1074.31 133.87C1084.32 133.87 1093.26 136.249 1101.14 141.007C1109.01 145.601 1115.16 152.327 1119.59 161.187C1124.19 169.883 1126.49 180.383 1126.49 192.688C1126.49 204.829 1123.94 215.166 1118.86 223.697C1113.77 232.229 1106.8 238.71 1097.94 243.14C1089.08 247.569 1078.91 249.784 1067.42 249.784ZM1060.53 222.713C1066.11 222.713 1071.19 221.482 1075.79 219.021C1080.55 216.56 1084.32 213.115 1087.11 208.685C1090.06 204.091 1091.54 198.923 1091.54 193.181C1091.54 187.11 1090.23 181.86 1087.6 177.43C1085.14 172.836 1081.69 169.308 1077.26 166.847C1073 164.222 1068.24 162.91 1062.99 162.91C1058.4 162.91 1054.3 163.566 1050.69 164.879C1047.24 166.027 1044.12 167.832 1041.33 170.293C1038.71 172.59 1036.41 175.543 1034.44 179.153V205.486C1035.76 208.931 1037.64 211.966 1040.1 214.592C1042.56 217.217 1045.52 219.267 1048.96 220.744C1052.57 222.057 1056.43 222.713 1060.53 222.713ZM1220.99 249.784C1214.6 249.784 1208.28 248.636 1202.04 246.339C1195.97 243.878 1190.89 240.432 1186.79 236.003L1187.77 225.912V298.513H1153.56V136.823H1183.09L1188.02 157.742L1185.31 150.359C1190.89 145.601 1197.12 141.663 1204.01 138.546C1210.9 135.428 1218.86 133.87 1227.89 133.87C1237.89 133.87 1246.84 136.249 1254.71 141.007C1262.59 145.601 1268.74 152.327 1273.17 161.187C1277.76 169.883 1280.06 180.383 1280.06 192.688C1280.06 204.829 1277.52 215.166 1272.43 223.697C1267.34 232.229 1260.37 238.71 1251.51 243.14C1242.65 247.569 1232.48 249.784 1220.99 249.784ZM1214.1 222.713C1219.68 222.713 1224.77 221.482 1229.36 219.021C1234.12 216.56 1237.89 213.115 1240.68 208.685C1243.64 204.091 1245.11 198.923 1245.11 193.181C1245.11 187.11 1243.8 181.86 1241.18 177.43C1238.71 172.836 1235.27 169.308 1230.84 166.847C1226.57 164.222 1221.82 162.91 1216.56 162.91C1211.97 162.91 1207.87 163.566 1204.26 164.879C1200.81 166.027 1197.7 167.832 1194.91 170.293C1192.28 172.59 1189.99 175.543 1188.02 179.153V205.486C1189.33 208.931 1191.22 211.966 1193.68 214.592C1196.14 217.217 1199.09 219.267 1202.54 220.744C1206.15 222.057 1210 222.713 1214.1 222.713ZM1307.14 139.284H1341.59V246.831H1307.14V139.284ZM1306.4 101.138C1306.4 96.0517 1308.37 91.868 1312.3 88.5866C1316.41 85.3052 1320.75 83.6645 1325.35 83.6645C1329.94 83.6645 1334.13 85.3052 1337.9 88.5866C1341.84 91.868 1343.81 96.0517 1343.81 101.138C1343.81 106.224 1341.84 110.408 1337.9 113.689C1334.13 116.806 1329.94 118.365 1325.35 118.365C1320.75 118.365 1316.41 116.806 1312.3 113.689C1308.37 110.408 1306.4 106.224 1306.4 101.138ZM1368.71 191.704C1368.71 180.711 1371.25 170.867 1376.34 162.171C1381.59 153.476 1388.89 146.667 1398.24 141.745C1407.59 136.659 1418.34 134.116 1430.48 134.116C1442.78 134.116 1453.45 136.659 1462.47 141.745C1471.5 146.667 1478.39 153.476 1483.14 162.171C1488.07 170.867 1490.53 180.711 1490.53 191.704C1490.53 202.697 1488.07 212.623 1483.14 221.482C1478.39 230.178 1471.5 237.069 1462.47 242.155C1453.45 247.241 1442.62 249.784 1429.99 249.784C1418.17 249.784 1407.59 247.487 1398.24 242.893C1389.05 238.299 1381.83 231.655 1376.58 222.959C1371.33 214.263 1368.71 203.845 1368.71 191.704ZM1403.41 191.95C1403.41 197.528 1404.56 202.614 1406.85 207.208C1409.15 211.638 1412.27 215.166 1416.2 217.791C1420.14 220.416 1424.57 221.729 1429.49 221.729C1434.91 221.729 1439.58 220.416 1443.52 217.791C1447.46 215.166 1450.5 211.638 1452.63 207.208C1454.76 202.614 1455.83 197.528 1455.83 191.95C1455.83 186.208 1454.76 181.121 1452.63 176.692C1450.5 172.262 1447.46 168.734 1443.52 166.109C1439.58 163.484 1434.91 162.171 1429.49 162.171C1424.57 162.171 1420.14 163.484 1416.2 166.109C1412.27 168.734 1409.15 172.262 1406.85 176.692C1404.56 181.121 1403.41 186.208 1403.41 191.95Z" fill="black"/>
</g>
<defs>
<clipPath id="clip0_2292_3105">
<rect width="1500" height="319.934" fill="white"/>
</clipPath>
</defs>
</svg>
