<svg width="32" height="32" viewBox="0 0 32 32" fill="none" xmlns="http://www.w3.org/2000/svg">
<path d="M12.46 17.66C12.3599 17.5663 12.2801 17.4531 12.2256 17.3273C12.1712 17.2015 12.1431 17.0658 12.1433 16.9287C12.1434 16.7916 12.1718 16.656 12.2265 16.5303C12.2813 16.4047 12.3614 16.2916 12.4617 16.1981C12.562 16.1047 12.6804 16.0329 12.8097 15.9871C12.9389 15.9414 13.0762 15.9227 13.213 15.9323C13.3497 15.9418 13.4831 15.9794 13.6047 16.0427C13.7263 16.1059 13.8337 16.1935 13.92 16.3L15 17.45V13C15 12.7348 15.1054 12.4804 15.2929 12.2929C15.4804 12.1054 15.7348 12 16 12C16.2652 12 16.5196 12.1054 16.7071 12.2929C16.8946 12.4804 17 12.7348 17 13V17.45L18.08 16.3C18.1663 16.1935 18.2737 16.1059 18.3953 16.0427C18.5169 15.9794 18.6503 15.9418 18.787 15.9323C18.9238 15.9227 19.0611 15.9414 19.1903 15.9871C19.3196 16.0329 19.438 16.1047 19.5383 16.1981C19.6386 16.2916 19.7187 16.4047 19.7735 16.5303C19.8282 16.656 19.8566 16.7916 19.8567 16.9287C19.8569 17.0658 19.8288 17.2015 19.7744 17.3273C19.7199 17.4531 19.6401 17.5663 19.54 17.66L16.73 20.66C16.6829 20.7025 16.6288 20.7363 16.57 20.76L16.47 20.83C16.3537 20.8825 16.2276 20.9096 16.1 20.9096C15.9724 20.9096 15.8463 20.8825 15.73 20.83L15.63 20.76C15.5712 20.7363 15.5171 20.7025 15.47 20.66L12.46 17.66ZM19 22H13C12.7348 22 12.4804 22.1054 12.2929 22.2929C12.1054 22.4804 12 22.7348 12 23C12 23.2652 12.1054 23.5196 12.2929 23.7071C12.4804 23.8947 12.7348 24 13 24H19C19.2652 24 19.5196 23.8947 19.7071 23.7071C19.8946 23.5196 20 23.2652 20 23C20 22.7348 19.8946 22.4804 19.7071 22.2929C19.5196 22.1054 19.2652 22 19 22ZM28 11V25C28 26.3261 27.4732 27.5979 26.5355 28.5356C25.5979 29.4732 24.3261 30 23 30H9C7.67392 30 6.40215 29.4732 5.46447 28.5356C4.52678 27.5979 4 26.3261 4 25V7.00002C4 5.67393 4.52678 4.40216 5.46447 3.46448C6.40215 2.5268 7.67392 2.00002 9 2.00002H19C19.1316 1.99926 19.2621 2.02448 19.3839 2.07425C19.5057 2.12401 19.6166 2.19734 19.71 2.29002L27.71 10.29C27.8027 10.3835 27.876 10.4943 27.9258 10.6161C27.9755 10.7379 28.0008 10.8684 28 11ZM20 9.18002C20 9.39749 20.0864 9.60606 20.2402 9.75984C20.394 9.91362 20.6025 10 20.82 10H24.59L20 5.41002V9.18002ZM26 25V12H20.82C20.4497 12 20.083 11.9271 19.7408 11.7854C19.3987 11.6436 19.0878 11.4359 18.826 11.1741C18.5641 10.9122 18.3564 10.6013 18.2147 10.2592C18.0729 9.91705 18 9.55034 18 9.18002V4.00002H9C8.20435 4.00002 7.44129 4.31609 6.87868 4.8787C6.31607 5.44131 6 6.20437 6 7.00002V25C6 25.7957 6.31607 26.5587 6.87868 27.1213C7.44129 27.6839 8.20435 28 9 28H23C23.7956 28 24.5587 27.6839 25.1213 27.1213C25.6839 26.5587 26 25.7957 26 25Z" fill="black"/>
</svg>
