<svg width="1773" height="1560" viewBox="0 0 1773 1560" fill="none" xmlns="http://www.w3.org/2000/svg">
<path d="M25.6277 1411.35L320.199 1117.64C225.158 996.558 173.588 847.037 173.78 693.11C173.78 556.026 214.43 422.02 290.59 308.039C366.75 194.058 474.999 105.22 601.648 52.7602C728.297 0.300311 867.659 -13.4256 1002.11 13.3182C1136.56 40.062 1260.06 106.074 1356.99 203.008C1453.93 299.941 1519.94 423.441 1546.68 557.891C1573.43 692.341 1559.7 831.703 1507.24 958.352C1454.78 1085 1365.94 1193.25 1251.96 1269.41C1137.98 1345.57 1003.97 1386.22 866.89 1386.22C712.963 1386.41 563.442 1334.84 442.36 1239.8L148.655 1534.37C140.6 1542.49 131.018 1548.94 120.46 1553.34C109.903 1557.74 98.5784 1560 87.1411 1560C75.7037 1560 64.3796 1557.74 53.8218 1553.34C43.2641 1548.94 33.6819 1542.49 25.6277 1534.37C17.5071 1526.32 11.0616 1516.74 6.66304 1506.18C2.2645 1495.62 -2.10738e-05 1484.3 -2.10738e-05 1472.86C-2.10738e-05 1461.42 2.2645 1450.1 6.66304 1439.54C11.0616 1428.98 17.5071 1419.4 25.6277 1411.35ZM1386.72 693.11C1386.72 590.297 1356.23 489.793 1299.11 404.307C1241.99 318.821 1160.81 252.193 1065.82 212.848C970.834 173.503 866.313 163.208 765.475 183.266C664.638 203.324 572.013 252.833 499.313 325.533C426.613 398.233 377.104 490.858 357.046 591.696C336.988 692.534 347.282 797.055 386.627 892.042C425.972 987.028 492.6 1068.22 578.086 1125.34C663.572 1182.46 764.077 1212.94 866.89 1212.94C1004.76 1212.94 1136.98 1158.17 1234.47 1060.69C1331.95 963.2 1386.72 830.978 1386.72 693.11Z" fill="#3C486B"/>
<g clip-path="url(#clip0_1510_2893)">
<g clip-path="url(#clip1_1510_2893)">
<path d="M1479.98 612.967V1163.83L1306.86 1131.78L1230.54 1040.23L908.959 682.731L1181.98 488.74C1318.75 669.259 1323.06 625.252 1323.06 625.252C1323.06 625.252 1390.61 524.396 1477.28 611.061L1479.98 612.967Z" fill="#CCCCCC"/>
<path d="M819.153 571.367L1386.86 1302.03C1383.53 1302.36 1380.19 1302.53 1376.84 1302.53H448.703L819.153 571.367Z" fill="#518EF8"/>
<path d="M1181.99 488.742L337.625 1199.4V263.317C337.625 206.341 383.824 160.178 440.764 160.178H1056.5C1030.06 205.623 1128.1 234.791 1128.1 291.157C1128.1 347.885 1155.22 443.082 1181.99 488.742Z" fill="#28B446"/>
<path d="M1479.97 1163.83V1199.39C1479.97 1252.96 1439.13 1297 1386.86 1302.03L911.799 833.219L1026.79 716.682L1292.2 978.569L1306.86 993.046L1479.97 1163.83Z" fill="#F2F2F2"/>
<path d="M1152.74 589.042L1026.79 716.68L911.8 833.217L448.704 1302.53H440.764C383.824 1302.53 337.625 1256.33 337.625 1199.39L1057.04 470.348C1070.52 493.412 1163.16 470.059 1181.99 488.74L1216.59 533.213C1233.47 551.215 1138.23 569.931 1152.74 589.042Z" fill="#FFD837"/>
<path d="M607.057 583.187C516.431 583.187 442.703 509.459 442.703 418.833C442.703 328.206 516.431 254.479 607.057 254.479C650.928 254.479 692.189 271.582 723.251 302.642L685.143 340.742C664.268 319.862 636.535 308.364 607.057 308.364C546.144 308.364 496.591 357.919 496.591 418.83C496.591 479.741 546.146 529.296 607.057 529.296C658.678 529.296 702.146 493.707 714.2 445.772H607.057V391.886H771.411V418.83C771.409 509.459 697.684 583.187 607.057 583.187Z" fill="white"/>
<path d="M1056.51 160.18C1109.85 68.4295 1209.26 6.71094 1323.06 6.71094C1493.24 6.71094 1631.18 144.66 1631.18 314.833C1631.18 357.511 1622.49 398.14 1606.83 435.106C1591.23 471.791 1568.67 505.107 1540.4 533.214C1517.05 558.037 1496.11 584.262 1477.29 611.062C1353.96 786.767 1323.06 987.369 1323.06 987.369C1323.06 987.369 1289.51 769.56 1152.75 589.041C1138.23 569.93 1122.57 551.211 1105.69 533.214H1105.72C1086.83 514.464 1070.47 493.33 1057.05 470.347C1030.28 424.687 1014.94 371.555 1014.94 314.83C1014.94 258.467 1030.07 205.622 1056.51 160.18Z" fill="#F14336"/>
<path d="M1323.06 150.838C1413.62 150.838 1487.02 224.277 1487.02 314.835C1487.02 405.393 1413.62 478.789 1323.06 478.789C1232.51 478.789 1159.07 405.393 1159.07 314.835C1159.07 224.277 1232.51 150.838 1323.06 150.838Z" fill="#7E2D25"/>
</g>
</g>
<rect x="308" y="130" width="1124" height="1124" rx="562" stroke="#3C486B" stroke-width="88"/>
<path d="M1077.36 509.214L1070.92 419L1140.7 481.779C1185.67 522.23 1245.89 541.331 1305.95 534.19L1653.52 492.868C1673.9 490.445 1694.28 497.356 1708.98 511.673C1721.28 523.653 1728.6 539.845 1729.45 556.996L1738.03 729.168C1738.41 736.635 1737.72 744.117 1735.99 751.39L1735.1 755.131C1730.64 773.856 1718.68 789.925 1702.03 799.568C1691.36 805.747 1679.24 809 1666.91 809H1097.06C1080.06 809 1063.47 803.717 1049.6 793.881C1027.9 778.494 1015 753.541 1015 726.938V605.079C1015 584.752 1027.37 566.472 1046.24 558.917C1066.32 550.879 1078.9 530.786 1077.36 509.214Z" fill="white" stroke="#626B87" stroke-width="69"/>
<line x1="1139.31" y1="636.48" x2="1631.2" y2="590.588" stroke="#626B87" stroke-width="16"/>
<line x1="1146.31" y1="720.48" x2="1638.2" y2="674.588" stroke="#626B87" stroke-width="16"/>
<path d="M825.361 921.214L818.922 831L888.704 893.779C933.668 934.23 993.889 953.331 1053.95 946.19L1401.52 904.868C1421.9 902.445 1442.28 909.356 1456.98 923.673C1469.28 935.653 1476.6 951.845 1477.45 968.996L1486.03 1141.17C1486.41 1148.63 1485.72 1156.12 1483.99 1163.39L1483.1 1167.13C1478.64 1185.86 1466.68 1201.92 1450.03 1211.57C1439.36 1217.75 1427.24 1221 1414.91 1221H845.062C828.056 1221 811.47 1215.72 797.598 1205.88C775.896 1190.49 763 1165.54 763 1138.94V1017.08C763 996.752 775.373 978.472 794.244 970.917C814.321 962.879 826.901 942.786 825.361 921.214Z" fill="white" stroke="#626B87" stroke-width="69"/>
<line x1="887.308" y1="1048.48" x2="1379.2" y2="1002.59" stroke="#626B87" stroke-width="16"/>
<line x1="894.308" y1="1132.48" x2="1386.2" y2="1086.59" stroke="#626B87" stroke-width="16"/>
<defs>
<clipPath id="clip0_1510_2893">
<rect x="264" y="86" width="1212" height="1212" rx="606" fill="white"/>
</clipPath>
<clipPath id="clip1_1510_2893">
<rect x="336.494" y="6.71094" width="1295.82" height="1295.82" rx="130" fill="white"/>
</clipPath>
</defs>
</svg>
