<svg width="182" height="30" viewBox="0 0 182 30" fill="none" xmlns="http://www.w3.org/2000/svg">
<path d="M1.37854 26.2794L6.53288 21.1402C4.86987 19.0216 3.96752 16.4053 3.97087 13.7119C3.97087 11.3132 4.68215 8.96841 6.01478 6.97399C7.3474 4.97956 9.24151 3.4251 11.4576 2.50717C13.6737 1.58924 16.1122 1.34907 18.4647 1.81702C20.8173 2.28498 22.9783 3.44005 24.6744 5.13617C26.3705 6.83228 27.5256 8.99327 27.9935 11.3459C28.4615 13.6984 28.2213 16.1369 27.3034 18.353C26.3855 20.5691 24.831 22.4632 22.8366 23.7959C20.8422 25.1285 18.4974 25.8398 16.0987 25.8398C13.4053 25.8431 10.7891 24.9408 8.67041 23.2778L3.53123 28.4321C3.3903 28.5742 3.22263 28.687 3.0379 28.764C2.85316 28.8409 2.65501 28.8805 2.45489 28.8805C2.25476 28.8805 2.05661 28.8409 1.87188 28.764C1.68714 28.687 1.51947 28.5742 1.37854 28.4321C1.23645 28.2912 1.12367 28.1235 1.0467 27.9388C0.96974 27.754 0.930116 27.5559 0.930116 27.3558C0.930116 27.1556 0.96974 26.9575 1.0467 26.7728C1.12367 26.588 1.23645 26.4203 1.37854 26.2794ZM25.1946 13.7119C25.1946 11.9129 24.6611 10.1543 23.6617 8.65846C22.6622 7.16265 21.2416 5.9968 19.5796 5.30835C17.9175 4.6199 16.0886 4.43977 14.3242 4.79074C12.5598 5.14171 10.939 6.00801 9.66695 7.2801C8.39487 8.55218 7.52857 10.1729 7.1776 11.9374C6.82664 13.7018 7.00676 15.5307 7.69521 17.1927C8.38366 18.8548 9.5495 20.2754 11.0453 21.2749C12.5411 22.2743 14.2997 22.8078 16.0987 22.8078C18.5111 22.8078 20.8247 21.8495 22.5305 20.1437C24.2363 18.4379 25.1946 16.1243 25.1946 13.7119Z" fill="#242424"/>
<g clip-path="url(#clip0_1524_3696)">
<g clip-path="url(#clip1_1524_3696)">
<path d="M26.8275 12.3124V21.9512L23.7983 21.3905L22.4628 19.7885L16.8359 13.5331L21.6132 10.1387C24.0063 13.2974 24.0817 12.5273 24.0817 12.5273C24.0817 12.5273 25.2638 10.7626 26.7803 12.279L26.8275 12.3124Z" fill="#CCCCCC"/>
<path d="M15.2652 11.582L25.1988 24.367C25.1406 24.3728 25.082 24.3757 25.0235 24.3758H8.7832L15.2652 11.582Z" fill="#518EF8"/>
<path d="M21.6123 10.1339L6.83789 22.5688V6.18948C6.83789 5.19253 7.64627 4.38477 8.64259 4.38477H19.4166C18.954 5.17995 20.6694 5.69034 20.6694 6.67662C20.6694 7.66923 21.144 9.33497 21.6123 10.1339Z" fill="#28B446"/>
<path d="M26.8246 21.9491V22.5714C26.8246 23.5086 26.1099 24.2793 25.1953 24.3673L16.8828 16.1642L18.8949 14.125L23.539 18.7074L23.7954 18.9608L26.8246 21.9491Z" fill="#F2F2F2"/>
<path d="M21.1006 11.8933L18.8968 14.1267L16.8846 16.1658L8.78151 24.3778H8.64259C7.64627 24.3778 6.83789 23.5694 6.83789 22.5731L19.4261 9.81641C19.6618 10.22 21.2829 9.81136 21.6123 10.1382L22.2177 10.9164C22.5131 11.2314 20.8467 11.5589 21.1006 11.8933Z" fill="#FFD837"/>
<path d="M11.5536 11.7907C9.9678 11.7907 8.67773 10.5007 8.67773 8.9149C8.67773 7.32913 9.9678 6.03906 11.5536 6.03906C12.3212 6.03906 13.0432 6.33834 13.5867 6.88181L12.9199 7.54848C12.5546 7.18313 12.0693 6.98194 11.5536 6.98194C10.4877 6.98194 9.62065 7.84904 9.62065 8.91485C9.62065 9.98067 10.4878 10.8478 11.5536 10.8478C12.4568 10.8478 13.2174 10.225 13.4283 9.38627H11.5536V8.44339H14.4294V8.91485C14.4293 10.5007 13.1393 11.7907 11.5536 11.7907Z" fill="white"/>
<path d="M19.4148 4.38849C20.3482 2.78306 22.0876 1.70312 24.0789 1.70312C27.0566 1.70312 29.4704 4.11693 29.4704 7.09458C29.4704 7.84136 29.3182 8.55227 29.0442 9.1991C28.7712 9.841 28.3765 10.424 27.8819 10.9158C27.4733 11.3501 27.1069 11.809 26.7775 12.2779C24.6195 15.3524 24.0789 18.8625 24.0789 18.8625C24.0789 18.8625 23.4918 15.0513 21.0988 11.8926C20.8448 11.5582 20.5708 11.2307 20.2753 10.9158H20.276C19.9454 10.5877 19.6591 10.2179 19.4242 9.81572C18.9559 9.01678 18.6875 8.0871 18.6875 7.09453C18.6875 6.1083 18.9521 5.18363 19.4148 4.38849Z" fill="#F14336"/>
<path d="M24.0805 4.22656C25.6651 4.22656 26.9493 5.51158 26.9493 7.09615C26.9493 8.68072 25.6651 9.96499 24.0805 9.96499C22.496 9.96499 21.2109 8.68072 21.2109 7.09615C21.2109 5.51158 22.496 4.22656 24.0805 4.22656Z" fill="#7E2D25"/>
</g>
</g>
<rect x="6.31873" y="3.85779" width="19.6674" height="19.6675" rx="9.83372" stroke="#242424" stroke-width="1.5398"/>
<path d="M19.7826 10.4946L19.6699 8.91602L20.8909 10.0145C21.6777 10.7223 22.7314 11.0565 23.7823 10.9316L29.864 10.2085C30.2206 10.1661 30.5772 10.2871 30.8345 10.5376C31.0497 10.7472 31.1777 11.0305 31.1927 11.3306L31.3429 14.3433C31.3494 14.4739 31.3373 14.6048 31.307 14.7321L31.2915 14.7976C31.2135 15.1252 31.0043 15.4064 30.7128 15.5751C30.5261 15.6832 30.3141 15.7402 30.0984 15.7402H20.1273C19.8297 15.7402 19.5395 15.6477 19.2968 15.4756C18.9171 15.2064 18.6914 14.7698 18.6914 14.3043V12.172C18.6914 11.8163 18.9079 11.4964 19.2381 11.3643C19.5894 11.2236 19.8095 10.872 19.7826 10.4946Z" fill="white" stroke="#4C4C4C" stroke-width="1.20735"/>
<line x1="20.8659" y1="12.72" x2="29.473" y2="11.917" stroke="#626B87" stroke-width="0.279964"/>
<line x1="20.9889" y1="14.1907" x2="29.596" y2="13.3877" stroke="#626B87" stroke-width="0.279964"/>
<path d="M15.3724 17.7016L15.2597 16.123L16.4808 17.2215C17.2675 17.9293 18.3213 18.2636 19.3722 18.1386L25.4539 17.4156C25.8104 17.3732 26.1671 17.4941 26.4243 17.7446C26.6396 17.9543 26.7676 18.2376 26.7825 18.5377L26.9327 21.5503C26.9392 21.681 26.9272 21.8119 26.8969 21.9391L26.8813 22.0046C26.8034 22.3322 26.5941 22.6134 26.3027 22.7822C26.1159 22.8903 25.904 22.9472 25.6882 22.9472H15.7171C15.4196 22.9472 15.1294 22.8547 14.8866 22.6826C14.5069 22.4134 14.2812 21.9768 14.2812 21.5113V19.379C14.2812 19.0233 14.4977 18.7035 14.8279 18.5713C15.1793 18.4306 15.3994 18.0791 15.3724 17.7016Z" fill="white" stroke="#4C4C4C" stroke-width="1.20735"/>
<line x1="16.4557" y1="19.927" x2="25.0628" y2="19.124" stroke="#4C4C4C" stroke-width="0.279964"/>
<line x1="16.5788" y1="21.3977" x2="25.1859" y2="20.5947" stroke="#4C4C4C" stroke-width="0.279964"/>
<path d="M50.3371 11.581C50.2391 11.2179 50.0951 10.8981 49.9049 10.6216C49.7148 10.3392 49.4814 10.1001 49.2048 9.90417C48.9282 9.70826 48.6113 9.56132 48.2541 9.46337C47.8968 9.35965 47.505 9.30779 47.0786 9.30779C46.22 9.30779 45.4767 9.51522 44.8486 9.9301C44.2263 10.345 43.7452 10.95 43.4052 11.7452C43.0652 12.5346 42.8953 13.494 42.8953 14.6234C42.8953 15.7585 43.0595 16.7266 43.3879 17.5275C43.7164 18.3285 44.1917 18.9392 44.8141 19.3599C45.4364 19.7805 46.1912 19.9908 47.0786 19.9908C47.8622 19.9908 48.5249 19.8641 49.0665 19.6105C49.6139 19.3512 50.0288 18.9853 50.3112 18.5128C50.5935 18.0403 50.7347 17.4843 50.7347 16.8447L51.5299 16.9398H47.2255V13.8196H54.8575V16.1619C54.8575 17.7465 54.5204 19.1035 53.8462 20.2329C53.1778 21.3622 52.2559 22.2294 51.0804 22.8345C49.9107 23.4395 48.5652 23.742 47.044 23.742C45.3557 23.742 43.8719 23.3761 42.5927 22.6443C41.3135 21.9125 40.3167 20.8696 39.6022 19.5155C38.8877 18.1556 38.5304 16.5422 38.5304 14.6752C38.5304 13.2232 38.7465 11.9353 39.1787 10.8117C39.6108 9.68233 40.213 8.72581 40.9851 7.94215C41.763 7.1585 42.6619 6.565 43.6818 6.16164C44.7075 5.75829 45.8109 5.55662 46.9922 5.55662C48.0178 5.55662 48.9715 5.70355 49.8531 5.99742C50.7404 6.29129 51.5241 6.70617 52.204 7.24205C52.8897 7.77793 53.4458 8.41465 53.8722 9.15221C54.2986 9.88977 54.5636 10.6993 54.6674 11.581H50.3371ZM63.585 23.7507C62.1963 23.7507 60.9978 23.477 59.9894 22.9295C58.9868 22.3764 58.2147 21.5898 57.673 20.5699C57.1372 19.5443 56.8692 18.3256 56.8692 16.9138C56.8692 15.5424 57.14 14.3439 57.6817 13.3183C58.2233 12.2868 58.9868 11.4859 59.9721 10.9154C60.9575 10.3392 62.1186 10.0511 63.4554 10.0511C64.4004 10.0511 65.2647 10.198 66.0484 10.4919C66.832 10.7858 67.5091 11.2208 68.0795 11.797C68.65 12.3733 69.0937 13.0849 69.4106 13.9319C69.7275 14.7732 69.886 15.7384 69.886 16.8274V17.8819H58.3472V15.4272H65.9533C65.9475 14.9778 65.8409 14.5773 65.6335 14.2258C65.426 13.8743 65.1408 13.6006 64.7778 13.4047C64.4205 13.203 64.0085 13.1022 63.5418 13.1022C63.0693 13.1022 62.6458 13.2088 62.2713 13.422C61.8967 13.6294 61.6 13.9146 61.381 14.2777C61.162 14.6349 61.0468 15.0411 61.0353 15.4964V17.9943C61.0353 18.5359 61.1419 19.0113 61.3551 19.4204C61.5683 19.8237 61.8708 20.1378 62.2626 20.3625C62.6544 20.5872 63.1212 20.6996 63.6628 20.6996C64.0374 20.6996 64.3773 20.6477 64.6827 20.544C64.9881 20.4403 65.2503 20.2876 65.4693 20.0859C65.6882 19.8842 65.8524 19.6365 65.9619 19.3426L69.8427 19.455C69.6814 20.325 69.327 21.0828 68.7796 21.7281C68.238 22.3677 67.5263 22.8662 66.6447 23.2234C65.7631 23.5749 64.7432 23.7507 63.585 23.7507ZM78.2418 23.7507C76.8474 23.7507 75.6488 23.4654 74.6462 22.895C73.6494 22.3188 72.8801 21.5178 72.3385 20.4921C71.8026 19.4607 71.5347 18.2651 71.5347 16.9052C71.5347 15.5396 71.8026 14.3439 72.3385 13.3183C72.8801 12.2868 73.6494 11.4859 74.6462 10.9154C75.6488 10.3392 76.8474 10.0511 78.2418 10.0511C79.6363 10.0511 80.8319 10.3392 81.8288 10.9154C82.8314 11.4859 83.6006 12.2868 84.1365 13.3183C84.6782 14.3439 84.949 15.5396 84.949 16.9052C84.949 18.2651 84.6782 19.4607 84.1365 20.4921C83.6006 21.5178 82.8314 22.3188 81.8288 22.895C80.8319 23.4654 79.6363 23.7507 78.2418 23.7507ZM78.2677 20.5613C78.7748 20.5613 79.2041 20.4057 79.5556 20.0946C79.9071 19.7834 80.175 19.3512 80.3594 18.7981C80.5496 18.2449 80.6446 17.6053 80.6446 16.8793C80.6446 16.1417 80.5496 15.4964 80.3594 14.9432C80.175 14.39 79.9071 13.9579 79.5556 13.6467C79.2041 13.3355 78.7748 13.18 78.2677 13.18C77.7434 13.18 77.2997 13.3355 76.9367 13.6467C76.5794 13.9579 76.3057 14.39 76.1156 14.9432C75.9312 15.4964 75.839 16.1417 75.839 16.8793C75.839 17.6053 75.9312 18.2449 76.1156 18.7981C76.3057 19.3512 76.5794 19.7834 76.9367 20.0946C77.2997 20.4057 77.7434 20.5613 78.2677 20.5613ZM96.6822 11.1056C96.6246 10.4717 96.3681 9.97908 95.9129 9.62759C95.4635 9.27033 94.821 9.09171 93.9855 9.09171C93.4323 9.09171 92.9714 9.16373 92.6026 9.30779C92.2338 9.45184 91.9572 9.65064 91.7728 9.90417C91.5884 10.1519 91.4934 10.4372 91.4876 10.7599C91.4761 11.0249 91.5279 11.2583 91.6432 11.46C91.7642 11.6616 91.937 11.8403 92.1618 11.9958C92.3923 12.1457 92.6688 12.2782 92.9915 12.3934C93.3142 12.5087 93.6772 12.6095 94.0806 12.6959L95.6018 13.0417C96.4776 13.2318 97.2498 13.4854 97.9182 13.8023C98.5923 14.1192 99.157 14.4966 99.6122 14.9345C100.073 15.3725 100.422 15.8767 100.658 16.4471C100.894 17.0176 101.015 17.6572 101.021 18.3659C101.015 19.4838 100.733 20.4432 100.174 21.2441C99.6151 22.0451 98.8113 22.6587 97.7626 23.0851C96.7196 23.5115 95.4606 23.7247 93.9855 23.7247C92.5046 23.7247 91.2139 23.5029 90.1133 23.0592C89.0127 22.6155 88.1571 21.9413 87.5463 21.0367C86.9355 20.132 86.6214 18.9882 86.6042 17.6053H90.7011C90.7356 18.1758 90.8883 18.6511 91.1591 19.0314C91.43 19.4117 91.8016 19.6999 92.2741 19.8958C92.7524 20.0917 93.3056 20.1896 93.9336 20.1896C94.5098 20.1896 94.9996 20.1118 95.403 19.9563C95.8121 19.8007 96.1261 19.5846 96.3451 19.308C96.5641 19.0314 96.6764 18.7145 96.6822 18.3573C96.6764 18.0231 96.5727 17.7378 96.371 17.5016C96.1694 17.2596 95.8582 17.0521 95.4376 16.8793C95.0227 16.7006 94.4926 16.5364 93.8472 16.3866L91.9975 15.9544C90.4648 15.603 89.2576 15.0354 88.376 14.2517C87.4944 13.4623 87.0565 12.3963 87.0623 11.0537C87.0565 9.95891 87.3504 8.99951 87.9439 8.17552C88.5374 7.35153 89.3585 6.70905 90.4072 6.24808C91.4559 5.7871 92.6516 5.55662 93.9941 5.55662C95.3655 5.55662 96.5554 5.78998 97.5638 6.25672C98.5779 6.71769 99.3645 7.36594 99.9234 8.20145C100.482 9.03696 100.768 10.005 100.779 11.1056H96.6822ZM109.379 23.7507C107.979 23.7507 106.777 23.4625 105.775 22.8863C104.778 22.3101 104.012 21.5092 103.476 20.4835C102.94 19.4521 102.672 18.2593 102.672 16.9052C102.672 15.5453 102.94 14.3526 103.476 13.3269C104.017 12.2955 104.787 11.4916 105.784 10.9154C106.786 10.3392 107.982 10.0511 109.37 10.0511C110.598 10.0511 111.667 10.2729 112.577 10.7166C113.493 11.1603 114.208 11.7884 114.721 12.6009C115.239 13.4076 115.513 14.3554 115.542 15.4445H111.592C111.511 14.7646 111.281 14.2316 110.9 13.8455C110.526 13.4594 110.036 13.2664 109.431 13.2664C108.941 13.2664 108.512 13.4047 108.143 13.6813C107.774 13.9521 107.486 14.3554 107.279 14.8913C107.077 15.4214 106.976 16.0783 106.976 16.862C106.976 17.6456 107.077 18.3083 107.279 18.8499C107.486 19.3858 107.774 19.792 108.143 20.0686C108.512 20.3395 108.941 20.4749 109.431 20.4749C109.823 20.4749 110.169 20.3913 110.468 20.2242C110.774 20.0571 111.024 19.8122 111.22 19.4895C111.416 19.1611 111.54 18.7635 111.592 18.2968H115.542C115.501 19.3916 115.228 20.3481 114.721 21.1663C114.219 21.9846 113.513 22.6213 112.603 23.0765C111.698 23.5259 110.624 23.7507 109.379 23.7507ZM117.705 23.5V10.224H121.81V12.6441H121.949C122.191 11.7682 122.585 11.1171 123.133 10.6907C123.68 10.2585 124.317 10.0425 125.043 10.0425C125.239 10.0425 125.44 10.0569 125.648 10.0857C125.855 10.1087 126.048 10.1462 126.227 10.198V13.8714C126.025 13.8023 125.76 13.7475 125.432 13.7072C125.109 13.6669 124.821 13.6467 124.567 13.6467C124.066 13.6467 123.614 13.7591 123.21 13.9838C122.813 14.2027 122.499 14.511 122.268 14.9086C122.044 15.3004 121.931 15.7614 121.931 16.2915V23.5H117.705ZM131.193 23.7247C130.345 23.7247 129.594 23.5836 128.937 23.3012C128.286 23.0131 127.77 22.5809 127.389 22.0047C127.015 21.4227 126.828 20.6938 126.828 19.818C126.828 19.0804 126.957 18.4581 127.217 17.951C127.476 17.444 127.833 17.032 128.288 16.7151C128.744 16.3981 129.268 16.159 129.861 15.9977C130.455 15.8306 131.089 15.7182 131.763 15.6606C132.518 15.5914 133.126 15.5194 133.587 15.4445C134.048 15.3638 134.382 15.2515 134.589 15.1074C134.803 14.9576 134.909 14.7473 134.909 14.4764V14.4332C134.909 13.9895 134.756 13.6467 134.451 13.4047C134.146 13.1627 133.734 13.0417 133.215 13.0417C132.656 13.0417 132.207 13.1627 131.867 13.4047C131.527 13.6467 131.311 13.9809 131.218 14.4073L127.32 14.269C127.436 13.4623 127.732 12.742 128.211 12.1082C128.695 11.4686 129.357 10.9673 130.199 10.6043C131.046 10.2355 132.063 10.0511 133.25 10.0511C134.097 10.0511 134.877 10.1519 135.592 10.3536C136.306 10.5495 136.929 10.8376 137.459 11.2179C137.989 11.5925 138.398 12.0535 138.686 12.6009C138.98 13.1483 139.127 13.7735 139.127 14.4764V23.5H135.151V21.6503H135.047C134.811 22.0998 134.509 22.4801 134.14 22.7913C133.777 23.1024 133.348 23.3358 132.852 23.4914C132.362 23.6469 131.809 23.7247 131.193 23.7247ZM132.498 20.9589C132.953 20.9589 133.362 20.8667 133.725 20.6823C134.094 20.4979 134.388 20.2444 134.607 19.9217C134.826 19.5933 134.935 19.2129 134.935 18.7808V17.5189C134.814 17.5823 134.667 17.6399 134.494 17.6917C134.327 17.7436 134.143 17.7926 133.941 17.8387C133.739 17.8848 133.532 17.9251 133.319 17.9597C133.106 17.9943 132.901 18.0259 132.705 18.0548C132.307 18.1181 131.968 18.2161 131.685 18.3486C131.409 18.4812 131.195 18.654 131.046 18.8672C130.902 19.0747 130.829 19.3224 130.829 19.6105C130.829 20.0485 130.985 20.3827 131.296 20.6132C131.613 20.8436 132.014 20.9589 132.498 20.9589ZM141.711 28.4785V10.224H145.895V12.4971H146.024C146.197 12.0938 146.442 11.7048 146.759 11.3303C147.082 10.9558 147.491 10.6504 147.986 10.4141C148.488 10.1721 149.087 10.0511 149.784 10.0511C150.706 10.0511 151.568 10.2931 152.368 10.7771C153.175 11.2612 153.826 12.0074 154.322 13.0157C154.817 14.0241 155.065 15.3091 155.065 16.8706C155.065 18.3746 154.826 19.6336 154.348 20.6477C153.875 21.6619 153.236 22.4225 152.429 22.9295C151.628 23.4366 150.738 23.6902 149.758 23.6902C149.09 23.6902 148.511 23.5807 148.021 23.3617C147.531 23.1427 147.119 22.8546 146.785 22.4974C146.456 22.1401 146.203 21.7569 146.024 21.3478H145.938V28.4785H141.711ZM145.851 16.862C145.851 17.5765 145.947 18.1988 146.137 18.7289C146.333 19.259 146.612 19.671 146.975 19.9649C147.344 20.253 147.785 20.3971 148.298 20.3971C148.816 20.3971 149.257 20.253 149.62 19.9649C149.983 19.671 150.257 19.259 150.441 18.7289C150.631 18.1988 150.726 17.5765 150.726 16.862C150.726 16.1475 150.631 15.528 150.441 15.0037C150.257 14.4793 149.983 14.0731 149.62 13.785C149.263 13.4969 148.822 13.3528 148.298 13.3528C147.779 13.3528 147.338 13.494 146.975 13.7763C146.612 14.0587 146.333 14.462 146.137 14.9864C145.947 15.5108 145.851 16.136 145.851 16.862ZM163.486 23.7507C162.097 23.7507 160.899 23.477 159.89 22.9295C158.888 22.3764 158.116 21.5898 157.574 20.5699C157.038 19.5443 156.77 18.3256 156.77 16.9138C156.77 15.5424 157.041 14.3439 157.583 13.3183C158.124 12.2868 158.888 11.4859 159.873 10.9154C160.858 10.3392 162.019 10.0511 163.356 10.0511C164.301 10.0511 165.166 10.198 165.949 10.4919C166.733 10.7858 167.41 11.2208 167.98 11.797C168.551 12.3733 168.994 13.0849 169.311 13.9319C169.628 14.7732 169.787 15.7384 169.787 16.8274V17.8819H158.248V15.4272H165.854C165.848 14.9778 165.742 14.5773 165.534 14.2258C165.327 13.8743 165.042 13.6006 164.679 13.4047C164.321 13.203 163.909 13.1022 163.443 13.1022C162.97 13.1022 162.547 13.2088 162.172 13.422C161.798 13.6294 161.501 13.9146 161.282 14.2777C161.063 14.6349 160.948 15.0411 160.936 15.4964V17.9943C160.936 18.5359 161.043 19.0113 161.256 19.4204C161.469 19.8237 161.772 20.1378 162.163 20.3625C162.555 20.5872 163.022 20.6996 163.564 20.6996C163.938 20.6996 164.278 20.6477 164.584 20.544C164.889 20.4403 165.151 20.2876 165.37 20.0859C165.589 19.8842 165.753 19.6365 165.863 19.3426L169.744 19.455C169.582 20.325 169.228 21.0828 168.68 21.7281C168.139 22.3677 167.427 22.8662 166.546 23.2234C165.664 23.5749 164.644 23.7507 163.486 23.7507ZM171.945 23.5V10.224H176.051V12.6441H176.189C176.431 11.7682 176.826 11.1171 177.373 10.6907C177.921 10.2585 178.558 10.0425 179.284 10.0425C179.479 10.0425 179.681 10.0569 179.889 10.0857C180.096 10.1087 180.289 10.1462 180.468 10.198V13.8714C180.266 13.8023 180.001 13.7475 179.672 13.7072C179.35 13.6669 179.062 13.6467 178.808 13.6467C178.307 13.6467 177.855 13.7591 177.451 13.9838C177.054 14.2027 176.74 14.511 176.509 14.9086C176.284 15.3004 176.172 15.7614 176.172 16.2915V23.5H171.945Z" fill="#242424"/>
<defs>
<clipPath id="clip0_1524_3696">
<rect x="5.54883" y="3.08789" width="21.2072" height="21.2073" rx="10.6036" fill="white"/>
</clipPath>
<clipPath id="clip1_1524_3696">
<rect x="6.81836" y="1.70312" width="22.6739" height="22.674" rx="2.27471" fill="white"/>
</clipPath>
</defs>
</svg>
