<svg width="806" height="646" viewBox="0 0 806 646" fill="none" xmlns="http://www.w3.org/2000/svg">
<g clip-path="url(#clip0_2668_3773)">
<g clip-path="url(#clip1_2668_3773)">
<path d="M637.915 419.184L297.387 78.6565C296.739 78.0094 295.86 77.6463 294.944 77.6469L204.305 77.6509C203.39 77.6504 202.511 78.0135 201.863 78.6605L137.77 142.753C137.123 143.401 136.76 144.28 136.761 145.196L136.761 235.839C136.76 236.754 137.123 237.633 137.77 238.281L478.294 578.805C478.942 579.452 479.821 579.815 480.737 579.815L571.38 579.815C572.296 579.815 573.174 579.452 573.822 578.805L637.915 514.712C638.562 514.064 638.925 513.186 638.925 512.27L638.924 421.627C638.925 420.711 638.562 419.833 637.915 419.184Z" stroke="#A8B9DF" stroke-width="2.30286" stroke-miterlimit="10"/>
<path d="M495.734 205.599L301.763 399.57C301.116 400.218 300.753 401.097 300.753 402.012L300.749 492.651C300.75 493.105 300.84 493.555 301.015 493.974C301.19 494.393 301.445 494.774 301.767 495.094L365.86 559.186C366.506 559.834 367.383 560.198 368.298 560.2H458.941C459.856 560.198 460.733 559.834 461.38 559.186L655.35 365.215C655.998 364.569 656.363 363.692 656.364 362.777L656.364 272.134C656.365 271.218 656.002 270.34 655.355 269.691L591.262 205.599C590.941 205.277 590.56 205.022 590.14 204.848C589.72 204.674 589.27 204.585 588.815 204.585L498.177 204.589C497.261 204.589 496.382 204.952 495.734 205.599Z" stroke="#A8B9DF" stroke-width="2.30286" stroke-miterlimit="10"/>
<path d="M562.229 350.304C564.108 352.183 567.156 352.183 569.035 350.304C570.915 348.424 570.915 345.377 569.035 343.497C567.156 341.617 564.108 341.617 562.229 343.497C560.349 345.377 560.349 348.424 562.229 350.304Z" fill="#A8B9DF"/>
<path d="M576.297 364.373C578.176 366.253 581.224 366.253 583.103 364.373C584.983 362.493 584.983 359.446 583.103 357.566C581.224 355.687 578.176 355.687 576.297 357.566C574.417 359.446 574.417 362.493 576.297 364.373Z" fill="#A8B9DF"/>
<path d="M590.366 378.442C592.246 380.322 595.293 380.322 597.173 378.442C599.052 376.563 599.052 373.515 597.173 371.636C595.293 369.756 592.246 369.756 590.366 371.636C588.487 373.515 588.487 376.563 590.366 378.442Z" fill="#A8B9DF"/>
<path d="M604.436 392.511C606.315 394.39 609.363 394.39 611.242 392.511C613.122 390.631 613.122 387.584 611.242 385.704C609.363 383.824 606.315 383.824 604.436 385.704C602.556 387.584 602.556 390.631 604.436 392.511Z" fill="#A8B9DF"/>
<path d="M634.304 518.322C636.183 520.202 639.231 520.202 641.11 518.322C642.99 516.443 642.99 513.395 641.11 511.516C639.231 509.636 636.183 509.636 634.304 511.516C632.424 513.395 632.424 516.443 634.304 518.322Z" fill="#A8B9DF"/>
<path d="M620.234 532.391C622.114 534.271 625.161 534.271 627.041 532.392C628.921 530.512 628.921 527.465 627.041 525.585C625.161 523.705 622.114 523.705 620.234 525.585C618.355 527.465 618.355 530.512 620.234 532.391Z" fill="#A8B9DF"/>
<path d="M606.166 546.461C608.046 548.34 611.093 548.34 612.973 546.461C614.852 544.581 614.852 541.534 612.973 539.654C611.093 537.775 608.046 537.775 606.166 539.654C604.286 541.534 604.286 544.581 606.166 546.461Z" fill="#A8B9DF"/>
<path d="M592.097 560.53C593.976 562.41 597.024 562.41 598.903 560.53C600.783 558.651 600.783 555.603 598.903 553.724C597.024 551.844 593.976 551.844 592.097 553.724C590.217 555.603 590.217 558.651 592.097 560.53Z" fill="#A8B9DF"/>
<path d="M603.341 433.517L535.609 365.785C534.984 365.163 534.621 364.324 534.595 363.442C534.568 362.561 534.88 361.702 535.466 361.043L556.375 337.562C556.961 336.903 557.273 336.044 557.247 335.162C557.22 334.28 556.857 333.442 556.232 332.819L449.489 226.076C448.859 225.445 448.011 225.082 447.12 225.062C446.23 225.043 445.366 225.368 444.709 225.97L421.64 247.143C420.983 247.745 420.119 248.07 419.229 248.05C418.338 248.03 417.49 247.667 416.86 247.037L262.817 92.9934C262.169 92.3464 261.29 91.9832 260.374 91.9838L169.735 91.9797C168.818 91.9823 167.939 92.3465 167.289 92.9934L103.196 157.086C102.549 157.734 102.186 158.613 102.187 159.528L102.187 250.171C102.188 251.086 102.553 251.963 103.2 252.61L257.248 406.657C257.879 407.287 258.242 408.137 258.261 409.029C258.28 409.92 257.953 410.784 257.35 411.441L236.177 434.511C235.575 435.167 235.25 436.031 235.27 436.921C235.289 437.812 235.652 438.661 236.283 439.29L343.03 546.037C343.653 546.662 344.491 547.025 345.373 547.052C346.255 547.078 347.114 546.766 347.773 546.18L371.254 525.272C371.913 524.683 372.772 524.37 373.655 524.396C374.538 524.422 375.377 524.784 376.001 525.41L443.732 593.142C444.379 593.789 445.256 594.154 446.171 594.156L536.806 594.147C537.722 594.148 538.6 593.785 539.248 593.138L603.341 529.045C603.662 528.724 603.917 528.343 604.091 527.923C604.265 527.503 604.355 527.053 604.354 526.599L604.35 435.96C604.351 435.044 603.988 434.165 603.341 433.517Z" fill="#F0F3F8"/>
<path d="M441.941 166.608L262.76 345.789C262.464 346.084 262.23 346.434 262.071 346.82C261.911 347.206 261.83 347.619 261.831 348.036L261.827 431.494C261.829 432.338 262.164 433.147 262.76 433.745L321.788 492.774C322.386 493.369 323.195 493.704 324.039 493.706L407.493 493.698C407.91 493.699 408.323 493.618 408.709 493.458C409.095 493.299 409.445 493.065 409.74 492.77L588.921 313.588C589.217 313.293 589.452 312.942 589.612 312.556C589.772 312.169 589.854 311.755 589.853 311.337L589.853 227.883C589.854 227.465 589.772 227.051 589.612 226.665C589.452 226.279 589.217 225.928 588.921 225.632L529.893 166.604C529.598 166.308 529.247 166.073 528.86 165.913C528.474 165.753 528.06 165.671 527.642 165.672L444.188 165.672C443.77 165.672 443.357 165.755 442.971 165.916C442.586 166.077 442.236 166.312 441.941 166.608Z" fill="#F0F3F8"/>
<path d="M617.541 289.725L499.891 172.076C494.27 166.455 485.157 166.455 479.537 172.076L234.48 417.133C228.859 422.753 228.859 431.866 234.48 437.487L352.129 555.137C357.75 560.757 366.863 560.757 372.484 555.137L617.541 310.08C623.161 304.459 623.161 295.346 617.541 289.725Z" fill="#8EB8E2"/>
<path d="M603.878 276.063L486.229 158.414C480.608 152.793 471.495 152.793 465.874 158.414L220.818 403.47C215.197 409.091 215.197 418.204 220.818 423.825L338.467 541.474C344.088 547.095 353.201 547.095 358.822 541.474L603.878 296.418C609.499 290.797 609.499 281.684 603.878 276.063Z" fill="#3E5FAB"/>
<path d="M579.706 301.254L460.998 182.546L253.056 390.488L371.764 509.196L579.706 301.254Z" fill="#8EB8E2"/>
<path opacity="0.47" d="M510.081 370.92C477.143 374.05 440.073 372.088 404.152 350.814C375.203 333.671 361.676 312.685 349.862 293.723L253.064 390.521L371.772 509.229L510.081 370.92Z" fill="url(#paint0_linear_2668_3773)"/>
<path d="M524.809 196.993L565.245 237.43L560.173 242.502C558.495 244.18 556.219 245.122 553.846 245.122C551.474 245.122 549.198 244.18 547.52 242.502L519.736 214.718C518.058 213.04 517.116 210.765 517.116 208.392C517.116 206.019 518.058 203.743 519.736 202.066L524.809 196.993Z" fill="#324E87"/>
<path d="M565.254 266.912C567.097 268.756 570.086 268.756 571.93 266.912C573.774 265.068 573.774 262.079 571.93 260.236C570.086 258.392 567.097 258.392 565.254 260.236C563.41 262.079 563.41 265.068 565.254 266.912Z" fill="#324E87"/>
<path d="M288.777 473.474C293.676 478.373 301.619 478.373 306.518 473.474C311.417 468.575 311.417 460.632 306.518 455.733C301.619 450.834 293.676 450.834 288.777 455.733C283.878 460.632 283.878 468.575 288.777 473.474Z" stroke="#8EB8E2" stroke-width="2.87857" stroke-miterlimit="10"/>
<path opacity="0.47" d="M503.754 344.524L453.1 293.869" stroke="url(#paint1_linear_2668_3773)" stroke-width="4.03" stroke-miterlimit="10"/>
<path opacity="0.47" d="M492.69 355.588L442.035 304.934" stroke="url(#paint2_linear_2668_3773)" stroke-width="4.03" stroke-miterlimit="10"/>
<path opacity="0.47" d="M525.888 322.39L475.233 271.735" stroke="url(#paint3_linear_2668_3773)" stroke-width="4.03" stroke-miterlimit="10"/>
<path opacity="0.47" d="M536.952 311.325L486.298 260.671" stroke="url(#paint4_linear_2668_3773)" stroke-width="4.03" stroke-miterlimit="10"/>
<path opacity="0.47" d="M514.823 333.455L464.169 282.801" stroke="url(#paint5_linear_2668_3773)" stroke-width="4.03" stroke-miterlimit="10"/>
<path d="M581.37 333.418L553.106 361.682" stroke="#336297" stroke-width="4.03" stroke-miterlimit="10"/>
<path opacity="0.47" d="M368.152 342.105L349.687 323.64L286.469 386.857L304.935 405.323L368.152 342.105Z" fill="url(#paint6_linear_2668_3773)"/>
<path opacity="0.47" d="M403.207 355.519L384.741 337.054L310.252 411.543L328.717 430.009L403.207 355.519Z" fill="url(#paint7_linear_2668_3773)"/>
<path opacity="0.47" d="M402.726 402.725L384.261 384.26L333.614 434.906L352.08 453.372L402.726 402.725Z" fill="url(#paint8_linear_2668_3773)"/>
<path opacity="0.47" d="M438.611 412.564L420.146 394.099L356.476 457.768L374.942 476.233L438.611 412.564Z" fill="url(#paint9_linear_2668_3773)"/>
<path d="M420.5 301.295C437.238 318.034 464.377 318.034 481.116 301.295C497.854 284.556 497.854 257.418 481.116 240.679C464.377 223.94 437.238 223.94 420.5 240.679C403.761 257.418 403.761 284.556 420.5 301.295Z" fill="url(#paint10_linear_2668_3773)"/>
<path d="M450.808 270.987L418.269 243.081C419.617 241.525 421.074 240.068 422.629 238.721C440.346 223.267 467.65 225.12 483.103 242.844C498.556 260.569 496.704 287.865 478.987 303.318C461.271 318.771 433.967 316.919 418.51 299.198C413.215 293.136 409.735 285.705 408.467 277.757L450.808 270.987Z" fill="#F9BF1F"/>
<path d="M450.808 270.986L418.379 242.954C424.272 236.142 432.161 231.358 440.926 229.282C449.691 227.206 458.887 227.943 467.21 231.388L450.808 270.986Z" fill="#EE465E"/>
<path opacity="0.25" d="M544.292 265.841L270.967 408.4L253.079 390.513L295.734 347.858L512.995 234.544L544.292 265.841Z" fill="white"/>
<path opacity="0.25" d="M281.445 418.879L554.771 276.32L579.729 301.278L525.908 355.1L323.327 460.76L281.445 418.879Z" fill="white"/>
<path d="M328.756 154.211L336.76 161.918L343.129 155.304L335.126 147.596L328.756 154.211Z" fill="#30302F"/>
<path d="M349.437 161.324L364.719 176.04C365.864 177.143 367.686 177.109 368.789 175.964L375.214 169.291C376.317 168.146 376.283 166.324 375.137 165.221L359.856 150.505C358.711 149.402 356.889 149.437 355.786 150.582L349.36 157.254C348.258 158.399 348.292 160.222 349.437 161.324Z" fill="#AA3552"/>
<path d="M320.633 133.586L346.352 158.353C347.955 159.897 350.506 159.849 352.05 158.246L376.818 132.526C378.362 130.923 378.314 128.372 376.71 126.828L350.991 102.061C349.388 100.517 346.837 100.565 345.293 102.168L320.525 127.887C318.982 129.491 319.03 132.042 320.633 133.586Z" fill="#C53C56"/>
<path d="M330.303 142.897L356.022 167.665C357.625 169.208 360.176 169.16 361.72 167.557L386.488 141.838C388.032 140.235 387.983 137.684 386.38 136.14L360.661 111.372C359.058 109.828 356.507 109.876 354.963 111.48L330.195 137.199C328.651 138.802 328.7 141.353 330.303 142.897Z" fill="#EE465E"/>
<path d="M357.888 138.356L362.333 133.741C362.554 133.512 362.547 133.147 362.318 132.927L359.332 130.052C359.103 129.831 358.738 129.838 358.518 130.067L354.073 134.682C353.853 134.911 353.86 135.276 354.089 135.496L357.074 138.372C357.303 138.592 357.668 138.585 357.888 138.356Z" fill="#30302F"/>
<path d="M345.373 144.612L355.044 153.904C355.273 154.124 355.638 154.117 355.858 153.888L359.129 150.483C359.35 150.253 359.342 149.889 359.113 149.668L349.442 140.377C349.213 140.157 348.848 140.164 348.628 140.393L345.357 143.798C345.136 144.027 345.144 144.392 345.373 144.612Z" fill="#30302F"/>
<path d="M316.14 129.256L331.422 143.972C332.567 145.075 334.389 145.04 335.492 143.895L341.917 137.223C343.02 136.078 342.986 134.255 341.841 133.153L326.559 118.437C325.414 117.334 323.592 117.368 322.489 118.514L316.064 125.186C314.961 126.331 314.995 128.153 316.14 129.256Z" fill="#D13F5B"/>
<path d="M326.573 118.433L334.002 125.586C333.73 125.323 333.409 125.117 333.057 124.979C332.705 124.84 332.329 124.772 331.951 124.779C331.573 124.786 331.2 124.867 330.854 125.018C330.507 125.169 330.193 125.387 329.931 125.659L323.507 132.335C323.245 132.608 323.038 132.929 322.9 133.281C322.761 133.632 322.694 134.008 322.7 134.386C322.707 134.764 322.788 135.137 322.939 135.484C323.09 135.83 323.308 136.144 323.58 136.406L316.151 129.254C315.879 128.991 315.661 128.678 315.51 128.331C315.359 127.985 315.278 127.612 315.271 127.234C315.264 126.855 315.332 126.48 315.47 126.128C315.609 125.776 315.815 125.455 316.078 125.183L322.506 118.511C323.035 117.962 323.761 117.645 324.523 117.631C325.286 117.616 326.023 117.905 326.573 118.433Z" fill="#AA3552"/>
<path d="M357.722 99.0225L338.418 119.068C337.995 119.507 337.764 120.097 337.776 120.707C337.787 121.316 338.04 121.897 338.479 122.32L343.763 127.417C343.981 127.627 344.238 127.791 344.52 127.902C344.802 128.012 345.103 128.065 345.405 128.059C345.707 128.053 346.006 127.988 346.283 127.866C346.56 127.745 346.81 127.57 347.02 127.352L358.353 115.587C358.563 115.369 358.814 115.194 359.092 115.072C359.369 114.951 359.668 114.886 359.971 114.88C360.274 114.874 360.575 114.928 360.857 115.039C361.139 115.15 361.396 115.316 361.614 115.526L383.91 137.008C384.349 137.432 384.602 138.012 384.614 138.622C384.625 139.232 384.394 139.821 383.972 140.261L372.65 152.014C372.441 152.232 372.276 152.489 372.166 152.771C372.056 153.052 372.002 153.353 372.008 153.656C372.014 153.958 372.08 154.256 372.201 154.533C372.323 154.81 372.497 155.061 372.715 155.27L378.004 160.363C378.443 160.786 379.033 161.017 379.643 161.005C380.252 160.994 380.833 160.741 381.256 160.302L400.561 140.257C400.771 140.039 400.936 139.782 401.047 139.501C401.158 139.22 401.212 138.919 401.207 138.617C401.201 138.314 401.137 138.016 401.016 137.738C400.895 137.461 400.721 137.21 400.504 137L360.963 98.9411C360.521 98.5249 359.933 98.2999 359.326 98.3152C358.719 98.3304 358.143 98.5846 357.722 99.0225Z" fill="#D13F5B"/>
<path d="M367.619 109.432L396.808 137.546C396.991 137.722 397.139 137.933 397.241 138.166C397.343 138.399 397.398 138.65 397.403 138.905C397.408 139.159 397.363 139.412 397.269 139.649C397.176 139.886 397.037 140.102 396.861 140.285L377.744 160.135L372.704 155.283C372.486 155.073 372.311 154.823 372.19 154.546C372.068 154.268 372.003 153.97 371.997 153.668C371.991 153.365 372.044 153.065 372.154 152.783C372.264 152.501 372.429 152.244 372.639 152.026L383.956 140.269C384.378 139.829 384.609 139.24 384.598 138.63C384.587 138.02 384.334 137.44 383.895 137.016L361.598 115.534C361.164 115.117 360.582 114.886 359.98 114.892C359.377 114.898 358.8 115.14 358.374 115.567L364.24 109.505C364.68 109.05 365.282 108.787 365.915 108.773C366.548 108.76 367.16 108.996 367.619 109.432Z" fill="#AA3552"/>
<path d="M332.755 158.065L340.759 165.772L347.128 159.158L339.125 151.451L332.755 158.065Z" fill="#474748"/>
<path d="M367.053 158.336C366.616 159.18 366.125 159.994 365.583 160.774C365.058 161.544 364.496 162.285 363.914 163.013C362.749 164.45 361.5 165.816 360.173 167.105L360.124 167.153C359.916 167.355 359.637 167.466 359.348 167.462C359.059 167.458 358.783 167.34 358.581 167.133C357.645 166.197 356.77 165.191 355.935 164.145C355.516 163.62 355.105 163.095 354.726 162.529C354.328 161.974 353.962 161.396 353.631 160.799C354.241 161.107 354.832 161.451 355.402 161.829C355.98 162.187 356.517 162.578 357.059 162.973C358.133 163.771 359.159 164.625 360.144 165.513L358.549 165.545C359.789 164.173 361.107 162.874 362.497 161.654C363.202 161.047 363.918 160.461 364.671 159.903C365.432 159.332 366.227 158.809 367.053 158.336Z" fill="white"/>
<path d="M374.259 147.019C374.69 146.175 375.181 145.363 375.729 144.589C376.258 143.815 376.811 143.066 377.394 142.346C378.559 140.909 379.808 139.543 381.135 138.254L381.167 139.85C378.871 137.554 376.606 135.227 374.373 132.869C373.27 131.668 372.158 130.483 371.088 129.258C370.017 128.032 368.942 126.803 367.921 125.529C369.231 126.506 370.506 127.519 371.763 128.557C373.021 129.596 374.259 130.646 375.496 131.696C377.955 133.829 380.367 136.007 382.73 138.23C382.946 138.428 383.074 138.703 383.087 138.995C383.1 139.287 382.997 139.573 382.8 139.789L382.763 139.826C381.523 141.198 380.204 142.497 378.814 143.718C378.118 144.324 377.389 144.906 376.636 145.464C375.88 146.036 375.086 146.556 374.259 147.019Z" fill="white"/>
<path d="M370.716 150.714L375.16 146.098C375.381 145.869 375.374 145.505 375.145 145.284L372.159 142.409C371.93 142.188 371.566 142.195 371.345 142.424L366.9 147.04C366.68 147.269 366.687 147.633 366.916 147.854L369.901 150.729C370.13 150.95 370.495 150.943 370.716 150.714Z" fill="#30302F"/>
<path d="M360.563 215.605C362.791 217.833 366.404 217.833 368.632 215.605C370.86 213.377 370.86 209.764 368.632 207.536C366.404 205.308 362.791 205.308 360.563 207.536C358.335 209.764 358.335 213.377 360.563 215.605Z" fill="#30302F"/>
<path d="M371.242 226.047C374.565 229.37 379.953 229.37 383.276 226.048C386.599 222.725 386.599 217.337 383.276 214.014C379.953 210.691 374.565 210.691 371.242 214.014C367.919 217.337 367.919 222.724 371.242 226.047Z" fill="#30302F"/>
<path d="M388.083 227.378C390.311 229.606 393.923 229.606 396.151 227.378C398.38 225.15 398.38 221.538 396.151 219.31C393.923 217.082 390.311 217.082 388.083 219.31C385.855 221.538 385.855 225.15 388.083 227.378Z" fill="#30302F"/>
<path d="M238.061 164.866C240.289 167.094 243.902 167.094 246.13 164.866C248.358 162.637 248.358 159.025 246.13 156.797C243.902 154.569 240.29 154.569 238.061 156.797C235.833 159.025 235.833 162.637 238.061 164.866Z" fill="#30302F"/>
<path d="M223.512 175.441C226.835 178.764 232.223 178.764 235.546 175.441C238.869 172.118 238.869 166.73 235.546 163.407C232.223 160.084 226.835 160.084 223.512 163.407C220.19 166.73 220.19 172.118 223.512 175.441Z" fill="#30302F"/>
<path d="M216.889 186.013C219.117 188.241 222.729 188.241 224.957 186.013C227.185 183.785 227.185 180.173 224.957 177.944C222.729 175.716 219.117 175.716 216.889 177.944C214.66 180.173 214.661 183.785 216.889 186.013Z" fill="#30302F"/>
<path d="M303.282 209.429L285.858 192.006L279.174 198.69L296.597 216.114L303.282 209.429Z" fill="#4E4F50"/>
<path d="M312.714 223.079L309.262 220.376C296.455 210.369 284.919 198.833 274.912 186.026L272.209 182.574C271.869 182.139 271.683 181.604 271.68 181.053C271.676 180.501 271.855 179.964 272.189 179.524L274.419 176.593C283.353 164.848 293.563 154.13 304.862 144.637L308.379 141.681C308.832 141.3 309.407 141.092 310 141.097C310.592 141.101 311.164 141.317 311.611 141.706L322.338 150.869C330.271 157.646 337.659 165.034 344.435 172.966L353.578 183.673C353.967 184.12 354.183 184.692 354.187 185.284C354.192 185.877 353.984 186.452 353.603 186.905L350.647 190.422C341.155 201.717 330.442 211.925 318.703 220.861L315.772 223.091C315.332 223.427 314.794 223.608 314.241 223.606C313.688 223.604 313.151 223.419 312.714 223.079Z" fill="#F6BE1D"/>
<path d="M315.771 223.108L318.702 220.877C322.073 218.315 325.357 215.644 328.554 212.865C317.2 212.82 314.436 211.123 303.688 199.309C296.804 191.741 298.372 178.686 301.348 170.581C303.493 164.739 314.708 147.018 315.527 145.052L311.61 141.706C311.163 141.317 310.591 141.101 309.999 141.097C309.406 141.092 308.831 141.3 308.378 141.681L304.861 144.637C293.566 154.128 283.359 164.843 274.427 176.585L272.196 179.516C271.862 179.956 271.683 180.493 271.687 181.044C271.691 181.596 271.877 182.131 272.216 182.565L274.919 186.018C284.926 198.825 296.462 210.361 309.27 220.368L312.722 223.071C313.155 223.412 313.689 223.6 314.24 223.607C314.791 223.614 315.329 223.438 315.771 223.108Z" fill="#EE9E23"/>
<path d="M337.436 171.936C335.131 172.061 332.818 171.932 330.54 171.553C330.744 172.221 336.366 189.413 351.652 204.878C365.717 219.114 391.514 235.581 434.54 233.216L434.194 226.983C401.639 228.778 375.43 219.936 356.277 200.685C343.962 188.313 338.69 175.38 337.436 171.936Z" fill="#F6BE1D"/>
<path d="M369.874 229.247C373.197 232.57 378.584 232.57 381.907 229.247C385.23 225.924 385.23 220.536 381.907 217.213C378.584 213.89 373.197 213.89 369.874 217.213C366.551 220.536 366.551 225.924 369.874 229.247Z" fill="#4E4F50"/>
<path d="M372.451 226.669C374.351 228.569 377.431 228.569 379.331 226.669C381.23 224.77 381.23 221.689 379.331 219.79C377.431 217.89 374.351 217.89 372.451 219.79C370.551 221.689 370.551 224.77 372.451 226.669Z" fill="#30302F"/>
<path d="M359.465 218.186C361.693 220.414 365.305 220.414 367.533 218.186C369.761 215.958 369.761 212.345 367.533 210.117C365.305 207.889 361.693 207.889 359.465 210.117C357.237 212.345 357.237 215.958 359.465 218.186Z" fill="#4E4F50"/>
<path d="M361.46 216.191C362.586 217.317 364.412 217.317 365.539 216.191C366.665 215.064 366.665 213.238 365.539 212.112C364.412 210.985 362.586 210.985 361.46 212.112C360.333 213.238 360.333 215.064 361.46 216.191Z" fill="#30302F"/>
<path d="M386.975 229.959C389.204 232.187 392.816 232.187 395.044 229.959C397.272 227.731 397.272 224.119 395.044 221.891C392.816 219.663 389.204 219.663 386.975 221.891C384.747 224.119 384.747 227.731 386.975 229.959Z" fill="#4E4F50"/>
<path d="M388.97 227.964C390.097 229.091 391.923 229.091 393.049 227.964C394.176 226.838 394.176 225.012 393.049 223.885C391.923 222.759 390.097 222.759 388.97 223.885C387.844 225.012 387.844 226.838 388.97 227.964Z" fill="#30302F"/>
<path d="M448.092 244.178L447.868 239.192C445.499 239.271 443.194 238.413 441.453 236.803C439.713 235.193 438.677 232.962 438.572 230.593C438.466 228.225 439.299 225.911 440.889 224.152C442.479 222.394 444.699 221.334 447.066 221.202L446.842 216.215C443.144 216.395 439.667 218.032 437.174 220.769C434.68 223.507 433.373 227.12 433.538 230.819C433.704 234.518 435.328 238.001 438.056 240.505C440.784 243.009 444.392 244.33 448.092 244.178Z" fill="#EE9E23"/>
<path d="M430.954 234.172C433.182 236.4 436.794 236.4 439.023 234.172C441.251 231.944 441.251 228.332 439.023 226.104C436.794 223.876 433.182 223.876 430.954 226.104C428.726 228.332 428.726 231.944 430.954 234.172Z" fill="#4E4F50"/>
<path d="M432.949 232.178C434.075 233.305 435.901 233.305 437.028 232.178C438.154 231.052 438.154 229.226 437.028 228.099C435.901 226.973 434.075 226.973 432.949 228.099C431.822 229.226 431.822 231.052 432.949 232.178Z" fill="#EE9E23"/>
<path d="M301.205 164.397L292.209 155.4L292.616 154.993C296.45 151.207 300.436 147.571 304.466 144.184L307.983 141.229C308.539 140.759 309.245 140.502 309.973 140.505C310.701 140.508 311.404 140.771 311.957 141.245L321.364 149.285L306.249 164.401C305.579 165.067 304.672 165.44 303.726 165.44C302.781 165.439 301.875 165.064 301.205 164.397ZM293.841 155.404L302.019 163.582C302.474 164.034 303.088 164.288 303.729 164.288C304.37 164.288 304.985 164.034 305.439 163.582L319.663 149.359L311.244 142.145C310.902 141.851 310.466 141.688 310.015 141.683C309.564 141.679 309.125 141.834 308.777 142.121L305.24 145.096C301.368 148.325 297.529 151.789 293.878 155.441L293.841 155.404Z" fill="#F8E782"/>
<path d="M319.708 217.665L310.711 208.668L311.119 208.261C314.953 204.475 318.943 200.836 322.969 197.453L326.482 194.493C327.038 194.023 327.744 193.767 328.472 193.77C329.2 193.773 329.903 194.035 330.455 194.51L339.867 202.554L324.752 217.669C324.082 218.335 323.174 218.709 322.229 218.708C321.284 218.707 320.378 218.332 319.708 217.665ZM312.344 208.672L320.522 216.851C320.976 217.305 321.592 217.56 322.233 217.561C322.875 217.562 323.491 217.308 323.946 216.855L338.194 202.607L329.731 195.373C329.388 195.079 328.953 194.916 328.502 194.911C328.05 194.907 327.612 195.061 327.264 195.348L323.747 198.304C319.855 201.577 316.036 205.053 312.344 208.672Z" fill="#F8E782"/>
<path d="M344.688 173.26L333.773 184.174C333.305 184.642 333.042 185.278 333.042 185.941C333.042 186.603 333.305 187.239 333.773 187.707L338.98 192.914C339.449 193.381 340.084 193.643 340.746 193.642C341.407 193.641 342.042 193.378 342.51 192.91L352.736 182.684L344.688 173.26Z" fill="#EE9E23"/>
<path d="M311.388 205.004C310.92 204.536 310.286 204.274 309.625 204.274C308.964 204.274 308.33 204.536 307.862 205.004L300.103 212.763C303.078 215.39 306.131 217.928 309.263 220.376L312.715 223.079C313.15 223.417 313.685 223.603 314.236 223.606C314.787 223.61 315.324 223.432 315.764 223.099L318.695 220.868C320.311 219.635 321.903 218.377 323.482 217.099L311.388 205.004Z" fill="#EE9E23"/>
<path d="M317.746 211.364C314.778 210.179 312.116 208.095 308.562 204.5C308.296 204.619 308.054 204.785 307.846 204.988L300.086 212.748C303.036 215.35 306.064 217.867 309.169 220.299L309.238 220.368L312.69 223.071C312.96 223.285 313.271 223.44 313.604 223.527C313.936 223.615 314.284 223.633 314.624 223.58C315.039 223.517 315.431 223.349 315.763 223.092L318.695 220.861C320.311 219.627 321.902 218.37 323.482 217.091L317.746 211.364Z" fill="#E77B26"/>
<path d="M290.947 170.585L284.621 164.259C281.058 168.229 277.657 172.341 274.419 176.594L272.189 179.525C271.855 179.964 271.676 180.501 271.68 181.053C271.683 181.604 271.869 182.139 272.209 182.574L274.912 186.026C275.767 187.125 276.65 188.196 277.53 189.27L290.935 175.865C291.635 175.165 292.029 174.217 292.031 173.228C292.033 172.238 291.644 171.288 290.947 170.585Z" fill="#E77B26"/>
<path d="M342.883 171.188C343.893 169.603 344.331 167.722 344.125 165.855C343.919 163.988 343.082 162.247 341.752 160.921L335.092 154.261C333.774 152.946 332.05 152.115 330.201 151.906C328.351 151.696 326.485 152.118 324.906 153.104C331.276 158.745 337.281 164.784 342.883 171.188Z" fill="#4E4F50"/>
<path d="M286.941 161.499L288.163 152.868C293.048 137.399 298.006 138.645 306.4 141.103L308.379 141.682L286.941 161.499Z" fill="#EE9E23"/>
<path d="M333.663 208.22L342.293 206.999C357.763 202.114 356.517 197.156 354.038 188.741L353.46 186.763L333.663 208.22Z" fill="#EE9E23"/>
<path d="M290.157 205.131C284.378 199.354 278.958 193.23 273.926 186.792L271.223 183.339C270.715 182.687 270.436 181.884 270.431 181.057C270.425 180.23 270.692 179.424 271.191 178.764L273.421 175.833C282.414 164.018 292.686 153.235 304.051 143.681L307.568 140.725C308.248 140.149 309.111 139.836 310.002 139.841C310.893 139.846 311.752 140.17 312.425 140.754L323.148 149.921C331.13 156.739 338.565 164.174 345.383 172.157L354.551 182.879C355.133 183.553 355.456 184.412 355.462 185.302C355.467 186.193 355.154 187.056 354.579 187.736L351.624 191.253C342.061 202.611 331.273 212.878 319.455 221.867L316.52 224.093C315.862 224.594 315.057 224.864 314.23 224.858C313.402 224.853 312.6 224.574 311.949 224.065L308.496 221.362C302.058 216.33 295.934 210.91 290.157 205.131ZM332.926 162.362C329.262 158.698 325.456 155.177 321.507 151.798L310.78 142.634C310.555 142.437 310.265 142.329 309.966 142.329C309.667 142.329 309.377 142.437 309.152 142.634L305.635 145.59C294.408 155.025 284.262 165.676 275.384 177.347L273.157 180.274C272.989 180.493 272.899 180.761 272.901 181.037C272.902 181.312 272.995 181.58 273.165 181.797L275.864 185.253C285.812 197.977 297.275 209.44 309.999 219.387L313.455 222.086C313.672 222.256 313.938 222.349 314.213 222.352C314.488 222.355 314.757 222.267 314.977 222.103L317.908 219.872C329.578 210.991 340.228 200.845 349.666 189.621L352.621 186.104C352.818 185.878 352.927 185.589 352.927 185.289C352.927 184.99 352.818 184.701 352.621 184.475L343.457 173.748C340.132 169.828 336.594 166.03 332.926 162.362Z" fill="#E77B26"/>
<path d="M289.001 150.385C289.739 148.192 290.718 146.088 291.92 144.111C291.224 144.05 273.177 142.866 253.124 151.284C234.675 159.035 209.785 176.842 195.952 217.657L201.863 219.659C212.325 188.777 230.294 167.747 255.265 157.155C271.362 150.324 285.333 150.267 289.001 150.385Z" fill="#F6BE1D"/>
<path d="M221.05 172.978C224.373 176.301 229.76 176.301 233.083 172.978C236.406 169.655 236.406 164.268 233.083 160.945C229.76 157.622 224.373 157.622 221.05 160.945C217.727 164.268 217.727 169.655 221.05 172.978Z" fill="#4E4F50"/>
<path d="M223.626 170.402C225.526 172.302 228.607 172.302 230.506 170.402C232.406 168.502 232.406 165.422 230.506 163.522C228.607 161.622 225.526 161.622 223.627 163.522C221.727 165.422 221.727 168.502 223.626 170.402Z" fill="#30302F"/>
<path d="M306.091 190.036C309.414 193.359 314.801 193.359 318.124 190.036C321.447 186.713 321.447 181.325 318.124 178.002C314.801 174.679 309.414 174.679 306.091 178.002C302.768 181.325 302.768 186.713 306.091 190.036Z" fill="#30302F"/>
<path d="M308.554 187.573C311.876 190.896 317.264 190.896 320.587 187.573C323.91 184.25 323.91 178.862 320.587 175.539C317.264 172.216 311.876 172.216 308.554 175.539C305.231 178.862 305.231 184.25 308.554 187.573Z" fill="#4E4F50"/>
<path d="M311.13 184.997C313.03 186.896 316.11 186.896 318.01 184.997C319.91 183.097 319.91 180.016 318.01 178.117C316.11 176.217 313.03 176.217 311.13 178.117C309.231 180.016 309.231 183.097 311.13 184.997Z" fill="#30302F"/>
<path d="M236.075 162.878C238.303 165.106 241.916 165.106 244.144 162.878C246.372 160.65 246.372 157.038 244.144 154.81C241.916 152.582 238.303 152.582 236.075 154.81C233.847 157.038 233.847 160.65 236.075 162.878Z" fill="#4E4F50"/>
<path d="M238.07 160.884C239.196 162.011 241.023 162.011 242.149 160.884C243.275 159.758 243.275 157.932 242.149 156.805C241.023 155.679 239.196 155.679 238.07 156.805C236.943 157.932 236.943 159.758 238.07 160.884Z" fill="#30302F"/>
<path d="M214.902 184.027C217.13 186.255 220.743 186.255 222.971 184.027C225.199 181.799 225.199 178.186 222.971 175.958C220.743 173.73 217.13 173.73 214.902 175.958C212.674 178.186 212.674 181.799 214.902 184.027Z" fill="#4E4F50"/>
<path d="M216.897 182.033C218.023 183.159 219.85 183.159 220.976 182.033C222.102 180.906 222.102 179.08 220.976 177.954C219.85 176.827 218.023 176.827 216.897 177.954C215.771 179.08 215.771 180.906 216.897 182.033Z" fill="#30302F"/>
<path d="M180.722 226.177C181.308 224.414 182.238 222.786 183.459 221.386C184.68 219.987 186.168 218.844 187.835 218.025C189.502 217.207 191.316 216.728 193.17 216.617C195.024 216.506 196.881 216.765 198.634 217.38C200.387 217.994 202 218.951 203.379 220.195C204.758 221.439 205.876 222.946 206.667 224.626C207.458 226.306 207.907 228.128 207.987 229.983C208.068 231.839 207.778 233.692 207.135 235.434L202.42 233.781C202.812 232.666 202.979 231.484 202.913 230.304C202.848 229.124 202.55 227.968 202.038 226.903C201.526 225.838 200.809 224.884 199.928 224.096C199.047 223.308 198.02 222.701 196.904 222.31C195.789 221.919 194.607 221.751 193.427 221.817C192.247 221.882 191.091 222.18 190.026 222.692C188.961 223.204 188.007 223.921 187.219 224.802C186.43 225.683 185.824 226.71 185.433 227.826L180.722 226.177Z" fill="#EE9E23"/>
<path d="M194.609 223.266C196.837 225.494 200.45 225.494 202.678 223.266C204.906 221.038 204.906 217.425 202.678 215.197C200.45 212.969 196.837 212.969 194.609 215.197C192.381 217.425 192.381 221.038 194.609 223.266Z" fill="#4E4F50"/>
<path d="M196.603 221.272C197.729 222.398 199.556 222.398 200.682 221.272C201.809 220.146 201.809 218.319 200.682 217.193C199.556 216.066 197.729 216.066 196.603 217.193C195.477 218.319 195.477 220.145 196.603 221.272Z" fill="#EE9E23"/>
<path d="M288.993 174.07C289.413 174.49 290.095 174.49 290.515 174.07C290.936 173.649 290.936 172.968 290.515 172.547C290.095 172.127 289.413 172.127 288.993 172.547C288.572 172.968 288.572 173.649 288.993 174.07Z" fill="#020202"/>
<path d="M335.32 186.404C335.74 186.824 336.422 186.824 336.842 186.404C337.263 185.983 337.263 185.302 336.842 184.881C336.422 184.461 335.74 184.461 335.32 184.881C334.899 185.302 334.899 185.983 335.32 186.404Z" fill="#020202"/>
<path d="M340.673 191.757C341.094 192.178 341.775 192.178 342.196 191.757C342.616 191.337 342.616 190.655 342.196 190.235C341.775 189.814 341.094 189.814 340.673 190.235C340.253 190.655 340.253 191.337 340.673 191.757Z" fill="#020202"/>
<path d="M348.038 184.393C348.458 184.814 349.14 184.814 349.56 184.393C349.981 183.973 349.981 183.291 349.56 182.871C349.14 182.45 348.458 182.45 348.038 182.871C347.617 183.291 347.617 183.973 348.038 184.393Z" fill="#020202"/>
<path d="M343.45 178.275C343.87 178.695 344.552 178.695 344.972 178.275C345.393 177.855 345.393 177.173 344.972 176.752C344.552 176.332 343.87 176.332 343.45 176.752C343.029 177.173 343.029 177.855 343.45 178.275Z" fill="#020202"/>
<path d="M308.842 207.582C309.263 208.002 309.944 208.002 310.365 207.582C310.785 207.161 310.785 206.48 310.365 206.059C309.944 205.639 309.263 205.639 308.842 206.059C308.422 206.48 308.422 207.161 308.842 207.582Z" fill="#020202"/>
<path d="M318.377 217.042C318.798 217.462 319.479 217.462 319.9 217.042C320.32 216.621 320.32 215.94 319.9 215.519C319.479 215.099 318.798 215.099 318.377 215.519C317.957 215.94 317.957 216.621 318.377 217.042Z" fill="#020202"/>
<path d="M284.266 169.343C284.687 169.764 285.368 169.764 285.789 169.343C286.209 168.923 286.209 168.241 285.789 167.821C285.368 167.4 284.687 167.4 284.266 167.821C283.846 168.241 283.846 168.923 284.266 169.343Z" fill="#020202"/>
<path d="M277.7 186.087C278.12 186.507 278.802 186.507 279.222 186.087C279.643 185.666 279.643 184.984 279.222 184.564C278.802 184.144 278.12 184.144 277.7 184.564C277.279 184.984 277.279 185.666 277.7 186.087Z" fill="#020202"/>
<path d="M303.612 212.812C304.032 213.233 304.714 213.233 305.134 212.812C305.555 212.392 305.555 211.71 305.134 211.29C304.714 210.869 304.032 210.869 303.612 211.29C303.191 211.71 303.191 212.392 303.612 212.812Z" fill="#020202"/>
<path d="M153.09 289.92L147.488 284.318L114.4 317.407L120.001 323.008L153.09 289.92Z" fill="#8EA3CA"/>
<path d="M205.906 342.735L200.305 337.134L167.216 370.222L172.818 375.824L205.906 342.735Z" fill="#8EA3CA"/>
<path d="M166.187 303.016L160.585 297.414L127.497 330.502L133.098 336.104L166.187 303.016Z" fill="#CFD7ED"/>
<path d="M218.705 355.534L213.104 349.933L180.015 383.021L185.617 388.623L218.705 355.534Z" fill="#CFD7ED"/>
<path d="M146.968 287.281L215.95 356.263C216.624 356.938 217.718 356.938 218.392 356.263L302.436 272.219C303.111 271.545 303.111 270.451 302.436 269.777L233.455 200.795C232.78 200.12 231.686 200.12 231.012 200.795L146.968 284.839C146.293 285.513 146.293 286.607 146.968 287.281Z" fill="#CFD7ED"/>
<path d="M233.454 200.795L246.591 213.932C246.267 213.608 245.827 213.426 245.369 213.426C244.911 213.426 244.472 213.608 244.148 213.932L160.104 297.976C159.78 298.3 159.598 298.74 159.598 299.198C159.598 299.656 159.78 300.095 160.104 300.419L146.967 287.282C146.643 286.958 146.461 286.519 146.461 286.061C146.461 285.603 146.643 285.163 146.967 284.84L231.011 200.795C231.335 200.472 231.774 200.29 232.232 200.29C232.691 200.29 233.13 200.472 233.454 200.795Z" fill="#A8B9DF"/>
<path d="M200.687 325.312C202.704 327.329 205.974 327.329 207.99 325.312C210.007 323.296 210.007 320.026 207.99 318.009C205.974 315.992 202.704 315.992 200.687 318.009C198.671 320.026 198.671 323.296 200.687 325.312Z" fill="#30302F"/>
<path d="M218.408 315.921L214.846 311.797C214.182 311.027 213.201 310.812 212.713 311.292L196.946 326.896C196.474 327.368 196.584 328.3 197.202 329.017L199.323 331.48" stroke="#30302F" stroke-width="1.72714" stroke-miterlimit="10"/>
<path d="M220.24 334.631L208.17 321.934L262.203 276.148L245.13 212.764L278.149 220.234L267.153 280.089L220.24 334.631Z" fill="#F6BE1D"/>
<path d="M251.35 203.669L260.827 213.146C261.151 213.47 261.333 213.909 261.333 214.367C261.333 214.825 261.151 215.264 260.827 215.588L259.411 217.005C256.949 219.467 253.61 220.849 250.129 220.849C246.648 220.849 243.309 219.467 240.847 217.005L239.431 215.588C239.107 215.264 238.925 214.825 238.925 214.367C238.925 213.909 239.107 213.47 239.431 213.146L248.908 203.669C249.232 203.345 249.671 203.163 250.129 203.163C250.587 203.163 251.026 203.345 251.35 203.669Z" fill="#4E4F50"/>
<path d="M246.901 209.307L246.421 208.827C246.069 208.473 245.872 207.995 245.873 207.497C245.874 206.998 246.072 206.521 246.425 206.168L243.233 209.36C243.058 209.534 242.919 209.741 242.824 209.969C242.729 210.197 242.68 210.441 242.679 210.688C242.679 210.935 242.727 211.18 242.822 211.408C242.916 211.636 243.054 211.844 243.229 212.018L243.709 212.499C245.037 213.826 246.613 214.879 248.348 215.598C250.083 216.316 251.943 216.686 253.82 216.685C255.698 216.685 257.557 216.315 259.292 215.596C261.026 214.877 262.602 213.823 263.93 212.494L264.41 212.014C264.656 211.768 264.828 211.458 264.907 211.118C262.156 212.938 258.862 213.751 255.581 213.421C252.3 213.091 249.234 211.638 246.901 209.307Z" fill="#797979"/>
<path d="M261.832 240.735C262.467 243.903 262.943 247.082 263.432 250.257C263.92 253.433 264.319 256.616 264.682 259.804C265.044 262.991 265.37 266.191 265.716 269.354C266.062 272.517 266.286 275.737 266.575 278.933L266.648 279.771L266.005 280.349C262.729 283.31 259.429 286.252 256.104 289.175C252.758 292.065 249.461 295.005 246.061 297.858C242.662 300.712 239.3 303.562 235.884 306.407C232.469 309.253 229.012 311.985 225.479 314.663C228.499 311.415 231.63 308.284 234.748 305.149C237.867 302.015 241.05 298.937 244.233 295.908C247.417 292.88 250.661 289.839 253.865 286.814C257.069 283.789 260.366 280.826 263.635 277.858L263.049 279.258C262.833 276.063 262.585 272.867 262.402 269.655C262.219 266.443 262.023 263.252 261.934 260.044C261.844 256.836 261.726 253.632 261.673 250.42C261.62 247.208 261.706 243.964 261.832 240.735Z" fill="#4E4F50"/>
<path d="M237.598 360.131C239.615 362.147 242.885 362.147 244.902 360.131C246.918 358.114 246.918 354.844 244.902 352.827C242.885 350.811 239.615 350.811 237.598 352.827C235.582 354.844 235.582 358.114 237.598 360.131Z" fill="#30302F"/>
<path d="M254.859 349.718L251.008 345.867C250.292 345.15 249.315 344.987 248.83 345.545L234.244 362.256C233.796 362.761 233.98 363.685 234.647 364.353L236.947 366.653" stroke="#30302F" stroke-width="1.72714" stroke-miterlimit="10"/>
<path d="M243.102 357.492L255.8 369.562L297.241 311.185L290.61 248.123L256.288 213.801L290.964 307.595L243.102 357.492Z" fill="#F6BE1D"/>
<path d="M282.285 258.435L280.868 257.018C278.406 254.557 277.023 251.218 277.023 247.737C277.023 244.255 278.406 240.917 280.868 238.455L282.285 237.038C282.608 236.714 283.048 236.532 283.506 236.532C283.964 236.532 284.403 236.714 284.727 237.038L294.204 246.515C294.528 246.839 294.71 247.279 294.71 247.737C294.71 248.195 294.528 248.634 294.204 248.958L284.727 258.435C284.403 258.759 283.964 258.941 283.506 258.941C283.048 258.941 282.608 258.759 282.285 258.435Z" fill="#4E4F50"/>
<path d="M288.57 250.977L289.051 251.458C289.404 251.811 289.883 252.009 290.382 252.009C290.881 252.009 291.36 251.811 291.713 251.458L288.522 254.649C288.347 254.825 288.14 254.964 287.911 255.059C287.683 255.154 287.438 255.203 287.19 255.203C286.943 255.203 286.698 255.154 286.47 255.059C286.241 254.964 286.034 254.825 285.859 254.649L285.379 254.169C284.052 252.841 283 251.265 282.282 249.53C281.564 247.796 281.195 245.936 281.196 244.059C281.197 242.182 281.567 240.323 282.286 238.589C283.005 236.855 284.059 235.28 285.387 233.953L285.867 233.473C286.115 233.227 286.427 233.057 286.767 232.98C284.947 235.728 284.132 239.02 284.46 242.3C284.789 245.58 286.241 248.645 288.57 250.977Z" fill="#797979"/>
<path d="M243.424 357.187L230.235 370.377L259.346 399.488L263.824 395.01C264.632 394.198 265.092 393.102 265.104 391.957C265.117 390.811 264.683 389.705 263.893 388.875C259.761 384.515 253.215 376.21 255.812 369.55L243.437 357.175L243.424 357.187Z" fill="#EE9E23"/>
<path d="M230.307 370.45C230.764 369.93 231.321 369.508 231.945 369.208C232.569 368.909 233.247 368.739 233.939 368.708C234.656 368.676 235.372 368.787 236.045 369.034C236.719 369.282 237.337 369.661 237.863 370.149C238.402 370.655 238.836 371.262 239.14 371.936C239.444 372.611 239.612 373.338 239.634 374.077C239.669 375.603 239.096 377.081 238.042 378.185L237.089 377.232C237.622 376.676 238.26 376.233 238.966 375.926C239.672 375.62 240.432 375.458 241.201 375.449C242.378 375.44 243.532 375.781 244.515 376.43C245.497 377.079 246.265 378.005 246.719 379.092C247.173 380.178 247.293 381.375 247.065 382.53C246.836 383.685 246.269 384.746 245.435 385.577L244.214 384.356C245.045 383.519 246.107 382.949 247.265 382.719C248.422 382.489 249.621 382.61 250.71 383.065C251.798 383.52 252.726 384.29 253.374 385.276C254.023 386.262 254.363 387.418 254.35 388.598C254.339 389.367 254.176 390.126 253.869 390.831C253.562 391.536 253.118 392.174 252.563 392.706L251.61 391.753C252.155 391.229 252.798 390.818 253.502 390.544C254.207 390.27 254.958 390.139 255.714 390.157C257.207 390.203 258.621 390.838 259.646 391.924C260.135 392.451 260.514 393.07 260.762 393.746C261.009 394.421 261.12 395.138 261.087 395.857C261.056 396.548 260.886 397.226 260.587 397.85C260.287 398.474 259.865 399.031 259.345 399.488C260.22 398.489 260.672 397.19 260.607 395.865C260.546 394.594 259.985 393.399 259.048 392.539C258.145 391.703 256.948 391.258 255.718 391.301C254.524 391.347 253.394 391.855 252.567 392.718L251.614 391.765C252.415 390.911 252.854 389.781 252.84 388.61C252.816 387.464 252.344 386.373 251.525 385.571C250.706 384.769 249.606 384.32 248.46 384.32C247.325 384.329 246.239 384.785 245.439 385.59L244.218 384.368C244.622 383.97 244.942 383.495 245.161 382.972C245.38 382.448 245.492 381.887 245.492 381.319C245.492 380.173 245.043 379.072 244.24 378.253C243.438 377.435 242.347 376.963 241.201 376.939C240.026 376.927 238.893 377.374 238.042 378.185L237.089 377.232C237.955 376.405 238.465 375.274 238.51 374.077C238.549 372.846 238.103 371.649 237.269 370.743C236.406 369.809 235.212 369.25 233.943 369.184C232.613 369.119 231.309 369.573 230.307 370.45Z" fill="#30302F"/>
<path d="M208.178 321.941L194.988 335.131L224.1 364.242L228.578 359.764C229.386 358.952 229.845 357.856 229.858 356.71C229.871 355.565 229.437 354.459 228.647 353.629C224.515 349.269 217.969 340.964 220.566 334.304L208.19 321.929L208.178 321.941Z" fill="#EE9E23"/>
<path d="M195.061 335.205C195.518 334.685 196.075 334.263 196.699 333.963C197.323 333.664 198.001 333.493 198.693 333.462C199.41 333.431 200.126 333.542 200.799 333.789C201.473 334.036 202.091 334.415 202.617 334.903C203.156 335.41 203.59 336.017 203.894 336.691C204.198 337.365 204.366 338.093 204.388 338.832C204.423 340.358 203.85 341.835 202.796 342.939L201.844 341.987C202.376 341.431 203.014 340.987 203.72 340.681C204.426 340.375 205.186 340.213 205.955 340.204C207.133 340.195 208.286 340.536 209.269 341.185C210.251 341.834 211.019 342.76 211.473 343.846C211.927 344.933 212.047 346.13 211.819 347.285C211.59 348.44 211.023 349.501 210.189 350.332L208.968 349.111C209.798 348.273 210.86 347.701 212.017 347.47C213.174 347.24 214.374 347.359 215.462 347.815C216.551 348.27 217.479 349.04 218.127 350.026C218.775 351.012 219.114 352.169 219.1 353.349C219.089 354.118 218.926 354.877 218.619 355.582C218.312 356.287 217.868 356.924 217.313 357.456L216.36 356.504C216.905 355.979 217.548 355.568 218.252 355.294C218.957 355.021 219.708 354.889 220.464 354.908C221.957 354.954 223.371 355.589 224.396 356.675C224.885 357.202 225.264 357.821 225.512 358.496C225.759 359.171 225.87 359.889 225.837 360.607C225.806 361.299 225.636 361.977 225.337 362.601C225.037 363.225 224.615 363.782 224.095 364.238C224.97 363.24 225.422 361.941 225.357 360.615C225.296 359.345 224.735 358.149 223.798 357.289C222.895 356.453 221.698 356.008 220.468 356.052C219.274 356.097 218.144 356.605 217.317 357.469L216.364 356.516C217.165 355.662 217.604 354.531 217.59 353.361C217.566 352.215 217.094 351.124 216.275 350.322C215.456 349.519 214.356 349.07 213.21 349.07C212.075 349.08 210.989 349.536 210.189 350.34L208.968 349.119C209.775 348.316 210.231 347.227 210.237 346.089C210.243 344.951 209.799 343.856 209 343.045C208.198 342.217 207.1 341.74 205.947 341.718C204.776 341.702 203.645 342.141 202.792 342.943L201.839 341.991C202.705 341.164 203.215 340.032 203.26 338.836C203.299 337.605 202.853 336.408 202.019 335.502C201.156 334.568 199.962 334.008 198.693 333.943C197.365 333.878 196.063 334.33 195.061 335.205Z" fill="#30302F"/>
<path d="M258.848 285.095C262.171 288.418 267.559 288.418 270.882 285.095C274.205 281.772 274.205 276.385 270.882 273.062C267.559 269.739 262.171 269.739 258.848 273.062C255.525 276.385 255.525 281.772 258.848 285.095Z" fill="#4E4F50"/>
<path d="M261.425 282.519C263.325 284.419 266.405 284.419 268.305 282.519C270.205 280.619 270.205 277.539 268.305 275.639C266.405 273.739 263.325 273.739 261.425 275.639C259.525 277.539 259.525 280.619 261.425 282.519Z" fill="#EE9E23"/>
<path d="M288.314 244.687C274.076 235.929 262.003 224.065 252.999 209.982C255.596 207.666 257.819 204.963 259.589 201.967C262.158 197.585 263.72 192.686 264.161 187.625C264.182 187.388 264.271 187.162 264.417 186.973C264.563 186.785 264.759 186.642 264.983 186.562C265.208 186.481 265.45 186.466 265.682 186.519C265.915 186.572 266.127 186.69 266.294 186.86L311.192 231.758C311.354 231.92 311.468 232.123 311.523 232.345C311.577 232.567 311.57 232.8 311.501 233.019C311.433 233.237 311.306 233.433 311.135 233.584C310.964 233.736 310.754 233.838 310.529 233.879C302.275 235.382 294.593 239.122 288.318 244.691L288.314 244.687Z" fill="#30302F"/>
<path d="M288.314 244.687C274.076 235.929 262.003 224.065 252.999 209.982C255.596 207.666 257.819 204.963 259.589 201.967C262.158 197.585 263.72 192.686 264.161 187.625C264.182 187.388 264.271 187.162 264.417 186.973C264.563 186.785 264.759 186.642 264.983 186.562C265.208 186.481 265.45 186.466 265.682 186.519C265.915 186.572 266.127 186.69 266.294 186.86L311.192 231.758C311.354 231.92 311.468 232.123 311.523 232.345C311.577 232.567 311.57 232.8 311.501 233.019C311.433 233.237 311.306 233.433 311.135 233.584C310.964 233.736 310.754 233.838 310.529 233.879C302.275 235.382 294.593 239.122 288.318 244.691L288.314 244.687Z" fill="#F6BE1D"/>
<path d="M296.126 239.107C296.455 238.923 296.785 238.756 297.115 238.581C292.352 237.116 288.737 233.713 281.78 226.063C275.437 219.094 276.268 207.459 278.767 199.334L266.412 186.979C265.578 187.862 264.747 188.758 263.925 189.653C262.795 197.507 258.927 204.709 253.003 209.987C262.007 224.07 274.08 235.934 288.318 244.692C290.72 242.564 293.336 240.692 296.126 239.107Z" fill="#EE9E23"/>
<path d="M285.097 226.645C284.652 223.101 283.09 219.79 280.638 217.192C278.187 214.594 274.972 212.844 271.46 212.193L269.84 211.892C267.422 211.456 265.157 210.409 263.257 208.852C261.358 207.294 259.888 205.278 258.987 202.993C258.71 203.416 258.437 203.827 258.156 204.222C259.207 206.519 260.797 208.528 262.792 210.078C264.786 211.627 267.126 212.671 269.612 213.121L271.228 213.427C274.48 214.024 277.459 215.642 279.731 218.044C282.004 220.447 283.452 223.511 283.868 226.792C284.251 229.795 285.491 232.624 287.441 234.94C289.39 237.256 291.966 238.961 294.859 239.851C295.279 239.595 295.702 239.342 296.138 239.094C296.223 239.049 296.305 239.008 296.394 238.959C293.472 238.319 290.819 236.791 288.799 234.584C286.779 232.377 285.49 229.6 285.11 226.633L285.097 226.645Z" fill="#545454"/>
<path d="M277.054 214.335C275.326 213.298 273.428 212.577 271.448 212.206L269.84 211.892C267.423 211.456 265.157 210.41 263.258 208.852C261.359 207.295 259.889 205.278 258.987 202.993C258.71 203.417 258.437 203.828 258.157 204.223C259.207 206.52 260.798 208.529 262.792 210.078C264.787 211.628 267.127 212.672 269.612 213.122L271.228 213.427C273.399 213.831 275.459 214.69 277.274 215.947C277.172 215.422 277.107 214.885 277.054 214.335Z" fill="#484748"/>
<path d="M289.238 235.068C288.054 233.877 287.085 232.492 286.372 230.972C285.688 230.288 284.992 229.543 284.247 228.741C284.911 231.349 286.235 233.742 288.091 235.69C289.948 237.638 292.275 239.075 294.847 239.863C295.263 239.611 295.686 239.358 296.122 239.11C296.207 239.065 296.289 239.025 296.378 238.976C293.676 238.377 291.199 237.021 289.238 235.068Z" fill="#484748"/>
<path d="M278.918 201.259C281.358 205.348 284.081 209.26 287.068 212.967C289.975 216.688 293.081 220.218 296.281 223.662C297.067 224.504 297.885 225.379 298.707 226.218C299.529 227.057 300.335 227.912 301.174 228.734C302.013 229.556 302.835 230.395 303.69 231.201L304.968 232.422L305.615 233.021L305.693 233.098C305.717 233.122 305.758 233.163 305.717 233.122C305.682 233.073 305.649 233.021 305.62 232.968C305.544 232.834 305.495 232.688 305.473 232.536C305.435 232.266 305.494 231.992 305.64 231.762C305.785 231.532 306.007 231.36 306.267 231.278C306.324 231.264 306.383 231.254 306.442 231.25L306.405 231.286L306.295 231.315L305.856 231.445L304.984 231.73C303.772 232.118 302.599 232.618 301.479 233.224C299.34 234.438 297.402 235.978 295.735 237.788C298.145 237.291 300.429 236.57 302.603 236.204C303.69 236.021 304.761 235.919 305.884 235.83L306.743 235.785L307.175 235.744L307.28 235.736L307.333 235.732L307.468 235.711C307.668 235.675 307.864 235.62 308.054 235.549C308.862 235.253 309.537 234.677 309.955 233.924C310.38 233.162 310.519 232.272 310.346 231.417C310.256 230.98 310.089 230.562 309.853 230.183C309.745 230.006 309.621 229.838 309.483 229.682L309.275 229.475L308.709 228.795L307.578 227.484C306.825 226.609 306.027 225.721 305.237 224.85C304.447 223.979 303.653 223.12 302.851 222.261C302.049 221.402 301.239 220.56 300.421 219.717C297.156 216.354 293.789 213.085 290.223 210C286.662 206.827 282.885 203.907 278.918 201.259Z" fill="#F8E782"/>
<path d="M267.211 229.479C261.489 223.759 256.405 217.435 252.047 210.618L251.517 209.788L252.25 209.137C258.478 203.585 262.338 195.855 263.034 187.54C263.075 187.085 263.246 186.651 263.525 186.289C263.805 185.928 264.182 185.653 264.612 185.499C265.042 185.344 265.508 185.315 265.953 185.416C266.399 185.516 266.807 185.742 267.129 186.067L312.007 230.945C312.317 231.255 312.536 231.644 312.641 232.07C312.746 232.495 312.732 232.942 312.602 233.36C312.471 233.779 312.229 234.154 311.901 234.445C311.573 234.736 311.172 234.932 310.741 235.011C302.69 236.473 295.195 240.116 289.071 245.543L288.432 246.109L287.708 245.661C280.596 241.287 273.995 236.131 268.029 230.289L267.211 229.479ZM254.505 210.187C263.204 223.524 274.7 234.809 288.196 243.259C290.479 241.309 292.943 239.583 295.556 238.105C300.148 235.511 305.139 233.701 310.326 232.748C310.346 232.746 310.364 232.737 310.378 232.723C310.392 232.709 310.401 232.69 310.403 232.671C310.409 232.653 310.41 232.633 310.405 232.615C310.4 232.597 310.389 232.581 310.375 232.569L265.501 187.695C265.488 187.679 265.471 187.667 265.451 187.662C265.431 187.657 265.41 187.658 265.391 187.667C265.372 187.669 265.355 187.678 265.342 187.691C265.329 187.704 265.32 187.721 265.318 187.74C264.867 192.969 263.252 198.03 260.591 202.554C258.933 205.373 256.884 207.942 254.505 210.187Z" fill="#F6BE1D"/>
<path d="M289.38 276.099C290.149 278.733 290.772 281.391 291.403 284.041C292.034 286.691 292.584 289.374 293.101 292.032C293.618 294.691 294.11 297.381 294.591 300.036C295.071 302.69 295.47 305.401 295.873 308.092L295.971 308.857L295.474 309.452C292.824 312.623 290.17 315.782 287.479 318.921C284.788 322.059 282.06 325.153 279.333 328.263C276.605 331.374 273.829 334.427 271.016 337.46C268.203 340.492 265.378 343.513 262.439 346.444C264.787 343.02 267.25 339.703 269.713 336.377C272.176 333.051 274.692 329.77 277.249 326.529C279.805 323.289 282.366 320.036 284.959 316.824C287.552 313.612 290.182 310.421 292.82 307.245L292.437 308.597C292.046 305.91 291.68 303.218 291.338 300.52C290.996 297.822 290.689 295.125 290.418 292.427C290.153 289.72 289.897 287.021 289.734 284.285C289.571 281.55 289.396 278.842 289.38 276.099Z" fill="#4E4F50"/>
<path d="M289.377 315.624C292.7 318.947 298.087 318.947 301.41 315.624C304.733 312.301 304.733 306.913 301.41 303.59C298.087 300.267 292.7 300.267 289.377 303.59C286.054 306.913 286.054 312.301 289.377 315.624Z" fill="#4E4F50"/>
<path d="M291.953 313.046C293.852 314.946 296.933 314.946 298.832 313.046C300.732 311.147 300.732 308.066 298.833 306.166C296.933 304.267 293.852 304.267 291.953 306.166C290.053 308.066 290.053 311.147 291.953 313.046Z" fill="#EE9E23"/>
<path d="M466.522 580.489C465.667 580.53 464.214 581.12 462.765 581.853L474.208 569.995C477.382 567.761 480.894 566.05 484.609 564.926L484.251 563.493C482.156 564.099 480.125 564.907 478.185 565.903L510.504 532.42C512.898 530.686 515.984 529.017 516.806 529.286L517.27 527.869C516.558 527.637 515.52 527.893 514.425 528.361L523.32 519.141L522.245 518.107L517.6 522.923C518.124 521.696 518.474 520.403 518.642 519.08L517.144 518.949C517.144 518.949 516.778 522.784 513.391 527.262L467.263 575.018C468.707 571.744 469.697 568.289 470.206 564.747L468.737 564.589C468.724 564.674 467.719 572.934 463.217 579.276L456.536 586.193L457.595 587.251L459.089 585.7C461.332 584.271 465.305 582.065 466.567 582.024L466.522 580.489Z" fill="#A4B5DD"/>
<path d="M476.003 513.372C476.349 512.562 478.828 512.485 483.766 512.358C488.517 512.224 490.874 512.179 492.97 512.607C494.9 513.006 499.223 513.974 503.017 517.418C505.839 520.004 504.043 520.073 509.266 527.885C510.492 529.729 511.896 531.695 511.395 533.898C511.338 534.134 510.944 535.766 509.698 536.271C508.167 536.882 506.547 535.294 503.449 533.23C502.24 532.428 504.206 533.816 495.262 528.756C490.609 526.13 488.285 524.815 487.328 524.201C486.372 523.586 474.822 516.091 476.003 513.372Z" fill="#C4CFE6"/>
<path d="M480.22 514.349C481.366 514.542 482.489 514.847 483.575 515.261C484.092 515.453 484.609 515.652 485.105 515.872C485.614 516.075 486.103 516.324 486.567 516.617C487.499 517.215 488.394 518.046 489.424 518.432C490.498 518.818 491.635 518.996 492.775 518.958C493.357 518.962 493.951 518.962 494.538 519.019C495.122 519.077 495.702 519.171 496.276 519.3C497.434 519.51 498.567 519.843 499.655 520.293C501.844 521.241 503.772 522.703 505.277 524.555L505.134 524.803C503.976 524.653 502.829 524.423 501.702 524.115C500.607 523.835 499.557 523.509 498.523 523.151C497.489 522.792 496.496 522.328 495.482 521.901C494.436 521.485 493.415 521.008 492.425 520.472C491.4 519.94 490.309 519.547 489.18 519.304C488.057 519.059 486.803 519.1 485.647 518.815C485.073 518.669 484.522 518.449 484.006 518.16C483.485 517.882 482.985 517.565 482.512 517.211C481.529 516.505 480.699 515.606 480.074 514.569L480.22 514.349Z" fill="#A4B5DD"/>
<path d="M468.573 566.38C469.375 566.547 469.921 564.959 473.385 559.712C477.448 553.557 478.409 553.15 478.942 550.613C479.447 548.244 479.023 546.249 478.181 542.256C477.419 538.893 476.34 535.611 474.956 532.453C472.64 526.709 472.306 527.36 471.244 524.181C468.948 517.252 469.97 512.428 468.459 512.107C467.796 511.956 467.14 512.75 464.832 516.076C460.997 521.539 459.117 524.299 458.75 525.528C457.5 529.782 458.746 533.495 460.423 538.511C462.552 544.841 464.026 544.556 465.825 549.824C468.984 558.861 466.864 566.054 468.573 566.38Z" fill="#DDE6F4"/>
<path d="M467.364 516.767C467.694 518.563 467.853 520.276 468.023 521.986L468.272 524.531C468.361 525.377 468.41 526.224 468.426 527.079C468.447 528.793 468.304 530.572 468.626 532.286C468.956 534.001 469.542 535.658 470.364 537.199C470.751 537.985 471.183 538.758 471.557 539.532C471.932 540.305 472.298 541.087 472.677 541.856C473.055 542.626 473.458 543.395 473.837 544.246C474.241 545.144 474.522 546.093 474.671 547.067C474.914 548.954 474.787 550.871 474.297 552.709C473.839 554.5 473.029 556.181 471.915 557.656L471.647 557.55C471.873 555.839 472.007 554.117 472.05 552.392C472.067 550.776 471.931 549.162 471.643 547.572C471.495 546.815 471.294 546.069 471.04 545.341L470.189 542.862C469.885 542.02 469.625 541.163 469.412 540.293C469.192 539.422 469.053 538.535 468.895 537.659C468.627 535.903 468.249 534.165 467.763 532.457C467.274 530.763 466.493 529.094 466.09 527.331C465.887 526.451 465.776 525.552 465.76 524.649C465.722 523.746 465.745 522.841 465.829 521.941C465.969 520.129 466.407 518.352 467.124 516.682L467.364 516.767Z" fill="#A4B5DD"/>
<path d="M464.523 582.253C463.823 580.836 470.109 576.44 473.129 574.315C478.312 570.687 480.901 568.872 484.442 568.408C489.999 567.679 494.608 570.13 496.765 571.278C500.799 573.423 500.437 574.665 505.461 577.612C510.594 580.62 513.668 580.934 513.651 582.253C513.59 583.82 509.34 585.172 505.884 585.461C502.428 585.75 500.091 584.944 494.893 583.425C488.505 581.565 485.31 580.633 483.921 580.384C473.186 578.508 465.297 583.824 464.523 582.253Z" fill="#C4CFE6"/>
<path d="M468.646 579.781C469.474 578.39 470.543 577.156 471.801 576.138C472.115 575.881 472.441 575.645 472.766 575.401C473.092 575.157 473.446 574.957 473.792 574.749C474.138 574.542 474.509 574.359 474.867 574.196C475.244 574.034 475.63 573.893 476.023 573.772C477.623 573.417 479.257 573.239 480.896 573.239C481.677 573.207 482.467 573.182 483.269 573.17C484.087 573.148 484.905 573.172 485.72 573.243C487.29 573.38 488.845 573.649 490.369 574.049C491.875 574.399 493.377 574.754 494.822 575.246C496.293 575.717 497.738 576.268 499.15 576.895C500.601 577.528 502 578.274 503.335 579.126L503.261 579.403C501.679 579.425 500.097 579.318 498.531 579.085C496.986 578.867 495.453 578.568 493.939 578.189C492.444 577.771 490.976 577.263 489.542 576.667C488.818 576.382 488.089 576.109 487.393 575.779C486.697 575.45 486.001 575.104 485.317 574.794C483.961 574.15 482.439 573.942 480.961 574.2C479.471 574.46 478.16 575.315 476.902 576.036C476.589 576.227 476.263 576.398 475.941 576.565C475.62 576.732 475.294 576.895 474.964 577.054L472.986 578.063C471.622 578.799 470.219 579.462 468.785 580.05L468.646 579.781Z" fill="#A4B5DD"/>
<path d="M483.225 564.039C483.078 563.371 483.31 562.268 491.412 556.357C497.103 552.205 499.952 550.129 501.967 549.351C506.91 547.438 510.997 547.796 519.183 548.509C523.108 548.85 533.147 549.722 533.281 551.802C533.387 553.43 527.317 555.12 525.599 555.6C519.432 557.314 518.345 555.852 514.119 557.456C509.718 559.13 510.13 561.006 504.158 564.039C501.959 565.154 499.199 566.555 495.482 567.015C490.422 567.63 483.746 566.539 483.225 564.039Z" fill="#DDE6F4"/>
<path d="M489.062 562.395C490.348 561.123 491.8 560.031 493.377 559.146C494.151 558.698 494.957 558.283 495.755 557.925C496.572 557.544 497.422 557.238 498.295 557.013C499.174 556.777 500.054 556.671 500.896 556.496C501.757 556.324 502.601 556.078 503.42 555.763C504.228 555.44 505.004 555.045 505.741 554.583C506.482 554.127 507.165 553.565 507.89 553.028C508.649 552.435 509.488 551.952 510.381 551.595C510.832 551.417 511.294 551.273 511.766 551.163C512.255 551.055 512.752 550.98 513.251 550.939C514.241 550.87 515.12 550.878 515.995 550.882C516.871 550.886 517.73 550.915 518.593 550.956C520.323 551.057 522.069 551.175 523.795 551.387C525.566 551.558 527.327 551.819 529.071 552.169L529.087 552.454C527.376 553.015 525.615 553.413 523.828 553.642C522.063 553.894 520.282 554.017 518.499 554.013C517.611 554.005 516.716 553.964 515.837 553.874C514.957 553.785 514.082 553.683 513.313 553.646C512.934 553.627 512.554 553.634 512.177 553.667C511.794 553.699 511.391 553.76 510.992 553.809C510.187 553.915 509.397 554.11 508.635 554.391C506.982 555.03 505.367 555.764 503.799 556.59C503.009 556.997 502.256 557.489 501.478 557.949C500.701 558.409 499.891 558.861 499.13 559.24C498.36 559.626 497.571 559.97 496.764 560.27C495.958 560.587 495.148 560.885 494.326 561.17C492.658 561.778 490.95 562.268 489.213 562.635L489.062 562.395Z" fill="#A4B5DD"/>
<path d="M522.244 518.791C521.483 517.256 525.35 513.641 528.065 511.105C529.857 509.436 530.919 508.748 532.963 506.55C534.108 505.32 535.18 504.023 536.171 502.666C538.703 499.165 539.126 497.219 540.392 495.066C542.798 490.958 546.608 489.012 552.124 486.207C557.889 483.268 559.477 484.025 562.929 480.972C564.472 479.608 566.226 477.626 567.15 478.102C567.749 478.407 567.749 479.612 567.655 480.634C566.698 491.288 557.698 502.072 557.698 502.072C554.734 505.622 553.106 507.576 550.097 509.501C547.235 511.337 546.209 511.166 540.156 514.215C535.454 516.58 535.389 517.028 532.894 517.928C528.896 519.377 523.05 520.411 522.244 518.791Z" fill="#DDE6F4"/>
<path d="M535.243 471.182C535.846 471.296 536.066 472.599 536.424 474.724C537.147 479.054 536.529 483.501 534.653 487.47C533.981 488.842 533.725 488.943 531.103 492.876C529.495 495.298 528.681 496.519 528.404 497.268C527.59 499.45 528.062 500.281 527.623 503.749C527.329 506.167 527.114 508.126 526.104 510.332C525.461 511.789 525.16 511.781 521.121 516.829C518.654 519.923 518.219 520.595 517.588 520.501C515.654 520.196 515.259 513.141 515.223 512.282C515.003 508.276 514.604 500.688 519.192 493.12C523.022 486.847 525.713 488.137 529.91 480.879C532.805 475.86 534.026 470.95 535.243 471.182Z" fill="#DDE6F4"/>
<path d="M535.153 478.933C535.024 480.847 534.497 482.713 533.606 484.412C533.173 485.271 532.665 486.089 532.088 486.859C531.518 487.636 530.849 488.335 530.097 488.939C529.365 489.525 528.636 490.018 527.932 490.575C527.231 491.142 526.593 491.78 526.026 492.481C524.911 493.904 524.073 495.523 523.555 497.256C523.266 498.107 523.055 498.994 522.766 499.869C522.477 500.745 522.2 501.567 521.96 502.402C521.726 503.218 521.541 504.047 521.406 504.885C521.28 505.727 521.158 506.55 521.105 507.368C521.052 508.186 521.007 509.094 520.942 510.039C520.877 510.983 520.755 511.903 520.6 512.823C520.531 513.283 520.433 513.739 520.331 514.183C520.229 514.626 520.111 515.095 519.993 515.547C519.753 516.454 519.484 517.35 519.155 518.233L518.866 518.197C518.588 516.375 518.415 514.539 518.349 512.697L518.153 510.01C518.068 509.074 518.03 508.133 518.039 507.193C518.074 506.199 518.217 505.212 518.467 504.25C518.71 503.301 519.024 502.371 519.407 501.469C520.151 499.74 521.069 498.091 522.147 496.548C523.209 494.988 524.288 493.486 525.281 491.923C525.79 491.145 526.254 490.323 526.771 489.521C527.281 488.727 527.835 487.963 528.432 487.233C529.002 486.541 529.556 485.914 530.114 485.259C530.671 484.603 531.209 483.911 531.734 483.223C532.788 481.835 533.769 480.374 534.913 478.831L535.153 478.933Z" fill="#A4B5DD"/>
<path d="M565.506 481.123C565.251 482.248 564.852 483.336 564.322 484.36C563.8 485.404 563.163 486.386 562.42 487.287C562.043 487.748 561.636 488.184 561.203 488.593C560.796 489.001 560.356 489.375 559.962 489.721C559.151 490.45 558.325 491.162 557.442 491.834C555.667 493.185 553.737 494.285 552.312 495.954C550.888 497.623 550.008 499.683 548.73 501.604C548.123 502.573 547.461 503.507 546.747 504.401C546.022 505.298 545.24 506.147 544.407 506.945C542.762 508.598 540.866 509.98 538.789 511.041C536.835 512.075 534.877 513.047 532.894 514.045C530.911 515.083 528.87 516.005 526.78 516.805L526.621 516.565C528.227 514.983 529.924 513.497 531.705 512.115C532.581 511.411 533.513 510.78 534.441 510.145C535.369 509.51 536.33 508.924 537.287 508.358C538.243 507.792 539.18 507.279 540.047 506.746C540.933 506.181 541.786 505.566 542.603 504.906C543.442 504.238 544.248 503.53 545.066 502.817C545.884 502.105 546.711 501.392 547.488 500.623C548.279 499.865 548.999 499.037 549.638 498.148C550.277 497.256 550.9 496.3 551.58 495.392C552.883 493.532 554.299 491.753 555.821 490.067C556.59 489.248 557.415 488.485 558.292 487.783C558.736 487.413 559.18 487.083 559.595 486.758C560.01 486.432 560.385 486.114 560.784 485.764C561.566 485.056 562.311 484.295 563.047 483.501C563.784 482.707 564.488 481.864 565.237 481.001L565.506 481.123Z" fill="#A4B5DD"/>
<path d="M516.671 528.566C517.257 525.537 523.722 524.544 525.538 524.259C529.047 523.639 532.662 524.082 535.918 525.529C537.266 526.16 538.984 527.552 542.42 530.337C545.444 532.791 545.371 532.93 547.977 535.079C552.581 538.869 554.913 540.738 556.757 541.833C558.199 542.688 561.048 544.251 562.074 546.808C562.339 547.471 562.396 547.943 562.16 548.245C561.683 548.859 560.206 548.416 558.435 547.899C558.435 547.899 555.259 547.003 551.933 546.128C549.77 545.473 547.529 545.105 545.269 545.033C542.249 545 541.886 545.68 539.045 545.558C537.137 545.456 535.256 545.056 533.472 544.373C530.468 543.185 528.949 541.406 526.38 538.804C518.861 531.163 516.276 530.548 516.671 528.566Z" fill="#DDE6F4"/>
<path d="M519.053 527.747C520.878 527.426 522.749 527.47 524.557 527.877C525.458 528.073 526.342 528.344 527.199 528.687C528.065 529.011 528.892 529.433 529.662 529.945C531.2 530.979 532.479 532.339 533.838 533.52C534.522 534.114 535.178 534.761 535.849 535.27C536.547 535.768 537.305 536.176 538.105 536.483C538.903 536.809 539.733 537.061 540.527 537.318C541.321 537.574 542.143 537.859 542.941 538.103C543.739 538.348 544.573 538.531 545.371 538.686C546.169 538.84 546.996 538.958 547.908 539.146C549.752 539.529 551.525 540.202 553.159 541.14C554.766 542.058 556.205 543.243 557.413 544.645L557.254 544.886C555.528 544.291 553.9 543.689 552.259 543.221C550.651 542.762 549.015 542.405 547.362 542.15C546.456 542.01 545.559 541.82 544.675 541.58C543.773 541.321 542.889 541.003 542.029 540.627C541.174 540.276 540.346 539.864 539.55 539.394C538.758 538.913 537.999 538.38 537.278 537.798C536.558 537.216 535.862 536.609 535.194 535.966C534.594 535.323 533.939 534.733 533.236 534.203C531.807 533.19 530.077 532.673 528.51 532.025C527.72 531.708 526.946 531.366 526.185 531.004C525.424 530.641 524.671 530.304 523.861 529.998C522.285 529.335 520.669 528.744 518.98 528.007L519.053 527.747Z" fill="#A4B5DD"/>
<path d="M436.682 639.689L403.703 606.71L415.033 588.314L451.699 572.857L470.54 591.697L455.082 628.364L436.682 639.689Z" fill="#B2C2E3"/>
<path opacity="0.47" d="M470.54 591.697L461.12 582.277L420.195 623.202L436.682 639.689L455.083 628.364L470.54 591.697Z" fill="url(#paint11_linear_2668_3773)"/>
<path d="M436.791 639.799L403.614 606.621L435.977 607.419L436.791 639.799Z" fill="url(#paint12_linear_2668_3773)"/>
<path d="M612.639 465.547L527.072 379.98L581.15 325.902L599.828 344.58L571.099 373.308C570.6 373.808 570.204 374.401 569.934 375.053C569.664 375.706 569.525 376.406 569.526 377.112C569.527 377.818 569.667 378.518 569.938 379.17C570.21 379.822 570.607 380.414 571.107 380.913L634.345 443.873L612.639 465.547Z" fill="#E7EBF6"/>
<path opacity="0.47" d="M635.624 445.233L612.721 468.136L524.337 379.753L581.065 323.024L601.176 343.135" stroke="url(#paint13_linear_2668_3773)" stroke-width="4.03" stroke-miterlimit="10"/>
<path opacity="0.47" d="M586.606 402.452L549.467 365.313L543.299 371.481L580.438 408.62L586.606 402.452Z" fill="url(#paint14_linear_2668_3773)"/>
<path opacity="0.47" d="M559.713 394.375L540.059 374.721L533.891 380.888L553.546 400.542L559.713 394.375Z" fill="url(#paint15_linear_2668_3773)"/>
<path opacity="0.47" d="M711.122 406.894L628.434 324.206C627.535 323.306 626.077 323.306 625.177 324.206L574.144 375.239C573.245 376.138 573.245 377.596 574.144 378.495L656.833 461.184C657.732 462.083 659.19 462.083 660.089 461.184L711.122 410.151C712.022 409.251 712.022 407.793 711.122 406.894Z" fill="url(#paint16_linear_2668_3773)"/>
<path d="M590.767 385.199C595.421 389.853 602.966 389.853 607.62 385.199C612.274 380.545 612.274 373 607.62 368.346C602.966 363.692 595.421 363.692 590.767 368.346C586.113 373 586.113 380.545 590.767 385.199Z" fill="#E7EBF6"/>
<path opacity="0.47" d="M590.767 385.199C595.421 389.853 602.966 389.853 607.62 385.199C612.274 380.545 612.274 373 607.62 368.346C602.966 363.692 595.421 363.692 590.767 368.346C586.113 373 586.113 380.545 590.767 385.199Z" stroke="url(#paint17_linear_2668_3773)" stroke-width="2.87857" stroke-miterlimit="10"/>
<path opacity="0.47" d="M594.17 381.796C596.944 384.571 601.442 384.571 604.217 381.796C606.991 379.022 606.991 374.523 604.217 371.749C601.442 368.975 596.944 368.975 594.17 371.749C591.395 374.524 591.395 379.022 594.17 381.796Z" stroke="url(#paint18_linear_2668_3773)" stroke-width="2.87857" stroke-miterlimit="10"/>
<path opacity="0.47" d="M611.797 389.384L617.345 394.933L625.919 393.451L641.441 408.973" stroke="url(#paint19_linear_2668_3773)" stroke-width="2.30286" stroke-miterlimit="10"/>
<path opacity="0.47" d="M658.368 362.232L626.195 330.06L620.028 336.227L652.2 368.399L658.368 362.232Z" fill="url(#paint20_linear_2668_3773)"/>
<path opacity="0.47" d="M637.346 358.218L617.691 338.563L611.524 344.731L631.178 364.385L637.346 358.218Z" fill="url(#paint21_linear_2668_3773)"/>
<path opacity="0.47" d="M651.004 399.403L638.697 387.097L632.53 393.264L644.836 405.57L651.004 399.403Z" fill="url(#paint22_linear_2668_3773)"/>
<path d="M702.888 406.751L677.318 381.182L631.199 427.301L656.768 452.87L702.888 406.751Z" fill="#E7EBF6"/>
<path d="M689.238 401.252L676.932 388.945L670.764 395.113L683.071 407.419L689.238 401.252Z" fill="#A8B9DF"/>
<path d="M702.888 406.751L677.318 381.182L631.199 427.301L656.768 452.87L702.888 406.751Z" stroke="#A8B9DF" stroke-width="2.30286" stroke-miterlimit="10"/>
<path d="M656.678 418.023L653.353 414.697L641.966 426.084L645.292 429.41L656.678 418.023Z" fill="#A8B9DF"/>
<path d="M662.992 420.437L659.666 417.111L646.248 430.529L649.574 433.855L662.992 420.437Z" fill="#A8B9DF"/>
<path d="M662.907 428.942L659.581 425.616L650.458 434.739L653.784 438.065L662.907 428.942Z" fill="#A8B9DF"/>
<path d="M669.367 430.713L666.041 427.387L654.573 438.854L657.899 442.18L669.367 430.713Z" fill="#A8B9DF"/>
<path d="M664.76 401.117L681.862 418.219" stroke="#A8B9DF" stroke-width="2.30286" stroke-miterlimit="10"/>
<path d="M661.214 404.662L678.316 421.764" stroke="#A8B9DF" stroke-width="2.30286" stroke-miterlimit="10"/>
<path opacity="0.47" d="M712.779 406.107L629.22 322.548C627.886 321.215 625.725 321.215 624.392 322.548L572.487 374.452C571.154 375.785 571.154 377.947 572.487 379.28L656.047 462.84C657.38 464.173 659.542 464.173 660.875 462.84L712.779 410.936C714.113 409.602 714.113 407.441 712.779 406.107Z" stroke="url(#paint23_linear_2668_3773)" stroke-width="4.03" stroke-miterlimit="10"/>
<path opacity="0.6" d="M575.602 400.364C588.631 413.393 609.755 413.393 622.784 400.364C635.813 387.335 635.813 366.211 622.784 353.182C609.755 340.153 588.631 340.153 575.602 353.182C562.573 366.211 562.573 387.335 575.602 400.364Z" fill="url(#paint24_radial_2668_3773)"/>
<path opacity="0.6" d="M583.842 392.125C592.32 400.603 606.066 400.603 614.545 392.125C623.023 383.646 623.023 369.9 614.545 361.422C606.066 352.943 592.32 352.943 583.842 361.422C575.364 369.9 575.364 383.646 583.842 392.125Z" fill="url(#paint25_radial_2668_3773)"/>
<path opacity="0.6" d="M590.307 385.659C595.215 390.567 603.172 390.568 608.08 385.659C612.988 380.751 612.988 372.794 608.08 367.886C603.172 362.978 595.215 362.978 590.307 367.886C585.399 372.794 585.398 380.751 590.307 385.659Z" fill="url(#paint26_radial_2668_3773)"/>
<path d="M594.443 381.524C597.066 384.148 601.32 384.148 603.944 381.524C606.568 378.9 606.568 374.646 603.944 372.022C601.32 369.398 597.066 369.398 594.443 372.022C591.819 374.646 591.819 378.9 594.443 381.524Z" fill="white"/>
<path d="M417.491 125.874L340.722 49.1049C340.506 48.889 340.384 48.5961 340.384 48.2907C340.384 47.9853 340.506 47.6925 340.722 47.4765L386.116 2.08176C386.332 1.86583 386.625 1.74451 386.931 1.74451C387.236 1.74451 387.529 1.86583 387.745 2.08176L433.587 47.9243C433.707 48.0446 433.799 48.1898 433.856 48.3495C433.913 48.5093 433.934 48.6796 433.917 48.8484L431.894 69.948C431.877 70.1168 431.898 70.2872 431.955 70.4469C432.012 70.6067 432.104 70.7518 432.224 70.8721L452.358 91.0068C452.574 91.2228 452.696 91.5156 452.696 91.821C452.696 92.1264 452.574 92.4193 452.358 92.6352L419.119 125.874C418.903 126.09 418.611 126.211 418.305 126.211C418 126.211 417.707 126.09 417.491 125.874Z" fill="#E7EBF6"/>
<path opacity="0.47" d="M451.841 118.685L411.356 78.1999C410.907 77.7503 410.177 77.7503 409.728 78.1999L405.885 82.0429C405.435 82.4925 405.435 83.2216 405.885 83.6712L446.37 124.156C446.82 124.606 447.549 124.606 447.998 124.156L451.841 120.314C452.291 119.864 452.291 119.135 451.841 118.685Z" fill="url(#paint27_linear_2668_3773)"/>
<path opacity="0.47" d="M422.446 108.43L401.786 87.7702C401.336 87.3206 400.607 87.3206 400.157 87.7702L396.315 91.6132C395.865 92.0628 395.865 92.7919 396.315 93.2415L416.974 113.901C417.424 114.351 418.153 114.351 418.603 113.901L422.446 110.058C422.895 109.609 422.895 108.88 422.446 108.43Z" fill="url(#paint28_linear_2668_3773)"/>
<path d="M373.037 67.5783L357.123 51.6651C356.908 51.4491 356.786 51.1563 356.786 50.8509C356.786 50.5455 356.908 50.2526 357.123 50.0367L369.336 37.8239C369.552 37.608 369.845 37.4867 370.15 37.4867C370.456 37.4867 370.749 37.608 370.965 37.8239L391.58 58.4391C391.796 58.655 391.917 58.9479 391.917 59.2532C391.917 59.5586 391.796 59.8515 391.58 60.0674L382.949 68.6978C382.825 68.8231 382.673 68.9181 382.505 68.9752C382.338 69.0324 382.16 69.0503 381.985 69.0275L373.68 67.9202C373.434 67.8788 373.208 67.7589 373.037 67.5783Z" stroke="#A8B9DF" stroke-width="2.30286" stroke-miterlimit="10"/>
<path d="M405.347 36.6439L388.746 20.0427C388.296 19.593 387.567 19.593 387.117 20.0427L383.275 23.8856C382.825 24.3353 382.825 25.0643 383.275 25.514L399.876 42.1152C400.325 42.5649 401.054 42.5649 401.504 42.1152L405.347 38.2723C405.797 37.8226 405.797 37.0935 405.347 36.6439Z" fill="#A8B9DF"/>
</g>
</g>
<defs>
<linearGradient id="paint0_linear_2668_3773" x1="295.967" y1="466.326" x2="434.264" y2="328.029" gradientUnits="userSpaceOnUse">
<stop stop-color="white" stop-opacity="0"/>
<stop offset="0.01" stop-color="#FCFDFE" stop-opacity="0.02"/>
<stop offset="0.14" stop-color="#D1DDEF" stop-opacity="0.27"/>
<stop offset="0.28" stop-color="#ACC2E1" stop-opacity="0.5"/>
<stop offset="0.43" stop-color="#8EACD6" stop-opacity="0.68"/>
<stop offset="0.57" stop-color="#769ACE" stop-opacity="0.82"/>
<stop offset="0.71" stop-color="#658EC8" stop-opacity="0.92"/>
<stop offset="0.85" stop-color="#5B86C4" stop-opacity="0.98"/>
<stop offset="1" stop-color="#5884C3"/>
</linearGradient>
<linearGradient id="paint1_linear_2668_3773" x1="nan" y1="nan" x2="nan" y2="nan" gradientUnits="userSpaceOnUse">
<stop stop-color="#4058A6"/>
<stop offset="0.25" stop-color="#415AA8" stop-opacity="0.97"/>
<stop offset="0.49" stop-color="#4562AD" stop-opacity="0.89"/>
<stop offset="0.72" stop-color="#4C6FB5" stop-opacity="0.74"/>
<stop offset="0.96" stop-color="#5680C0" stop-opacity="0.54"/>
<stop offset="1" stop-color="#5884C3" stop-opacity="0.5"/>
</linearGradient>
<linearGradient id="paint2_linear_2668_3773" x1="nan" y1="nan" x2="nan" y2="nan" gradientUnits="userSpaceOnUse">
<stop stop-color="#4058A6"/>
<stop offset="0.25" stop-color="#415AA8" stop-opacity="0.97"/>
<stop offset="0.49" stop-color="#4562AD" stop-opacity="0.89"/>
<stop offset="0.72" stop-color="#4C6FB5" stop-opacity="0.74"/>
<stop offset="0.96" stop-color="#5680C0" stop-opacity="0.54"/>
<stop offset="1" stop-color="#5884C3" stop-opacity="0.5"/>
</linearGradient>
<linearGradient id="paint3_linear_2668_3773" x1="nan" y1="nan" x2="nan" y2="nan" gradientUnits="userSpaceOnUse">
<stop stop-color="#4058A6"/>
<stop offset="0.25" stop-color="#415AA8" stop-opacity="0.97"/>
<stop offset="0.49" stop-color="#4562AD" stop-opacity="0.89"/>
<stop offset="0.72" stop-color="#4C6FB5" stop-opacity="0.74"/>
<stop offset="0.96" stop-color="#5680C0" stop-opacity="0.54"/>
<stop offset="1" stop-color="#5884C3" stop-opacity="0.5"/>
</linearGradient>
<linearGradient id="paint4_linear_2668_3773" x1="nan" y1="nan" x2="nan" y2="nan" gradientUnits="userSpaceOnUse">
<stop stop-color="#4058A6"/>
<stop offset="0.25" stop-color="#415AA8" stop-opacity="0.97"/>
<stop offset="0.49" stop-color="#4562AD" stop-opacity="0.89"/>
<stop offset="0.72" stop-color="#4C6FB5" stop-opacity="0.74"/>
<stop offset="0.96" stop-color="#5680C0" stop-opacity="0.54"/>
<stop offset="1" stop-color="#5884C3" stop-opacity="0.5"/>
</linearGradient>
<linearGradient id="paint5_linear_2668_3773" x1="nan" y1="nan" x2="nan" y2="nan" gradientUnits="userSpaceOnUse">
<stop stop-color="#4058A6"/>
<stop offset="0.25" stop-color="#415AA8" stop-opacity="0.97"/>
<stop offset="0.49" stop-color="#4562AD" stop-opacity="0.89"/>
<stop offset="0.72" stop-color="#4C6FB5" stop-opacity="0.74"/>
<stop offset="0.96" stop-color="#5680C0" stop-opacity="0.54"/>
<stop offset="1" stop-color="#5884C3" stop-opacity="0.5"/>
</linearGradient>
<linearGradient id="paint6_linear_2668_3773" x1="318.08" y1="355.246" x2="336.546" y2="373.712" gradientUnits="userSpaceOnUse">
<stop stop-color="#2433C4"/>
<stop offset="0.23" stop-color="#293AC5" stop-opacity="0.98"/>
<stop offset="0.47" stop-color="#3850C9" stop-opacity="0.93"/>
<stop offset="0.72" stop-color="#5275D0" stop-opacity="0.84"/>
<stop offset="0.97" stop-color="#75A8DA" stop-opacity="0.71"/>
<stop offset="1" stop-color="#79AEDB" stop-opacity="0.7"/>
</linearGradient>
<linearGradient id="paint7_linear_2668_3773" x1="347.496" y1="374.299" x2="365.962" y2="392.764" gradientUnits="userSpaceOnUse">
<stop stop-color="#2433C4"/>
<stop offset="0.23" stop-color="#293AC5" stop-opacity="0.98"/>
<stop offset="0.47" stop-color="#3850C9" stop-opacity="0.93"/>
<stop offset="0.72" stop-color="#5275D0" stop-opacity="0.84"/>
<stop offset="0.97" stop-color="#75A8DA" stop-opacity="0.71"/>
<stop offset="1" stop-color="#79AEDB" stop-opacity="0.7"/>
</linearGradient>
<linearGradient id="paint8_linear_2668_3773" x1="358.94" y1="409.581" x2="377.405" y2="428.047" gradientUnits="userSpaceOnUse">
<stop stop-color="#2433C4"/>
<stop offset="0.23" stop-color="#293AC5" stop-opacity="0.98"/>
<stop offset="0.47" stop-color="#3850C9" stop-opacity="0.93"/>
<stop offset="0.72" stop-color="#5275D0" stop-opacity="0.84"/>
<stop offset="0.97" stop-color="#75A8DA" stop-opacity="0.71"/>
<stop offset="1" stop-color="#79AEDB" stop-opacity="0.7"/>
</linearGradient>
<linearGradient id="paint9_linear_2668_3773" x1="388.311" y1="425.933" x2="406.777" y2="444.399" gradientUnits="userSpaceOnUse">
<stop stop-color="#2433C4"/>
<stop offset="0.23" stop-color="#293AC5" stop-opacity="0.98"/>
<stop offset="0.47" stop-color="#3850C9" stop-opacity="0.93"/>
<stop offset="0.72" stop-color="#5275D0" stop-opacity="0.84"/>
<stop offset="0.97" stop-color="#75A8DA" stop-opacity="0.71"/>
<stop offset="1" stop-color="#79AEDB" stop-opacity="0.7"/>
</linearGradient>
<linearGradient id="paint10_linear_2668_3773" x1="411.876" y1="252.983" x2="489.703" y2="288.977" gradientUnits="userSpaceOnUse">
<stop stop-color="#2433C4"/>
<stop offset="0.23" stop-color="#293AC5" stop-opacity="0.98"/>
<stop offset="0.47" stop-color="#3850C9" stop-opacity="0.93"/>
<stop offset="0.72" stop-color="#5275D0" stop-opacity="0.84"/>
<stop offset="0.97" stop-color="#75A8DA" stop-opacity="0.71"/>
<stop offset="1" stop-color="#79AEDB" stop-opacity="0.7"/>
</linearGradient>
<linearGradient id="paint11_linear_2668_3773" x1="440.656" y1="602.742" x2="460.68" y2="622.767" gradientUnits="userSpaceOnUse">
<stop stop-color="#5884C3"/>
<stop offset="0.15" stop-color="#5B86C4" stop-opacity="0.98"/>
<stop offset="0.29" stop-color="#658EC8" stop-opacity="0.92"/>
<stop offset="0.43" stop-color="#769ACE" stop-opacity="0.82"/>
<stop offset="0.57" stop-color="#8EACD6" stop-opacity="0.68"/>
<stop offset="0.72" stop-color="#ACC2E1" stop-opacity="0.5"/>
<stop offset="0.86" stop-color="#D1DDEF" stop-opacity="0.27"/>
<stop offset="0.99" stop-color="#FCFDFE" stop-opacity="0.02"/>
<stop offset="1" stop-color="white" stop-opacity="0"/>
</linearGradient>
<linearGradient id="paint12_linear_2668_3773" x1="405.82" y1="637.592" x2="438.998" y2="604.414" gradientUnits="userSpaceOnUse">
<stop stop-color="white" stop-opacity="0.6"/>
<stop offset="0.02" stop-color="#F8FAFD" stop-opacity="0.62"/>
<stop offset="0.26" stop-color="#B2C6E3" stop-opacity="0.78"/>
<stop offset="0.5" stop-color="#80A1D1" stop-opacity="0.9"/>
<stop offset="0.75" stop-color="#628BC7" stop-opacity="0.98"/>
<stop offset="1" stop-color="#5884C3"/>
</linearGradient>
<linearGradient id="paint13_linear_2668_3773" x1="551.279" y1="349.962" x2="642.512" y2="441.195" gradientUnits="userSpaceOnUse">
<stop stop-color="#4058A6"/>
<stop offset="0.25" stop-color="#415AA8" stop-opacity="0.97"/>
<stop offset="0.49" stop-color="#4562AD" stop-opacity="0.89"/>
<stop offset="0.72" stop-color="#4C6FB5" stop-opacity="0.74"/>
<stop offset="0.96" stop-color="#5680C0" stop-opacity="0.54"/>
<stop offset="1" stop-color="#5884C3" stop-opacity="0.5"/>
</linearGradient>
<linearGradient id="paint14_linear_2668_3773" x1="546.381" y1="368.399" x2="583.52" y2="405.538" gradientUnits="userSpaceOnUse">
<stop stop-color="#4058A6"/>
<stop offset="0.25" stop-color="#415AA8" stop-opacity="0.97"/>
<stop offset="0.49" stop-color="#4562AD" stop-opacity="0.89"/>
<stop offset="0.72" stop-color="#4C6FB5" stop-opacity="0.74"/>
<stop offset="0.96" stop-color="#5680C0" stop-opacity="0.54"/>
<stop offset="1" stop-color="#5884C3" stop-opacity="0.5"/>
</linearGradient>
<linearGradient id="paint15_linear_2668_3773" x1="536.977" y1="377.802" x2="556.631" y2="397.457" gradientUnits="userSpaceOnUse">
<stop stop-color="#4058A6"/>
<stop offset="0.25" stop-color="#415AA8" stop-opacity="0.97"/>
<stop offset="0.49" stop-color="#4562AD" stop-opacity="0.89"/>
<stop offset="0.72" stop-color="#4C6FB5" stop-opacity="0.74"/>
<stop offset="0.96" stop-color="#5680C0" stop-opacity="0.54"/>
<stop offset="1" stop-color="#5884C3" stop-opacity="0.5"/>
</linearGradient>
<linearGradient id="paint16_linear_2668_3773" x1="599.661" y1="349.722" x2="685.606" y2="435.667" gradientUnits="userSpaceOnUse">
<stop stop-color="#5884C3"/>
<stop offset="0.15" stop-color="#5B86C4" stop-opacity="0.98"/>
<stop offset="0.29" stop-color="#658EC8" stop-opacity="0.92"/>
<stop offset="0.43" stop-color="#769ACE" stop-opacity="0.82"/>
<stop offset="0.57" stop-color="#8EACD6" stop-opacity="0.68"/>
<stop offset="0.72" stop-color="#ACC2E1" stop-opacity="0.5"/>
<stop offset="0.86" stop-color="#D1DDEF" stop-opacity="0.27"/>
<stop offset="0.99" stop-color="#FCFDFE" stop-opacity="0.02"/>
<stop offset="1" stop-color="white" stop-opacity="0"/>
</linearGradient>
<linearGradient id="paint17_linear_2668_3773" x1="589.745" y1="367.324" x2="608.638" y2="386.217" gradientUnits="userSpaceOnUse">
<stop stop-color="#4058A6"/>
<stop offset="0.25" stop-color="#415AA8" stop-opacity="0.97"/>
<stop offset="0.49" stop-color="#4562AD" stop-opacity="0.89"/>
<stop offset="0.72" stop-color="#4C6FB5" stop-opacity="0.74"/>
<stop offset="0.96" stop-color="#5680C0" stop-opacity="0.54"/>
<stop offset="1" stop-color="#5884C3" stop-opacity="0.5"/>
</linearGradient>
<linearGradient id="paint18_linear_2668_3773" x1="593.148" y1="370.727" x2="605.235" y2="382.814" gradientUnits="userSpaceOnUse">
<stop stop-color="#4058A6"/>
<stop offset="0.25" stop-color="#415AA8" stop-opacity="0.97"/>
<stop offset="0.49" stop-color="#4562AD" stop-opacity="0.89"/>
<stop offset="0.72" stop-color="#4C6FB5" stop-opacity="0.74"/>
<stop offset="0.96" stop-color="#5680C0" stop-opacity="0.54"/>
<stop offset="1" stop-color="#5884C3" stop-opacity="0.5"/>
</linearGradient>
<linearGradient id="paint19_linear_2668_3773" x1="614.312" y1="386.868" x2="638.925" y2="411.481" gradientUnits="userSpaceOnUse">
<stop stop-color="#4058A6"/>
<stop offset="0.25" stop-color="#415AA8" stop-opacity="0.97"/>
<stop offset="0.49" stop-color="#4562AD" stop-opacity="0.89"/>
<stop offset="0.72" stop-color="#4C6FB5" stop-opacity="0.74"/>
<stop offset="0.96" stop-color="#5680C0" stop-opacity="0.54"/>
<stop offset="1" stop-color="#5884C3" stop-opacity="0.5"/>
</linearGradient>
<linearGradient id="paint20_linear_2668_3773" x1="623.11" y1="333.145" x2="655.286" y2="365.322" gradientUnits="userSpaceOnUse">
<stop stop-color="#5884C3" stop-opacity="0.5"/>
<stop offset="0.04" stop-color="#5680C0" stop-opacity="0.54"/>
<stop offset="0.28" stop-color="#4C6FB5" stop-opacity="0.74"/>
<stop offset="0.51" stop-color="#4562AD" stop-opacity="0.89"/>
<stop offset="0.75" stop-color="#415AA8" stop-opacity="0.97"/>
<stop offset="1" stop-color="#4058A6"/>
</linearGradient>
<linearGradient id="paint21_linear_2668_3773" x1="614.606" y1="341.649" x2="634.26" y2="361.304" gradientUnits="userSpaceOnUse">
<stop stop-color="#5884C3" stop-opacity="0.5"/>
<stop offset="0.04" stop-color="#5680C0" stop-opacity="0.54"/>
<stop offset="0.28" stop-color="#4C6FB5" stop-opacity="0.74"/>
<stop offset="0.51" stop-color="#4562AD" stop-opacity="0.89"/>
<stop offset="0.75" stop-color="#415AA8" stop-opacity="0.97"/>
<stop offset="1" stop-color="#4058A6"/>
</linearGradient>
<linearGradient id="paint22_linear_2668_3773" x1="635.616" y1="390.178" x2="647.922" y2="402.485" gradientUnits="userSpaceOnUse">
<stop stop-color="#5884C3" stop-opacity="0.5"/>
<stop offset="0.04" stop-color="#5680C0" stop-opacity="0.54"/>
<stop offset="0.28" stop-color="#4C6FB5" stop-opacity="0.74"/>
<stop offset="0.51" stop-color="#4562AD" stop-opacity="0.89"/>
<stop offset="0.75" stop-color="#415AA8" stop-opacity="0.97"/>
<stop offset="1" stop-color="#4058A6"/>
</linearGradient>
<linearGradient id="paint23_linear_2668_3773" x1="597.015" y1="347.075" x2="688.252" y2="438.312" gradientUnits="userSpaceOnUse">
<stop stop-color="#4058A6"/>
<stop offset="0.25" stop-color="#415AA8" stop-opacity="0.97"/>
<stop offset="0.49" stop-color="#4562AD" stop-opacity="0.89"/>
<stop offset="0.72" stop-color="#4C6FB5" stop-opacity="0.74"/>
<stop offset="0.96" stop-color="#5680C0" stop-opacity="0.54"/>
<stop offset="1" stop-color="#5884C3" stop-opacity="0.5"/>
</linearGradient>
<radialGradient id="paint24_radial_2668_3773" cx="0" cy="0" r="1" gradientUnits="userSpaceOnUse" gradientTransform="translate(599.189 376.769) rotate(45) scale(33.3626 33.3626)">
<stop stop-color="white"/>
<stop offset="0.13" stop-color="white" stop-opacity="0.98"/>
<stop offset="0.26" stop-color="white" stop-opacity="0.94"/>
<stop offset="0.38" stop-color="white" stop-opacity="0.86"/>
<stop offset="0.5" stop-color="white" stop-opacity="0.75"/>
<stop offset="0.63" stop-color="white" stop-opacity="0.61"/>
<stop offset="0.75" stop-color="white" stop-opacity="0.44"/>
<stop offset="0.87" stop-color="white" stop-opacity="0.24"/>
<stop offset="0.99" stop-color="white" stop-opacity="0.01"/>
<stop offset="1" stop-color="white" stop-opacity="0"/>
</radialGradient>
<radialGradient id="paint25_radial_2668_3773" cx="0" cy="0" r="1" gradientUnits="userSpaceOnUse" gradientTransform="translate(599.189 376.769) rotate(45) scale(21.7102 21.7102)">
<stop stop-color="white"/>
<stop offset="0.13" stop-color="white" stop-opacity="0.98"/>
<stop offset="0.26" stop-color="white" stop-opacity="0.94"/>
<stop offset="0.38" stop-color="white" stop-opacity="0.86"/>
<stop offset="0.5" stop-color="white" stop-opacity="0.75"/>
<stop offset="0.63" stop-color="white" stop-opacity="0.61"/>
<stop offset="0.75" stop-color="white" stop-opacity="0.44"/>
<stop offset="0.87" stop-color="white" stop-opacity="0.24"/>
<stop offset="0.99" stop-color="white" stop-opacity="0.01"/>
<stop offset="1" stop-color="white" stop-opacity="0"/>
</radialGradient>
<radialGradient id="paint26_radial_2668_3773" cx="0" cy="0" r="1" gradientUnits="userSpaceOnUse" gradientTransform="translate(599.189 376.769) rotate(45) scale(12.5679 12.5678)">
<stop stop-color="white"/>
<stop offset="0.13" stop-color="white" stop-opacity="0.98"/>
<stop offset="0.26" stop-color="white" stop-opacity="0.94"/>
<stop offset="0.38" stop-color="white" stop-opacity="0.86"/>
<stop offset="0.5" stop-color="white" stop-opacity="0.75"/>
<stop offset="0.63" stop-color="white" stop-opacity="0.61"/>
<stop offset="0.75" stop-color="white" stop-opacity="0.44"/>
<stop offset="0.87" stop-color="white" stop-opacity="0.24"/>
<stop offset="0.99" stop-color="white" stop-opacity="0.01"/>
<stop offset="1" stop-color="white" stop-opacity="0"/>
</radialGradient>
<linearGradient id="paint27_linear_2668_3773" x1="407.806" y1="80.1214" x2="449.92" y2="122.235" gradientUnits="userSpaceOnUse">
<stop stop-color="#5884C3"/>
<stop offset="0.15" stop-color="#5B86C4" stop-opacity="0.98"/>
<stop offset="0.29" stop-color="#658EC8" stop-opacity="0.92"/>
<stop offset="0.43" stop-color="#769ACE" stop-opacity="0.82"/>
<stop offset="0.57" stop-color="#8EACD6" stop-opacity="0.68"/>
<stop offset="0.72" stop-color="#ACC2E1" stop-opacity="0.5"/>
<stop offset="0.86" stop-color="#D1DDEF" stop-opacity="0.27"/>
<stop offset="0.99" stop-color="#FCFDFE" stop-opacity="0.02"/>
<stop offset="1" stop-color="white" stop-opacity="0"/>
</linearGradient>
<linearGradient id="paint28_linear_2668_3773" x1="398.236" y1="89.6917" x2="420.524" y2="111.98" gradientUnits="userSpaceOnUse">
<stop stop-color="#5884C3"/>
<stop offset="0.15" stop-color="#5B86C4" stop-opacity="0.98"/>
<stop offset="0.29" stop-color="#658EC8" stop-opacity="0.92"/>
<stop offset="0.43" stop-color="#769ACE" stop-opacity="0.82"/>
<stop offset="0.57" stop-color="#8EACD6" stop-opacity="0.68"/>
<stop offset="0.72" stop-color="#ACC2E1" stop-opacity="0.5"/>
<stop offset="0.86" stop-color="#D1DDEF" stop-opacity="0.27"/>
<stop offset="0.99" stop-color="#FCFDFE" stop-opacity="0.02"/>
<stop offset="1" stop-color="white" stop-opacity="0"/>
</linearGradient>
<clipPath id="clip0_2668_3773">
<rect width="806" height="646" fill="white"/>
</clipPath>
<clipPath id="clip1_2668_3773">
<rect width="806" height="575.714" fill="white" transform="translate(319.582 -179.652) rotate(45)"/>
</clipPath>
</defs>
</svg>
