<svg width="806" height="646" viewBox="0 0 806 646" fill="none" xmlns="http://www.w3.org/2000/svg">
<g clip-path="url(#clip0_2668_3328)">
<g clip-path="url(#clip1_2668_3328)">
<path fill-rule="evenodd" clip-rule="evenodd" d="M461.835 274.056L455.913 293.561L508.376 256.347L443.236 238.92L453.428 251.444L408.194 256.521L342.69 107.56C342.066 106.144 341.168 104.865 340.047 103.798C338.926 102.731 337.605 101.896 336.16 101.342C334.715 100.788 333.175 100.526 331.628 100.57C330.081 100.615 328.558 100.965 327.148 101.602L258.491 132.642L234.462 110.913C232.84 109.447 230.841 108.464 228.69 108.075C226.54 107.685 224.323 107.905 222.29 108.708L149.587 137.52C143.583 139.9 140.637 146.708 143.019 152.714C145.401 158.721 152.217 161.669 158.221 159.289L224.157 133.157L248.462 155.142C250.155 156.67 252.255 157.672 254.508 158.026C256.761 158.379 259.067 158.069 261.146 157.132L326.021 127.809L390.23 273.826C391.235 276.111 392.944 278.015 395.107 279.261C397.271 280.506 399.776 281.028 402.257 280.75L461.835 274.056Z" fill="#EEEEEE"/>
<path fill-rule="evenodd" clip-rule="evenodd" d="M75.515 298.442C69.5607 264.835 60.0473 227.43 74.1182 195.049C85.465 168.928 109.714 150.872 137.226 166.055C154.016 175.321 162.578 194.068 173.12 209.179C188.016 230.531 205.976 248.148 231.269 256.163C259.179 265.009 285.481 258.151 312.718 250.747C330.421 245.938 351.891 239.077 367.824 252.005C406.306 283.229 364.825 355.079 429.266 375.43C487.79 393.909 527.344 330.583 571.724 305.379C599.722 289.469 634.128 291.236 652.293 320.9C659.986 333.472 663.571 347.974 663.523 362.662C663.479 373.943 661.792 385.255 658.498 396.055C634.961 473.196 557.18 464.11 515.849 511.201C494.509 535.526 514.381 576.838 492.472 593.674C467.507 612.878 424.26 600.194 403.397 626.623L75.515 298.442Z" fill="#EEEEEE"/>
<path fill-rule="evenodd" clip-rule="evenodd" d="M565.386 549.837L573.617 533.699C573.617 533.699 492.79 482.89 447.001 490.184C397.769 498.027 370.875 537.491 386.982 578.257C403.097 619.046 456.102 645.758 505.366 637.91L513.583 621.738L493.571 608.056C464.217 612.732 432.636 596.816 423.035 572.514C413.437 548.223 429.463 524.712 458.796 520.039C467.742 518.614 476.897 519.102 485.57 521.155C505.357 525.84 522.658 538.685 529.333 555.58L565.386 549.837Z" fill="#4B7686"/>
<mask id="mask0_2668_3328" style="mask-type:luminance" maskUnits="userSpaceOnUse" x="382" y="489" width="192" height="151">
<path d="M565.386 549.836L573.617 533.698C573.617 533.698 492.79 482.889 447.001 490.183C397.769 498.026 370.875 537.49 386.982 578.256C403.097 619.045 456.102 645.757 505.366 637.909L513.583 621.737L493.571 608.055C464.217 612.731 432.636 596.815 423.035 572.513C413.437 548.222 429.463 524.711 458.796 520.038C467.742 518.613 476.897 519.101 485.57 521.154C505.357 525.839 522.658 538.684 529.333 555.579L565.386 549.836Z" fill="white"/>
</mask>
<g mask="url(#mask0_2668_3328)">
<path fill-rule="evenodd" clip-rule="evenodd" d="M490.581 464.414L440.434 515.472L434.266 536.039L534.754 564.559L581.023 543.988L577.613 497.674L490.581 464.414Z" fill="#85B1C2"/>
</g>
<path fill-rule="evenodd" clip-rule="evenodd" d="M573.602 533.661C557.486 492.872 504.482 466.16 455.216 474.008C405.985 481.851 379.091 521.315 395.197 562.081C411.312 602.869 464.317 629.582 513.581 621.734L501.786 591.879C472.432 596.555 440.851 580.64 431.25 556.337C421.653 532.046 437.679 508.535 467.011 503.863C496.364 499.187 527.947 515.102 537.548 539.404L573.602 533.661Z" fill="#6993A4"/>
<mask id="mask1_2668_3328" style="mask-type:luminance" maskUnits="userSpaceOnUse" x="390" y="472" width="184" height="152">
<path d="M573.602 533.661C557.486 492.872 504.482 466.16 455.216 474.008C405.985 481.851 379.091 521.315 395.197 562.081C411.312 602.869 464.317 629.582 513.581 621.734L501.786 591.879C472.432 596.555 440.851 580.64 431.25 556.337C421.653 532.046 437.679 508.535 467.011 503.863C496.364 499.187 527.947 515.102 537.548 539.404L573.602 533.661Z" fill="white"/>
</mask>
<g mask="url(#mask1_2668_3328)">
<path fill-rule="evenodd" clip-rule="evenodd" d="M398.331 476.316L443.317 518.972L536.467 554.555L581.022 543.987L582.586 448.818L398.331 476.316Z" fill="#A6D2E4"/>
</g>
<path fill-rule="evenodd" clip-rule="evenodd" d="M541.703 640.066C571.844 627.331 587.939 600.833 583.107 571.913L513.35 556.275L506.812 567.632C507.594 572.321 503.361 581.424 498.469 583.485L541.703 640.066Z" fill="#001320"/>
<path fill-rule="evenodd" clip-rule="evenodd" d="M549.917 623.889C580.059 611.154 596.154 584.657 591.322 555.737L513.405 556.261C514.187 560.95 511.575 565.248 506.684 567.309L549.917 623.889Z" fill="#023341"/>
<path fill-rule="evenodd" clip-rule="evenodd" d="M192.781 187.856C187.659 194.787 113.745 170.434 79.9922 224.768C54.1127 266.429 90.515 356.23 174.901 348.262C221.501 343.873 238.319 275.79 254.028 263.436C258.893 259.613 262.148 273.938 269.178 274.169C278.034 274.46 280.936 262.028 279.78 256.746C277.195 244.906 271.17 233.375 265.268 222.903C255.181 205.006 243.639 187.209 226.444 175.344C219.696 170.687 206.68 163.577 198.095 164.733C188.507 166.022 197.518 181.443 192.781 187.856Z" fill="#6993A4"/>
<mask id="mask2_2668_3328" style="mask-type:luminance" maskUnits="userSpaceOnUse" x="71" y="164" width="210" height="185">
<path d="M192.781 187.855C187.659 194.786 113.745 170.433 79.9922 224.767C54.1127 266.428 90.515 356.229 174.901 348.261C221.501 343.872 238.319 275.789 254.028 263.435C258.893 259.612 262.148 273.937 269.178 274.168C278.034 274.459 280.936 262.027 279.78 256.745C277.195 244.905 271.17 233.374 265.268 222.902C255.181 205.005 243.639 187.208 226.444 175.343C219.696 170.686 206.68 163.576 198.095 164.732C188.507 166.021 197.518 181.442 192.781 187.855Z" fill="white"/>
</mask>
<g mask="url(#mask2_2668_3328)">
<path fill-rule="evenodd" clip-rule="evenodd" d="M219.92 166.842C215.627 163.546 208.519 165.309 207.584 169.738C206.698 173.98 208.859 179.395 210.713 183.808C220.286 206.552 238.328 229.475 256.534 246.533C262.415 252.043 273.507 262.385 280.65 259.148C287.699 255.959 284.374 242.55 281.842 235.361C281.158 233.413 280.372 231.475 279.514 229.566C268.09 204.203 243.987 180.632 219.92 166.842Z" fill="#023341"/>
<path fill-rule="evenodd" clip-rule="evenodd" d="M264.603 275.32C256.407 267.103 243.105 258.75 234.805 250.616C229.333 245.25 221.318 240.752 216.692 234.643C213.946 231.015 210.682 228.38 208.232 224.545C206.048 221.125 204.315 217.498 202.701 213.774C202.174 212.557 201.352 209.83 199.954 209.244C198.749 208.744 198.536 213.34 198.532 213.817C198.417 218.837 200.305 223.738 202.686 228.096C206.255 234.628 211.82 240.056 217.153 245.155C224.625 252.297 239.741 257.423 237.817 268.507C237.543 270.113 235.594 271.708 234.645 273.006C231.712 277.026 197.293 332.763 135.739 315.792C126.16 313.145 116.545 309.038 109.185 302.22C103.478 296.927 99.3305 290.158 94.8063 283.834C72.6845 252.867 90.0507 213.384 94.8788 208.811C134.656 171.126 91.8046 196.898 89.7442 198.109C80.8242 203.376 74.4521 223.363 68.1888 231.528C62.3669 239.113 58.0022 247.597 55.7505 256.905C47.2629 292.093 75.9622 329.881 106.603 344.05C115.572 348.192 154.811 375.377 164.73 375.29C196.752 374.998 250.081 302.019 264.603 275.32Z" fill="#4B7686"/>
</g>
<path d="M159.286 272.714C159.848 270.719 159.743 268.975 158.965 267.482C158.194 265.991 156.621 264.373 154.245 262.627C151.876 260.883 149.867 259.246 148.223 257.72C146.573 256.191 145.243 254.596 144.227 252.93C143.218 251.277 142.559 249.436 142.288 247.518C142.005 245.574 142.203 243.41 142.874 241.024C144.032 236.911 146.296 233.911 149.666 232.023C153.035 230.135 156.954 229.584 161.438 230.373L163.637 222.561L169.475 224.205L167.244 232.126C171.385 233.949 174.252 236.693 175.844 240.359C177.436 244.026 177.568 248.233 176.231 252.978L165.68 250.007C166.502 247.086 166.511 244.732 165.72 242.946C164.922 241.158 163.511 239.98 161.495 239.412C159.499 238.85 157.793 238.981 156.378 239.803C154.963 240.627 153.977 242.036 153.415 244.032C152.895 245.882 153.008 247.516 153.769 248.939C154.523 250.36 156.19 252.063 158.77 254.051C161.35 256.038 163.43 257.813 165.013 259.374C166.595 260.936 167.846 262.549 168.774 264.216C169.685 265.848 170.264 267.644 170.476 269.502C170.688 271.361 170.482 273.398 169.858 275.612C168.693 279.75 166.453 282.744 163.152 284.599C159.844 286.452 155.86 286.971 151.206 286.16L149.161 293.425L143.357 291.791L145.392 284.562C140.55 282.621 137.186 279.763 135.294 275.987C133.402 272.209 133.159 267.827 134.563 262.838L145.115 265.809C144.3 268.704 144.362 271.119 145.303 273.052C146.244 274.985 148.002 276.314 150.583 277.041C152.722 277.643 154.571 277.553 156.136 276.772C157.695 275.99 158.745 274.637 159.286 272.714Z" fill="white"/>
<path fill-rule="evenodd" clip-rule="evenodd" d="M247.2 262.141C244.053 263.347 241.09 265.033 238.793 267.542C232.195 274.736 233.467 285.475 236.756 293.692C239.254 299.938 243.257 306.592 246.221 313.474C241.636 315.663 236.475 316.957 230.997 318.581C227.171 319.716 222.101 321.201 218.191 323.77C215.189 325.74 212.84 328.328 211.868 331.707C210.752 335.543 211.722 339.192 213.871 342.305C216.796 346.518 221.989 349.674 226.344 350.742C237.521 353.498 250.224 347.519 253.847 336.116C256.031 329.262 255.074 322.43 252.744 315.762C256.446 313.362 259.721 310.173 262.466 305.609C263.209 304.368 262.806 302.757 261.565 302.012C260.324 301.267 258.714 301.672 257.971 302.913C255.912 306.347 253.487 308.862 250.773 310.806C247.857 304.185 244.031 297.771 241.614 291.738C239.023 285.261 237.452 276.755 242.651 271.075C245.26 268.226 249.034 266.863 252.68 265.883C253.273 265.714 254.128 265.704 254.902 265.597C255.84 265.479 256.699 265.248 257.346 264.912C258.447 264.335 258.663 263.519 258.76 263.078C258.957 262.149 258.782 261.21 257.809 260.444C257.609 260.284 257.324 260.103 256.925 259.972C256.627 259.876 255.721 259.817 255.341 259.756C254.651 259.638 253.997 259.427 253.345 259.187C251.07 258.345 248.909 257.176 246.879 255.884C240.362 251.728 234.385 246.754 228.884 241.359C220.085 232.73 199.872 206.253 193.008 192.897C192.344 191.605 191.793 190.149 191.43 189.081C192.369 188.978 193.227 188.369 193.593 187.425C194.122 186.081 193.456 184.559 192.109 184.031C189.225 182.907 187.473 183.737 186.59 184.791C185.836 185.709 185.377 187.453 186.072 189.908C189.086 200.524 214.806 234.892 225.212 245.098C230.977 250.753 237.238 255.952 244.06 260.3C245.079 260.949 246.128 261.57 247.2 262.141ZM248.084 318.314C243.348 320.5 238.092 321.943 232.483 323.603C229.614 324.458 225.947 325.487 222.772 327.156C220.092 328.559 217.709 330.379 216.903 333.165C216.07 336.034 217.393 338.665 219.382 340.782C221.647 343.204 224.847 344.974 227.596 345.659C236.202 347.778 246.065 343.312 248.856 334.529C250.598 329.069 249.852 323.636 248.084 318.314Z" fill="#023341"/>
<path fill-rule="evenodd" clip-rule="evenodd" d="M188.884 229.177C172.116 211.471 144.117 210.703 126.409 227.474C108.699 244.246 107.945 272.243 124.713 289.949C141.481 307.655 169.47 308.416 187.181 291.644C204.889 274.873 205.652 246.883 188.884 229.177ZM186.981 230.978C202.76 247.639 202.037 273.964 185.378 289.74C168.721 305.516 142.394 304.807 126.616 288.147C110.838 271.486 111.554 245.152 128.212 229.377C144.87 213.601 171.203 214.318 186.981 230.978Z" fill="white"/>
<path fill-rule="evenodd" clip-rule="evenodd" d="M238.175 213.681C242.619 209.521 246.069 204.162 249.344 199.08C258.053 185.541 264.137 171.215 263.644 154.856C263.404 146.91 261.51 137.386 255.48 131.663C252.625 128.951 248.145 126.962 244.747 129.933C238.664 135.235 239.793 146.721 240.428 153.784C241.976 171.043 250.634 198.454 238.175 213.681Z" fill="#6993A4"/>
<mask id="mask3_2668_3328" style="mask-type:luminance" maskUnits="userSpaceOnUse" x="238" y="128" width="26" height="86">
<path d="M238.175 213.682C242.619 209.522 246.069 204.163 249.344 199.081C258.053 185.542 264.137 171.216 263.644 154.857C263.404 146.911 261.51 137.387 255.48 131.664C252.625 128.952 248.145 126.963 244.747 129.934C238.664 135.236 239.793 146.722 240.428 153.785C241.976 171.044 250.634 198.455 238.175 213.682Z" fill="white"/>
</mask>
<g mask="url(#mask3_2668_3328)">
<path fill-rule="evenodd" clip-rule="evenodd" d="M255.894 125.546C253.052 126.406 250.797 128.811 248.958 131.02C247.294 133.006 245.723 135.177 244.781 137.606C241.39 146.396 244.951 156.318 249.421 164.042C251.44 167.532 255.118 172.77 259.627 173.163C262.729 173.43 263.451 170.863 265.346 169.182C265.848 168.739 266.305 169.054 266.525 169.6C267.735 172.539 265.976 177.298 265.116 180.084C262.503 188.469 257.585 196.425 251.634 202.853C249.539 205.117 246.637 208.312 243.3 208.465C239.112 208.66 237.628 202.658 236.886 199.589C236.674 198.696 236.48 197.79 236.3 196.885C236.09 195.841 235.897 194.784 235.717 193.743C235.429 192.108 235.202 190.465 234.982 188.83C233.612 178.855 224.547 133.206 229.068 122.612C233.792 111.557 246.954 120.136 255.894 125.546Z" fill="#477282"/>
</g>
<path fill-rule="evenodd" clip-rule="evenodd" d="M241.096 217.303C246.126 213.875 252.109 211.679 257.784 209.593C272.898 204.051 288.208 201.243 304.064 205.297C311.765 207.268 320.646 211.195 324.914 218.33C326.936 221.709 327.899 226.515 324.258 229.182C317.755 233.959 306.793 230.35 300.039 228.187C283.534 222.907 258.676 208.471 241.096 217.303Z" fill="#6993A4"/>
<mask id="mask4_2668_3328" style="mask-type:luminance" maskUnits="userSpaceOnUse" x="241" y="203" width="86" height="29">
<path d="M241.096 217.303C246.126 213.875 252.109 211.679 257.784 209.593C272.898 204.051 288.208 201.243 304.064 205.297C311.765 207.268 320.646 211.195 324.914 218.33C326.936 221.709 327.899 226.515 324.258 229.182C317.755 233.959 306.793 230.35 300.039 228.187C283.534 222.907 258.676 208.471 241.096 217.303Z" fill="white"/>
</mask>
<g mask="url(#mask4_2668_3328)">
<path fill-rule="evenodd" clip-rule="evenodd" d="M330.974 219.262C329.514 221.847 326.675 223.522 324.117 224.835C321.815 226.025 319.354 227.083 316.778 227.472C307.459 228.861 298.554 223.219 291.994 217.17C289.029 214.437 284.72 209.704 285.322 205.218C285.738 202.133 288.401 201.989 290.455 200.507C290.998 200.113 290.79 199.599 290.305 199.265C287.701 197.442 282.673 198.119 279.767 198.35C271.014 199.068 262.175 202.13 254.603 206.533C251.936 208.083 248.184 210.217 247.306 213.44C246.201 217.484 251.734 220.244 254.567 221.638C255.392 222.04 256.234 222.427 257.077 222.8C258.05 223.233 259.04 223.653 260.016 224.056C261.549 224.694 263.103 225.274 264.651 225.846C274.085 229.362 316.652 248.178 327.977 246.08C339.797 243.885 334.301 229.167 330.974 219.262Z" fill="#477282"/>
</g>
<path fill-rule="evenodd" clip-rule="evenodd" d="M239.413 210.375C248.525 203.468 258.572 196.339 266.957 187.939C274.888 179.978 281.335 170.875 283.686 159.563C286.244 147.305 283.871 134.65 283.009 122.303C282.054 108.557 282.866 95.2005 292.042 82.9642C294.8 79.2662 298.152 76.0256 302.014 73.5041C306.134 70.8202 310.83 69.1341 315.632 68.0706C317.944 67.5567 320.24 69.026 320.75 71.3394C321.26 73.6527 319.798 75.9509 317.479 76.4549C313.686 77.2975 309.957 78.5851 306.695 80.7013C303.674 82.67 301.071 85.2211 298.911 88.1087C291.102 98.5432 290.758 109.991 291.578 121.71C292.49 134.828 294.814 148.29 292.101 161.32C286.815 186.65 263.921 202.58 244.605 217.224C242.707 218.653 240.013 218.285 238.584 216.392C237.147 214.506 237.522 211.814 239.413 210.375Z" fill="#6993A4"/>
<mask id="mask5_2668_3328" style="mask-type:luminance" maskUnits="userSpaceOnUse" x="237" y="67" width="84" height="152">
<path d="M239.414 210.375C248.526 203.468 258.573 196.339 266.958 187.939C274.889 179.978 281.336 170.875 283.687 159.563C286.245 147.305 283.872 134.65 283.01 122.303C282.055 108.557 282.867 95.2005 292.043 82.9642C294.801 79.2662 298.153 76.0256 302.015 73.5041C306.135 70.8202 310.831 69.1341 315.633 68.0706C317.945 67.5567 320.241 69.026 320.751 71.3394C321.261 73.6527 319.799 75.9509 317.48 76.4549C313.687 77.2975 309.958 78.5851 306.696 80.7013C303.675 82.67 301.072 85.2211 298.912 88.1087C291.103 98.5432 290.759 109.991 291.579 121.71C292.491 134.828 294.815 148.29 292.102 161.32C286.816 186.65 263.922 202.58 244.606 217.224C242.708 218.653 240.014 218.285 238.585 216.392C237.148 214.506 237.523 211.814 239.414 210.375Z" fill="white"/>
</mask>
<g mask="url(#mask5_2668_3328)">
<path fill-rule="evenodd" clip-rule="evenodd" d="M333.738 77.836C325.499 76.0853 298.323 94.6474 290.026 95.2625C288.046 95.4178 281.956 98.0938 280.265 96.5711C278.96 95.3918 280 92.6543 280.453 91.3473C282.045 86.7094 285.065 82.4362 287.939 78.5267C295.332 68.4207 305.572 57.9133 317.375 53.1658C319.364 52.358 321.501 51.7105 323.642 51.4766C332.998 50.4826 335.668 60.1956 335.27 67.6387C335.08 71.0799 334.485 74.47 333.738 77.836Z" fill="#477282"/>
</g>
<path d="M303.643 92.9785C289.728 75.6041 292.531 50.2385 309.906 36.323C327.28 22.4074 352.646 25.2114 366.562 42.5858C380.477 59.9602 377.673 85.3258 360.299 99.2413C342.924 113.157 317.559 110.353 303.643 92.9785Z" fill="#F29F05"/>
<mask id="mask6_2668_3328" style="mask-type:luminance" maskUnits="userSpaceOnUse" x="294" y="27" width="82" height="82">
<path d="M303.642 92.9785C289.727 75.6041 292.53 50.2385 309.905 36.323C327.279 22.4074 352.645 25.2114 366.561 42.5858C380.476 59.9602 377.672 85.3258 360.298 99.2413C342.923 113.157 317.558 110.353 303.642 92.9785Z" fill="white"/>
</mask>
<g mask="url(#mask6_2668_3328)">
<path fill-rule="evenodd" clip-rule="evenodd" d="M339.21 22.3946C321.216 31.658 303.311 47.6465 304.77 69.685C305.061 73.8864 305.934 78.027 307.365 81.9881C310.953 91.9433 318.503 101.285 328.144 105.875C330.974 107.231 334.007 108.247 337.12 108.682C339.071 108.958 341.72 108.661 343.525 109.504C345.324 110.338 343.87 112.128 342.808 112.843C338.819 115.547 333.069 115.986 328.421 115.963C310.53 115.884 295.735 103.941 289.48 87.4598C278.692 59.0435 303.371 19.8847 339.21 22.3946Z" fill="#D98A00"/>
</g>
<path d="M336.001 77.6337C336.541 76.2482 336.588 74.9955 336.137 73.8754C335.69 72.7567 334.68 71.491 333.105 70.0784C331.535 68.6676 330.214 67.3589 329.147 66.154C328.076 64.9473 327.237 63.7151 326.628 62.4549C326.023 61.2041 325.68 59.8428 325.621 58.4547C325.554 57.0465 325.846 55.515 326.493 53.8583C327.607 51.002 329.433 49.0174 331.971 47.9041C334.509 46.7908 337.346 46.6712 340.492 47.5474L342.608 42.1223L346.662 43.7036L344.517 49.2048C347.346 50.7952 349.202 52.9551 350.083 55.6844C350.964 58.4137 350.765 61.4271 349.479 64.7229L342.151 61.8648C342.943 59.8363 343.113 58.1555 342.673 56.825C342.228 55.4927 341.303 54.5526 339.903 54.0064C338.516 53.4658 337.289 53.44 336.221 53.9287C335.153 54.4179 334.351 55.3559 333.81 56.742C333.309 58.0263 333.276 59.2015 333.72 60.2703C334.16 61.3377 335.231 62.6707 336.935 64.2699C338.638 65.8691 340 67.2816 341.021 68.5072C342.042 69.7327 342.823 70.972 343.369 72.2271C343.906 73.4562 344.194 74.7797 344.216 76.1208C344.237 77.4633 343.948 78.9033 343.348 80.4412C342.227 83.3146 340.419 85.2967 337.932 86.3907C335.44 87.4828 332.559 87.576 329.292 86.6721L327.325 91.7172L323.294 90.1452L325.252 85.1251C321.93 83.4008 319.727 81.1251 318.639 78.2962C317.552 75.4669 317.684 72.3201 319.035 68.8554L326.363 71.7135C325.579 73.7245 325.455 75.453 325.992 76.8991C326.529 78.3452 327.691 79.4167 329.484 80.116C330.97 80.6954 332.296 80.7604 333.468 80.3118C334.636 79.8619 335.48 78.9692 336.001 77.6337Z" fill="white"/>
<path fill-rule="evenodd" clip-rule="evenodd" d="M274.027 188.658C265.575 188.257 269.068 181.874 278.702 181.881C287.823 181.898 288.089 177.978 295.945 172.856C304.463 167.311 310.387 158.701 316.998 151.138C324.362 142.72 332.513 135.541 344.807 133.817C348.514 133.288 352.297 133.361 355.959 134.14C359.862 134.975 363.521 136.712 366.881 138.866C368.5 139.903 368.969 142.065 367.93 143.683C366.89 145.3 364.731 145.775 363.114 144.729C360.458 143.029 357.582 141.62 354.497 140.954C351.635 140.342 348.677 140.305 345.779 140.715C335.304 142.194 328.519 148.549 322.245 155.729C315.218 163.764 308.802 172.807 299.751 178.704C289.399 185.441 286.088 189.227 274.027 188.658Z" fill="#6993A4"/>
<mask id="mask7_2668_3328" style="mask-type:luminance" maskUnits="userSpaceOnUse" x="269" y="133" width="100" height="56">
<path d="M274.027 188.659C265.575 188.258 269.068 181.875 278.702 181.882C287.823 181.899 288.089 177.979 295.945 172.857C304.463 167.312 310.387 158.702 316.998 151.139C324.362 142.721 332.513 135.542 344.807 133.818C348.514 133.289 352.297 133.362 355.959 134.141C359.862 134.976 363.521 136.713 366.881 138.867C368.5 139.904 368.969 142.066 367.93 143.684C366.89 145.301 364.731 145.776 363.114 144.73C360.458 143.03 357.582 141.621 354.497 140.955C351.635 140.343 348.677 140.306 345.779 140.716C335.304 142.195 328.519 148.55 322.245 155.73C315.218 163.765 308.802 172.808 299.751 178.705C289.399 185.442 286.088 189.228 274.027 188.659Z" fill="white"/>
</mask>
<g mask="url(#mask7_2668_3328)">
<path fill-rule="evenodd" clip-rule="evenodd" d="M371.626 154.875C367.917 149.132 341.68 144.119 336.576 139.696C335.353 138.646 330.327 136.673 330.236 134.828C330.167 133.403 332.338 132.434 333.349 131.947C336.93 130.208 341.117 129.499 345.012 128.915C355.06 127.385 366.968 127.263 376.456 131.337C378.06 132.019 379.656 132.878 381.015 133.976C386.943 138.791 382.882 145.888 378.371 149.919C376.282 151.78 373.991 153.378 371.626 154.875Z" fill="#477282"/>
</g>
<path d="M345.716 146.357C347.748 128.403 363.95 115.497 381.904 117.529C399.857 119.562 412.763 135.764 410.731 153.717C408.698 171.671 392.497 184.577 374.543 182.544C356.59 180.512 343.683 164.31 345.716 146.357Z" fill="#F29F05"/>
<mask id="mask8_2668_3328" style="mask-type:luminance" maskUnits="userSpaceOnUse" x="345" y="117" width="66" height="66">
<path d="M345.716 146.357C347.748 128.403 363.95 115.497 381.904 117.529C399.857 119.562 412.763 135.764 410.731 153.717C408.698 171.671 392.497 184.577 374.543 182.544C356.59 180.512 343.683 164.31 345.716 146.357Z" fill="white"/>
</mask>
<g mask="url(#mask8_2668_3328)">
<path fill-rule="evenodd" clip-rule="evenodd" d="M406.694 126.419C391.063 121.368 371.613 120.216 359.766 133.671C357.514 136.244 355.632 139.116 354.171 142.207C350.496 149.97 349.442 159.663 352.32 167.838C353.159 170.243 354.311 172.57 355.843 174.611C356.801 175.891 358.488 177.246 359.037 178.767C359.586 180.279 357.724 180.467 356.705 180.265C352.865 179.518 349.321 176.46 346.673 173.772C336.478 163.431 334.881 148.081 340.785 135.048C350.962 112.573 387.622 104.359 406.694 126.419Z" fill="#D98A00"/>
</g>
<path d="M373.038 156.076C374.145 155.593 374.893 154.903 375.279 154.002C375.667 153.105 375.817 151.799 375.728 150.084C375.641 148.373 375.638 146.864 375.721 145.56C375.802 144.253 376.031 143.065 376.407 141.993C376.781 140.929 377.368 139.952 378.133 139.124C378.905 138.279 379.954 137.571 381.277 136.994C383.558 136 385.746 135.915 387.839 136.738C389.933 137.562 391.626 139.126 392.922 141.438L397.256 139.55L398.666 142.788L394.272 144.703C394.977 147.241 394.796 149.545 393.73 151.615C392.664 153.684 390.815 155.294 388.183 156.441L385.633 150.588C387.253 149.882 388.318 149.018 388.832 148.003C389.344 146.985 389.355 145.914 388.868 144.796C388.386 143.689 387.698 142.968 386.805 142.633C385.912 142.298 384.913 142.374 383.806 142.856C382.781 143.303 382.085 143.956 381.725 144.824C381.362 145.688 381.208 147.067 381.263 148.963C381.318 150.859 381.285 152.451 381.164 153.74C381.043 155.029 380.777 156.188 380.367 157.221C379.967 158.233 379.37 159.157 378.611 159.937C377.851 160.718 376.857 161.376 375.628 161.911C373.333 162.911 371.157 163.004 369.104 162.199C367.049 161.391 365.346 159.786 363.997 157.389L359.967 159.145L358.565 155.925L362.574 154.178C361.665 151.279 361.713 148.709 362.719 146.464C363.724 144.219 365.611 142.493 368.378 141.288L370.928 147.14C369.322 147.84 368.256 148.758 367.731 149.895C367.207 151.032 367.255 152.314 367.879 153.746C368.396 154.933 369.118 155.733 370.047 156.151C370.974 156.565 371.971 156.54 373.038 156.076Z" fill="white"/>
<path d="M353.642 178.74C363.885 177.147 373.744 185.861 375.664 198.204C377.583 210.547 370.836 221.844 360.594 223.437C350.351 225.03 340.492 216.316 338.572 203.973C336.653 191.63 343.4 180.333 353.642 178.74Z" fill="#FAD8BA"/>
<mask id="mask9_2668_3328" style="mask-type:luminance" maskUnits="userSpaceOnUse" x="338" y="178" width="38" height="46">
<path d="M353.642 178.741C363.885 177.148 373.744 185.862 375.664 198.205C377.583 210.548 370.836 221.845 360.594 223.438C350.351 225.031 340.492 216.316 338.572 203.974C336.653 191.631 343.4 180.334 353.642 178.741Z" fill="white"/>
</mask>
<g mask="url(#mask9_2668_3328)">
<path fill-rule="evenodd" clip-rule="evenodd" d="M346.44 177.497C344.457 180.656 343.125 183.999 342.269 187.635C341.873 189.294 341.383 191.067 341.575 192.778C342.091 197.182 345.79 201.204 349.392 203.441C351.066 204.483 352.891 205.14 354.826 205.514C358.854 206.278 365.24 205.238 366.224 210.714C366.375 211.547 366.36 212.417 366.236 213.247C366.065 214.4 365.701 215.516 365.159 216.548C364.628 217.598 363.935 218.558 363.106 219.393C356.259 226.346 344.956 221.459 339.123 215.742C332.999 209.739 327.677 194.464 332.016 184.799C333.973 180.447 345.006 180.963 346.44 177.497Z" fill="#D7B699"/>
</g>
<path d="M653.866 396.963C652.791 386.654 641.847 379.346 629.424 380.642C617 381.938 607.8 391.346 608.875 401.656C609.951 411.965 620.894 419.273 633.317 417.977C645.741 416.681 654.941 407.273 653.866 396.963Z" fill="#FAD8BA"/>
<mask id="mask10_2668_3328" style="mask-type:luminance" maskUnits="userSpaceOnUse" x="608" y="380" width="46" height="39">
<path d="M653.866 396.963C652.791 386.654 641.847 379.346 629.424 380.642C617 381.938 607.8 391.346 608.875 401.656C609.951 411.965 620.894 419.273 633.317 417.977C645.741 416.681 654.941 407.273 653.866 396.963Z" fill="white"/>
</mask>
<g mask="url(#mask10_2668_3328)">
<path fill-rule="evenodd" clip-rule="evenodd" d="M656.907 403.611C654.359 406.334 651.467 408.476 648.17 410.232C646.668 411.039 645.078 411.965 643.375 412.216C638.985 412.842 634.152 410.293 631.069 407.382C629.635 406.028 628.534 404.432 627.678 402.656C625.911 398.957 625.285 392.517 619.74 392.964C618.896 393.031 618.058 393.268 617.288 393.599C616.217 394.059 615.231 394.696 614.371 395.484C613.492 396.265 612.74 397.181 612.145 398.195C607.17 406.59 614.782 416.271 621.799 420.451C629.166 424.839 645.294 426.084 653.53 419.421C657.239 416.418 653.922 405.882 656.907 403.611Z" fill="#D7B699"/>
</g>
<path fill-rule="evenodd" clip-rule="evenodd" d="M375.29 198.505C375.29 198.505 374.623 179.948 371.492 169.334C368.362 158.722 362.219 151.167 357.78 152.477C353.345 153.785 352.129 171.008 355.26 181.621C358.39 192.234 375.29 198.505 375.29 198.505Z" fill="#FAD8BA"/>
<path fill-rule="evenodd" clip-rule="evenodd" d="M409.137 355.154C409.137 355.154 370.924 328.188 365.763 307.277C360.071 284.199 374.985 216.691 374.985 216.691C363.265 207.853 351.581 206.315 339.921 209.417C339.921 209.417 306.281 267.256 302.238 316.532C299.371 351.531 302.701 422.163 302.701 422.163L409.137 355.154Z" fill="#F25C05"/>
<mask id="mask11_2668_3328" style="mask-type:luminance" maskUnits="userSpaceOnUse" x="301" y="207" width="109" height="216">
<path d="M409.137 355.154C409.137 355.154 370.924 328.188 365.763 307.277C360.071 284.199 374.985 216.691 374.985 216.691C363.265 207.853 351.581 206.315 339.921 209.417C339.921 209.417 306.281 267.256 302.238 316.532C299.371 351.531 302.701 422.163 302.701 422.163L409.137 355.154Z" fill="white"/>
</mask>
<g mask="url(#mask11_2668_3328)">
<path fill-rule="evenodd" clip-rule="evenodd" d="M329.095 226.484C321.454 263.061 306.83 309.68 319.354 344.656C323.975 357.555 329.036 370.566 335.688 382.568C337.572 385.966 343.882 392.371 342.008 396.736C339.269 403.132 338.233 398.064 332.474 398.764C311.625 401.318 289.797 394.195 280.476 374.028C274.925 362.015 273.889 347.933 274.748 334.897C276.481 308.631 318.985 250.547 329.095 226.484Z" fill="#D23F00"/>
</g>
<path fill-rule="evenodd" clip-rule="evenodd" d="M477.112 435.7C477.581 393.762 421.969 345.179 379.834 346.064C337.196 346.952 221.298 441.042 221.298 441.042L377.038 597.718C356.547 579.216 476.65 477.645 477.112 435.7Z" fill="#F25C05"/>
<mask id="mask12_2668_3328" style="mask-type:luminance" maskUnits="userSpaceOnUse" x="221" y="346" width="257" height="252">
<path d="M477.112 435.699C477.581 393.761 421.969 345.178 379.834 346.063C337.196 346.951 221.298 441.041 221.298 441.041L377.038 597.717C356.547 579.215 476.65 477.644 477.112 435.699Z" fill="white"/>
</mask>
<g mask="url(#mask12_2668_3328)">
<path fill-rule="evenodd" clip-rule="evenodd" d="M436.565 475.744C418.686 479.118 410.437 506.096 394.017 513.681C372.425 523.663 373.268 535.444 363.18 555.352C360.002 561.619 354.883 567.26 354.324 574.52C353.085 590.667 366.001 606.657 382.118 608.508C394.37 609.91 406.703 604.978 417.082 598.927C426.193 593.622 434.334 586.615 441.347 578.751C453.366 565.284 434.243 488.602 436.565 475.744Z" fill="#D23F00"/>
</g>
<path fill-rule="evenodd" clip-rule="evenodd" d="M371.437 436.359C370.741 436.188 370.061 436.017 369.389 435.839C360.163 433.41 350.991 430.674 341.528 429.288C332.492 427.967 322.013 427.761 313.868 432.549C312.177 433.538 309.901 435.098 308.618 437.008C307.61 438.507 307.185 440.216 307.804 442.044C308.319 443.529 309.319 444.738 310.588 445.708C312.304 447.006 314.497 447.857 316.348 448.424C324.048 450.782 332.245 450.285 340.114 449.177C349.864 447.813 361.983 444.783 371.856 439.103C378.625 440.661 386.23 441.546 392.674 438.954C399.628 436.148 403.385 430.033 407.419 424.357C411.106 419.178 415.036 414.368 422.605 413.619C429.907 412.898 441.659 414.278 451.838 413.112C458.984 412.294 465.359 410.201 469.15 405.545C469.258 405.415 469.338 405.265 469.388 405.104C469.437 404.943 469.454 404.773 469.437 404.605C469.421 404.437 469.371 404.274 469.291 404.125C469.211 403.977 469.103 403.845 468.971 403.739C468.421 403.29 467.608 403.371 467.16 403.923C463.749 408.096 457.963 409.822 451.545 410.555C441.382 411.72 429.645 410.339 422.356 411.062C413.916 411.891 409.421 417.088 405.324 422.87C401.567 428.15 398.182 433.953 391.707 436.562C386.547 438.648 380.578 438.245 374.99 437.147C375.246 436.982 375.493 436.809 375.74 436.636C382.861 431.664 388.26 425.027 389.959 416.329C391.182 410.092 390.693 403.567 390.814 397.148C390.927 391.036 391.586 385.004 395.087 379.444C401.774 368.817 408.508 364.009 427.318 363.211C427.659 363.197 427.98 363.048 428.212 362.797C428.443 362.546 428.565 362.214 428.552 361.873C428.536 361.531 428.386 361.209 428.134 360.977C427.882 360.746 427.548 360.623 427.206 360.637C407.157 361.495 400.033 366.739 392.907 378.073C389.145 384.058 388.363 390.526 388.245 397.106C388.126 403.373 388.623 409.74 387.435 415.838C385.872 423.863 380.828 429.937 374.267 434.527C373.344 435.168 372.4 435.779 371.437 436.359ZM368.169 438.178C359.232 435.818 350.326 433.174 341.158 431.837C332.671 430.594 322.817 430.27 315.171 434.767C313.979 435.467 312.42 436.473 311.311 437.731C310.424 438.739 309.797 439.903 310.244 441.216C310.677 442.484 311.707 443.425 312.871 444.156C314.214 444.992 315.759 445.551 317.094 445.962C324.441 448.21 332.252 447.681 339.762 446.633C348.444 445.413 359.075 442.855 368.169 438.178Z" fill="#023341"/>
<path fill-rule="evenodd" clip-rule="evenodd" d="M468.406 419.028C468.406 419.028 509.263 441.79 530.346 437.383C553.612 432.518 607.999 389.834 607.999 389.834C621.04 396.569 627.487 406.434 629.742 418.287C629.742 418.287 592.86 474.852 549.52 498.648C506.439 522.303 416.746 511.074 416.746 511.074L468.406 419.028Z" fill="#F25C05"/>
<mask id="mask13_2668_3328" style="mask-type:luminance" maskUnits="userSpaceOnUse" x="416" y="389" width="214" height="125">
<path d="M468.407 419.028C468.407 419.028 509.264 441.79 530.347 437.383C553.612 432.518 607.999 389.834 607.999 389.834C621.041 396.569 627.488 406.434 629.743 418.287C629.743 418.287 592.861 474.852 549.521 498.648C506.44 522.303 416.747 511.074 416.747 511.074L468.407 419.028Z" fill="white"/>
</mask>
<g mask="url(#mask13_2668_3328)">
<path fill-rule="evenodd" clip-rule="evenodd" d="M626.711 429.666C615.568 438.585 612.346 443.523 595.107 458.493C570.644 479.718 539.945 486.599 507.704 487.517C486.691 488.115 465.176 485.962 445.172 479.239C437.922 476.803 426.023 468.959 419.168 475.993C413.878 481.417 412.853 490.486 412.853 497.633C412.866 522.05 430.758 542.212 454.203 547.584C469.383 551.058 485.435 548.913 500.905 548.293C584.922 544.92 600.775 449.99 626.711 429.666Z" fill="#D23F00"/>
</g>
<path fill-rule="evenodd" clip-rule="evenodd" d="M456.562 351.65L475.923 371.581C465.814 376.242 463.264 381.221 459.139 390.951C385.895 414.224 395.819 391.425 435.738 368.437C443.762 367.037 450.878 362.116 456.562 351.65Z" fill="#FAD8BA"/>
<mask id="mask14_2668_3328" style="mask-type:luminance" maskUnits="userSpaceOnUse" x="404" y="351" width="72" height="50">
<path d="M456.562 351.65L475.923 371.581C465.814 376.242 463.264 381.221 459.139 390.951C385.895 414.224 395.819 391.425 435.738 368.437C443.762 367.037 450.878 362.116 456.562 351.65Z" fill="white"/>
</mask>
<g mask="url(#mask14_2668_3328)">
<path fill-rule="evenodd" clip-rule="evenodd" d="M442.842 361.125C441.225 369.916 445.268 378.191 452.635 383.011C456.875 385.791 462.433 386.922 466.922 383.934C471.491 380.888 472.163 375.515 470.789 370.508C468.641 362.7 450.983 361.991 442.842 361.125Z" fill="#D7B699"/>
<path fill-rule="evenodd" clip-rule="evenodd" d="M467.504 338.117C457.134 346.092 446.509 354.077 437.865 363.955C433.372 369.087 404.669 385.11 412.17 397.666C418.706 408.596 417.439 412.936 406.457 412.308C395.677 411.682 388.191 403.799 389.857 392.816C390.832 386.351 394.127 380.219 397.786 374.893C405.845 363.172 455.664 345.792 467.504 338.117Z" fill="#D7B699"/>
</g>
<path fill-rule="evenodd" clip-rule="evenodd" d="M489.365 337.309C481.768 329.712 467.45 331.697 457.408 341.738C447.368 351.779 439.975 361.808 447.564 369.397C455.16 376.993 474.887 379.298 484.928 369.258C494.969 359.216 496.954 344.897 489.365 337.309Z" fill="#FAD8BA"/>
<path fill-rule="evenodd" clip-rule="evenodd" d="M463.351 337.796C466.058 344.403 473.126 352.445 480.106 354.387C477.396 355.817 475.293 359.096 473.733 361.579C471.884 364.522 470.09 367.711 469.45 371.163C467.993 379.076 473.369 385.836 479.779 389.754C497.512 400.595 522.105 395.7 534.52 379.147C541.463 369.887 546.462 354.768 534.138 347.705C541.977 339.474 539.414 324.875 532.504 317.158C521.128 304.455 497.792 299.62 486.251 314.573C484.35 312.014 479.661 312.403 476.994 312.938C469.288 314.466 458.818 326.722 463.351 337.796Z" fill="#03222F"/>
<path fill-rule="evenodd" clip-rule="evenodd" d="M633.371 421.534L643.616 345.502L623.116 342.74L672.435 286.525L705.116 353.789L684.616 351.027L674.371 427.058L633.371 421.534Z" fill="#A6D2E4"/>
<path d="M645.498 330.008C645.919 326.882 647.106 324.459 649.049 322.738C650.996 321.017 653.338 320.341 656.064 320.708C658.833 321.081 660.931 322.344 662.357 324.495C663.783 326.647 664.271 329.367 663.828 332.656L663.489 335.176C663.064 338.325 661.883 340.743 659.94 342.429C657.997 344.114 655.663 344.774 652.932 344.406C650.184 344.036 648.092 342.774 646.655 340.621C645.219 338.468 644.723 335.758 645.163 332.493L645.498 330.008ZM650.711 333.454C650.522 334.854 650.707 336.025 651.258 336.966C651.81 337.907 652.631 338.451 653.714 338.597C654.798 338.743 655.718 338.428 656.474 337.651C657.229 336.874 657.705 335.762 657.9 334.316L658.249 331.726C658.437 330.327 658.27 329.152 657.747 328.203C657.224 327.254 656.398 326.703 655.277 326.552C654.215 326.409 653.296 326.718 652.52 327.481C651.749 328.244 651.259 329.383 651.055 330.9L650.711 333.454ZM661.849 361.391C662.273 358.241 663.466 355.819 665.432 354.124C667.393 352.429 669.728 351.764 672.443 352.13C675.19 352.5 677.284 353.75 678.724 355.88C680.159 358.009 680.651 360.741 680.202 364.077L679.862 366.596C679.441 369.723 678.272 372.136 676.349 373.837C674.42 375.536 672.074 376.2 669.305 375.827C666.52 375.451 664.412 374.181 662.988 372.018C661.569 369.856 661.069 367.175 661.5 363.98L661.849 361.391ZM667.057 364.871C666.884 366.154 667.083 367.297 667.66 368.301C668.236 369.305 669.042 369.877 670.088 370.018C672.451 370.336 673.844 368.921 674.268 365.772L674.627 363.112C674.815 361.712 674.636 360.542 674.096 359.602C673.555 358.663 672.739 358.119 671.656 357.973C670.567 357.827 669.642 358.135 668.866 358.898C668.096 359.661 667.609 360.777 667.411 362.247L667.057 364.871ZM651.327 368.808L647.594 365.598L673.605 328.558L677.344 331.769L651.327 368.808Z" fill="white"/>
<path fill-rule="evenodd" clip-rule="evenodd" d="M615.616 392.802C615.616 392.802 626.569 391.38 636.994 387.673C647.42 383.965 654.626 377.417 653.075 373.057C651.525 368.696 641.802 368.169 631.376 371.876C620.951 375.584 615.616 392.802 615.616 392.802Z" fill="#FAD8BA"/>
<path fill-rule="evenodd" clip-rule="evenodd" d="M81.7871 302.366L423.417 643.996L421.173 646.239L79.5437 304.61L81.7871 302.366Z" fill="#03222F"/>
<path fill-rule="evenodd" clip-rule="evenodd" d="M33.4971 254.64L70.1005 291.243L67.7163 293.627L31.1129 257.024L33.4971 254.64Z" fill="#03222F"/>
</g>
</g>
<defs>
<clipPath id="clip0_2668_3328">
<rect width="806" height="646" fill="white"/>
</clipPath>
<clipPath id="clip1_2668_3328">
<rect width="806" height="806" fill="white" transform="translate(403 -246.928) rotate(45)"/>
</clipPath>
</defs>
</svg>
