<svg width="806" height="646" viewBox="0 0 806 646" fill="none" xmlns="http://www.w3.org/2000/svg">
<g clip-path="url(#clip0_2669_167)">
<g clip-path="url(#clip1_2669_167)">
<path d="M459.407 658.794L103.396 302.783C132.589 281.105 167.352 273.296 196.668 280.538C207.563 283.174 217.721 287.911 226.544 294.749C251.682 279.29 278.493 269.256 305.019 264.83C356.063 256.334 406.004 268.736 440.737 303.47C488.558 351.29 494.002 427.936 460.956 496.633C463.492 498.602 465.982 500.662 468.284 502.964C501.966 536.645 495.601 597.563 454.132 639.032C453.712 639.452 453.36 639.804 452.971 640.139C456.315 645.816 458.433 652.147 459.407 658.794Z" fill="#DCF4E6"/>
<path d="M260.054 459.441L421.309 620.695C424.861 608.63 413.397 602.007 403.868 592.063C407.886 584.405 402.721 579.485 390.06 570.419C416.582 571.422 424.824 554.592 392.652 538.762C458.01 528.233 424.184 477.064 418.667 470.029C411.718 461.163 369.457 430.721 349.213 489.5C335.721 456.311 317.694 461.566 314.826 499.665C297.196 483.638 273.274 467.232 260.054 459.441Z" fill="#93E5B6"/>
<path d="M32.6771 232.063L260.157 459.543C248.886 441.302 222.437 406.6 208.976 392.551C214.653 381.733 207.356 374.782 189.469 361.975C226.937 363.391 238.581 339.616 193.131 317.252C285.463 302.377 237.676 230.089 229.883 220.151C220.066 207.625 160.362 164.619 131.762 247.658C112.701 200.77 87.2345 208.195 83.1835 262.017C58.2765 239.376 47.0047 233.777 32.6771 232.063Z" fill="#93E5B6"/>
<path d="M649.806 202.581L337.519 514.869C323.676 528.711 301.445 528.895 287.866 515.316L144.776 372.226C131.16 358.611 131.344 336.379 145.187 322.537L457.474 10.2493C471.28 -3.55619 493.511 -3.73992 507.126 9.87551L650.216 152.965C663.795 166.544 663.612 188.776 649.806 202.581Z" fill="#91C4F6"/>
<path d="M637.512 190.314L325.277 502.548C319.502 508.323 310.836 509.345 304.163 505.574C302.813 504.824 301.545 503.885 300.414 502.754L157.34 359.681C156.856 359.196 156.425 358.711 155.995 358.172C150.596 351.35 151.114 341.249 157.546 334.817L469.781 22.5824C476.185 16.178 486.313 15.633 493.135 21.0319C493.675 21.4617 494.16 21.8923 494.644 22.3769L637.718 165.45C638.848 166.581 639.787 167.849 640.537 169.2C644.308 175.873 643.26 184.566 637.512 190.314Z" fill="white"/>
<path d="M320.168 402.395L257.674 339.9C250.999 333.225 240.086 333.317 233.3 340.102C226.513 346.889 226.423 357.801 233.098 364.476L295.593 426.97C302.268 433.646 313.181 433.557 319.968 426.77C326.753 419.984 326.843 409.07 320.168 402.395Z" fill="#91C4F6"/>
<path d="M255.258 366.872L253.979 365.593L251.74 367.832L249.396 365.487L257.825 357.058L261.616 360.848C262.364 361.597 262.889 362.377 263.189 363.181C263.489 363.988 263.554 364.775 263.384 365.543C263.215 366.314 262.814 367.015 262.179 367.65C261.569 368.26 260.897 368.652 260.162 368.825C259.429 368.999 258.673 368.952 257.896 368.689L257.035 373.126L254.525 370.616L255.258 366.872ZM260.359 363.999C260.331 363.538 260.075 363.067 259.594 362.586L258.29 361.282L255.822 363.75L257.126 365.054C257.607 365.534 258.077 365.792 258.534 365.823C258.99 365.856 259.417 365.674 259.81 365.281C260.203 364.888 260.387 364.46 260.359 363.999Z" fill="#CDEEFF"/>
<path d="M266.658 379.065L264.815 380.907L258.159 374.252L266.589 365.822L273.091 372.324L271.248 374.167L267.068 369.987L265.647 371.408L269.33 375.091L267.547 376.873L263.864 373.19L262.324 374.731L266.658 379.065Z" fill="#CDEEFF"/>
<path d="M282.838 382.071L270.856 386.948L268.546 384.638L273.435 372.667L275.969 375.202L272.728 382.944L280.517 379.749L282.838 382.071Z" fill="#CDEEFF"/>
<path d="M283.325 382.558L285.67 384.902L277.24 393.332L274.896 390.987L283.325 382.558Z" fill="#CDEEFF"/>
<path d="M287.408 399.815L285.565 401.657L278.909 395.002L287.339 386.572L293.841 393.074L291.998 394.917L287.818 390.736L286.396 392.158L290.079 395.841L288.297 397.623L284.614 393.94L283.073 395.481L287.408 399.815Z" fill="#CDEEFF"/>
<path d="M308.184 407.418L297.066 413.159L294.555 410.647L298.099 403.931L291.31 407.402L288.8 404.892L294.541 393.774L296.956 396.19L293.245 403.243L300.38 399.614L302.535 401.768L298.775 408.87L305.945 405.179L308.184 407.418Z" fill="#CDEEFF"/>
<path d="M609.061 176.692L616.644 211.116L616.346 211.852L616.331 211.867L615.9 212.956C612.742 221.227 617.868 236.08 627.566 245.778C632.807 251.019 638.058 253.474 642.201 253.239L649.967 245.473L650.158 244.661L634.433 202.065L609.061 176.692Z" fill="#097C3A"/>
<path d="M587.385 205.592L596.674 214.882C603.924 222.131 614.875 219.819 617.385 213.613L609.063 176.69L583.935 151.562L583.293 179.348C580.043 184.814 580.136 198.344 587.385 205.592Z" fill="#FFC439"/>
<path d="M558.797 126.436L548.53 145.293C543.242 151.561 546.68 164.902 556.482 174.704C566.307 184.529 578.983 186.075 583.291 178.828L583.929 151.568L558.797 126.436Z" fill="#097C3A"/>
<path d="M516.302 134.509L525.591 143.799C532.841 151.048 543.638 152.559 547.627 147.831L558.802 126.429L533.672 101.299L513.39 111.779C508.663 115.768 509.053 127.26 516.302 134.509Z" fill="#FFC439"/>
<path d="M508.534 76.1708L478.359 76.9197C471.111 81.2277 475.597 93.8163 485.398 103.618C495.224 113.444 507.639 116.805 513.907 111.518L533.667 101.303L508.534 76.1708Z" fill="#097C3A"/>
<path d="M445.219 63.4262L454.508 72.7158C461.758 79.9651 472.676 80.3854 478.142 77.1363L508.54 76.167L483.412 51.0387L443.197 42.1725C436.991 44.6829 437.97 56.1773 445.219 63.4262Z" fill="#FFC439"/>
<path d="M414.575 10.172L406.869 17.8776C406.616 22.0021 409.075 27.2871 414.316 32.5283C424.141 42.3535 439.14 47.4431 447.362 44.1148L448.211 43.7783L448.227 43.7624L448.977 43.4493L448.996 43.4676L483.402 51.034L457.059 24.6913L415.451 9.95362L414.575 10.172Z" fill="#097C3A"/>
<path d="M616.848 211.351L595.266 232.932C587.545 240.653 588.811 254.472 598.089 263.749C607.384 273.044 621.166 274.274 628.887 266.553L649.967 245.473L650.158 244.661L616.848 211.351Z" fill="#009444"/>
<path d="M549.618 144.105L528.024 165.699C520.308 173.415 521.573 187.228 530.845 196.5C540.139 205.794 553.929 207.037 561.645 199.32L583.239 177.727L549.618 144.105Z" fill="#009444"/>
<path d="M482.377 76.8643L460.783 98.4581C453.067 106.174 454.332 119.987 463.604 129.259C472.898 138.553 486.689 139.796 494.405 132.08L515.999 110.486L482.377 76.8643Z" fill="#009444"/>
<path d="M583.247 177.72L564.6 196.366C555.246 205.721 555.189 220.83 564.473 230.114C573.757 239.398 588.866 239.341 598.221 229.986L616.867 211.34L583.247 177.72Z" fill="#DBA12C"/>
<path d="M497.359 129.124C488.005 138.478 487.948 153.587 497.232 162.872C506.516 172.155 521.625 172.098 530.979 162.744L549.626 144.098L516.006 110.478L497.359 129.124Z" fill="#DBA12C"/>
<path d="M430.118 61.882C420.764 71.2362 420.707 86.3456 429.991 95.6294C439.275 104.914 454.384 104.857 463.738 95.5024L482.385 76.8558L448.765 43.2354L430.118 61.882Z" fill="#DBA12C"/>
<path d="M414.575 10.1717L393.541 31.2065C385.82 38.9274 387.086 52.7459 396.363 62.0231C405.658 71.3187 419.441 72.5482 427.162 64.8275L448.743 43.246L415.451 9.95368L414.575 10.1717Z" fill="#009444"/>
<path d="M528.381 54.904L503.028 29.5508L482.474 50.1054L507.827 75.4586L528.381 54.904Z" fill="#DBA12C"/>
<path d="M553.735 80.2575L528.382 54.9043L507.827 75.459L533.18 100.812L553.735 80.2575Z" fill="#009444"/>
<path d="M579.089 105.611L553.735 80.2578L533.181 100.812L558.534 126.166L579.089 105.611Z" fill="#DBA12C"/>
<path d="M604.441 130.964L579.088 105.61L558.533 126.165L583.886 151.518L604.441 130.964Z" fill="#009444"/>
<path d="M629.795 156.317L604.441 130.964L583.887 151.519L609.24 176.872L629.795 156.317Z" fill="#DBA12C"/>
<path d="M457.563 24.3091L457.12 24.7517L482.473 50.1049L503.028 29.5504L497.457 23.9792C486.531 13.0538 468.671 13.2015 457.563 24.3091Z" fill="#009444"/>
<path d="M635.365 161.888L629.794 156.316L609.239 176.871L634.593 202.224L635.035 201.781C646.143 190.674 646.291 172.813 635.365 161.888Z" fill="#009444"/>
<g opacity="0.5">
<path opacity="0.5" d="M314.752 243.674L390.669 319.591C392.866 321.788 396.46 321.758 398.696 319.522C400.932 317.286 400.96 313.693 398.763 311.496L322.847 235.58C320.648 233.382 317.054 233.408 314.818 235.644C312.582 237.88 312.554 241.476 314.752 243.674Z" fill="#91C4F6"/>
<path d="M403.495 332.417L414.32 343.242C416.518 345.44 420.112 345.41 422.348 343.174C424.584 340.938 424.612 337.345 422.414 335.148L411.589 324.323C409.392 322.125 405.798 322.152 403.562 324.388C401.326 326.624 401.297 330.219 403.495 332.417Z" fill="#91C4F6"/>
<path d="M296.26 295.329L279.679 278.748C277.48 276.549 273.885 276.577 271.65 278.812C269.413 281.049 269.385 284.645 271.583 286.843L288.165 303.425C290.362 305.622 293.957 305.592 296.194 303.356C298.429 301.12 298.457 297.527 296.26 295.329Z" fill="#91C4F6"/>
<path opacity="0.5" d="M337.394 336.463L309.087 308.157C306.889 305.958 303.295 305.987 301.06 308.222C298.823 310.459 298.794 314.053 300.992 316.252L329.299 344.559C331.497 346.757 335.093 346.728 337.329 344.491C339.565 342.256 339.592 338.662 337.394 336.463Z" fill="#91C4F6"/>
<path d="M400.829 356.731L354.996 310.897C352.798 308.699 349.204 308.729 346.969 310.963C344.733 313.199 344.705 316.792 346.903 318.99L392.736 364.823C394.934 367.021 398.527 366.993 400.763 364.757C402.997 362.523 403.027 358.928 400.829 356.731Z" fill="#91C4F6"/>
<path opacity="0.5" d="M293.17 265.257L334.076 306.163C336.275 308.362 339.869 308.335 342.105 306.099C344.339 303.865 344.368 300.269 342.169 298.07L301.263 257.164C299.064 254.966 295.468 254.994 293.234 257.228C290.998 259.464 290.971 263.058 293.17 265.257Z" fill="#91C4F6"/>
</g>
<path opacity="0.35" d="M524.936 272.731L475.112 322.555C471.108 326.558 464.16 326.139 459.564 321.542L302.872 164.85L367.231 100.491L523.923 257.183C528.52 261.78 528.939 268.728 524.936 272.731Z" fill="#549BEC"/>
<path d="M549.947 253.229L376.639 79.9208C372.414 75.6966 365.509 75.7539 361.214 80.0487L308.605 132.658C304.311 136.952 304.253 143.858 308.478 148.082L481.786 321.39C486.01 325.614 492.916 325.557 497.21 321.263L549.819 268.653C554.114 264.359 554.171 257.453 549.947 253.229Z" fill="#FFC439"/>
<path d="M381.283 122.359L368.175 129.106L358.005 118.935L357.912 118.843L360.089 133.259L346.979 140.005L361.43 142.213L363.577 156.411L363.606 156.632L370.352 143.523L384.425 145.671L384.486 145.671L384.77 145.7L374.507 135.437L381.283 122.359Z" fill="#DBA12C"/>
<path d="M413.528 154.602L400.42 161.349L390.25 151.179L390.157 151.087L392.334 165.504L379.224 172.249L393.674 174.456L395.822 188.655L395.851 188.876L402.597 175.766L416.67 177.916L416.731 177.915L417.015 177.945L406.752 167.681L413.528 154.602Z" fill="#DBA12C"/>
<path d="M445.774 186.847L432.666 193.594L422.496 183.424L422.403 183.331L424.579 197.748L411.47 204.494L425.92 206.701L428.068 220.9L428.097 221.121L434.843 208.011L448.915 210.16L448.977 210.159L449.261 210.189L438.998 199.926L445.774 186.847Z" fill="#DBA12C"/>
<path d="M478.018 219.092L464.91 225.839L454.739 215.669L454.647 215.576L456.823 229.993L443.714 236.738L458.164 238.946L460.312 253.145L460.341 253.365L467.086 240.256L481.159 242.405L481.221 242.405L481.505 242.434L471.242 232.171L478.018 219.092Z" fill="#DBA12C"/>
<path opacity="0.25" d="M503.487 264.415L510.263 251.336L497.155 258.083L486.984 247.913L486.892 247.82L489.068 262.237L475.959 268.983L490.409 271.19L492.557 285.389L492.586 285.61L499.331 272.5L513.405 274.65L513.466 274.649L513.75 274.678L503.487 264.415Z" fill="#DBA12C"/>
<path d="M612.551 314.623C612.434 314.687 612.323 314.761 612.206 314.827C617.676 311.882 623.643 310.061 629.786 309.501C640.595 308.516 647.682 316.313 649.92 323.972C649.918 323.96 649.916 323.949 649.915 323.937C649.921 323.959 649.923 323.98 649.929 324C650.022 324.321 650.086 324.637 650.162 324.955C650.755 327.386 650.955 329.932 650.699 332.459C650.399 335.344 649.52 338.144 648.5 340.839C647.5 343.545 646.28 346.155 645.539 348.866C645.181 350.219 644.924 351.595 644.931 352.966C644.933 354.319 645.172 355.727 645.43 357.096C646.459 362.613 649.208 367.645 651.631 372.757C652.883 375.337 653.83 378.071 654.429 380.878C654.943 383.695 655.219 386.6 654.757 389.44C654.965 386.585 654.578 383.741 653.895 381.008C653.193 378.274 652.18 375.634 650.861 373.155C649.52 370.653 648.249 368.111 647.064 365.509C645.898 362.905 644.868 360.181 644.336 357.327C644.087 355.898 643.857 354.479 643.869 352.973C643.879 351.484 644.172 350.02 644.563 348.61C645.371 345.787 646.614 343.173 647.72 340.54C648.673 338.271 649.473 335.946 649.949 333.552C648.019 340.561 643.39 347.001 642.719 351.844C641.174 363 651.436 371.792 653.42 385.764C655.476 400.231 641.535 416.063 622.24 414.184C604.056 412.411 583.763 387.556 585.318 360.363C586.328 342.703 593.796 328.879 604.387 320.097C599.715 323.827 595.631 328.268 592.46 333.302C590.028 337.205 588.104 341.415 586.795 345.805C585.488 350.195 584.74 354.743 584.545 359.307C584.351 363.866 584.491 368.459 585.238 372.951C585.939 377.451 587.226 381.844 588.957 386.043C590.69 390.242 592.924 394.236 595.61 397.907C598.274 401.589 601.345 405.007 604.903 407.875C597.528 402.439 591.862 394.819 588.133 386.405C584.418 377.942 582.965 368.535 583.431 359.268C583.914 350.002 586.564 340.686 591.752 332.854C596.893 325.016 604.233 318.716 612.551 314.623Z" fill="#11405C"/>
<path d="M385.33 545.251L375.646 572.528L387.336 572.528L400.116 551.59L385.33 545.251Z" fill="#D7A28E"/>
<path d="M393.241 566.235C395.253 565.175 391.411 586.386 389.831 586.73C388.252 587.074 350.21 582.374 346.969 580.287C343.727 578.201 344.691 571.1 350.726 570.778C356.761 570.456 369.351 570.16 373.842 566.046C373.842 566.046 377.448 560.197 378.497 559.755C379.546 559.312 379.078 564.107 379.078 564.107C379.078 564.107 388.413 568.781 393.241 566.235Z" fill="#FFC439"/>
<path d="M354.628 570.598C354.507 570.817 354.901 571.203 355.242 571.88C355.585 572.565 355.808 573.629 355.87 574.893C355.973 577.433 355.646 579.633 356.086 579.737C356.474 579.855 357.547 577.724 357.442 574.787C357.38 573.334 356.893 571.952 356.145 571.214C355.386 570.478 354.7 570.435 354.628 570.598Z" fill="#DBA12C"/>
<path d="M391.641 583.441C391.559 584.192 391.02 587.497 389.639 587.559C388.259 587.621 345.422 581.517 345.238 580.887C345.055 580.256 345.326 578.056 345.256 577.616C345.185 577.177 391.641 583.441 391.641 583.441Z" fill="#11405C"/>
<path d="M369.832 571.958C371.047 570.952 369.227 567.915 368.533 568.002C367.839 568.088 368.634 572.95 369.832 571.958Z" fill="#DBA12C"/>
<path d="M365.947 572.602C367.162 571.596 365.342 568.559 364.648 568.645C363.954 568.732 364.749 573.594 365.947 572.602Z" fill="#DBA12C"/>
<path d="M361.945 572.983C363.161 571.977 361.34 568.939 360.647 569.026C359.953 569.112 360.747 573.975 361.945 572.983Z" fill="#DBA12C"/>
<path d="M378.041 574.582C377.704 576.609 379.07 578.498 381.091 578.802C383.113 579.106 385.025 577.709 385.362 575.682C385.699 573.655 384.334 571.766 382.313 571.462C380.291 571.158 378.379 572.555 378.041 574.582Z" fill="#DBA12C"/>
<path d="M517.79 466.21L455.812 471.914L398.827 557.628L379.574 553.448C379.574 553.448 417.991 444.425 427.767 441.079C437.544 437.734 511.804 411.063 511.804 411.063L544.823 447.268L517.79 466.21Z" fill="#2F627C"/>
<path d="M517.784 466.209L455.824 471.916L398.834 557.625L393.649 556.489L448.637 473.532C448.637 473.532 435.209 466.121 433.6 458.495C431.974 450.855 452.058 466.243 452.058 466.243C452.058 466.243 449.114 463.299 450.274 460.263C451.434 457.256 457.151 462.709 457.151 462.709L493.909 455.276C493.909 455.276 507.18 434.039 504 431.533C501.875 429.877 496.377 422.531 492.967 417.83C503.913 413.898 511.793 411.069 511.793 411.069L544.83 447.274L517.784 466.209Z" fill="#11405C"/>
<path d="M396.22 599.924C395.583 600.469 386.404 609.386 383.689 611.673C381.576 611.778 376.023 605.135 376.944 603.415C377.866 601.696 389.222 591.349 389.222 591.349L396.22 599.924Z" fill="#D7A28E"/>
<path d="M371.818 621.221C370.595 620.644 353.813 600.086 352.121 598.097C350.429 596.109 358.335 590.666 363.708 596.681L375.822 598.86C377.552 597.935 379.535 596.988 380.522 596.818C382.293 596.523 384.982 599.399 385.31 602.438C385.458 603.852 384.514 605.336 383.346 606.54C384.971 608.536 385.986 610.199 384.996 611.266C383.626 612.742 373.045 621.803 371.818 621.221Z" fill="#FFC439"/>
<path d="M365.541 605.475C366.114 604.71 366.646 599.086 363.418 596.445C363.418 596.445 366.698 596.059 367.557 600.497C368.191 603.773 365.541 605.475 365.541 605.475Z" fill="#DBA12C"/>
<path d="M376.343 611.5C375.195 612.483 374.852 613.971 375.578 614.824C376.304 615.677 377.824 615.571 378.971 614.587C380.12 613.604 380.462 612.116 379.736 611.264C379.011 610.411 377.491 610.517 376.343 611.5Z" fill="#DBA12C"/>
<path d="M372.014 604.288C371.769 602.99 368.309 598.352 369.743 598.814C371.176 599.275 373.261 603.16 372.691 604.071C372.12 604.981 372.014 604.288 372.014 604.288Z" fill="#DBA12C"/>
<path d="M374.69 604.349C374.445 603.05 370.985 598.413 372.418 598.874C373.852 599.336 375.938 603.221 375.367 604.131C374.797 605.042 374.69 604.349 374.69 604.349Z" fill="#DBA12C"/>
<path d="M377.366 604.41C377.122 603.111 373.662 598.473 375.095 598.935C376.528 599.396 378.613 603.282 378.043 604.192C377.473 605.102 377.366 604.41 377.366 604.41Z" fill="#DBA12C"/>
<path d="M374.112 620.18C374.127 620.166 366.104 611.624 361.887 606.618C361.416 606.058 362.479 604.368 358.302 599.319C355.461 595.779 353.355 595.56 353.129 595.544C352.706 595.514 350.155 596.944 350.812 598.071C351.469 599.197 370.363 621.816 371.075 621.862C372.483 621.953 374.112 620.18 374.112 620.18Z" fill="#11405C"/>
<path d="M561.065 469.92L394.403 607.105L384.26 593.773L500.239 457.881L514.231 428.067L561.065 469.92Z" fill="#2F627C"/>
<path d="M561.07 469.911L394.408 607.103L392.379 604.428C403.323 595.331 456.259 551.256 460.969 544.699C466.21 537.409 460.019 534.681 458.621 529.469C457.253 524.256 469.358 534.953 472.196 533.125C475.063 531.298 469.398 528.391 467.025 523.23C464.638 518.055 472.714 525.075 482.232 524.821C491.736 524.583 537.392 480.976 536.197 479.429C535.276 478.243 534.574 459.319 535.735 447.275L561.07 469.911Z" fill="#11405C"/>
<path d="M561.353 341.179L543.321 332.748L511.22 287.694L500.644 293.515C500.644 293.515 526.96 347.018 528.168 348.226C532.197 352.255 551.18 359.366 551.18 359.366L561.353 341.179Z" fill="#D7A28E"/>
<path d="M493.155 279.857C493.429 279.149 495.9 279.804 495.9 279.804C495.9 279.804 495.496 278.372 496.871 277.923C497.677 277.659 498.772 278.266 498.772 278.266C498.772 278.266 498.448 276.499 499.943 275.81C501.438 275.12 502.513 276.596 502.513 276.596C502.513 276.596 502.564 273.96 505.055 274.377C506.788 274.668 507.316 275.119 507.756 276.249C509.207 277.18 511.764 279.355 512.246 280.555C513.083 282.635 512.475 285.65 511.218 287.693C512.307 289.773 513.777 293 513.777 293L503.337 298.065L500.643 293.514L494.375 285.263C494.375 285.263 492.873 281.516 493.155 279.857Z" fill="#D7A28E"/>
<path d="M497.222 285.211C498.738 284.109 497.437 282.555 497.437 282.555C497.437 282.555 498.814 285.107 500.383 283.913C502.021 282.666 500.138 279.981 500.138 279.981C500.138 279.981 502.485 282.868 504.017 282.114C505.23 281.517 503.759 277.7 503.759 277.7C503.759 277.7 505.632 280.345 507.173 279.572C508.837 278.736 507.758 276.249 507.758 276.249L500.092 263.108C500.092 263.108 498.005 263.397 498.065 265.067C498.07 265.207 498.472 267.299 498.781 268.049C499.753 270.412 501.774 274.785 501.774 274.785C501.774 274.785 501.133 274.175 500.491 274.015C500.084 273.915 498.43 275.038 498.314 275.453C498.15 276.043 498.292 276.609 498.292 276.609C498.292 276.609 497.804 276.148 497.188 276.168C496.842 276.179 495.487 277.207 495.356 277.487C495.095 278.042 495.194 278.618 495.194 278.618C495.194 278.618 494.222 278.584 493.346 279.487C492.371 280.494 495.99 286.106 497.222 285.211Z" fill="#D7A28E"/>
<path d="M504.967 280.125C504.76 280.242 504.122 279.49 503.542 278.446C502.962 277.402 502.66 276.46 502.867 276.343C503.074 276.225 503.712 276.977 504.292 278.021C504.872 279.066 505.175 280.007 504.967 280.125Z" fill="#C18C7C"/>
<path d="M500.981 281.32C500.773 281.437 500.266 280.913 499.847 280.15C499.428 279.388 499.257 278.675 499.465 278.559C499.673 278.443 500.18 278.967 500.599 279.729C501.017 280.492 501.188 281.204 500.981 281.32Z" fill="#C18C7C"/>
<path d="M498.157 283.754C497.951 283.873 497.383 283.259 496.889 282.383C496.394 281.507 496.161 280.7 496.367 280.582C496.573 280.463 497.141 281.077 497.635 281.953C498.13 282.829 498.363 283.635 498.157 283.754Z" fill="#C18C7C"/>
<path d="M500.823 280.908C500.912 280.879 501.274 281.462 501.334 282.61C501.336 282.898 501.319 283.23 501.176 283.592C501.053 283.953 500.674 284.334 500.269 284.48C499.852 284.651 499.354 284.664 498.921 284.535C498.721 284.488 498.446 284.366 498.338 284.308L498.335 284.312L498.336 284.314L498.336 284.314C498.333 284.32 498.308 284.427 498.287 284.478C498.244 284.605 498.191 284.731 498.122 284.849C497.989 285.088 497.801 285.299 497.588 285.459C497.498 285.536 497.351 285.615 497.169 285.669C497 285.743 496.845 285.692 496.687 285.691C496.405 285.627 496.191 285.506 496.012 285.379C495.324 284.854 494.934 284.272 494.602 283.783C493.968 282.793 493.72 282.108 493.818 282.05C493.924 281.987 494.357 282.557 495.089 283.415C495.455 283.831 495.91 284.356 496.458 284.722C496.595 284.808 496.731 284.865 496.84 284.886C496.878 284.866 496.938 284.909 496.955 284.872C496.972 284.864 497.013 284.861 497.085 284.797C497.204 284.701 497.303 284.585 497.38 284.444C497.42 284.375 497.45 284.298 497.477 284.219C497.496 284.167 497.494 284.166 497.52 284.065C497.534 283.951 497.557 283.846 497.559 283.718C497.562 283.357 497.565 283 497.569 282.646C497.943 282.959 498.329 283.324 498.66 283.517C498.902 283.651 498.99 283.686 499.162 283.742C499.468 283.844 499.755 283.84 500.006 283.761C500.526 283.628 500.69 283.086 500.751 282.592C500.846 281.599 500.699 280.936 500.823 280.908Z" fill="#C18C7C"/>
<path d="M510.587 288.112C510.746 288.203 509.362 290.369 506.599 291.779C505.233 292.464 503.867 292.793 502.877 292.841C501.884 292.907 501.274 292.738 501.29 292.622C501.3 292.412 503.672 292.344 506.223 291.018C508.774 289.726 510.378 287.917 510.587 288.112Z" fill="#C18C7C"/>
<path d="M501.263 281.008C501.887 280.04 506.307 274.82 507.013 274.858C507.72 274.897 511.224 277.406 511.943 278.304C512.661 279.201 513.584 283.514 511.405 286.071C511.405 286.071 507.476 287.13 506.776 284.187C506.076 281.244 506.745 279.46 506.745 279.46C506.745 279.46 502.863 282.935 502.425 282.701C501.987 282.467 501.263 281.008 501.263 281.008Z" fill="#D7A28E"/>
<path d="M509.025 286.451C509.019 286.495 508.792 286.517 508.401 286.401C508.022 286.284 507.44 286.018 506.983 285.38C506.757 285.067 506.578 284.666 506.474 284.22C506.383 283.797 506.29 283.339 506.233 282.843C506.173 282.349 506.134 281.82 506.138 281.261L506.15 280.837C506.154 280.695 506.172 280.507 506.165 280.551L506.16 280.51C506.16 280.51 506.135 280.539 506.131 280.544L506.07 280.601L505.707 280.914C505.218 281.332 504.71 281.755 504.169 282.17C503.92 282.36 503.671 282.545 503.404 282.721C503.275 282.809 503.134 282.895 502.98 282.976C502.934 283.02 502.744 283.05 502.626 283.086C502.559 283.113 502.491 283.103 502.424 283.095C502.387 283.1 502.361 283.07 502.317 283.104L502.22 283.075C501.886 282.844 501.808 282.709 501.682 282.557C501.565 282.406 501.465 282.256 501.367 282.107L501.092 281.659C500.968 281.437 500.846 281.217 500.724 280.998C500.781 280.864 500.902 280.734 500.987 280.603C501.087 280.466 501.108 280.45 501.171 280.368L501.493 279.987C501.708 279.747 501.919 279.511 502.125 279.281C502.954 278.377 503.72 277.601 504.369 276.962C505.666 275.684 506.53 274.978 506.608 275.066C506.672 275.137 505.96 275.966 504.775 277.342C504.163 278.052 503.459 278.869 502.682 279.77C502.489 280.003 502.29 280.241 502.088 280.484L501.793 280.855L501.675 281.01L501.67 281.023L501.68 281.033L501.797 281.228L502.062 281.641C502.154 281.776 502.248 281.911 502.346 282.033C502.436 282.151 502.581 282.297 502.541 282.254C502.56 282.244 502.506 282.275 502.599 282.222C502.708 282.163 502.822 282.094 502.941 282.011C503.177 281.855 503.416 281.676 503.655 281.494C504.176 281.094 504.68 280.68 505.167 280.274C505.509 279.982 505.846 279.694 506.178 279.41C506.63 279.014 507.075 278.624 507.513 278.24C507.281 279.06 507.033 279.815 506.979 280.323L506.921 280.874L506.896 281.268C506.872 281.79 506.886 282.292 506.918 282.766C506.947 283.24 507.008 283.684 507.066 284.097C507.127 284.485 507.244 284.821 507.406 285.101C507.726 285.665 508.19 285.971 508.508 286.153C508.835 286.334 509.034 286.402 509.025 286.451Z" fill="#C18C7C"/>
<path d="M598.578 348.141L555.064 333.438L543.412 355.848L573.355 379.453L590.464 370.801L598.578 348.141Z" fill="#009444"/>
<path d="M495.62 414.924C495.62 414.924 544.539 480.352 556.591 478.668C568.643 476.983 626.99 375.065 625.199 370.512C623.408 365.959 598.578 348.141 598.578 348.141C598.578 348.141 531.077 389.135 495.62 414.924Z" fill="#009444"/>
<path d="M556.59 478.663C552.672 479.205 544.882 472.678 536.125 463.598C541.386 466.16 552.17 471.192 553.561 470.206C555.391 468.896 553.504 461.258 553.001 458.672C552.499 456.086 561.383 463.913 566.482 459.593C571.581 455.273 574.29 439.173 570.731 431.417C567.586 424.605 554.558 386.546 551.474 377.536C552.411 376.946 553.332 376.342 554.268 375.781L558.441 383.24L570.606 386.661L599.439 415.492L603.903 412.475C586.47 442.491 563.626 477.689 556.59 478.663Z" fill="#097C3A"/>
<path d="M606.297 349.593C606.902 349.626 618.52 355.982 618.955 356.523C619.389 357.065 617.677 361.12 617.213 362.445C616.749 363.769 610.96 365.634 609.134 365.179C607.308 364.724 605.485 360.95 605.178 359.53C605.178 359.53 601.701 359.68 599.6 357.915C597.499 356.149 603.506 349.437 606.297 349.593Z" fill="#097C3A"/>
<path d="M605.471 354.564C607.593 357.131 617.173 357.823 618.205 355.333C619.151 353.046 622.981 347.581 626.345 343.396L612.008 342.346C611.283 343.323 603.101 351.702 605.471 354.564Z" fill="#D7A28E"/>
<path d="M631.674 339.24C629.872 341.351 627.728 343.084 626.353 344.267C621.112 348.798 608.338 343.756 607.829 343.11C605.966 340.746 603.799 332.799 608.394 329.392C613.747 325.426 615.27 325.909 619.22 321.108C619.604 320.633 620.007 320.283 620.436 320.008C621.632 321.575 626.208 324.642 628.392 324.193C627.14 326.331 631.097 332.139 633.804 333.78C633.065 335.098 627.925 338.79 629.008 339.899C629.263 340.168 630.318 339.913 631.674 339.24Z" fill="#D7A28E"/>
<path d="M607.825 343.113C607.666 343.33 609.459 344.942 612.274 345.932C613.671 346.428 615.051 346.586 616.041 346.507C617.042 346.426 617.611 346.125 617.578 345.989C617.545 345.831 616.963 345.847 616.07 345.73C615.173 345.609 613.954 345.355 612.646 344.89C610.028 343.976 608.009 342.827 607.825 343.113Z" fill="#C18C7C"/>
<path d="M626.199 343.386C627.081 347.21 634.34 343.422 633.105 340.375C632.749 339.495 631.623 338.181 630.076 339.138C628.407 340.17 626.005 342.549 626.199 343.386Z" fill="#D7A28E"/>
<path d="M631.527 340.842C630.625 340.748 628.371 341.206 628.002 342.834C628.002 342.834 628.663 342.134 629.433 342.059L630.756 342.508L629.905 341.567L631.527 340.842Z" fill="#11405C"/>
<path d="M618.921 330.971C619.183 331.547 616.321 331.851 616.996 332.809C617.672 333.767 616.004 332.792 616.483 331.962C616.962 331.131 618.689 330.46 618.921 330.971Z" fill="#11405C"/>
<path d="M622.905 332.434C622.259 332.733 621.954 333.461 622.223 334.061C622.492 334.66 623.234 334.904 623.88 334.606C624.527 334.307 624.833 333.579 624.563 332.979C624.294 332.379 623.552 332.135 622.905 332.434Z" fill="#11405C"/>
<path d="M623.251 332.466C623.043 332.579 622.949 332.808 623.039 332.978C623.13 333.149 623.37 333.196 623.578 333.084C623.785 332.972 623.88 332.742 623.789 332.572C623.699 332.402 623.458 332.354 623.251 332.466Z" fill="white"/>
<path d="M627.477 335.154C627.662 335.441 628.561 335.06 628.492 334.724C628.492 334.724 626.729 329.412 625.595 329.309C625.595 329.309 625.022 329.657 624.905 329.841C624.72 330.13 624.707 330.724 625.013 331.197L627.477 335.154Z" fill="#11405C"/>
<path d="M617.602 325.961C617.114 326.481 617.107 327.267 617.586 327.715C618.065 328.163 618.849 328.104 619.337 327.584C619.825 327.063 619.832 326.278 619.353 325.83C618.873 325.382 618.09 325.441 617.602 325.961Z" fill="#11405C"/>
<path d="M617.935 325.859C617.786 326.041 617.785 326.288 617.934 326.41C618.083 326.532 618.326 326.483 618.475 326.302C618.626 326.119 618.626 325.873 618.477 325.751C618.328 325.628 618.085 325.677 617.935 325.859Z" fill="white"/>
<path d="M619.094 323.427C618.924 323.239 619.323 322.726 619.54 322.8C619.54 322.8 622.95 324.876 622.795 325.394C622.795 325.394 622.491 325.956 622.353 326.069C622.136 326.246 621.734 326.247 621.454 325.937L619.094 323.427Z" fill="#11405C"/>
<path d="M615.4 337.851C612.273 335.782 612.947 334.492 611.807 333.44C611.184 332.865 610.355 333.098 610.088 333.794C610.088 333.794 608.849 337.083 612.738 339.181C615.188 340.503 616.089 338.307 615.4 337.851Z" fill="white"/>
<path d="M617.769 412.091C617.769 412.091 612.075 436.398 610.065 439.167C608.056 441.936 594.133 433.611 594.742 428.811C594.985 426.902 598.306 408.713 598.306 408.713L617.769 412.091Z" fill="#D7A28E"/>
<path d="M622.446 367.116L627.42 372.45C627.42 372.45 620.288 413.614 618.363 422.442C609.197 421.429 602.528 417.65 596.445 414.528C597.688 404.126 598.29 403.116 600.16 396.083C606.083 380.22 622.446 367.116 622.446 367.116Z" fill="#009444"/>
<path d="M608.146 381.666C606.273 384.39 596.352 406.64 596.532 413.819C596.532 413.819 594.881 406.559 598.632 398.525C602.439 390.373 608.146 381.666 608.146 381.666Z" fill="#097C3A"/>
<path d="M589.324 348.396L604.95 318.236L574.723 333.796L551.271 310.344L551.057 310.13L556.077 343.373L525.846 358.929L559.168 364.019L564.121 396.76L564.187 397.27L579.743 367.039L612.194 371.995L612.336 371.993L612.99 372.063L589.324 348.396Z" fill="#FFC439"/>
<path d="M565.186 351.037L567.405 350.653C567.43 351.944 567.68 353.32 568.788 354.428C570.017 355.657 571.708 355.765 573.064 354.409C574.401 353.072 574.344 351.502 573.133 350.291C572.423 349.58 571.832 349.376 570.733 349.159L570.397 347.591L576.252 342.394L582.137 348.279L580.429 349.986L576.275 345.832L573.341 348.317C574.037 348.555 574.593 348.831 575.164 349.402C577.05 351.288 577.536 353.954 575.124 356.365C572.678 358.811 569.418 358.366 567.394 356.342C565.611 354.559 565.172 352.678 565.186 351.037Z" fill="#DBA12C"/>
<path d="M574.486 375.719C573.079 374.684 572.004 376.135 572.004 376.135L568.714 380.571L561.671 368.744C561.671 368.744 560.163 368.899 560.138 369.961C560.126 370.447 562.978 376.606 562.978 376.606L558.27 368.712C558.27 368.712 556.673 369.105 556.948 370.023C557.079 370.463 560.188 378.377 560.188 378.377L555.95 370.948C555.95 370.948 554.619 372.158 554.719 372.498C555.235 374.253 557.663 380.282 557.663 380.282L554.784 374.736C554.784 374.736 553.322 375.286 553.896 376.465C554.585 377.878 557.136 385.07 558.62 387.041C560.564 389.621 564.202 398.718 564.202 398.718C564.202 398.718 573.793 393.665 574.621 393.304C574.031 392.157 571.982 388.033 571.982 388.033C572.166 384.069 573.831 381.234 574.486 375.719Z" fill="#D7A28E"/>
<path d="M571.981 388.033C571.981 388.033 600.356 423.421 601.951 424.692C603.547 425.962 612.675 437.83 609.294 440.086C605.914 442.341 596.107 452.198 590.3 445.387C576.677 429.408 561.763 393.109 561.763 393.109L571.925 388.776" fill="#D7A28E"/>
<path d="M586.185 405.906C586.185 405.906 602.257 423.476 606.3 430.098C606.3 430.098 596.379 424.229 586.185 405.906Z" fill="#C18C7C"/>
<path d="M563.68 377.686C563.544 377.764 562.989 377.039 562.437 376.067C561.887 375.096 561.55 374.244 561.684 374.166C561.819 374.088 562.375 374.813 562.926 375.785C563.477 376.757 563.814 377.608 563.68 377.686Z" fill="#C18C7C"/>
<path d="M560.928 379.628C560.79 379.7 560.292 378.999 559.817 378.063C559.343 377.128 559.07 376.311 559.208 376.239C559.346 376.168 559.844 376.868 560.318 377.803C560.793 378.739 561.067 379.556 560.928 379.628Z" fill="#C18C7C"/>
<path d="M558.505 381.655C558.368 381.731 557.919 381.171 557.501 380.406C557.084 379.64 556.856 378.957 556.992 378.882C557.129 378.806 557.578 379.365 557.995 380.131C558.413 380.897 558.64 381.579 558.505 381.655Z" fill="#C18C7C"/>
<path d="M559.568 380.902C559.588 381.068 559.146 381.224 558.743 381.53C558.328 381.827 558.073 382.191 557.927 382.149C557.77 382.122 557.843 381.501 558.414 381.081C558.988 380.664 559.567 380.763 559.568 380.902Z" fill="#C18C7C"/>
<path d="M561.862 379.016C561.882 379.181 561.441 379.337 561.037 379.643C560.622 379.94 560.367 380.304 560.22 380.262C560.064 380.235 560.136 379.614 560.709 379.194C561.282 378.777 561.862 378.876 561.862 379.016Z" fill="#C18C7C"/>
<path d="M564.446 377.161C564.466 377.326 564.024 377.483 563.621 377.789C563.206 378.085 562.951 378.449 562.805 378.408C562.647 378.38 562.72 377.76 563.292 377.339C563.866 376.922 564.445 377.021 564.446 377.161Z" fill="#C18C7C"/>
<path d="M684.851 348.199C686.324 340.355 678.198 340.347 678.198 340.347C678.198 340.347 678.189 332.22 670.346 333.694C662.069 335.248 660.879 349.174 663.086 355.458C669.37 357.665 683.296 356.476 684.851 348.199Z" fill="#91C4F6"/>
<path d="M610.315 296.32C611.284 291.165 605.944 291.16 605.944 291.16C605.944 291.16 605.938 285.82 600.784 286.788C595.345 287.809 594.563 296.96 596.013 301.09C600.143 302.54 609.294 301.758 610.315 296.32Z" fill="#CDEEFF"/>
<path d="M231.201 135.392L238.782 142.928L224.158 157.632L216.578 150.098C215.348 148.872 215.359 146.864 216.605 145.612L226.714 135.443C227.96 134.188 229.968 134.167 231.201 135.392Z" fill="#91C4F6"/>
<path d="M249.941 163.471L249.868 163.398L252.387 160.862C253.725 159.52 253.737 157.364 252.413 156.049L245.694 149.369C245.694 149.369 252.282 148.214 254.752 145.731C256.962 143.51 259.791 140.467 256.566 137.26C256.566 137.26 254.666 136.829 251.345 140.167C248.281 143.248 237.483 141.599 237.483 141.599L222.367 156.8C222.367 156.8 222.452 159.451 224.602 161.59L234.325 171.258C235.702 172.626 237.946 172.602 239.338 171.202L240.868 169.664C241.679 170.466 242.999 170.453 243.817 169.628L245.596 167.841C246.08 168.325 246.873 168.314 247.364 167.821L249.932 165.239C250.423 164.744 250.426 163.953 249.941 163.471Z" fill="#CDEEFF"/>
<path d="M678.505 288.081L673.162 282.706L662.739 293.073L668.08 298.447C668.949 299.319 670.372 299.311 671.26 298.428L678.469 291.261C679.358 290.378 679.373 288.955 678.505 288.081Z" fill="#91C4F6"/>
<path d="M658.6 274.796L658.652 274.848L660.449 273.062C661.401 272.113 662.929 272.106 663.861 273.044L668.597 277.807C668.597 277.807 669.415 273.136 671.176 271.386C672.751 269.819 674.908 267.813 677.181 270.099C677.181 270.099 677.487 271.447 675.12 273.801C672.937 275.973 674.105 283.628 674.105 283.628L663.329 294.344C663.329 294.344 661.449 294.283 659.933 292.76L653.079 285.866C652.109 284.89 652.127 283.299 653.119 282.313L654.21 281.228C653.641 280.653 653.65 279.717 654.235 279.138L655.502 277.876C655.159 277.533 655.166 276.971 655.516 276.623L657.347 274.803C657.697 274.455 658.258 274.452 658.6 274.796Z" fill="#CDEEFF"/>
<path d="M146.329 363.696L103.583 302.025L190.07 235.458L231.678 285.147L146.329 363.696Z" fill="#91C4F6"/>
<path d="M190.069 235.457L231.677 285.147L227.984 288.345L190.069 235.457Z" fill="#CDEEFF"/>
<path d="M231.678 285.148L231.946 289.026L234.951 289.057L162.373 369.856L157.395 366.755L146.329 363.697L231.678 285.148Z" fill="#549BEC"/>
<path d="M189.651 259.25C188.543 260.359 187.013 260.626 186.234 259.847C185.456 259.069 185.723 257.539 186.831 256.431C187.939 255.322 189.469 255.055 190.248 255.834C191.026 256.612 190.759 258.142 189.651 259.25Z" fill="#549BEC"/>
<path d="M206.471 277.807C205.396 278.881 203.913 279.14 203.158 278.385C202.403 277.63 202.662 276.147 203.737 275.072C204.811 273.997 206.295 273.738 207.05 274.493C207.805 275.249 207.546 276.732 206.471 277.807Z" fill="#549BEC"/>
<path d="M187.509 257.011C183.858 259.615 180.206 262.219 176.555 264.823C173.418 267.06 170.124 269.19 167.296 271.824C162.211 276.561 160.405 283.048 162.864 289.53C164.111 292.819 166.257 295.688 168.751 298.125C170.62 299.95 172.955 301.96 175.793 301.464C179.01 300.901 179.587 297.675 179.744 294.906C179.929 291.666 177.777 286.656 180.566 284.144C182.476 282.424 185.229 282.442 187.612 282.347C189.573 282.27 191.525 282.103 193.468 281.798C196.968 281.249 202.398 280.579 204.789 277.6C205.407 276.83 204.335 275.742 203.71 276.521C201.68 279.05 196.837 279.674 193.799 280.197C190.606 280.746 187.386 280.571 184.201 281.044C181.804 281.4 179.29 282.498 178.178 284.812C177.065 287.127 177.926 289.697 178.151 292.077C178.31 293.752 178.298 295.538 177.927 297.193C177.307 299.958 174.961 300.557 172.663 299.321C169.789 297.775 167.253 294.515 165.644 291.757C161.968 285.453 162.7 278.33 168.11 273.15C170.983 270.398 174.408 268.22 177.636 265.918C181.176 263.393 184.717 260.868 188.258 258.343C189.064 257.768 188.322 256.432 187.509 257.011Z" fill="#CDEEFF"/>
<path d="M97.6108 231.267L149.008 264.405L184.97 312.978L128.889 286.012L97.6108 231.267Z" fill="#FFC439"/>
<path d="M86.2835 330.916L137.633 361.841L184.971 312.977L134.288 280.323L86.2835 330.916Z" fill="#DBA12C"/>
<path opacity="0.5" d="M120.609 246.095L136.61 256.543L167.05 301.022L157.84 311.141L150.998 307.571L151.609 305.03L148.87 306.758L143.498 304.181L153.716 293.698L120.609 246.095Z" fill="#CDEEFF"/>
<path opacity="0.5" d="M110.928 345.786L118.407 338.259L121.463 340.307L121.109 341.785L122.685 340.796L131.286 345.546L124.468 353.93L110.928 345.786Z" fill="#CDEEFF"/>
<path d="M97.6104 231.268L49.5602 282.035L86.2829 330.917L134.287 280.323L97.6104 231.268Z" fill="#FFC439"/>
<path d="M97.6104 231.268L134.287 280.323C134.287 280.323 119.313 268.549 112.031 258.067C104.749 247.586 97.6104 231.268 97.6104 231.268Z" fill="#DBA12C"/>
<path d="M145.294 302.119L185.961 328.339L214.415 366.771L170.043 345.435L145.294 302.119Z" fill="#FFC439"/>
<path d="M136.331 380.965L176.961 405.434L214.415 366.771L174.313 340.934L136.331 380.965Z" fill="#DBA12C"/>
<path opacity="0.5" d="M163.491 313.852L176.152 322.118L200.236 357.311L192.949 365.318L187.536 362.493L188.019 360.482L185.852 361.85L181.602 359.811L189.686 351.516L163.491 313.852Z" fill="#CDEEFF"/>
<path opacity="0.5" d="M155.831 392.73L161.749 386.774L164.167 388.394L163.886 389.564L165.134 388.781L171.939 392.539L166.544 399.173L155.831 392.73Z" fill="#CDEEFF"/>
<path d="M145.294 302.119L107.275 342.288L136.331 380.964L174.314 340.933L145.294 302.119Z" fill="#FFC439"/>
<path d="M145.294 302.119L174.314 340.933C174.314 340.933 162.466 331.618 156.704 323.324C150.942 315.031 145.294 302.119 145.294 302.119Z" fill="#DBA12C"/>
</g>
</g>
<defs>
<clipPath id="clip0_2669_167">
<rect width="806" height="646" fill="white"/>
</clipPath>
<clipPath id="clip1_2669_167">
<rect width="770" height="782.833" fill="white" transform="translate(411.869 -264.87) rotate(45)"/>
</clipPath>
</defs>
</svg>
