<svg width="806" height="646" viewBox="0 0 806 646" fill="none" xmlns="http://www.w3.org/2000/svg">
<g clip-path="url(#clip0_2664_423)">
<g clip-path="url(#clip1_2664_423)">
<path d="M81.7598 235.549C92.7199 277.48 91.1643 324.715 64.5771 399.81C64.5771 399.81 27.0297 546.676 246.162 613.215C318.641 635.206 401.301 642.347 479.932 633.721L81.7598 235.549Z" fill="#CCE9FF"/>
<path d="M179.624 267.369C179.624 267.369 163.501 342.463 114.145 340.908C64.8601 339.281 89.0431 309.724 89.0431 309.724C89.0431 309.724 74.7596 296.996 132.318 293.602C159.471 292.047 179.624 267.369 179.624 267.369Z" fill="#0E538C"/>
<path d="M197.725 124.958C197.725 124.958 132.318 130.261 123.62 219.286C114.852 308.381 82.7496 328.039 82.7496 328.039C82.7496 328.039 223.817 298.977 197.725 124.958Z" fill="#2A94F4"/>
<path d="M79.0722 319.836C93.9921 342.252 133.237 272.743 121.781 228.195C110.256 183.577 86.8504 156.919 87.0625 125.17C87.1332 125.241 5.60379 209.174 79.0722 319.836Z" fill="#FFBE55"/>
<path d="M464.587 552.616L247.152 335.181C244.677 332.706 244.677 328.605 247.152 326.13L568.107 5.17392C570.582 2.69905 574.683 2.69904 577.158 5.17392L794.594 222.609C797.068 225.084 797.069 229.185 794.594 231.66L473.638 552.616C471.092 555.162 467.062 555.091 464.587 552.616Z" fill="#0E538C"/>
<path d="M464.587 552.616L247.152 335.18L794.594 231.66L473.638 552.616C471.092 555.161 467.062 555.091 464.587 552.616Z" fill="#0E538C"/>
<path d="M549.581 404.972L561.319 416.71L472.011 506.017L460.273 494.279L549.581 404.972Z" fill="#CCE9FF"/>
<path d="M516.489 391.819L528.227 403.557L448.961 482.824L437.223 471.086L516.489 391.819Z" fill="#FFBE55"/>
<path d="M478.234 379.587L489.972 391.325L423.716 457.581L411.978 445.843L478.234 379.587Z" fill="#CCE9FF"/>
<path d="M436.02 370.182L447.758 381.92L397.907 431.771L386.169 420.033L436.02 370.182ZM376.481 323.513L374.855 320.048L459.071 280.097L519.741 315.452L605.16 264.541L658.475 285.188L719.782 240.57L721.974 243.61L659.041 289.572L605.442 268.783L519.741 319.836L458.93 284.481L376.481 323.513Z" fill="#FFBE55"/>
<path d="M529.924 318.705C529.358 324.362 524.338 328.392 518.822 327.827C513.165 327.261 509.135 322.241 509.701 316.725C510.196 311.139 515.287 307.038 520.802 307.603C526.388 308.098 530.49 313.048 529.924 318.705Z" fill="white"/>
<path d="M518.539 329.665C511.892 328.958 507.013 323.089 507.72 316.443C508.428 309.796 514.296 304.917 520.943 305.624C527.59 306.331 532.469 312.2 531.762 318.847C531.196 325.494 525.186 330.373 518.539 329.665ZM520.59 309.371C516.064 308.947 511.963 312.2 511.539 316.725C511.115 321.251 514.367 325.352 518.893 325.776C523.418 326.201 527.519 322.948 527.944 318.422C528.439 313.968 525.186 309.866 520.59 309.371Z" fill="#FFBE55"/>
<path d="M615.272 268.288C614.706 273.945 609.686 277.975 604.17 277.409C598.513 276.844 594.483 271.823 595.049 266.308C595.614 260.651 600.635 256.62 606.15 257.186C611.736 257.681 615.767 262.702 615.272 268.288Z" fill="white"/>
<path d="M603.887 279.248C597.24 278.541 592.361 272.672 593.068 266.026C593.775 259.379 599.644 254.5 606.291 255.207C612.938 255.914 617.817 261.783 617.11 268.43C616.473 275.147 610.534 279.956 603.887 279.248ZM605.867 259.025C601.341 258.601 597.24 261.854 596.816 266.379C596.391 270.905 599.644 275.006 604.17 275.43C608.695 275.854 612.796 272.602 613.221 268.076C613.786 263.551 610.463 259.52 605.867 259.025Z" fill="#FFBE55"/>
<path d="M668.446 287.945C667.881 293.602 662.86 297.633 657.345 297.067C651.688 296.501 647.657 291.481 648.223 285.965C648.789 280.308 653.809 276.278 659.325 276.844C664.911 277.339 669.083 282.359 668.446 287.945Z" fill="white"/>
<path d="M657.132 298.977C650.485 298.27 645.606 292.401 646.313 285.754C647.02 279.107 652.889 274.228 659.536 274.935C666.183 275.642 671.062 281.511 670.355 288.158C669.718 294.734 663.779 299.684 657.132 298.977ZM659.183 278.683C654.657 278.259 650.556 281.511 650.132 286.037C649.707 290.562 652.96 294.664 657.485 295.088C662.011 295.512 666.112 292.259 666.536 287.734C667.102 283.208 663.708 279.107 659.183 278.683Z" fill="#FFBE55"/>
<path d="M468.83 284.198C468.265 289.855 463.244 293.885 457.729 293.319C452.072 292.754 448.041 287.733 448.607 282.218C449.173 276.702 454.193 272.531 459.709 273.096C465.295 273.591 469.325 278.612 468.83 284.198Z" fill="white"/>
<path d="M457.445 295.159C450.799 294.452 445.92 288.583 446.627 281.936C447.334 275.289 453.203 270.41 459.85 271.117C466.496 271.824 471.375 277.693 470.668 284.34C470.032 291.057 464.092 295.866 457.445 295.159ZM459.425 274.935C454.9 274.511 450.799 277.764 450.374 282.289C449.95 286.815 453.203 290.916 457.728 291.34C462.254 291.765 466.355 288.512 466.779 283.986C467.345 279.461 464.021 275.43 459.425 274.935Z" fill="#FFBE55"/>
<path d="M558.633 205.002L488.488 134.857C487.922 134.291 487.922 133.442 488.488 132.877L501.498 119.866C502.064 119.3 502.913 119.3 503.478 119.866L573.623 190.011C574.189 190.577 574.189 191.425 573.623 191.991L560.612 205.002C560.117 205.497 559.198 205.567 558.633 205.002Z" fill="#CCE9FF"/>
<path d="M584.796 178.839L514.651 108.694C514.085 108.129 514.085 107.28 514.651 106.715L527.661 93.7038C528.227 93.1381 529.076 93.1381 529.641 93.7038L599.786 163.849C600.352 164.415 600.352 165.263 599.786 165.829L586.776 178.839C586.21 179.405 585.361 179.405 584.796 178.839Z" fill="#2A94F4"/>
<path d="M463.102 132.241C463.102 132.241 440.333 150.767 438.99 159.747C438.99 159.747 431.07 147.444 432.202 141.645C433.474 135.847 463.102 132.241 463.102 132.241Z" fill="#FFBE55"/>
<path d="M460.274 261.076C460.274 261.076 466.426 262.278 467.345 262.49C468.264 262.702 470.102 264.682 472.012 267.016C473.85 269.42 475.406 273.521 475.194 274.016C474.982 274.511 475.123 275.077 473.992 275.925C472.931 276.703 471.517 276.844 471.517 276.844C471.517 276.844 470.597 278.471 468.971 278.4C468.971 278.4 468.052 279.885 466.143 279.531C466.143 279.531 465.223 281.016 463.88 280.663C463.88 280.663 462.041 278.683 461.122 278.188C460.203 277.693 456.738 273.38 453.98 268.783C454.051 268.713 450.798 263.763 460.274 261.076Z" fill="#FFE3CA"/>
<path d="M457.728 259.237C457.728 259.237 460.345 261.287 462.395 262.065C464.446 262.843 454.971 268.924 454.971 268.924C454.971 268.924 453.91 263.055 451.718 260.722C449.526 258.53 457.728 259.237 457.728 259.237Z" fill="#FFE3CA"/>
<path d="M154.096 372.233C154.096 372.233 150.773 389.982 151.056 394.648C151.056 394.648 153.46 402.285 151.551 404.477C147.874 408.72 145.823 411.195 139.035 404.831C132.247 398.467 128.287 394.083 131.115 388.85C133.944 383.618 134.934 378.385 134.934 378.385L124.044 388.284L122.559 386.8C122.559 386.8 132.388 375.698 133.732 374.072C135.146 372.516 139.883 365.798 145.54 366.364C151.126 367.142 154.096 372.233 154.096 372.233Z" fill="#0B4870"/>
<path d="M151.409 396.133C151.409 396.133 146.884 393.588 143.631 388.214C140.449 382.91 146.53 368.627 146.177 366.576L149.146 361.344L157.42 369.617C157.42 369.617 154.45 372.728 153.177 376.688C152.046 380.648 151.409 396.133 151.409 396.133Z" fill="#FFE3CA"/>
<path d="M204.726 414.942C204.726 414.942 203.241 418.548 202.604 423.286C202.109 426.751 198.786 439.408 200.271 442.024C201.756 444.64 206.918 452.065 203.948 456.166C200.978 460.267 198.786 463.025 192.281 457.086C185.775 451.146 181.32 447.398 182.735 440.044C184.149 432.69 182.593 424.771 182.593 424.771L171.209 436.155L168.734 433.68C168.734 433.68 179.482 420.67 179.694 419.185C179.906 417.7 187.331 406.881 197.867 407.942C208.332 409.073 204.726 414.942 204.726 414.942Z" fill="#0B4870"/>
<path d="M200.271 442.024C200.271 442.024 193.27 437.852 192.563 434.317C191.856 430.781 196.877 411.194 195.18 408.083C195.18 408.083 202.251 405.679 204.655 415.013C204.725 414.942 200.695 438.347 200.271 442.024Z" fill="#FFE3CA"/>
<path d="M325.641 194.324C325.641 194.324 307.539 196.729 293.326 206.699C279.042 216.74 241.707 260.863 235.697 266.732C229.616 272.672 205.715 286.107 195.533 298.552C185.351 310.997 143.985 363.959 143.985 363.959L157.915 377.324C157.915 377.324 206.069 323.654 211.514 319.624C216.958 315.593 239.303 297.633 241.566 295.936C243.828 294.239 310.721 257.893 319.489 249.125C328.257 240.357 358.875 198.991 325.641 194.324Z" fill="#FFBE55"/>
<path d="M361.138 237.882C361.138 237.882 324.722 300.178 319.418 308.452C314.115 316.866 308.246 328.816 306.832 329.948C305.418 331.079 282.861 350.666 282.861 350.666L207.483 418.69L193.836 405.042C193.836 405.042 235.06 355.05 243.546 345.15C252.031 335.251 271.971 326.766 274.517 321.392C276.992 316.088 300.963 249.974 300.963 249.974C300.963 249.974 335.611 183.647 361.138 237.882Z" fill="#FFBE55"/>
<path d="M431 159.959C431 159.959 435.667 165.616 435.384 173.677C435.101 181.738 432.061 192.132 430.929 195.385C429.656 198.638 423.363 233.639 423.646 234.912C423.929 236.185 431.848 240.71 437.293 245.307C446.203 252.802 462.608 260.863 462.608 260.863L455.183 271.965C455.183 271.965 415.302 251.6 410.07 242.832C403.706 232.225 409.221 187.536 409.221 187.536C409.221 187.536 411.625 155.858 431 159.959Z" fill="#2A94F4"/>
<path d="M425.626 147.373C425.626 147.373 429.161 157.272 431.07 160.03C432.909 162.859 430.222 183.506 427.535 189.446C424.848 195.244 416.857 200.123 406.039 204.436C395.22 208.75 395.786 214.265 386.735 220.346C377.754 226.357 357.178 246.934 353.289 251.388C349.399 255.843 298.134 220.417 297.144 204.154C297.144 204.154 322.317 190.719 336.459 190.436C339.5 190.365 349.824 179.758 351.379 176.081C353.006 172.475 360.855 141.433 360.855 141.433C360.855 141.433 379.734 120.856 388.644 121.988C396.422 122.978 409.504 133.655 412.473 135.069C415.302 136.483 421.878 142.352 425.626 147.373Z" fill="#2A94F4"/>
<path d="M412.827 164.414L421.666 163.778L430.646 147.726C430.646 147.585 422.515 153.454 412.827 164.414Z" fill="#0E538C"/>
<path d="M398.614 127.574C398.614 127.574 392.604 116.755 378.461 121.139C364.319 125.665 360.572 131.816 355.198 134.928C349.894 137.968 317.438 161.515 315.953 162.434C314.468 163.353 296.013 173.324 292.124 178.203C288.305 183.152 259.172 220.205 257.9 221.195C256.556 222.114 266.668 227.842 266.668 227.842C266.668 227.842 300.114 193.688 303.225 191.143C306.266 188.668 321.256 174.243 327.055 172.546C332.924 170.919 361.137 153.03 364.531 151.757C368.138 150.696 402.715 137.756 398.614 127.574Z" fill="#EEA886"/>
<path d="M436.515 142.847C436.515 142.847 422.868 153.807 419.191 158.05C419.191 158.05 405.261 158.12 412.473 135.069C412.473 135.069 422.019 132.17 428.03 121.209C433.969 110.179 436.515 142.847 436.515 142.847Z" fill="#FFE3CA"/>
<path d="M419.191 158.051L412.827 164.415L411.979 150.272L419.191 158.051Z" fill="#FFE3CA"/>
<path d="M412.827 164.414L413.605 156.989L413.534 134.574L407.453 132.311L412.827 164.414ZM421.595 163.707L425.343 170.283L430.646 147.585L421.595 163.707Z" fill="#0E538C"/>
<path d="M413.605 156.989L401.443 159.818L407.594 131.887L414.666 134.15L413.605 156.989ZM407.17 211.083C407.17 211.083 420.04 201.608 424.989 193.123C424.989 193.123 418.555 197.577 407.594 203.729L407.17 211.083ZM356.683 157.626C356.683 157.626 376.623 146.878 377.684 146.383C377.684 146.383 363.33 160.171 354.491 165.333C354.561 165.263 355.834 160.596 356.683 157.626Z" fill="#0E538C"/>
<path d="M472.648 95.4006C472.648 95.4006 485.306 107.351 472.931 124.251C460.628 141.08 442.526 148.716 438.424 148.716C434.323 148.716 423.575 134.857 428.242 124.392C432.909 113.927 434.182 104.169 441.394 98.229C448.607 92.2893 457.799 79.9857 472.648 95.4006Z" fill="#FFE3CA"/>
<path d="M467.982 130.332C467.982 130.332 489.478 115.482 476.396 95.7542C463.315 76.1674 446.344 81.5414 438.142 86.6325C429.939 91.7237 412.969 112.371 412.969 112.371C412.969 112.371 414.312 132.807 418.343 141.787C418.343 141.787 432.909 116.331 449.243 104.098C449.243 104.098 460.416 119.513 471.447 126.16C471.517 126.231 468.689 129.483 467.982 130.332Z" fill="#FFBE55"/>
<path d="M433.475 145.323C433.475 145.323 429.162 141.009 427.182 131.393C427.182 131.393 426.121 140.656 430.01 148.222C430.01 148.222 432.838 145.959 433.475 145.323Z" fill="#FCD2B1"/>
<path d="M259.861 175.082L315.234 214.895L285.754 255.897L230.381 216.084L259.861 175.082Z" fill="#0B4870"/>
<path d="M245.667 230.175C245.667 230.175 246.091 228.195 246.728 227.417C246.728 227.417 248.001 226.144 248.849 225.154C249.132 224.871 249.344 224.518 249.485 224.376C249.98 223.599 250.9 221.689 252.667 220.063C254.435 218.437 263.91 213.628 263.91 213.628L268.012 218.012L272.396 221.548C272.396 221.548 268.082 235.478 266.527 237.175L266.102 237.599C264.688 238.872 263.133 239.296 262.284 239.862C261.931 240.074 258.89 241.983 257.829 241.63C256.344 241.135 255.567 240.216 255.284 239.226C255.284 239.226 252.526 238.165 251.465 236.397C251.465 236.397 248.849 235.478 248.213 233.003C248.283 233.074 245.667 231.872 245.667 230.175Z" fill="#FFE3CA"/>
<path d="M398.614 127.574C398.614 127.574 392.604 116.755 378.462 121.139C364.319 125.665 360.36 129.625 355.198 133.514C350.248 137.191 318.923 156.778 317.438 157.697C315.953 158.616 298.134 172.617 292.195 178.274C287.74 182.587 259.809 212.498 258.536 213.488C257.193 214.407 273.881 224.872 273.881 224.872C273.881 224.872 299.054 196.729 302.094 194.254C305.135 191.779 319.63 178.415 325.146 175.728C331.58 172.546 362.057 154.656 365.592 153.383C368.916 152.04 402.715 137.756 398.614 127.574Z" fill="#2A94F4"/>
<path d="M539.965 265.107L527.025 284.411L514.085 303.715C514.085 303.715 501.498 279.673 476.608 262.985L482.336 254.429L488.063 245.873C513.024 262.632 539.965 265.107 539.965 265.107Z" fill="#FFBE55"/>
<path d="M461.971 283.561L464.658 284.551L473.921 258.601L467.062 256.126L459.213 278.117C458.294 280.592 459.496 282.642 461.971 283.561Z" fill="#2A94F4"/>
<mask id="mask0_2664_423" style="mask-type:luminance" maskUnits="userSpaceOnUse" x="458" y="256" width="16" height="29">
<path d="M461.971 283.561L464.658 284.551L473.921 258.601L467.062 256.126L459.213 278.117C458.294 280.592 459.496 282.642 461.971 283.561Z" fill="white"/>
</mask>
<g mask="url(#mask0_2664_423)">
<path d="M469.254 253.934L469.466 254.146L450.162 273.45L449.95 273.238L469.254 253.934ZM469.466 254.146L469.678 254.358L450.374 273.662L450.162 273.45L469.466 254.146ZM469.678 254.358L469.89 254.57L450.586 273.874L450.374 273.662L469.678 254.358ZM469.89 254.57L470.102 254.782L450.798 274.086L450.586 273.874L469.89 254.57ZM470.102 254.782L470.315 254.994L451.011 274.298L450.798 274.086L470.102 254.782Z" fill="#2A94F4"/>
</g>
<mask id="mask1_2664_423" style="mask-type:luminance" maskUnits="userSpaceOnUse" x="458" y="256" width="16" height="29">
<path d="M461.971 283.561L464.658 284.551L473.921 258.601L467.062 256.126L459.213 278.117C458.294 280.592 459.496 282.642 461.971 283.561Z" fill="white"/>
</mask>
<g mask="url(#mask1_2664_423)">
<path d="M470.314 254.994L470.527 255.206L451.223 274.51L451.01 274.298L470.314 254.994Z" fill="#2A94F4"/>
</g>
<mask id="mask2_2664_423" style="mask-type:luminance" maskUnits="userSpaceOnUse" x="458" y="256" width="16" height="29">
<path d="M461.971 283.561L464.658 284.551L473.921 258.601L467.062 256.126L459.213 278.117C458.294 280.592 459.496 282.642 461.971 283.561Z" fill="white"/>
</mask>
<g mask="url(#mask2_2664_423)">
<path d="M470.456 255.136L470.668 255.348L451.364 274.652L451.152 274.44L470.456 255.136Z" fill="#2A94F4"/>
</g>
<mask id="mask3_2664_423" style="mask-type:luminance" maskUnits="userSpaceOnUse" x="458" y="256" width="16" height="29">
<path d="M461.971 283.561L464.658 284.551L473.921 258.601L467.062 256.126L459.213 278.117C458.294 280.592 459.496 282.642 461.971 283.561Z" fill="white"/>
</mask>
<g mask="url(#mask3_2664_423)">
<path d="M470.668 255.348L470.88 255.56L451.576 274.864L451.364 274.652L470.668 255.348ZM470.88 255.56L471.092 255.772L451.788 275.076L451.576 274.864L470.88 255.56ZM471.092 255.772L471.304 255.984L452 275.288L451.788 275.076L471.092 255.772ZM471.304 255.984L471.517 256.196L452.212 275.5L452 275.288L471.304 255.984Z" fill="#2A94F4"/>
</g>
<mask id="mask4_2664_423" style="mask-type:luminance" maskUnits="userSpaceOnUse" x="458" y="256" width="16" height="29">
<path d="M461.971 283.561L464.658 284.551L473.921 258.601L467.062 256.126L459.213 278.117C458.294 280.592 459.496 282.642 461.971 283.561Z" fill="white"/>
</mask>
<g mask="url(#mask4_2664_423)">
<path d="M471.446 256.126L471.658 256.338L452.354 275.642L452.142 275.43L471.446 256.126ZM471.658 256.338L471.871 256.55L452.567 275.854L452.354 275.642L471.658 256.338ZM471.871 256.55L472.083 256.762L452.779 276.066L452.567 275.854L471.871 256.55Z" fill="#2A94F4"/>
</g>
<mask id="mask5_2664_423" style="mask-type:luminance" maskUnits="userSpaceOnUse" x="458" y="256" width="16" height="29">
<path d="M461.971 283.561L464.658 284.551L473.921 258.601L467.062 256.126L459.213 278.117C458.294 280.592 459.496 282.642 461.971 283.561Z" fill="white"/>
</mask>
<g mask="url(#mask5_2664_423)">
<path d="M472.082 256.762L472.294 256.974L452.99 276.278L452.778 276.066L472.082 256.762ZM472.294 256.974L472.506 257.186L453.202 276.49L452.99 276.278L472.294 256.974ZM472.506 257.186L472.718 257.398L453.414 276.702L453.202 276.49L472.506 257.186Z" fill="#2A94F4"/>
</g>
<mask id="mask6_2664_423" style="mask-type:luminance" maskUnits="userSpaceOnUse" x="458" y="256" width="16" height="29">
<path d="M461.971 283.561L464.658 284.551L473.921 258.601L467.062 256.126L459.213 278.117C458.294 280.592 459.496 282.642 461.971 283.561Z" fill="white"/>
</mask>
<g mask="url(#mask6_2664_423)">
<path d="M472.648 257.328L472.861 257.54L453.557 276.844L453.344 276.632L472.648 257.328ZM472.861 257.54L473.073 257.752L453.769 277.056L453.557 276.844L472.861 257.54ZM473.073 257.752L473.285 257.965L453.981 277.269L453.769 277.056L473.073 257.752ZM473.285 257.965L473.497 258.177L454.193 277.481L453.981 277.269L473.285 257.965Z" fill="#2A94F4"/>
</g>
<mask id="mask7_2664_423" style="mask-type:luminance" maskUnits="userSpaceOnUse" x="458" y="256" width="16" height="29">
<path d="M461.971 283.561L464.658 284.551L473.921 258.601L467.062 256.126L459.213 278.117C458.294 280.592 459.496 282.642 461.971 283.561Z" fill="white"/>
</mask>
<g mask="url(#mask7_2664_423)">
<path d="M473.496 258.176L473.708 258.388L454.404 277.692L454.192 277.48L473.496 258.176Z" fill="#2A94F4"/>
</g>
<mask id="mask8_2664_423" style="mask-type:luminance" maskUnits="userSpaceOnUse" x="458" y="256" width="16" height="29">
<path d="M461.971 283.561L464.658 284.551L473.921 258.601L467.062 256.126L459.213 278.117C458.294 280.592 459.496 282.642 461.971 283.561Z" fill="white"/>
</mask>
<g mask="url(#mask8_2664_423)">
<path d="M473.638 258.317L473.85 258.53L454.546 277.834L454.334 277.621L473.638 258.317Z" fill="#2A94F4"/>
</g>
<mask id="mask9_2664_423" style="mask-type:luminance" maskUnits="userSpaceOnUse" x="458" y="256" width="16" height="29">
<path d="M461.971 283.561L464.658 284.551L473.921 258.601L467.062 256.126L459.213 278.117C458.294 280.592 459.496 282.642 461.971 283.561Z" fill="white"/>
</mask>
<g mask="url(#mask9_2664_423)">
<path d="M473.851 258.53L474.063 258.742L454.759 278.046L454.547 277.834L473.851 258.53ZM474.063 258.742L474.275 258.955L454.971 278.259L454.759 278.046L474.063 258.742ZM474.275 258.955L474.487 259.167L455.183 278.471L454.971 278.259L474.275 258.955ZM474.487 259.167L474.699 259.379L455.395 278.683L455.183 278.471L474.487 259.167ZM474.699 259.379L474.911 259.591L455.607 278.895L455.395 278.683L474.699 259.379Z" fill="#2A94F4"/>
</g>
<mask id="mask10_2664_423" style="mask-type:luminance" maskUnits="userSpaceOnUse" x="458" y="256" width="16" height="29">
<path d="M461.971 283.561L464.658 284.551L473.921 258.601L467.062 256.126L459.213 278.117C458.294 280.592 459.496 282.642 461.971 283.561Z" fill="white"/>
</mask>
<g mask="url(#mask10_2664_423)">
<path d="M474.84 259.52L475.052 259.732L455.748 279.036L455.536 278.824L474.84 259.52ZM475.052 259.732L475.264 259.944L455.96 279.248L455.748 279.036L475.052 259.732Z" fill="#2A94F4"/>
</g>
<mask id="mask11_2664_423" style="mask-type:luminance" maskUnits="userSpaceOnUse" x="458" y="256" width="16" height="29">
<path d="M461.971 283.561L464.658 284.551L473.921 258.601L467.062 256.126L459.213 278.117C458.294 280.592 459.496 282.642 461.971 283.561Z" fill="white"/>
</mask>
<g mask="url(#mask11_2664_423)">
<path d="M475.265 259.944L475.477 260.156L456.173 279.461L455.961 279.248L475.265 259.944ZM475.477 260.156L475.689 260.369L456.385 279.673L456.173 279.461L475.477 260.156ZM475.689 260.369L475.901 260.581L456.597 279.885L456.385 279.673L475.689 260.369ZM475.901 260.581L476.113 260.793L456.809 280.097L456.597 279.885L475.901 260.581Z" fill="#2A94F4"/>
</g>
<mask id="mask12_2664_423" style="mask-type:luminance" maskUnits="userSpaceOnUse" x="458" y="256" width="16" height="29">
<path d="M461.971 283.561L464.658 284.551L473.921 258.601L467.062 256.126L459.213 278.117C458.294 280.592 459.496 282.642 461.971 283.561Z" fill="white"/>
</mask>
<g mask="url(#mask12_2664_423)">
<path d="M476.042 260.722L476.254 260.934L456.95 280.238L456.738 280.026L476.042 260.722ZM476.254 260.934L476.466 261.146L457.162 280.45L456.95 280.238L476.254 260.934ZM476.466 261.146L476.678 261.358L457.374 280.662L457.162 280.45L476.466 261.146Z" fill="#2A94F4"/>
</g>
<mask id="mask13_2664_423" style="mask-type:luminance" maskUnits="userSpaceOnUse" x="458" y="256" width="16" height="29">
<path d="M461.971 283.561L464.658 284.551L473.921 258.601L467.062 256.126L459.213 278.117C458.294 280.592 459.496 282.642 461.971 283.561Z" fill="white"/>
</mask>
<g mask="url(#mask13_2664_423)">
<path d="M476.679 261.358L476.891 261.571L457.587 280.875L457.375 280.662L476.679 261.358ZM476.891 261.571L477.103 261.783L457.799 281.087L457.587 280.875L476.891 261.571Z" fill="#2A94F4"/>
</g>
<mask id="mask14_2664_423" style="mask-type:luminance" maskUnits="userSpaceOnUse" x="458" y="256" width="16" height="29">
<path d="M461.971 283.561L464.658 284.551L473.921 258.601L467.062 256.126L459.213 278.117C458.294 280.592 459.496 282.642 461.971 283.561Z" fill="white"/>
</mask>
<g mask="url(#mask14_2664_423)">
<path d="M477.032 261.712L477.244 261.924L457.94 281.228L457.728 281.016L477.032 261.712ZM477.244 261.924L477.456 262.136L458.152 281.44L457.94 281.228L477.244 261.924ZM477.456 262.136L477.669 262.348L458.365 281.652L458.152 281.44L477.456 262.136ZM477.669 262.348L477.881 262.56L458.577 281.864L458.365 281.652L477.669 262.348ZM477.881 262.56L478.093 262.773L458.789 282.077L458.577 281.864L477.881 262.56Z" fill="#2A94F4"/>
</g>
<mask id="mask15_2664_423" style="mask-type:luminance" maskUnits="userSpaceOnUse" x="458" y="256" width="16" height="29">
<path d="M461.971 283.561L464.658 284.551L473.921 258.601L467.062 256.126L459.213 278.117C458.294 280.592 459.496 282.642 461.971 283.561Z" fill="white"/>
</mask>
<g mask="url(#mask15_2664_423)">
<path d="M478.093 262.772L478.305 262.985L459.001 282.289L458.789 282.076L478.093 262.772Z" fill="#2A94F4"/>
</g>
<mask id="mask16_2664_423" style="mask-type:luminance" maskUnits="userSpaceOnUse" x="458" y="256" width="16" height="29">
<path d="M461.971 283.561L464.658 284.551L473.921 258.601L467.062 256.126L459.213 278.117C458.294 280.592 459.496 282.642 461.971 283.561Z" fill="white"/>
</mask>
<g mask="url(#mask16_2664_423)">
<path d="M478.234 262.914L478.446 263.126L459.142 282.43L458.93 282.218L478.234 262.914Z" fill="#2A94F4"/>
</g>
<mask id="mask17_2664_423" style="mask-type:luminance" maskUnits="userSpaceOnUse" x="458" y="256" width="16" height="29">
<path d="M461.971 283.561L464.658 284.551L473.921 258.601L467.062 256.126L459.213 278.117C458.294 280.592 459.496 282.642 461.971 283.561Z" fill="white"/>
</mask>
<g mask="url(#mask17_2664_423)">
<path d="M478.446 263.126L478.658 263.338L459.354 282.642L459.142 282.43L478.446 263.126ZM478.658 263.338L478.871 263.55L459.567 282.854L459.354 282.642L478.658 263.338ZM478.871 263.55L479.083 263.762L459.779 283.066L459.567 282.854L478.871 263.55ZM479.083 263.762L479.295 263.975L459.991 283.279L459.779 283.066L479.083 263.762Z" fill="#2A94F4"/>
</g>
<mask id="mask18_2664_423" style="mask-type:luminance" maskUnits="userSpaceOnUse" x="458" y="256" width="16" height="29">
<path d="M461.971 283.561L464.658 284.551L473.921 258.601L467.062 256.126L459.213 278.117C458.294 280.592 459.496 282.642 461.971 283.561Z" fill="white"/>
</mask>
<g mask="url(#mask18_2664_423)">
<path d="M479.224 263.903L479.436 264.115L460.132 283.419L459.92 283.207L479.224 263.903ZM479.436 264.115L479.648 264.328L460.344 283.632L460.132 283.419L479.436 264.115ZM479.648 264.328L479.86 264.54L460.556 283.844L460.344 283.632L479.648 264.328Z" fill="#2A94F4"/>
</g>
<mask id="mask19_2664_423" style="mask-type:luminance" maskUnits="userSpaceOnUse" x="458" y="256" width="16" height="29">
<path d="M461.971 283.561L464.658 284.551L473.921 258.601L467.062 256.126L459.213 278.117C458.294 280.592 459.496 282.642 461.971 283.561Z" fill="white"/>
</mask>
<g mask="url(#mask19_2664_423)">
<path d="M479.86 264.54L480.072 264.752L460.768 284.056L460.556 283.844L479.86 264.54ZM480.072 264.752L480.285 264.964L460.981 284.268L460.768 284.056L480.072 264.752ZM480.285 264.964L480.497 265.176L461.193 284.48L460.981 284.268L480.285 264.964Z" fill="#2A94F4"/>
</g>
<mask id="mask20_2664_423" style="mask-type:luminance" maskUnits="userSpaceOnUse" x="458" y="256" width="16" height="29">
<path d="M461.971 283.561L464.658 284.551L473.921 258.601L467.062 256.126L459.213 278.117C458.294 280.592 459.496 282.642 461.971 283.561Z" fill="white"/>
</mask>
<g mask="url(#mask20_2664_423)">
<path d="M480.426 265.105L480.638 265.318L461.334 284.622L461.122 284.409L480.426 265.105ZM480.638 265.318L480.85 265.53L461.546 284.834L461.334 284.622L480.638 265.318ZM480.85 265.53L481.062 265.742L461.758 285.046L461.546 284.834L480.85 265.53ZM481.062 265.742L481.274 265.954L461.97 285.258L461.758 285.046L481.062 265.742Z" fill="#2A94F4"/>
</g>
<mask id="mask21_2664_423" style="mask-type:luminance" maskUnits="userSpaceOnUse" x="458" y="256" width="16" height="29">
<path d="M461.971 283.561L464.658 284.551L473.921 258.601L467.062 256.126L459.213 278.117C458.294 280.592 459.496 282.642 461.971 283.561Z" fill="white"/>
</mask>
<g mask="url(#mask21_2664_423)">
<path d="M481.274 265.954L481.487 266.166L462.183 285.47L461.97 285.258L481.274 265.954Z" fill="#2A94F4"/>
</g>
<mask id="mask22_2664_423" style="mask-type:luminance" maskUnits="userSpaceOnUse" x="458" y="256" width="16" height="29">
<path d="M461.971 283.561L464.658 284.551L473.921 258.601L467.062 256.126L459.213 278.117C458.294 280.592 459.496 282.642 461.971 283.561Z" fill="white"/>
</mask>
<g mask="url(#mask22_2664_423)">
<path d="M481.416 266.096L481.628 266.308L462.324 285.612L462.112 285.4L481.416 266.096Z" fill="#2A94F4"/>
</g>
<mask id="mask23_2664_423" style="mask-type:luminance" maskUnits="userSpaceOnUse" x="458" y="256" width="16" height="29">
<path d="M461.971 283.561L464.658 284.551L473.921 258.601L467.062 256.126L459.213 278.117C458.294 280.592 459.496 282.642 461.971 283.561Z" fill="white"/>
</mask>
<g mask="url(#mask23_2664_423)">
<path d="M481.629 266.308L481.841 266.52L462.537 285.824L462.324 285.612L481.629 266.308ZM481.841 266.52L482.053 266.732L462.749 286.036L462.537 285.824L481.841 266.52ZM482.053 266.732L482.265 266.944L462.961 286.248L462.749 286.036L482.053 266.732Z" fill="#2A94F4"/>
</g>
<path d="M459.354 251.671L481.063 266.591L493.154 248.559L470.81 234.559L459.354 251.671Z" fill="#2A94F4"/>
<mask id="mask24_2664_423" style="mask-type:luminance" maskUnits="userSpaceOnUse" x="459" y="234" width="35" height="33">
<path d="M459.354 251.671L481.063 266.591L493.154 248.559L470.81 234.559L459.354 251.671Z" fill="white"/>
</mask>
<g mask="url(#mask24_2664_423)">
<path d="M474.981 230.387L475.335 230.74L456.88 249.196L456.526 248.842L474.981 230.387Z" fill="#2A94F4"/>
</g>
<mask id="mask25_2664_423" style="mask-type:luminance" maskUnits="userSpaceOnUse" x="459" y="234" width="35" height="33">
<path d="M459.354 251.671L481.063 266.591L493.154 248.559L470.81 234.559L459.354 251.671Z" fill="white"/>
</mask>
<g mask="url(#mask25_2664_423)">
<path d="M475.265 230.67L475.618 231.023L457.163 249.479L456.809 249.125L475.265 230.67ZM475.618 231.023L475.972 231.377L457.516 249.832L457.163 249.479L475.618 231.023Z" fill="#2A94F4"/>
</g>
<mask id="mask26_2664_423" style="mask-type:luminance" maskUnits="userSpaceOnUse" x="459" y="234" width="35" height="33">
<path d="M459.354 251.671L481.063 266.591L493.154 248.559L470.81 234.559L459.354 251.671Z" fill="white"/>
</mask>
<g mask="url(#mask26_2664_423)">
<path d="M475.9 231.306L476.254 231.659L457.798 250.115L457.445 249.761L475.9 231.306ZM476.254 231.659L476.607 232.013L458.152 250.468L457.798 250.115L476.254 231.659ZM476.607 232.013L476.961 232.366L458.506 250.822L458.152 250.468L476.607 232.013Z" fill="#2A94F4"/>
</g>
<mask id="mask27_2664_423" style="mask-type:luminance" maskUnits="userSpaceOnUse" x="459" y="234" width="35" height="33">
<path d="M459.354 251.671L481.063 266.591L493.154 248.559L470.81 234.559L459.354 251.671Z" fill="white"/>
</mask>
<g mask="url(#mask27_2664_423)">
<path d="M476.891 232.296L477.244 232.649L458.789 251.105L458.435 250.751L476.891 232.296ZM477.244 232.649L477.598 233.003L459.142 251.458L458.789 251.105L477.244 232.649Z" fill="#2A94F4"/>
</g>
<mask id="mask28_2664_423" style="mask-type:luminance" maskUnits="userSpaceOnUse" x="459" y="234" width="35" height="33">
<path d="M459.354 251.671L481.063 266.591L493.154 248.559L470.81 234.559L459.354 251.671Z" fill="white"/>
</mask>
<g mask="url(#mask28_2664_423)">
<path d="M477.527 232.933L477.881 233.286L459.425 251.742L459.072 251.388L477.527 232.933ZM477.881 233.286L478.234 233.64L459.779 252.095L459.425 251.742L477.881 233.286ZM478.234 233.64L478.588 233.993L460.133 252.449L459.779 252.095L478.234 233.64Z" fill="#2A94F4"/>
</g>
<mask id="mask29_2664_423" style="mask-type:luminance" maskUnits="userSpaceOnUse" x="459" y="234" width="35" height="33">
<path d="M459.354 251.671L481.063 266.591L493.154 248.559L470.81 234.559L459.354 251.671Z" fill="white"/>
</mask>
<g mask="url(#mask29_2664_423)">
<path d="M478.517 233.922L478.87 234.275L460.415 252.731L460.061 252.377L478.517 233.922ZM478.87 234.275L479.224 234.629L460.768 253.084L460.415 252.731L478.87 234.275Z" fill="#2A94F4"/>
</g>
<mask id="mask30_2664_423" style="mask-type:luminance" maskUnits="userSpaceOnUse" x="459" y="234" width="35" height="33">
<path d="M459.354 251.671L481.063 266.591L493.154 248.559L470.81 234.559L459.354 251.671Z" fill="white"/>
</mask>
<g mask="url(#mask30_2664_423)">
<path d="M479.153 234.559L479.507 234.912L461.051 253.368L460.698 253.014L479.153 234.559ZM479.507 234.912L479.86 235.266L461.405 253.721L461.051 253.368L479.507 234.912ZM479.86 235.266L480.214 235.619L461.759 254.075L461.405 253.721L479.86 235.266Z" fill="#2A94F4"/>
</g>
<mask id="mask31_2664_423" style="mask-type:luminance" maskUnits="userSpaceOnUse" x="459" y="234" width="35" height="33">
<path d="M459.354 251.671L481.063 266.591L493.154 248.559L470.81 234.559L459.354 251.671Z" fill="white"/>
</mask>
<g mask="url(#mask31_2664_423)">
<path d="M480.144 235.549L480.497 235.902L462.042 254.358L461.688 254.004L480.144 235.549ZM480.497 235.902L480.851 236.256L462.395 254.711L462.042 254.358L480.497 235.902Z" fill="#2A94F4"/>
</g>
<mask id="mask32_2664_423" style="mask-type:luminance" maskUnits="userSpaceOnUse" x="459" y="234" width="35" height="33">
<path d="M459.354 251.671L481.063 266.591L493.154 248.559L470.81 234.559L459.354 251.671Z" fill="white"/>
</mask>
<g mask="url(#mask32_2664_423)">
<path d="M480.779 236.185L481.133 236.538L462.677 254.994L462.324 254.64L480.779 236.185ZM481.133 236.538L481.486 236.892L463.031 255.347L462.677 254.994L481.133 236.538ZM481.486 236.892L481.84 237.245L463.384 255.701L463.031 255.347L481.486 236.892Z" fill="#2A94F4"/>
</g>
<mask id="mask33_2664_423" style="mask-type:luminance" maskUnits="userSpaceOnUse" x="459" y="234" width="35" height="33">
<path d="M459.354 251.671L481.063 266.591L493.154 248.559L470.81 234.559L459.354 251.671Z" fill="white"/>
</mask>
<g mask="url(#mask33_2664_423)">
<path d="M481.77 237.175L482.123 237.528L463.668 255.984L463.314 255.63L481.77 237.175ZM482.123 237.528L482.477 237.882L464.021 256.337L463.668 255.984L482.123 237.528Z" fill="#2A94F4"/>
</g>
<mask id="mask34_2664_423" style="mask-type:luminance" maskUnits="userSpaceOnUse" x="459" y="234" width="35" height="33">
<path d="M459.354 251.671L481.063 266.591L493.154 248.559L470.81 234.559L459.354 251.671Z" fill="white"/>
</mask>
<g mask="url(#mask34_2664_423)">
<path d="M482.406 237.812L482.76 238.165L464.304 256.621L463.951 256.267L482.406 237.812ZM482.76 238.165L483.113 238.519L464.658 256.974L464.304 256.621L482.76 238.165ZM483.113 238.519L483.467 238.872L465.011 257.328L464.658 256.974L483.113 238.519Z" fill="#2A94F4"/>
</g>
<mask id="mask35_2664_423" style="mask-type:luminance" maskUnits="userSpaceOnUse" x="459" y="234" width="35" height="33">
<path d="M459.354 251.671L481.063 266.591L493.154 248.559L470.81 234.559L459.354 251.671Z" fill="white"/>
</mask>
<g mask="url(#mask35_2664_423)">
<path d="M483.396 238.802L483.75 239.155L465.295 257.611L464.941 257.257L483.396 238.802ZM483.75 239.155L484.104 239.509L465.648 257.964L465.295 257.611L483.75 239.155Z" fill="#2A94F4"/>
</g>
<mask id="mask36_2664_423" style="mask-type:luminance" maskUnits="userSpaceOnUse" x="459" y="234" width="35" height="33">
<path d="M459.354 251.671L481.063 266.591L493.154 248.559L470.81 234.559L459.354 251.671Z" fill="white"/>
</mask>
<g mask="url(#mask36_2664_423)">
<path d="M484.032 239.438L484.386 239.791L465.93 258.247L465.577 257.893L484.032 239.438ZM484.386 239.791L484.739 240.145L466.284 258.6L465.93 258.247L484.386 239.791ZM484.739 240.145L485.093 240.498L466.637 258.954L466.284 258.6L484.739 240.145Z" fill="#2A94F4"/>
</g>
<mask id="mask37_2664_423" style="mask-type:luminance" maskUnits="userSpaceOnUse" x="459" y="234" width="35" height="33">
<path d="M459.354 251.671L481.063 266.591L493.154 248.559L470.81 234.559L459.354 251.671Z" fill="white"/>
</mask>
<g mask="url(#mask37_2664_423)">
<path d="M485.022 240.428L485.376 240.781L466.921 259.237L466.567 258.883L485.022 240.428ZM485.376 240.781L485.73 241.135L467.274 259.59L466.921 259.237L485.376 240.781ZM485.73 241.135L486.083 241.488L467.628 259.944L467.274 259.59L485.73 241.135Z" fill="#2A94F4"/>
</g>
<mask id="mask38_2664_423" style="mask-type:luminance" maskUnits="userSpaceOnUse" x="459" y="234" width="35" height="33">
<path d="M459.354 251.671L481.063 266.591L493.154 248.559L470.81 234.559L459.354 251.671Z" fill="white"/>
</mask>
<g mask="url(#mask38_2664_423)">
<path d="M486.013 241.418L486.366 241.772L467.911 260.227L467.557 259.873L486.013 241.418ZM486.366 241.772L486.72 242.125L468.264 260.581L467.911 260.227L486.366 241.772Z" fill="#2A94F4"/>
</g>
<mask id="mask39_2664_423" style="mask-type:luminance" maskUnits="userSpaceOnUse" x="459" y="234" width="35" height="33">
<path d="M459.354 251.671L481.063 266.591L493.154 248.559L470.81 234.559L459.354 251.671Z" fill="white"/>
</mask>
<g mask="url(#mask39_2664_423)">
<path d="M486.648 242.054L487.002 242.407L468.547 260.863L468.193 260.509L486.648 242.054ZM487.002 242.407L487.356 242.761L468.9 261.216L468.547 260.863L487.002 242.407ZM487.356 242.761L487.709 243.114L469.254 261.57L468.9 261.216L487.356 242.761Z" fill="#2A94F4"/>
</g>
<mask id="mask40_2664_423" style="mask-type:luminance" maskUnits="userSpaceOnUse" x="459" y="234" width="35" height="33">
<path d="M459.354 251.671L481.063 266.591L493.154 248.559L470.81 234.559L459.354 251.671Z" fill="white"/>
</mask>
<g mask="url(#mask40_2664_423)">
<path d="M487.639 243.044L487.992 243.397L469.537 261.853L469.183 261.499L487.639 243.044ZM487.992 243.397L488.346 243.751L469.89 262.207L469.537 261.853L487.992 243.397Z" fill="#2A94F4"/>
</g>
<mask id="mask41_2664_423" style="mask-type:luminance" maskUnits="userSpaceOnUse" x="459" y="234" width="35" height="33">
<path d="M459.354 251.671L481.063 266.591L493.154 248.559L470.81 234.559L459.354 251.671Z" fill="white"/>
</mask>
<g mask="url(#mask41_2664_423)">
<path d="M488.275 243.681L488.629 244.034L470.173 262.49L469.82 262.136L488.275 243.681ZM488.629 244.034L488.982 244.388L470.527 262.843L470.173 262.49L488.629 244.034ZM488.982 244.388L489.336 244.741L470.881 263.197L470.527 262.843L488.982 244.388Z" fill="#2A94F4"/>
</g>
<mask id="mask42_2664_423" style="mask-type:luminance" maskUnits="userSpaceOnUse" x="459" y="234" width="35" height="33">
<path d="M459.354 251.671L481.063 266.591L493.154 248.559L470.81 234.559L459.354 251.671Z" fill="white"/>
</mask>
<g mask="url(#mask42_2664_423)">
<path d="M489.265 244.67L489.618 245.023L471.163 263.479L470.809 263.125L489.265 244.67ZM489.618 245.023L489.972 245.377L471.516 263.832L471.163 263.479L489.618 245.023Z" fill="#2A94F4"/>
</g>
<mask id="mask43_2664_423" style="mask-type:luminance" maskUnits="userSpaceOnUse" x="459" y="234" width="35" height="33">
<path d="M459.354 251.671L481.063 266.591L493.154 248.559L470.81 234.559L459.354 251.671Z" fill="white"/>
</mask>
<g mask="url(#mask43_2664_423)">
<path d="M489.901 245.307L490.255 245.66L471.799 264.116L471.446 263.762L489.901 245.307ZM490.255 245.66L490.608 246.014L472.153 264.469L471.799 264.116L490.255 245.66ZM490.608 246.014L490.962 246.367L472.507 264.823L472.153 264.469L490.608 246.014Z" fill="#2A94F4"/>
</g>
<mask id="mask44_2664_423" style="mask-type:luminance" maskUnits="userSpaceOnUse" x="459" y="234" width="35" height="33">
<path d="M459.354 251.671L481.063 266.591L493.154 248.559L470.81 234.559L459.354 251.671Z" fill="white"/>
</mask>
<g mask="url(#mask44_2664_423)">
<path d="M490.892 246.297L491.245 246.65L472.79 265.106L472.436 264.752L490.892 246.297ZM491.245 246.65L491.599 247.004L473.143 265.459L472.79 265.106L491.245 246.65Z" fill="#2A94F4"/>
</g>
<mask id="mask45_2664_423" style="mask-type:luminance" maskUnits="userSpaceOnUse" x="459" y="234" width="35" height="33">
<path d="M459.354 251.671L481.063 266.591L493.154 248.559L470.81 234.559L459.354 251.671Z" fill="white"/>
</mask>
<g mask="url(#mask45_2664_423)">
<path d="M491.527 246.933L491.881 247.286L473.425 265.742L473.072 265.388L491.527 246.933ZM491.881 247.286L492.234 247.64L473.779 266.095L473.425 265.742L491.881 247.286ZM492.234 247.64L492.588 247.993L474.133 266.449L473.779 266.095L492.234 247.64Z" fill="#2A94F4"/>
</g>
<mask id="mask46_2664_423" style="mask-type:luminance" maskUnits="userSpaceOnUse" x="459" y="234" width="35" height="33">
<path d="M459.354 251.671L481.063 266.591L493.154 248.559L470.81 234.559L459.354 251.671Z" fill="white"/>
</mask>
<g mask="url(#mask46_2664_423)">
<path d="M492.518 247.923L492.871 248.276L474.416 266.732L474.062 266.378L492.518 247.923ZM492.871 248.276L493.225 248.63L474.769 267.085L474.416 266.732L492.871 248.276Z" fill="#2A94F4"/>
</g>
<mask id="mask47_2664_423" style="mask-type:luminance" maskUnits="userSpaceOnUse" x="459" y="234" width="35" height="33">
<path d="M459.354 251.671L481.063 266.591L493.154 248.559L470.81 234.559L459.354 251.671Z" fill="white"/>
</mask>
<g mask="url(#mask47_2664_423)">
<path d="M493.154 248.56L493.508 248.913L475.052 267.369L474.699 267.015L493.154 248.56ZM493.508 248.913L493.861 249.267L475.406 267.722L475.052 267.369L493.508 248.913ZM493.861 249.267L494.215 249.62L475.759 268.076L475.406 267.722L493.861 249.267Z" fill="#2A94F4"/>
</g>
<mask id="mask48_2664_423" style="mask-type:luminance" maskUnits="userSpaceOnUse" x="459" y="234" width="35" height="33">
<path d="M459.354 251.671L481.063 266.591L493.154 248.559L470.81 234.559L459.354 251.671Z" fill="white"/>
</mask>
<g mask="url(#mask48_2664_423)">
<path d="M494.145 249.55L494.498 249.903L476.043 268.359L475.689 268.005L494.145 249.55ZM494.498 249.903L494.852 250.257L476.396 268.712L476.043 268.359L494.498 249.903Z" fill="#2A94F4"/>
</g>
<mask id="mask49_2664_423" style="mask-type:luminance" maskUnits="userSpaceOnUse" x="459" y="234" width="35" height="33">
<path d="M459.354 251.671L481.063 266.591L493.154 248.559L470.81 234.559L459.354 251.671Z" fill="white"/>
</mask>
<g mask="url(#mask49_2664_423)">
<path d="M494.78 250.186L495.134 250.539L476.678 268.995L476.325 268.641L494.78 250.186ZM495.134 250.539L495.487 250.893L477.032 269.348L476.678 268.995L495.134 250.539ZM495.487 250.893L495.841 251.246L477.385 269.702L477.032 269.348L495.487 250.893Z" fill="#2A94F4"/>
</g>
<mask id="mask50_2664_423" style="mask-type:luminance" maskUnits="userSpaceOnUse" x="459" y="234" width="35" height="33">
<path d="M459.354 251.671L481.063 266.591L493.154 248.559L470.81 234.559L459.354 251.671Z" fill="white"/>
</mask>
<g mask="url(#mask50_2664_423)">
<path d="M495.771 251.176L496.124 251.529L477.669 269.985L477.315 269.631L495.771 251.176Z" fill="#2A94F4"/>
</g>
<path d="M474.699 273.379C474.699 273.379 469.75 267.439 468.689 268.076C467.628 268.712 467.699 269.631 467.699 269.631L464.588 268.076C464.588 268.076 461.901 268.217 462.891 271.045C462.891 271.045 460.416 270.975 461.618 273.591C461.618 273.591 459.921 274.298 460.345 275.571C460.699 276.914 464.093 280.591 464.093 280.591C464.093 280.591 465.153 281.086 466.355 279.46C466.355 279.46 468.194 279.884 469.184 278.329C469.184 278.329 470.669 278.399 471.729 276.773C471.729 276.773 475.124 276.773 475.406 273.945C475.194 274.015 474.911 273.591 474.699 273.379Z" fill="#FFE3CA"/>
</g>
</g>
<defs>
<clipPath id="clip0_2664_423">
<rect width="806" height="646" fill="white"/>
</clipPath>
<clipPath id="clip1_2664_423">
<rect width="705" height="787" fill="white" transform="translate(403.493 -231) rotate(45)"/>
</clipPath>
</defs>
</svg>
