<svg width="24" height="24" viewBox="0 0 24 24" fill="none" xmlns="http://www.w3.org/2000/svg">
<g clip-path="url(#clip0_2670_530)">
<path d="M8.13262 18.9762C8.14962 18.9762 8.19662 19.0673 8.25962 19.1723C8.49262 19.5613 8.69362 19.8313 9.08962 20.0273C9.47562 20.1483 10.3256 20.2363 10.6556 19.5473C10.8566 19.1993 10.7936 18.0683 10.7936 16.8363C10.7936 14.8953 10.8026 12.9692 10.8026 11.0312H13.0506L13.0466 11.0872C13.0466 13.1572 13.0586 15.2123 13.0466 17.2663C13.0516 18.5423 13.1596 19.6822 12.6496 20.6122C12.2966 21.3322 11.6216 21.7973 10.8386 22.0233C9.63562 22.2933 8.48662 22.1282 7.63162 21.6182C7.05762 21.2732 6.61262 20.7312 6.30762 20.1012L8.13262 18.9762Z" fill="#2F55D4"/>
<path d="M19.7756 18.5717C19.5206 17.6107 17.5246 17.3867 16.1596 16.3667C14.7796 15.4367 14.4506 13.1867 15.5906 11.8957C15.9806 11.4157 16.6246 11.0557 17.3006 10.8907L18.0056 10.8017C19.3706 10.7707 20.2096 11.1307 20.8396 11.8357C21.0216 12.0147 21.1556 12.1957 21.4256 12.6157C20.7046 13.0647 20.7046 13.0647 19.6706 13.7407C19.4446 13.2607 19.0846 12.9607 18.6946 12.8407C18.0946 12.6607 17.3296 12.8547 17.1796 13.5007C17.1206 13.6957 17.1346 13.8757 17.2256 14.2057C17.4686 14.7607 18.2866 15.0007 19.0226 15.3457C21.1376 16.2037 21.8506 17.1236 22.0256 18.2186L21.9796 18.1517C22.1456 19.0967 21.9346 19.7117 21.9056 19.8017C21.1246 22.4717 16.7746 22.5617 15.0346 20.8057C14.6746 20.3857 14.4346 20.1767 14.2246 19.6967L16.0546 18.6456C16.5496 19.3956 16.9986 19.8017 17.8096 19.9817C18.9056 20.1167 20.0156 19.7417 19.7756 18.5717Z" fill="#34C759"/>
</g>
<rect x="0.5" y="0.5" width="23" height="23" rx="1.5" stroke="#2F55D4"/>
<defs>
<clipPath id="clip0_2670_530">
<rect width="24" height="24" rx="2" fill="white"/>
</clipPath>
</defs>
</svg>
