<svg width="500" height="113" viewBox="0 0 500 113" fill="none" xmlns="http://www.w3.org/2000/svg">
<path d="M32.4201 111.431C31.6215 111.179 30.7424 110.761 29.6115 110.06C29.9516 110.168 30.3145 110.274 30.6942 110.374C32.2772 110.791 34.1795 111.112 35.9818 111.041C38.6958 110.935 40.0111 110.673 41.1719 110.37C41.3771 110.317 41.5766 110.262 41.7773 110.207C42.4936 110.011 43.2274 109.811 44.3079 109.632C43.6859 110.012 42.8319 110.429 41.8155 110.797C40.2274 111.373 38.2694 111.819 36.231 111.819C34.6965 111.819 33.6447 111.817 32.4201 111.431Z" fill="#5A6B6B" stroke="#5A6B6B" stroke-width="0.518667"/>
<path d="M35.7197 110.782C31.4831 110.665 28.6902 109.574 26.8974 108.125C25.4267 106.936 24.6139 105.494 24.2311 104.114C25.4918 105.293 27.3457 106.296 29.2655 107.037C31.5534 107.919 33.9849 108.448 35.7125 108.448C40.9297 108.448 43.8247 107.6 45.9116 106.54C46.8279 106.074 47.5847 105.57 48.3009 105.092C48.3957 105.029 48.4898 104.966 48.5835 104.904C49.1047 104.558 49.6139 104.231 50.1653 103.94C49.4697 104.775 48.2403 106.081 46.5172 107.331C43.9561 109.187 40.3155 110.91 35.7197 110.782Z" fill="#3C486B" stroke="#3C486B" stroke-width="0.518667"/>
<path d="M9.26411 88.3901C8.78949 93.4525 10.179 98.0544 11.9124 101.039C9.0239 98.2554 4.74523 93.3006 2.50194 87.6061C1.17105 84.2277 0.783966 80.3137 1.05417 76.6923C1.32457 73.0681 2.25109 69.7646 3.52152 67.6046C3.52521 67.5983 3.52863 67.5919 3.53178 67.5854C8.17739 57.9074 15.7968 49.7665 24.2107 42.7766C31.9452 36.3509 40.3369 30.909 47.6882 26.1417C48.3341 25.7228 48.972 25.3092 49.6007 24.9005C64.344 15.3172 86.1869 4.91326 99.4363 0.432144C98.5919 4.78393 96.2326 9.31222 92.9682 13.7965C89.598 18.426 85.2751 22.9922 80.6951 27.2485C71.8651 35.4545 62.1006 42.4891 56.4122 46.5872C56.2005 46.7398 55.9944 46.8883 55.7942 47.0326L39.1998 58.3116L22.6093 69.5881C13.3411 75.0732 9.85571 82.08 9.26411 88.3901Z" fill="#3C486B" stroke="#3C486B" stroke-width="0.518667" stroke-linejoin="round"/>
<path d="M38.9464 75.8125C31.4342 80.6146 26.3646 84.8753 23.1244 88.6449C19.8842 92.4145 18.4608 95.708 18.2724 98.5712C17.9312 103.755 21.6348 107.385 25.5142 109.763C21.263 108.898 16.6586 106.739 13.4744 102.995C9.94333 98.8436 8.13054 92.7115 10.5345 84.1404C12.0008 78.9124 17.0769 73.4458 24.0746 68.1662C31.06 62.896 39.912 57.8472 48.8536 53.4423C57.7938 49.038 66.8156 45.2812 74.1357 42.5935C77.7959 41.2496 81.0286 40.1737 83.6115 39.418C85.7863 38.7817 87.4853 38.3771 88.5885 38.2263C78.1604 52.4887 69.6398 57.4819 55.7299 65.6335C50.8903 68.4697 45.3982 71.6882 38.9464 75.8125Z" fill="#5A6B6B" stroke="#5A6B6B" stroke-width="0.518667"/>
<path d="M31.949 90.5904C26.1805 93.9974 23.2578 97.6312 23.2929 101.307C23.3261 104.771 25.9853 108.127 31.0095 111.224C29.0847 110.969 26.3842 110.077 23.9653 108.429C21.061 106.449 18.5943 103.403 18.341 99.0971C18.1027 95.0465 20.6824 91.2283 24.6183 87.7474C28.5458 84.274 33.7679 81.1861 38.6904 78.5951C52.2312 71.4677 64.9805 65.8202 76.4575 64.4203C74.7668 67.1834 71.9827 69.7491 68.55 72.1479C64.9364 74.673 60.6231 77.0001 56.1546 79.1697C52.6035 80.8937 48.9608 82.5153 45.4978 84.0568C44.6029 84.4552 43.7199 84.8482 42.8537 85.2363C38.6404 87.1239 34.8174 88.8962 31.949 90.5904Z" fill="#CFD9D8" stroke="#CFD9D8" stroke-width="0.518667"/>
<path d="M147.267 30.8534C152.237 31.0392 156.139 31.1321 158.972 31.1321C161.689 31.1321 164.685 31.0392 167.96 30.8534C168.053 31.225 168.099 31.4805 168.099 31.6198C168.099 31.8753 168.053 32.1656 167.96 32.4907C165.939 32.5836 164.546 32.8391 163.78 33.2571C163.036 33.6519 162.665 34.1745 162.665 34.8247C162.665 35.0105 162.688 35.2312 162.735 35.4866C162.804 35.7189 167.519 47.3657 176.878 70.4272H177.226L184.019 52.3125L177.888 36.7756C176.913 34.2674 174.579 32.8391 170.886 32.4907C170.793 32.0727 170.747 31.7824 170.747 31.6198C170.747 31.3876 170.793 31.1321 170.886 30.8534C174.161 31.0392 177.795 31.1321 181.79 31.1321C185.459 31.1321 188.931 31.0392 192.206 30.8534C192.299 31.225 192.345 31.4805 192.345 31.6198C192.345 31.8753 192.299 32.1656 192.206 32.4907C189.396 32.5836 187.573 32.8043 186.737 33.1526C185.924 33.4777 185.517 34.1048 185.517 35.0338C185.517 35.057 185.68 35.6376 186.005 36.7756L198.86 70.4272H199.208L211.923 36.3227C212.062 35.9743 212.132 35.5215 212.132 34.9641C212.132 34.2209 211.679 33.6868 210.774 33.3616C209.868 33.0133 208.393 32.723 206.349 32.4907C206.256 31.9798 206.21 31.6663 206.21 31.5502C206.21 31.3644 206.256 31.1321 206.349 30.8534C209.206 30.9928 211.935 31.0624 214.536 31.0624C217.067 31.0624 219.564 30.9928 222.026 30.8534C222.118 31.1321 222.165 31.3644 222.165 31.5502C222.165 31.9217 222.118 32.2353 222.026 32.4907C220.377 32.6533 219.006 33.0017 217.915 33.5358C216.847 34.07 216.011 34.9989 215.407 36.3227L197.71 83.0727H196.142L185.657 56.5276L175.728 83.0727H174.161L155.036 36.7756C154.014 34.3138 151.424 32.8855 147.267 32.4907C147.174 32.0727 147.128 31.7824 147.128 31.6198C147.128 31.3876 147.174 31.1321 147.267 30.8534ZM267.34 30.8534C272.543 31.0392 276.584 31.1321 279.463 31.1321C282.343 31.1321 286.384 31.0392 291.586 30.8534C291.679 31.225 291.726 31.4805 291.726 31.6198C291.726 31.8753 291.679 32.1656 291.586 32.4907C290.518 32.5836 289.647 32.6881 288.974 32.8043C288.323 32.8971 287.51 33.0597 286.535 33.292C285.583 33.5242 284.851 33.8609 284.34 34.3022C283.829 34.7202 283.562 35.2312 283.539 35.835C283.237 43.7312 283.086 51.0816 283.086 57.8862C283.086 62.8562 283.214 69.3241 283.469 77.29C283.493 77.8938 283.76 78.4163 284.271 78.8576C284.782 79.2756 285.513 79.6007 286.465 79.833C287.441 80.0652 288.254 80.2394 288.904 80.3555C289.577 80.4484 290.448 80.5413 291.517 80.6342C291.61 80.9129 291.656 81.2264 291.656 81.5748C291.656 81.7606 291.61 81.9928 291.517 82.2715C287.569 82.1322 283.528 82.0625 279.394 82.0625C275.213 82.0625 271.172 82.1322 267.271 82.2715C267.178 81.9928 267.131 81.7606 267.131 81.5748C267.131 81.18 267.178 80.8665 267.271 80.6342C267.967 80.5645 268.525 80.5065 268.943 80.46C269.361 80.4136 269.93 80.3323 270.65 80.2162C271.393 80.1001 271.985 79.9723 272.426 79.833C272.891 79.6704 273.367 79.473 273.855 79.2408C274.342 79.0085 274.702 78.7298 274.935 78.4047C275.19 78.0796 275.318 77.708 275.318 77.29C275.597 70.0208 275.736 62.6936 275.736 55.3084C275.736 47.7838 275.62 41.2926 275.388 35.835C275.364 35.2312 275.097 34.7202 274.586 34.3022C274.075 33.8609 273.332 33.5242 272.357 33.292C271.405 33.0597 270.592 32.8971 269.918 32.8043C269.268 32.6881 268.409 32.5836 267.34 32.4907C267.247 32.0727 267.201 31.7824 267.201 31.6198C267.201 31.3876 267.247 31.1321 267.34 30.8534ZM339.758 30.8534C343.566 31.0392 348.374 31.1321 354.18 31.1321C370.599 51.7086 379.424 62.6704 380.655 64.0174C381.886 65.3412 382.502 66.0031 382.502 66.0031H382.78C382.873 61.544 382.92 57.9559 382.92 55.2387C382.92 49.8739 382.803 43.5686 382.571 36.3227C382.525 34.2325 379.947 32.9552 374.838 32.4907C374.745 31.9798 374.698 31.6663 374.698 31.5502C374.698 31.3644 374.745 31.1321 374.838 30.8534C378.577 30.9928 381.886 31.0624 384.766 31.0624C386.624 31.0624 389.736 30.9928 394.102 30.8534C394.195 31.1321 394.241 31.3644 394.241 31.5502C394.241 31.9217 394.195 32.2353 394.102 32.4907C389.016 32.9552 386.45 34.2325 386.403 36.3227C386.125 43.5918 385.985 50.7565 385.985 57.8166C385.985 68.6158 386.101 76.7442 386.334 82.2018L385.706 82.2715L351.079 39.667H350.731C350.592 45.682 350.522 51.7551 350.522 57.8862C350.522 63.2742 350.638 69.568 350.87 76.7674C350.917 78.8808 353.483 80.1697 358.569 80.6342C358.685 81.029 358.743 81.3426 358.743 81.5748C358.743 81.807 358.685 82.0393 358.569 82.2715C354.877 82.1322 351.579 82.0625 348.676 82.0625C346.818 82.0625 343.706 82.1322 339.34 82.2715C339.224 82.0393 339.165 81.807 339.165 81.5748C339.165 81.18 339.224 80.8665 339.34 80.6342C344.472 80.1465 347.038 78.8576 347.038 76.7674C347.317 69.5215 347.456 62.3685 347.456 55.3084C347.456 47.6444 347.364 40.9907 347.178 35.3473C345.227 33.6519 342.754 32.6997 339.758 32.4907C339.618 32.1888 339.549 31.9217 339.549 31.6895C339.549 31.3411 339.618 31.0624 339.758 30.8534ZM490.661 46.669C489.918 45.0201 489.186 43.5802 488.466 42.3493C487.746 41.0952 486.805 39.7947 485.644 38.4477C484.483 37.1007 483.241 35.9976 481.917 35.1383C480.593 34.279 478.967 33.5706 477.04 33.0133C475.112 32.4559 472.987 32.1772 470.665 32.1772C468.157 32.1772 465.881 32.6881 463.837 33.71C461.793 34.7318 460.109 36.0672 458.786 37.7161C457.485 39.3651 456.382 41.281 455.476 43.4641C454.594 45.6239 453.967 47.807 453.595 50.0133C453.223 52.1963 453.038 54.4142 453.038 56.667C453.038 58.8965 453.235 61.1144 453.63 63.3207C454.025 65.5037 454.675 67.6752 455.581 69.835C456.51 71.9949 457.648 73.8876 458.995 75.5133C460.342 77.139 462.037 78.4628 464.081 79.4846C466.148 80.4833 468.435 80.9826 470.943 80.9826C476.053 80.9826 479.606 79.8446 481.603 77.5686V63.4252C481.603 62.9375 481.406 62.5078 481.011 62.1362C480.616 61.7414 480.163 61.4395 479.652 61.2305C479.142 61.0215 478.456 60.8357 477.597 60.6731C476.761 60.4873 476.076 60.3596 475.542 60.2899C475.008 60.2203 474.334 60.1506 473.521 60.0809C473.428 59.7093 473.382 59.4306 473.382 59.2449C473.382 59.0823 473.428 58.8152 473.521 58.4436C478.77 58.6294 482.811 58.7223 485.644 58.7223C488.524 58.7223 492.565 58.6294 497.767 58.4436C497.883 58.9081 497.941 59.1752 497.941 59.2449C497.941 59.3377 497.883 59.6164 497.767 60.0809C496.954 60.1506 496.281 60.2203 495.747 60.2899C495.213 60.3596 494.516 60.4873 493.657 60.6731C492.821 60.8357 492.147 61.0215 491.636 61.2305C491.148 61.4395 490.707 61.7414 490.312 62.1362C489.918 62.5078 489.72 62.9375 489.72 63.4252V68.5809C489.72 72.9935 490.243 76.6048 491.288 79.415C487.456 80.8316 484.053 81.8651 481.081 82.5154C478.108 83.1656 474.729 83.4908 470.943 83.4908C468.691 83.4908 466.426 83.2585 464.15 82.7941C461.874 82.3296 459.482 81.4587 456.974 80.1814C454.489 78.904 452.295 77.3016 450.39 75.374C448.509 73.4464 446.941 70.8685 445.687 67.6404C444.456 64.4122 443.841 60.7544 443.841 56.667C443.841 53.7175 444.154 50.9887 444.782 48.4805C445.432 45.9491 446.291 43.7776 447.359 41.9661C448.428 40.1547 449.693 38.529 451.157 37.0891C452.643 35.6492 454.187 34.4764 455.79 33.5706C457.392 32.6649 459.076 31.9217 460.841 31.3411C462.629 30.7373 464.325 30.3193 465.927 30.087C467.53 29.8316 469.109 29.7038 470.665 29.7038C473.266 29.7038 475.739 29.8664 478.085 30.1915C480.454 30.4935 482.811 30.8767 485.157 31.3411C487.502 31.7824 489.36 32.0843 490.73 32.2469C490.382 33.292 490.208 34.7667 490.208 36.6711C490.208 39.8295 490.777 42.9067 491.915 45.9026C491.775 46.3207 491.357 46.5761 490.661 46.669Z" fill="black"/>
</svg>
