<svg width="24" height="24" viewBox="0 0 24 24" fill="none" xmlns="http://www.w3.org/2000/svg">
<path d="M14.5 17C12.324 17 10 16.277 10 14.25C10 13.974 10.224 13.75 10.5 13.75C10.776 13.75 11 13.974 11 14.25C11 15.951 14.142 16 14.5 16C16.415 16 18 15.868 18 14.25C18 11.998 10 13.109 10 9.75C10 7.723 12.324 7 14.5 7C16.676 7 19 7.723 19 9.75C19 10.026 18.776 10.25 18.5 10.25C18.224 10.25 18 10.026 18 9.75C18 8.049 14.858 8 14.5 8C14.142 8 11 8.049 11 9.75C11 11.976 19 10.901 19 14.25C19 17 16.072 17 14.5 17Z" fill="#34C759"/>
<path d="M6.70262 20.782C6.31962 20.782 5.93562 20.684 5.58462 20.488L5.04862 20.189C4.80762 20.055 4.72062 19.751 4.85562 19.509C4.98962 19.266 5.29462 19.181 5.53562 19.316L6.07162 19.615C6.47562 19.84 6.95762 19.837 7.35962 19.6C7.76062 19.364 7.99962 18.946 7.99962 18.481V7.5C7.99962 7.224 8.22362 7 8.49962 7C8.77562 7 8.99962 7.224 8.99962 7.5V18.481C8.99962 19.304 8.57562 20.044 7.86562 20.461C7.50362 20.676 7.10362 20.782 6.70262 20.782Z" fill="#2F55D4"/>
<path d="M12.002 23.9988C11.729 23.9988 11.454 23.9277 11.211 23.7847L8.746 22.3468C8.508 22.2078 8.427 21.9018 8.566 21.6628C8.705 21.4238 9.011 21.3417 9.25 21.4827L11.715 22.9207C11.894 23.0247 12.108 23.0267 12.288 22.9207L21.21 17.7148C21.388 17.6108 21.499 17.4138 21.5 17.2038V6.79275C21.5 6.58275 21.388 6.38675 21.208 6.28075L12.289 1.07675C12.111 0.97275 11.893 0.97275 11.717 1.07675L2.788 6.28175C2.61 6.38675 2.499 6.58175 2.5 6.79175V17.2038C2.5 17.4148 2.61 17.6088 2.789 17.7138L5.546 19.3218C5.784 19.4608 5.865 19.7668 5.726 20.0058C5.587 20.2448 5.279 20.3248 5.042 20.1858L2.285 18.5777C1.801 18.2957 1.5 17.7698 1.5 17.2038V6.79275C1.499 6.22875 1.799 5.70175 2.284 5.41875L11.21 0.21475C11.698 -0.07225 12.306 -0.07025 12.792 0.21275L21.713 5.41775C22.199 5.70275 22.5 6.22875 22.5 6.79275V17.2057C22.499 17.7687 22.198 18.2937 21.716 18.5777L12.792 23.7847C12.549 23.9277 12.275 23.9988 12.002 23.9988Z" fill="#2F55D4"/>
</svg>
