<svg width="2500" height="704" viewBox="0 0 2500 704" fill="none" xmlns="http://www.w3.org/2000/svg">
<path d="M177.675 489.739C155.229 489.739 134.823 471.374 134.823 448.928C134.823 426.481 153.188 408.116 177.675 408.116C202.162 408.116 220.527 426.481 220.527 448.928C220.527 471.374 200.122 489.739 177.675 489.739ZM704.145 267.316C700.064 234.667 679.658 208.139 653.13 187.733L642.927 179.571L634.765 189.774C618.441 208.139 612.319 240.789 614.359 265.276C616.4 283.641 622.522 302.006 632.725 316.29C624.562 320.371 614.359 324.452 606.197 328.533C587.832 334.655 569.467 336.696 551.101 336.696H22.5912L20.5506 348.939C16.4695 387.71 22.5912 428.522 38.9159 465.252L47.0782 479.536V481.577C96.0521 563.2 183.797 599.931 279.704 599.931C463.356 599.931 614.359 520.348 685.78 348.939C732.713 350.98 779.646 338.736 802.093 293.844L808.214 283.641L798.012 277.519C771.484 261.194 734.754 259.154 704.145 267.316ZM440.91 234.667H361.327V314.249H440.91V234.667ZM440.91 134.678H361.327V214.261H440.91V134.678ZM440.91 32.6494H361.327V112.232H440.91V32.6494ZM538.858 234.667H459.275V314.249H538.858V234.667ZM242.974 234.667H163.391V314.249H242.974V234.667ZM342.962 234.667H263.38V314.249H342.962V234.667ZM145.026 234.667H65.4434V314.249H145.026V234.667ZM342.962 134.678H263.38V214.261H342.962V134.678ZM242.974 134.678H163.391V214.261H242.974V134.678Z" fill="#8C98A4"/>
<mask id="mask0_2552_2693" style="mask-type:luminance" maskUnits="userSpaceOnUse" x="19" y="32" width="790" height="568">
<path d="M177.675 489.739C155.229 489.739 134.823 471.374 134.823 448.928C134.823 426.481 153.188 408.116 177.675 408.116C202.162 408.116 220.527 426.481 220.527 448.928C220.527 471.374 200.122 489.739 177.675 489.739ZM704.145 267.316C700.064 234.667 679.658 208.139 653.13 187.733L642.927 179.571L634.765 189.774C618.441 208.139 612.319 240.789 614.359 265.276C616.4 283.641 622.522 302.006 632.725 316.29C624.562 320.371 614.359 324.452 606.197 328.533C587.832 334.655 569.467 336.696 551.101 336.696H22.5912L20.5506 348.939C16.4695 387.71 22.5912 428.522 38.9159 465.252L47.0782 479.536V481.577C96.0521 563.2 183.797 599.931 279.704 599.931C463.356 599.931 614.359 520.348 685.78 348.939C732.713 350.98 779.646 338.736 802.093 293.844L808.214 283.641L798.012 277.519C771.484 261.194 734.754 259.154 704.145 267.316V267.316ZM440.91 234.667H361.327V314.249H440.91V234.667ZM440.91 134.678H361.327V214.261H440.91V134.678ZM440.91 32.6494H361.327V112.232H440.91V32.6494V32.6494ZM538.858 234.667H459.275V314.249H538.858V234.667ZM242.974 234.667H163.391V314.249H242.974V234.667V234.667ZM342.962 234.667H263.38V314.249H342.962V234.667ZM145.026 234.667H65.4434V314.249H145.026V234.667V234.667ZM342.962 134.678H263.38V214.261H342.962V134.678ZM242.974 134.678H163.391V214.261H242.974V134.678V134.678Z" fill="white"/>
</mask>
<g mask="url(#mask0_2552_2693)">
<path d="M-995.658 -428.521H25017.7V2660.92H-995.658V-428.521Z" fill="#8C98A4"/>
</g>
<path d="M2079.5 440.765C2114.19 410.157 2148.88 381.588 2183.57 350.98C2195.81 340.777 2208.05 330.574 2220.3 318.33C2210.09 306.087 2195.81 297.925 2181.52 291.803C2155 281.6 2128.47 285.681 2101.94 299.965C2069.29 318.33 2055.01 348.939 2057.05 385.67C2057.05 399.954 2061.13 414.238 2069.29 426.481C2075.41 432.603 2077.46 436.684 2079.5 440.765ZM2120.31 469.333C2136.63 475.455 2157.04 475.455 2175.4 471.374C2183.57 467.293 2208.05 457.09 2216.21 459.13H2220.3C2226.42 461.171 2230.5 465.252 2232.54 471.374C2238.66 483.617 2236.62 495.861 2224.38 501.983L2220.3 504.023C2175.4 530.551 2128.47 526.47 2083.58 501.983C2063.17 489.739 2046.85 473.415 2034.6 453.009L2032.56 448.928C2003.99 399.954 2008.08 346.899 2040.72 299.965C2050.93 283.641 2067.25 271.397 2083.58 261.194L2089.7 257.113C2132.55 232.626 2177.44 234.667 2220.3 255.072C2242.74 267.316 2263.15 283.641 2275.39 306.087L2277.43 310.168C2287.63 326.493 2275.39 340.777 2261.11 350.98L2218.26 387.71C2181.52 416.278 2150.92 442.806 2120.31 469.333ZM2452.92 244.87H2457C2471.29 244.87 2481.49 255.072 2481.49 269.357C2481.49 289.762 2463.12 293.843 2446.8 293.843C2426.39 293.843 2405.99 306.087 2391.7 320.371C2373.34 338.736 2365.18 361.183 2365.18 385.67V499.942C2365.18 512.186 2357.01 524.429 2342.73 524.429H2338.65C2324.37 524.429 2316.2 514.226 2316.2 499.942V379.548C2316.2 332.614 2338.65 295.884 2375.38 269.357C2401.91 253.032 2426.39 244.87 2452.92 244.87ZM1869.32 324.452L1924.41 269.357C1930.53 265.275 1948.9 242.829 1957.06 242.829H1965.22C1975.43 244.87 1983.59 250.991 1983.59 263.235V267.316C1983.59 275.478 1973.39 283.641 1969.3 289.762C1959.1 302.006 1946.86 312.209 1936.66 324.452L1879.52 381.588L1952.98 455.049L1973.39 475.455L1981.55 483.617C1983.59 487.699 1985.63 489.739 1985.63 493.82V499.942C1983.59 510.145 1975.43 518.307 1965.22 518.307H1961.14C1952.98 518.307 1944.82 510.145 1938.7 504.023C1928.49 493.82 1916.25 483.617 1906.05 471.374L1869.32 436.684V493.82C1869.32 506.064 1861.15 518.307 1846.87 518.307H1842.79C1828.5 518.307 1820.34 508.104 1820.34 493.82V179.571C1820.34 167.328 1828.5 157.125 1842.79 157.125H1846.87C1861.15 157.125 1869.32 167.328 1869.32 179.571V324.452ZM1718.31 293.843C1712.19 289.762 1697.91 289.762 1689.75 289.762C1650.97 287.722 1622.41 310.168 1606.08 344.858C1599.96 357.101 1597.92 369.345 1597.92 383.629C1597.92 424.441 1618.32 453.009 1655.06 469.333C1667.3 475.455 1685.66 477.496 1699.95 477.496C1712.19 477.496 1730.56 469.333 1740.76 465.252H1750.96C1761.17 467.293 1769.33 473.414 1769.33 485.658V489.739C1769.33 518.307 1716.27 524.429 1697.91 526.47C1628.53 530.551 1575.47 491.78 1555.07 426.481C1550.99 414.238 1550.99 404.035 1550.99 391.791V381.588C1550.99 330.574 1575.47 289.762 1620.37 265.275C1640.77 253.032 1663.22 246.91 1687.7 246.91H1697.91C1722.39 246.91 1746.88 253.032 1767.29 267.316L1769.33 269.357L1771.37 271.397C1773.41 275.478 1775.45 279.559 1775.45 283.641V287.722C1775.45 299.965 1767.29 306.087 1755.04 308.128H1753C1738.72 304.046 1722.39 295.884 1718.31 293.843ZM1289.79 381.588C1289.79 416.278 1308.16 442.806 1336.72 461.171C1351.01 469.333 1367.33 473.415 1383.66 473.415C1418.35 473.415 1444.88 455.049 1463.24 426.481C1471.4 412.197 1475.48 395.872 1475.48 379.548C1475.48 346.899 1459.16 320.371 1432.63 302.006C1418.35 291.803 1399.98 287.722 1383.66 287.722C1344.89 287.722 1316.32 308.128 1299.99 342.817C1289.79 357.101 1289.79 369.345 1289.79 381.588ZM1375.5 242.829H1381.62C1436.71 242.829 1477.52 269.357 1504.05 316.29C1514.26 334.655 1520.38 355.061 1520.38 377.507V387.71C1520.38 438.725 1495.89 479.536 1451 504.023C1430.59 516.267 1408.15 522.388 1383.66 522.388H1373.46C1322.44 522.388 1281.63 497.901 1257.14 453.009C1244.9 432.603 1238.78 410.157 1238.78 385.67V375.467C1238.78 324.452 1263.26 283.641 1308.16 259.154C1330.6 248.951 1351.01 242.829 1375.5 242.829ZM979.623 381.588C979.623 418.319 997.988 446.887 1030.64 463.212C1042.88 469.333 1057.17 473.415 1073.49 473.415C1110.22 473.415 1136.75 457.09 1155.11 426.481C1163.28 412.197 1167.36 395.872 1167.36 379.548C1167.36 346.899 1153.07 322.412 1126.55 304.046C1110.22 293.843 1093.9 287.722 1073.49 287.722C1034.72 287.722 1006.15 308.128 989.826 342.817C983.704 357.101 979.623 369.345 979.623 381.588ZM1167.36 277.519V177.53C1167.36 165.287 1175.52 153.043 1189.8 153.043H1193.88C1208.17 153.043 1216.33 163.246 1216.33 177.53V387.71C1216.33 438.725 1191.84 479.536 1146.95 504.023C1126.55 516.267 1104.1 522.388 1079.61 522.388H1069.41C1018.39 522.388 977.583 497.901 953.096 453.009C940.852 432.603 934.73 410.157 934.73 385.67V375.467C934.73 324.452 959.217 283.641 1004.11 259.154C1024.52 246.91 1046.96 240.788 1071.45 240.788H1081.65C1112.26 242.829 1142.87 255.072 1167.36 277.519Z" fill="#8C98A4"/>
</svg>
