<svg width="488" height="139" viewBox="0 0 488 139" fill="none" xmlns="http://www.w3.org/2000/svg">
<path d="M76.8767 73.7981C76.8789 73.0707 76.6894 72.3556 76.3273 71.7247C75.9653 71.0938 75.4434 70.5695 74.8142 70.2044L40.5642 50.5013C39.9884 50.1668 39.3391 49.979 38.6736 49.9544H38.3142C37.6491 49.9815 37.0004 50.1691 36.4236 50.5013L2.18921 70.2044C1.55715 70.5675 1.03213 71.091 0.667237 71.722C0.30234 72.353 0.110493 73.0692 0.111085 73.7981L0.18921 126.861C0.186862 127.222 0.281218 127.578 0.46252 127.892C0.643823 128.205 0.90549 128.464 1.22046 128.642C1.53294 128.826 1.88902 128.923 2.25171 128.923C2.61441 128.923 2.97048 128.826 3.28296 128.642L23.6267 116.986C24.2537 116.618 24.7739 116.093 25.1357 115.463C25.4974 114.833 25.6882 114.119 25.6892 113.392V88.595C25.6892 87.1263 26.4705 85.7513 27.7517 85.0169L36.4236 80.0325C37.0565 79.6795 37.7692 79.4942 38.4939 79.4942C39.2186 79.4942 39.9313 79.6795 40.5642 80.0325L49.2205 85.0169C49.8484 85.3794 50.3697 85.9011 50.7318 86.5292C51.0939 87.1574 51.284 87.8699 51.283 88.595V113.392C51.283 114.876 52.0798 116.22 53.3611 116.986L73.7048 128.642C74.0173 128.826 74.3734 128.923 74.7361 128.923C75.0988 128.923 75.4549 128.826 75.7673 128.642C76.0791 128.46 76.3381 128.2 76.519 127.888C76.6998 127.576 76.7962 127.222 76.7986 126.861L76.8767 73.7981ZM259.72 0.845008C259.08 0.485633 258.299 0.501256 257.674 0.876256C257.049 1.25126 256.658 1.92314 256.658 2.65751V55.2044C256.656 55.4576 256.587 55.7058 256.46 55.9245C256.332 56.1431 256.149 56.3246 255.93 56.4509C255.71 56.5772 255.462 56.644 255.208 56.6446C254.955 56.6452 254.706 56.5796 254.486 56.4544L245.908 51.5169C245.277 51.1565 244.564 50.9669 243.838 50.9669C243.111 50.9669 242.398 51.1565 241.767 51.5169L207.517 71.2825C206.888 71.6443 206.364 72.1653 205.999 72.7934C205.635 73.4214 205.441 74.1344 205.439 74.8606V114.408C205.439 115.892 206.22 117.251 207.502 117.986L241.752 137.767C242.382 138.127 243.096 138.317 243.822 138.317C244.548 138.317 245.262 138.127 245.892 137.767L280.158 117.986C280.785 117.622 281.305 117.1 281.667 116.472C282.029 115.844 282.22 115.132 282.22 114.408V15.8294C282.219 15.0932 282.022 14.3706 281.648 13.7362C281.274 13.1018 280.739 12.5784 280.095 12.22L259.705 0.845008H259.72ZM256.549 101.423C256.553 101.605 256.507 101.784 256.416 101.941C256.325 102.098 256.193 102.227 256.033 102.314L244.267 109.095C244.111 109.187 243.933 109.236 243.752 109.236C243.57 109.236 243.392 109.187 243.236 109.095L231.47 102.314C231.313 102.225 231.182 102.095 231.091 101.939C231.001 101.782 230.954 101.604 230.955 101.423V87.845C230.955 87.47 231.158 87.1263 231.47 86.9544L243.236 80.1575C243.392 80.0654 243.57 80.0169 243.752 80.0169C243.933 80.0169 244.111 80.0654 244.267 80.1575L256.033 86.9544C256.345 87.1419 256.549 87.4856 256.549 87.845V101.423ZM382.283 87.4856C382.91 87.1219 383.43 86.6 383.792 85.9721C384.154 85.3442 384.345 84.6323 384.345 83.9075V74.3294C384.346 73.6043 384.156 72.8918 383.794 72.2636C383.432 71.6354 382.911 71.1138 382.283 70.7513L348.252 50.9856C347.624 50.6176 346.909 50.4235 346.181 50.4235C345.454 50.4235 344.739 50.6176 344.111 50.9856L309.861 70.7513C309.233 71.1138 308.712 71.6354 308.35 72.2636C307.988 72.8918 307.798 73.6043 307.799 74.3294V113.861C307.799 115.345 308.595 116.72 309.892 117.454L343.924 136.845C345.174 137.564 346.72 137.564 347.986 136.861L368.564 125.423C369.205 125.064 369.611 124.376 369.627 123.626C369.642 122.876 369.236 122.189 368.595 121.814L334.127 102.033C333.81 101.852 333.548 101.59 333.367 101.274C333.186 100.958 333.092 100.6 333.095 100.236V87.845C333.095 87.1106 333.486 86.4231 334.127 86.0481L344.861 79.8763C345.176 79.6997 345.531 79.607 345.892 79.607C346.253 79.607 346.609 79.6997 346.924 79.8763L357.658 86.0481C357.973 86.2301 358.234 86.4921 358.416 86.8077C358.597 87.1233 358.691 87.4812 358.689 87.845V97.595C358.689 98.3294 359.08 99.0169 359.72 99.3919C360.361 99.7669 361.158 99.7513 361.799 99.3919L382.299 87.47L382.283 87.4856ZM139.174 50.7825C139.804 50.4221 140.518 50.2326 141.244 50.2326C141.97 50.2326 142.684 50.4221 143.314 50.7825L177.564 70.5481C178.193 70.9094 178.715 71.4308 179.078 72.0593C179.44 72.6877 179.629 73.4009 179.627 74.1263V113.689C179.626 114.414 179.435 115.125 179.073 115.753C178.711 116.381 178.191 116.903 177.564 117.267L143.314 137.048C142.684 137.409 141.97 137.598 141.244 137.598C140.518 137.598 139.804 137.409 139.174 137.048L104.924 117.267C104.296 116.904 103.774 116.383 103.412 115.755C103.05 115.126 102.86 114.414 102.861 113.689V74.1263C102.861 72.6419 103.642 71.2825 104.924 70.5481L139.174 50.7825ZM448.783 137.611C447.593 137.608 446.425 137.296 445.392 136.704L434.611 130.329C433.002 129.423 433.799 129.111 434.314 128.923C436.455 128.173 436.892 128.001 439.189 126.704C439.424 126.564 439.752 126.626 440.002 126.767L448.283 131.689C448.436 131.774 448.608 131.818 448.783 131.818C448.958 131.818 449.13 131.774 449.283 131.689L481.58 113.048C481.729 112.956 481.852 112.828 481.937 112.674C482.022 112.521 482.066 112.348 482.064 112.173V74.8919C482.064 74.7131 482.018 74.5374 481.93 74.3815C481.843 74.2255 481.717 74.0947 481.564 74.0013L449.283 55.3763C449.13 55.2914 448.958 55.2469 448.783 55.2469C448.608 55.2469 448.436 55.2914 448.283 55.3763L416.002 74.0013C415.845 74.0916 415.715 74.2214 415.625 74.3777C415.534 74.534 415.487 74.7113 415.486 74.8919V112.173C415.486 112.533 415.689 112.861 415.986 113.033L424.83 118.142C429.627 120.548 432.564 117.72 432.564 114.876V78.0794C432.568 77.8335 432.669 77.599 432.844 77.4266C433.02 77.2541 433.256 77.1575 433.502 77.1575H437.595C437.841 77.1575 438.078 77.2541 438.253 77.4266C438.428 77.599 438.529 77.8335 438.533 78.0794V114.876C438.533 121.283 435.049 124.954 428.97 124.954C427.111 124.954 425.627 124.954 421.533 122.939L413.064 118.064C412.033 117.465 411.177 116.605 410.582 115.571C409.987 114.538 409.674 113.366 409.674 112.173V74.8919C409.674 72.47 410.97 70.2044 413.064 69.0013L445.361 50.345C446.401 49.7761 447.567 49.4779 448.752 49.4779C449.937 49.4779 451.103 49.7761 452.142 50.345L484.439 69.0013C485.471 69.6004 486.327 70.4598 486.922 71.4935C487.517 72.5273 487.83 73.6991 487.83 74.8919V112.173C487.828 113.366 487.514 114.537 486.92 115.57C486.325 116.604 485.47 117.463 484.439 118.064L452.142 136.704C451.106 137.3 449.931 137.613 448.736 137.611H448.783ZM458.767 111.939C444.627 111.939 441.674 105.454 441.674 100.001C441.674 99.4856 442.08 99.0794 442.611 99.0794H446.783C447.006 99.0806 447.222 99.1615 447.391 99.3076C447.56 99.4537 447.671 99.6554 447.705 99.8763C448.33 104.126 450.205 106.283 458.767 106.283C465.564 106.283 468.47 104.736 468.47 101.142C468.47 99.0638 467.658 97.5169 457.08 96.4856C448.252 95.6106 442.783 93.6575 442.783 86.595C442.783 80.0794 448.283 76.1888 457.486 76.1888C467.83 76.1888 472.955 79.7825 473.595 87.4856C473.627 87.7513 473.533 88.0013 473.345 88.2044C473.158 88.4075 472.924 88.5013 472.658 88.5013H468.47C468.259 88.4992 468.054 88.4256 467.889 88.2922C467.725 88.1588 467.61 87.9737 467.564 87.7669C466.564 83.2981 464.111 81.8606 457.486 81.8606C450.064 81.8606 449.189 84.4544 449.189 86.3919C449.189 88.7513 450.205 89.4231 460.236 90.7513C470.158 92.0638 474.877 93.9232 474.877 100.892C474.877 107.923 469.017 111.954 458.783 111.954L458.767 111.939ZM345.658 85.6419C345.78 85.5734 345.917 85.5375 346.056 85.5375C346.196 85.5375 346.333 85.5734 346.455 85.6419L353.033 89.4388C353.156 89.5062 353.259 89.6057 353.331 89.7267C353.402 89.8477 353.44 89.9857 353.439 90.1263V97.72C353.44 97.8606 353.402 97.9986 353.331 98.1196C353.259 98.2406 353.156 98.3401 353.033 98.4075L346.455 102.204C346.333 102.273 346.196 102.309 346.056 102.309C345.917 102.309 345.78 102.273 345.658 102.204L339.095 98.4075C338.975 98.338 338.875 98.2377 338.807 98.1168C338.738 97.996 338.703 97.859 338.705 97.72V90.1263C338.705 89.845 338.861 89.5794 339.095 89.4388L345.658 85.6419Z" fill="#8C98A4"/>
</svg>
