<svg width="137" height="30" viewBox="0 0 137 30" fill="none" xmlns="http://www.w3.org/2000/svg">
<g clip-path="url(#clip0_1966_718)">
<circle cx="15.2257" cy="14.0651" r="14.0651" fill="black"/>
<path fill-rule="evenodd" clip-rule="evenodd" d="M15.1811 1.21426C8.11374 1.21426 2.37451 6.95349 2.37451 14.0208C2.37451 21.0881 8.11374 26.8274 15.1811 26.8274C15.6838 26.8274 16.1781 26.7913 16.6666 26.7344L16.6818 26.7496L16.6989 26.7306C23.0509 25.9783 27.9876 20.574 27.9876 14.0208C27.9876 7.4686 23.0509 2.06803 16.7008 1.31387C16.6846 1.30059 16.6704 1.28541 16.6533 1.27213V1.26644L16.6249 1.30154C16.1496 1.24747 15.6687 1.21426 15.1811 1.21426ZM14.7067 2.18661V6.90606H10.5897C11.4596 5.06287 12.652 3.46442 14.0769 2.21887C14.2846 2.19989 14.4961 2.19515 14.7067 2.18661ZM15.6554 2.18661C15.8669 2.1961 16.0794 2.19895 16.2872 2.21887C17.7149 3.46442 18.9101 5.06002 19.7819 6.90606H15.6554V2.18661ZM12.4073 2.50156C11.2079 3.79737 10.2361 5.28649 9.5329 6.90606H5.70896C7.3616 4.7032 9.72975 3.1456 12.4073 2.50156ZM17.953 2.50156C20.6312 3.14512 23.001 4.70277 24.6541 6.90606H20.8349C20.1298 5.28595 19.1548 3.79677 17.953 2.50156ZM5.06484 7.8547H9.15344C8.4868 9.68052 8.12404 11.6033 8.07959 13.5465H3.34686C3.42308 11.5336 4.0152 9.57393 5.06484 7.8547ZM10.1894 7.8547H14.7067V13.5465H9.02822C9.08028 11.596 9.47325 9.6697 10.1894 7.8547ZM15.6554 7.8547H20.1804C20.8966 9.66967 21.2895 11.596 21.3415 13.5465H15.6554V7.8547ZM21.2144 7.8547H25.2973C26.3469 9.57393 26.9381 11.5336 27.0143 13.5465H22.2901C22.2448 11.6031 21.881 9.68035 21.2134 7.8547H21.2144ZM3.34591 14.4951H8.07864C8.12302 16.4383 8.48579 18.3611 9.1525 20.1869H5.06294C4.01383 18.4675 3.423 16.5079 3.34686 14.4951H3.34591ZM9.02728 14.4951H14.7067V20.1869H10.1894C9.47327 18.3719 9.0803 16.4456 9.02822 14.4951H9.02728ZM15.6544 14.4951H21.3168C21.2163 16.2814 20.7287 18.2451 19.8768 20.1869H15.6554L15.6544 14.4951ZM22.2664 14.4951H27.0143C26.9382 16.5079 26.3473 18.4675 25.2982 20.1869H20.907C21.7067 18.2612 22.1734 16.3127 22.2664 14.4951ZM5.70896 21.1356H9.53479C10.238 22.7551 11.2098 24.2442 12.4092 25.5401C9.73048 24.8969 7.36019 23.3392 5.70706 21.1356H5.70896ZM10.5906 21.1356H14.7077V25.855C14.498 25.8455 14.2865 25.8417 14.0797 25.8228C12.653 24.5772 11.4615 22.9807 10.5906 21.1356ZM15.6563 21.1356H19.4158C18.5695 22.8364 17.4963 24.4145 16.2255 25.8265C16.0377 25.8436 15.8461 25.8474 15.6563 25.855V21.1356ZM20.483 21.1356H24.6551C22.9406 23.427 20.4537 25.0195 17.6551 25.6179C18.7737 24.2427 19.7225 22.7377 20.4811 21.1356H20.483Z" fill="white"/>
<path d="M2.31877 27.3488L4.81364 22.3129L9.48862 26.8937L3.18362 28.4296C2.55324 28.5831 2.03074 27.9302 2.31877 27.3488Z" fill="black" stroke="black" stroke-width="0.202375"/>
<path d="M53.0268 1.75487L53.9779 6.07834C53.9779 6.16481 53.8915 6.26569 53.7185 6.38098C53.5744 6.46745 53.4015 6.51068 53.1997 6.51068C53.0268 6.51068 52.9115 6.46745 52.8538 6.38098C52.5368 5.40099 52.1333 4.65159 51.6433 4.13278C50.5768 3.00867 49.1645 2.44662 47.4063 2.44662C45.4175 2.44662 43.9475 3.26808 42.9963 4.911C42.1893 6.32333 41.7858 8.13919 41.7858 10.3586C41.7858 12.7221 42.2902 14.7541 43.299 16.4547C44.4231 18.2993 45.9363 19.2217 47.8386 19.2217C48.6745 19.2217 49.4095 19.0776 50.0436 18.7893C50.1012 18.7317 50.1589 18.6884 50.2165 18.6596C50.2742 18.602 50.303 18.5011 50.303 18.357V14.3362C50.303 13.7597 50.1733 13.3994 49.9139 13.2553C49.6833 13.0824 49.4671 12.9671 49.2654 12.9094C48.9195 12.8518 48.588 12.8229 48.271 12.8229C48.2133 12.8229 48.1701 12.6644 48.1413 12.3474C48.1413 12.0303 48.1845 11.8285 48.271 11.7421C49.7121 11.8574 51.0956 11.915 52.4215 11.915C53.7474 11.915 54.9868 11.8574 56.1397 11.7421C56.1973 11.9438 56.2117 12.1744 56.1829 12.4338C56.1829 12.6932 56.1541 12.8229 56.0964 12.8229C55.9812 12.8229 55.7362 12.8662 55.3615 12.9526C54.9868 13.0103 54.7418 13.0824 54.6265 13.1688C54.3671 13.3129 54.2374 13.7309 54.2374 14.4226V17.4491L54.4103 18.2705C54.4103 18.5011 54.0788 18.7605 53.4159 19.0487C52.4936 19.3658 51.528 19.6828 50.5192 19.9999C49.5104 20.317 48.3286 20.4755 46.9739 20.4755C45.6481 20.4755 44.3798 20.2449 43.1693 19.7837C41.9875 19.2937 40.9499 18.6308 40.0564 17.7949C39.1917 16.9591 38.4999 15.9647 37.9811 14.8117C37.4623 13.6588 37.2029 12.4194 37.2029 11.0936C37.2029 9.73887 37.4623 8.47065 37.9811 7.28891C38.4999 6.07834 39.2061 5.02629 40.0996 4.13278C40.9931 3.23926 42.0308 2.53309 43.2125 2.01428C44.4231 1.49546 45.7057 1.23605 47.0604 1.23605C49.3662 1.23605 51.355 1.40899 53.0268 1.75487ZM58.7357 15.8061L59.2113 3.70043C59.2113 3.23926 59.0672 2.93662 58.7789 2.7925C58.2313 2.56192 57.7125 2.44662 57.2225 2.44662C57.136 2.30251 57.1072 2.10075 57.136 1.84134C57.1648 1.55311 57.1937 1.39458 57.2225 1.36576C57.8854 1.39458 58.4042 1.43781 58.7789 1.49546C59.1536 1.52428 59.6725 1.5387 60.3354 1.5387L63.3186 1.36576L68.7229 13.4715L68.8094 13.5147C68.8958 13.5147 68.9391 13.4571 68.9391 13.3418L70.1497 10.3153C71.8502 6.07834 72.8878 3.13838 73.2625 1.49546C73.2625 1.49546 73.3923 1.49546 73.6517 1.49546L74.9919 1.5387C74.9919 1.5387 75.1793 1.5387 75.554 1.5387C75.9863 1.5387 77.3554 1.48105 79.6613 1.36576C79.7189 1.4234 79.7622 1.59634 79.791 1.88457C79.8486 2.14398 79.8486 2.33133 79.791 2.44662C79.6469 2.44662 79.3875 2.47545 79.0128 2.53309C78.6669 2.59074 78.4219 2.67721 78.2778 2.7925C77.9895 2.99426 77.8598 3.36896 77.8887 3.9166C77.9175 4.43542 77.9463 5.18482 77.9751 6.16481C78.004 7.11597 78.0328 8.16801 78.0616 9.32094C78.1192 10.4739 78.1625 11.6412 78.1913 12.8229C78.2201 13.9759 78.2634 14.927 78.321 15.6764C78.4075 17.2905 78.5372 18.3282 78.7101 18.7893C78.7678 19.0487 79.2433 19.2217 80.1369 19.3081C80.3098 19.3081 80.4251 19.3081 80.4827 19.3081C80.6557 19.7117 80.6701 20.072 80.526 20.389C78.7966 20.2161 77.4707 20.1296 76.5484 20.1296C75.626 20.1296 74.1705 20.2161 72.1817 20.389C72.124 20.3314 72.0808 20.1728 72.052 19.9134C72.052 19.654 72.0808 19.4523 72.1384 19.3081C72.7437 19.3081 73.2049 19.2505 73.522 19.1352C73.8678 18.9911 74.0696 18.8758 74.1272 18.7893C74.2714 18.4435 74.3434 18.112 74.3434 17.7949V16.0223L74.084 7.24567C74.084 5.97746 73.9975 5.34335 73.8246 5.34335C73.767 5.34335 73.7237 5.40099 73.6949 5.51629L68.6797 19.1352C68.4779 19.5387 68.2473 19.8414 67.9879 20.0431C67.7573 20.2161 67.5844 20.3025 67.4691 20.3025C67.3538 20.3025 67.2673 20.2881 67.2097 20.2593L60.811 5.34335C60.7533 6.81333 60.7101 8.00949 60.6813 8.93182C60.6813 9.85416 60.6668 10.69 60.638 11.4394C60.5516 13.5723 60.4939 15.0279 60.4651 15.8061C60.4074 17.1032 60.4363 17.9679 60.5516 18.4002C60.6092 18.7461 61.2865 19.0199 62.5836 19.2217C62.843 19.2793 63.0015 19.3081 63.0592 19.3081C63.1168 19.4234 63.1456 19.5964 63.1456 19.827C63.1745 20.0575 63.16 20.2449 63.1024 20.389C62.5259 20.3314 61.9495 20.2737 61.373 20.2161C60.7966 20.1584 60.2489 20.1296 59.7301 20.1296C59.2401 20.1296 58.0007 20.2161 56.0119 20.389C55.839 20.0431 55.8246 19.6973 55.9687 19.3514C56.574 19.3514 57.1072 19.2217 57.5684 18.9623C58.0295 18.7029 58.2889 18.5155 58.3466 18.4002C58.4042 18.2849 58.4475 18.112 58.4763 17.8814C58.5339 17.6508 58.5772 17.4058 58.606 17.1464C58.6348 16.887 58.6636 16.6276 58.6925 16.3682C58.7213 16.1088 58.7357 15.9214 58.7357 15.8061ZM85.8442 1.49546L90.2109 1.40899C93.122 1.40899 95.0532 2.38898 96.0043 4.34895C96.3214 5.01188 96.4799 5.70364 96.4799 6.42421C96.4799 7.14479 96.3358 7.76449 96.0476 8.2833C95.7881 8.80212 95.4567 9.2777 95.0532 9.71005C94.2749 10.5171 93.4535 11.0215 92.5888 11.2233L96.7393 16.5411C97.604 17.6652 98.6272 18.4579 99.809 18.919C100.443 19.1784 100.991 19.3081 101.452 19.3081C101.538 19.4234 101.567 19.6252 101.538 19.9134C101.51 20.1728 101.481 20.3314 101.452 20.389C100.645 20.4467 99.5496 20.4755 98.1661 20.4755C96.7825 20.4755 95.7305 20.2449 95.0099 19.7837C94.2893 19.3226 93.7417 18.847 93.367 18.357L88.7409 12.1744C88.6833 12.1168 88.5968 12.0303 88.4815 11.915C88.395 11.7997 88.3086 11.7421 88.2221 11.7421H87.7897V16.1088C87.7897 16.7429 87.7897 17.2761 87.7897 17.7085C87.8186 18.1408 87.8762 18.4579 87.9627 18.6596C88.0491 18.8326 88.1644 18.9623 88.3086 19.0487C88.4815 19.1064 88.6544 19.164 88.8274 19.2217C89.1444 19.2793 89.4903 19.3081 89.865 19.3081C89.9226 19.4234 89.9515 19.6108 89.9515 19.8702C89.9515 20.1296 89.9226 20.3025 89.865 20.389C87.1556 20.1296 84.4463 20.1296 81.7369 20.389C81.6792 20.3025 81.6504 20.1296 81.6504 19.8702C81.6504 19.6108 81.6792 19.4234 81.7369 19.3081C82.3422 19.3081 82.7889 19.2505 83.0772 19.1352C83.3654 18.9911 83.5383 18.8758 83.596 18.7893C83.7401 18.4435 83.8121 17.5499 83.8121 16.1088V5.60275C83.8121 4.21925 83.7401 3.32573 83.596 2.92221C83.3942 2.63397 82.7745 2.48986 81.7369 2.48986C81.6792 2.37457 81.6504 2.18722 81.6504 1.92781C81.6504 1.6684 81.6792 1.49546 81.7369 1.40899C82.3998 1.46664 83.0916 1.49546 83.8121 1.49546H85.8442ZM91.8106 4.08954C91.2629 3.08073 90.4559 2.57633 89.3894 2.57633C89.0435 2.57633 88.7265 2.59074 88.4383 2.61956C88.1788 2.64839 88.0203 2.74927 87.9627 2.92221C87.8474 3.15279 87.7897 3.72925 87.7897 4.65159V10.618H89.13C89.9659 10.618 90.6865 10.2721 91.2917 9.58034C91.9259 8.88859 92.2429 7.93743 92.2429 6.72686C92.2429 5.48746 92.0988 4.60836 91.8106 4.08954ZM109.104 19.3514C109.796 19.3514 110.415 19.1496 110.963 18.7461C111.511 18.3137 111.785 17.5932 111.785 16.5844C111.785 15.7197 111.251 14.8117 110.185 13.8606C109.753 13.4571 109.291 13.0968 108.801 12.7797C108.311 12.4627 107.85 12.16 107.418 11.8718C106.986 11.5547 106.51 11.2233 105.991 10.8774C105.501 10.5315 105.054 10.1424 104.651 9.71005C103.815 8.75889 103.397 7.62037 103.397 6.29451C103.397 4.88218 104.046 3.6572 105.343 2.61956C106.553 1.63958 107.937 1.14958 109.493 1.14958C110.329 1.14958 111.107 1.23605 111.828 1.40899C112.577 1.58193 113.384 1.75487 114.249 1.92781C114.335 2.67721 114.393 3.44102 114.422 4.21925C114.48 4.99747 114.537 5.81893 114.595 6.68362C114.48 6.79891 114.379 6.85656 114.292 6.85656C113.745 6.85656 113.456 6.7845 113.427 6.64039C113.283 5.68922 112.894 4.7813 112.26 3.9166C111.511 2.87897 110.632 2.36015 109.623 2.36015C109.046 2.36015 108.499 2.53309 107.98 2.87897C107.461 3.22485 107.202 3.87337 107.202 4.82453C107.202 6.06392 108.571 7.59155 111.309 9.40741C111.77 9.72446 112.246 10.0559 112.736 10.4018C113.255 10.7189 113.716 11.0936 114.119 11.5259C115.042 12.5635 115.503 13.8173 115.503 15.2873C115.503 16.8149 114.854 18.0832 113.557 19.092C112.318 20.072 110.905 20.562 109.32 20.562C107.648 20.562 105.833 20.3025 103.873 19.7837C103.584 18.2561 103.397 17.1176 103.311 16.3682C103.253 15.6188 103.21 15.1432 103.181 14.9414C103.239 14.855 103.368 14.7685 103.57 14.682C103.801 14.5956 103.988 14.5523 104.132 14.5523C104.276 14.5523 104.363 14.6244 104.391 14.7685C104.536 15.6908 105.026 16.6564 105.861 17.6652C106.841 18.7893 107.922 19.3514 109.104 19.3514Z" fill="black"/>
<path d="M39.5917 25.0156C39.5559 24.8996 39.5065 24.7957 39.4434 24.704C39.3818 24.6108 39.3073 24.5313 39.2199 24.4654C39.1339 24.3995 39.035 24.35 38.9233 24.3171C38.8115 24.2827 38.6897 24.2655 38.5578 24.2655C38.3214 24.2655 38.1108 24.3249 37.9259 24.4439C37.7411 24.5628 37.5956 24.7376 37.4896 24.9683C37.385 25.1976 37.3327 25.477 37.3327 25.8066C37.3327 26.1391 37.385 26.4207 37.4896 26.6514C37.5942 26.8821 37.7396 27.0576 37.9259 27.178C38.1122 27.2969 38.3286 27.3564 38.575 27.3564C38.7986 27.3564 38.992 27.3134 39.1554 27.2274C39.3202 27.1414 39.447 27.0196 39.5358 26.862C39.6247 26.7029 39.6691 26.5167 39.6691 26.3031L39.8497 26.3311H38.6546V25.7078H40.4408V26.2365C40.4408 26.6134 40.3605 26.9394 40.2 27.2145C40.0395 27.4896 39.8189 27.7017 39.538 27.8508C39.2571 27.9983 38.9347 28.0721 38.5707 28.0721C38.1652 28.0721 37.8091 27.9812 37.5025 27.7992C37.1972 27.6157 36.9587 27.3557 36.7867 27.0189C36.6162 26.6807 36.5309 26.2795 36.5309 25.8152C36.5309 25.4598 36.5811 25.1424 36.6814 24.863C36.7831 24.5836 36.925 24.3464 37.107 24.1515C37.289 23.9552 37.5025 23.8062 37.7475 23.7045C37.9925 23.6013 38.2591 23.5497 38.5471 23.5497C38.7907 23.5497 39.0178 23.5855 39.2285 23.6572C39.4391 23.7274 39.6261 23.8277 39.7895 23.9581C39.9543 24.0885 40.0897 24.2433 40.1957 24.4224C40.3018 24.6015 40.3713 24.7993 40.4042 25.0156H39.5917ZM45.1454 25.8109C45.1454 26.2852 45.0565 26.6915 44.8788 27.0297C44.7026 27.3664 44.4619 27.6243 44.1566 27.8035C43.8528 27.9826 43.5082 28.0721 43.1227 28.0721C42.7373 28.0721 42.3919 27.9826 42.0867 27.8035C41.7829 27.6229 41.5422 27.3643 41.3645 27.0275C41.1882 26.6893 41.1001 26.2838 41.1001 25.8109C41.1001 25.3366 41.1882 24.9311 41.3645 24.5943C41.5422 24.2562 41.7829 23.9975 42.0867 23.8184C42.3919 23.6393 42.7373 23.5497 43.1227 23.5497C43.5082 23.5497 43.8528 23.6393 44.1566 23.8184C44.4619 23.9975 44.7026 24.2562 44.8788 24.5943C45.0565 24.9311 45.1454 25.3366 45.1454 25.8109ZM44.3436 25.8109C44.3436 25.477 44.2913 25.1955 44.1867 24.9662C44.0835 24.7355 43.9403 24.5614 43.7568 24.4439C43.5734 24.3249 43.362 24.2655 43.1227 24.2655C42.8834 24.2655 42.6721 24.3249 42.4887 24.4439C42.3052 24.5614 42.1612 24.7355 42.0566 24.9662C41.9534 25.1955 41.9019 25.477 41.9019 25.8109C41.9019 26.1448 41.9534 26.4271 42.0566 26.6578C42.1612 26.8871 42.3052 27.0612 42.4887 27.1801C42.6721 27.2976 42.8834 27.3564 43.1227 27.3564C43.362 27.3564 43.5734 27.2976 43.7568 27.1801C43.9403 27.0612 44.0835 26.8871 44.1867 26.6578C44.2913 26.4271 44.3436 26.1448 44.3436 25.8109ZM49.8328 25.8109C49.8328 26.2852 49.7439 26.6915 49.5663 27.0297C49.39 27.3664 49.1493 27.6243 48.844 27.8035C48.5403 27.9826 48.1956 28.0721 47.8102 28.0721C47.4247 28.0721 47.0793 27.9826 46.7741 27.8035C46.4703 27.6229 46.2296 27.3643 46.0519 27.0275C45.8757 26.6893 45.7875 26.2838 45.7875 25.8109C45.7875 25.3366 45.8757 24.9311 46.0519 24.5943C46.2296 24.2562 46.4703 23.9975 46.7741 23.8184C47.0793 23.6393 47.4247 23.5497 47.8102 23.5497C48.1956 23.5497 48.5403 23.6393 48.844 23.8184C49.1493 23.9975 49.39 24.2562 49.5663 24.5943C49.7439 24.9311 49.8328 25.3366 49.8328 25.8109ZM49.031 25.8109C49.031 25.477 48.9787 25.1955 48.8741 24.9662C48.771 24.7355 48.6277 24.5614 48.4442 24.4439C48.2608 24.3249 48.0495 24.2655 47.8102 24.2655C47.5709 24.2655 47.3595 24.3249 47.1761 24.4439C46.9927 24.5614 46.8486 24.7355 46.744 24.9662C46.6409 25.1955 46.5893 25.477 46.5893 25.8109C46.5893 26.1448 46.6409 26.4271 46.744 26.6578C46.8486 26.8871 46.9927 27.0612 47.1761 27.1801C47.3595 27.2976 47.5709 27.3564 47.8102 27.3564C48.0495 27.3564 48.2608 27.2976 48.4442 27.1801C48.6277 27.0612 48.771 26.8871 48.8741 26.6578C48.9787 26.4271 49.031 26.1448 49.031 25.8109ZM53.5358 25.0156C53.4999 24.8996 53.4505 24.7957 53.3874 24.704C53.3258 24.6108 53.2513 24.5313 53.1639 24.4654C53.0779 24.3995 52.979 24.35 52.8673 24.3171C52.7555 24.2827 52.6337 24.2655 52.5019 24.2655C52.2654 24.2655 52.0548 24.3249 51.8699 24.4439C51.6851 24.5628 51.5396 24.7376 51.4336 24.9683C51.329 25.1976 51.2767 25.477 51.2767 25.8066C51.2767 26.1391 51.329 26.4207 51.4336 26.6514C51.5382 26.8821 51.6836 27.0576 51.8699 27.178C52.0562 27.2969 52.2726 27.3564 52.5191 27.3564C52.7426 27.3564 52.9361 27.3134 53.0994 27.2274C53.2642 27.1414 53.391 27.0196 53.4799 26.862C53.5687 26.7029 53.6131 26.5167 53.6131 26.3031L53.7937 26.3311H52.5986V25.7078H54.3848V26.2365C54.3848 26.6134 54.3045 26.9394 54.1441 27.2145C53.9836 27.4896 53.7629 27.7017 53.482 27.8508C53.2012 27.9983 52.8787 28.0721 52.5148 28.0721C52.1092 28.0721 51.7531 27.9812 51.4465 27.7992C51.1413 27.6157 50.9027 27.3557 50.7307 27.0189C50.5602 26.6807 50.4749 26.2795 50.4749 25.8152C50.4749 25.4598 50.5251 25.1424 50.6254 24.863C50.7271 24.5836 50.869 24.3464 51.051 24.1515C51.233 23.9552 51.4465 23.8062 51.6915 23.7045C51.9366 23.6013 52.2031 23.5497 52.4911 23.5497C52.7347 23.5497 52.9619 23.5855 53.1725 23.6572C53.3831 23.7274 53.5701 23.8277 53.7335 23.9581C53.8983 24.0885 54.0337 24.2433 54.1398 24.4224C54.2458 24.6015 54.3153 24.7993 54.3482 25.0156H53.5358ZM55.1559 28.012V23.6099H55.9534V27.3435H57.8922V28.012H55.1559ZM58.5843 28.012V23.6099H61.4473V24.2784H59.3817V25.4735H61.299V26.1419H59.3817V27.3435H61.4645V28.012H58.5843ZM63.7623 23.6099H64.7382L66.045 26.7997H66.0966L67.4035 23.6099H68.3793V28.012H67.6141V24.9877H67.5733L66.3567 27.9991H65.7849L64.5684 24.9812H64.5275V28.012H63.7623V23.6099ZM69.813 28.012H68.9618L70.5116 23.6099H71.496L73.0479 28.012H72.1968L71.021 24.5127H70.9866L69.813 28.012ZM69.841 26.286H72.1624V26.9265H69.841V26.286ZM73.6278 28.012V23.6099H75.2785C75.6167 23.6099 75.9004 23.6729 76.1297 23.799C76.3604 23.9251 76.5345 24.0985 76.652 24.3192C76.771 24.5384 76.8304 24.7878 76.8304 25.0672C76.8304 25.3495 76.771 25.6003 76.652 25.8195C76.5331 26.0388 76.3576 26.2114 76.1254 26.3375C75.8933 26.4622 75.6074 26.5245 75.2678 26.5245H74.1737V25.869H75.1603C75.3581 25.869 75.52 25.8346 75.6461 25.7658C75.7722 25.697 75.8653 25.6024 75.9255 25.4821C75.9871 25.3617 76.0179 25.2234 76.0179 25.0672C76.0179 24.911 75.9871 24.7735 75.9255 24.6545C75.8653 24.5356 75.7715 24.4432 75.6439 24.3772C75.5178 24.3099 75.3552 24.2762 75.156 24.2762H74.4252V28.012H73.6278ZM79.9154 24.82C79.8954 24.6323 79.8108 24.4861 79.6618 24.3815C79.5142 24.2769 79.3222 24.2246 79.0857 24.2246C78.9195 24.2246 78.7769 24.2497 78.658 24.2999C78.5391 24.35 78.4481 24.4181 78.385 24.5041C78.322 24.59 78.2897 24.6882 78.2883 24.7985C78.2883 24.8902 78.3091 24.9698 78.3506 25.0371C78.3936 25.1045 78.4517 25.1618 78.5247 25.2091C78.5978 25.2549 78.6788 25.2936 78.7676 25.3251C78.8565 25.3567 78.946 25.3832 79.0363 25.4047L79.449 25.5079C79.6152 25.5465 79.775 25.5988 79.9283 25.6648C80.0831 25.7307 80.2214 25.8138 80.3432 25.9141C80.4664 26.0144 80.5639 26.1355 80.6355 26.2774C80.7071 26.4192 80.743 26.5854 80.743 26.776C80.743 27.034 80.6771 27.2611 80.5452 27.4574C80.4134 27.6523 80.2228 27.8049 79.9735 27.9152C79.7256 28.0241 79.4254 28.0786 79.0728 28.0786C78.7304 28.0786 78.433 28.0256 78.1808 27.9195C77.9301 27.8135 77.7337 27.6587 77.5919 27.4553C77.4514 27.2518 77.3755 27.0039 77.364 26.7115H78.1486C78.16 26.8649 78.2073 26.9924 78.2904 27.0941C78.3736 27.1959 78.4817 27.2718 78.615 27.322C78.7497 27.3721 78.9002 27.3972 79.0664 27.3972C79.2398 27.3972 79.3917 27.3714 79.5221 27.3198C79.6539 27.2668 79.7571 27.1937 79.8316 27.1006C79.9061 27.006 79.9441 26.8957 79.9455 26.7696C79.9441 26.6549 79.9104 26.5604 79.8445 26.4859C79.7786 26.4099 79.6862 26.3469 79.5672 26.2967C79.4497 26.2451 79.3122 26.1993 79.1545 26.1591L78.6537 26.0302C78.2912 25.937 78.0046 25.7959 77.7939 25.6067C77.5847 25.4161 77.4801 25.1632 77.4801 24.848C77.4801 24.5886 77.5503 24.3615 77.6908 24.1666C77.8326 23.9717 78.0253 23.8205 78.269 23.7131C78.5126 23.6042 78.7884 23.5497 79.0965 23.5497C79.4089 23.5497 79.6826 23.6042 79.9176 23.7131C80.154 23.8205 80.3396 23.9703 80.4743 24.1623C80.609 24.3529 80.6785 24.5721 80.6828 24.82H79.9154ZM82.9553 28.012V23.6099H84.6061C84.9443 23.6099 85.228 23.6686 85.4573 23.7861C85.688 23.9036 85.8621 24.0684 85.9796 24.2805C86.0985 24.4912 86.158 24.7369 86.158 25.0178C86.158 25.3001 86.0978 25.5451 85.9774 25.7529C85.8585 25.9592 85.6829 26.119 85.4508 26.2322C85.2187 26.344 84.9335 26.3999 84.5953 26.3999H83.4196V25.7378H84.4879C84.6856 25.7378 84.8475 25.7106 84.9736 25.6562C85.0997 25.6003 85.1929 25.5193 85.2531 25.4133C85.3147 25.3058 85.3455 25.174 85.3455 25.0178C85.3455 24.8616 85.3147 24.7283 85.2531 24.618C85.1914 24.5062 85.0976 24.4217 84.9715 24.3643C84.8454 24.3056 84.6827 24.2762 84.4836 24.2762H83.7527V28.012H82.9553ZM85.2294 26.0173L86.3192 28.012H85.4293L84.3589 26.0173H85.2294ZM86.892 28.012V23.6099H89.7551V24.2784H87.6895V25.4735H89.6068V26.1419H87.6895V27.3435H89.7723V28.012H86.892ZM91.1576 23.6099L92.3033 27.0748H92.3484L93.4919 23.6099H94.3689L92.817 28.012H91.8325L90.2828 23.6099H91.1576ZM95.7461 23.6099V28.012H94.9487V23.6099H95.7461ZM96.6097 28.012V23.6099H99.4727V24.2784H97.4071V25.4735H99.3244V26.1419H97.4071V27.3435H99.4899V28.012H96.6097ZM101.213 28.012L99.9703 23.6099H100.828L101.621 26.8448H101.662L102.509 23.6099H103.289L104.138 26.847H104.177L104.97 23.6099H105.828L104.585 28.012H103.799L102.917 24.9232H102.883L101.999 28.012H101.213ZM110.274 24.82C110.254 24.6323 110.17 24.4861 110.021 24.3815C109.873 24.2769 109.681 24.2246 109.445 24.2246C109.278 24.2246 109.136 24.2497 109.017 24.2999C108.898 24.35 108.807 24.4181 108.744 24.5041C108.681 24.59 108.649 24.6882 108.647 24.7985C108.647 24.8902 108.668 24.9698 108.709 25.0371C108.752 25.1045 108.811 25.1618 108.884 25.2091C108.957 25.2549 109.038 25.2936 109.126 25.3251C109.215 25.3567 109.305 25.3832 109.395 25.4047L109.808 25.5079C109.974 25.5465 110.134 25.5988 110.287 25.6648C110.442 25.7307 110.58 25.8138 110.702 25.9141C110.825 26.0144 110.923 26.1355 110.994 26.2774C111.066 26.4192 111.102 26.5854 111.102 26.776C111.102 27.034 111.036 27.2611 110.904 27.4574C110.772 27.6523 110.582 27.8049 110.332 27.9152C110.084 28.0241 109.784 28.0786 109.432 28.0786C109.089 28.0786 108.792 28.0256 108.54 27.9195C108.289 27.8135 108.093 27.6587 107.951 27.4553C107.81 27.2518 107.734 27.0039 107.723 26.7115H108.507C108.519 26.8649 108.566 26.9924 108.649 27.0941C108.732 27.1959 108.841 27.2718 108.974 27.322C109.109 27.3721 109.259 27.3972 109.425 27.3972C109.599 27.3972 109.751 27.3714 109.881 27.3198C110.013 27.2668 110.116 27.1937 110.19 27.1006C110.265 27.006 110.303 26.8957 110.304 26.7696C110.303 26.6549 110.269 26.5604 110.203 26.4859C110.137 26.4099 110.045 26.3469 109.926 26.2967C109.809 26.2451 109.671 26.1993 109.513 26.1591L109.013 26.0302C108.65 25.937 108.363 25.7959 108.153 25.6067C107.944 25.4161 107.839 25.1632 107.839 24.848C107.839 24.5886 107.909 24.3615 108.05 24.1666C108.191 23.9717 108.384 23.8205 108.628 23.7131C108.871 23.6042 109.147 23.5497 109.455 23.5497C109.768 23.5497 110.041 23.6042 110.276 23.7131C110.513 23.8205 110.698 23.9703 110.833 24.1623C110.968 24.3529 111.037 24.5721 111.042 24.82H110.274ZM115.581 25.0952H114.777C114.754 24.9633 114.712 24.8465 114.65 24.7448C114.588 24.6416 114.512 24.5542 114.42 24.4826C114.328 24.4109 114.224 24.3572 114.106 24.3214C113.99 24.2841 113.865 24.2655 113.73 24.2655C113.491 24.2655 113.279 24.3257 113.094 24.446C112.909 24.565 112.764 24.7398 112.66 24.9705C112.555 25.1998 112.503 25.4799 112.503 25.8109C112.503 26.1477 112.555 26.4314 112.66 26.6621C112.766 26.8914 112.91 27.0648 113.094 27.1823C113.279 27.2983 113.49 27.3564 113.728 27.3564C113.86 27.3564 113.983 27.3392 114.098 27.3048C114.214 27.269 114.318 27.2167 114.409 27.1479C114.502 27.0791 114.581 26.9946 114.644 26.8942C114.708 26.7939 114.752 26.6793 114.777 26.5503L115.581 26.5546C115.551 26.7638 115.485 26.9602 115.385 27.1436C115.286 27.327 115.157 27.4889 114.996 27.6294C114.836 27.7684 114.648 27.8773 114.433 27.9561C114.218 28.0335 113.979 28.0721 113.717 28.0721C113.33 28.0721 112.985 27.9826 112.681 27.8035C112.377 27.6243 112.138 27.3657 111.963 27.0275C111.788 26.6893 111.701 26.2838 111.701 25.8109C111.701 25.3366 111.789 24.9311 111.965 24.5943C112.142 24.2562 112.382 23.9975 112.685 23.8184C112.989 23.6393 113.333 23.5497 113.717 23.5497C113.962 23.5497 114.19 23.5841 114.401 23.6529C114.611 23.7217 114.799 23.8227 114.964 23.9559C115.129 24.0878 115.264 24.2497 115.37 24.4417C115.478 24.6323 115.548 24.8501 115.581 25.0952ZM116.311 28.012V23.6099H117.962C118.3 23.6099 118.584 23.6686 118.813 23.7861C119.044 23.9036 119.218 24.0684 119.335 24.2805C119.454 24.4912 119.514 24.7369 119.514 25.0178C119.514 25.3001 119.454 25.5451 119.333 25.7529C119.214 25.9592 119.039 26.119 118.807 26.2322C118.574 26.344 118.289 26.3999 117.951 26.3999H116.775V25.7378H117.844C118.041 25.7378 118.203 25.7106 118.329 25.6562C118.455 25.6003 118.549 25.5193 118.609 25.4133C118.67 25.3058 118.701 25.174 118.701 25.0178C118.701 24.8616 118.67 24.7283 118.609 24.618C118.547 24.5062 118.453 24.4217 118.327 24.3643C118.201 24.3056 118.038 24.2762 117.839 24.2762H117.108V28.012H116.311ZM118.585 26.0173L119.675 28.012H118.785L117.715 26.0173H118.585ZM120.813 28.012H119.962L121.512 23.6099H122.496L124.048 28.012H123.197L122.021 24.5127H121.987L120.813 28.012ZM120.841 26.286H123.162V26.9265H120.841V26.286ZM124.628 28.012V23.6099H126.279C126.617 23.6099 126.9 23.6729 127.13 23.799C127.36 23.9251 127.535 24.0985 127.652 24.3192C127.771 24.5384 127.83 24.7878 127.83 25.0672C127.83 25.3495 127.771 25.6003 127.652 25.8195C127.533 26.0388 127.358 26.2114 127.125 26.3375C126.893 26.4622 126.607 26.5245 126.268 26.5245H125.174V25.869H126.16C126.358 25.869 126.52 25.8346 126.646 25.7658C126.772 25.697 126.865 25.6024 126.926 25.4821C126.987 25.3617 127.018 25.2234 127.018 25.0672C127.018 24.911 126.987 24.7735 126.926 24.6545C126.865 24.5356 126.771 24.4432 126.644 24.3772C126.518 24.3099 126.355 24.2762 126.156 24.2762H125.425V28.012H124.628ZM128.523 28.012V23.6099H131.386V24.2784H129.321V25.4735H131.238V26.1419H129.321V27.3435H131.403V28.012H128.523ZM132.2 28.012V23.6099H133.851C134.189 23.6099 134.472 23.6686 134.702 23.7861C134.932 23.9036 135.107 24.0684 135.224 24.2805C135.343 24.4912 135.402 24.7369 135.402 25.0178C135.402 25.3001 135.342 25.5451 135.222 25.7529C135.103 25.9592 134.927 26.119 134.695 26.2322C134.463 26.344 134.178 26.3999 133.84 26.3999H132.664V25.7378H133.732C133.93 25.7378 134.092 25.7106 134.218 25.6562C134.344 25.6003 134.437 25.5193 134.498 25.4133C134.559 25.3058 134.59 25.174 134.59 25.0178C134.59 24.8616 134.559 24.7283 134.498 24.618C134.436 24.5062 134.342 24.4217 134.216 24.3643C134.09 24.3056 133.927 24.2762 133.728 24.2762H132.997V28.012H132.2ZM134.474 26.0173L135.564 28.012H134.674L133.603 26.0173H134.474Z" fill="black"/>
</g>
<defs>
<clipPath id="clip0_1966_718">
<rect width="136.208" height="29.0119" fill="white"/>
</clipPath>
</defs>
</svg>
