<svg width="305" height="70" viewBox="0 0 305 70" fill="none" xmlns="http://www.w3.org/2000/svg">
<path d="M82.7273 58.125C82.6477 57.8485 82.536 57.6042 82.392 57.392C82.2481 57.1761 82.072 56.9943 81.8636 56.8466C81.6591 56.6951 81.4242 56.5795 81.1591 56.5C80.8977 56.4205 80.608 56.3807 80.2898 56.3807C79.6951 56.3807 79.1723 56.5284 78.7216 56.8239C78.2746 57.1193 77.9261 57.5492 77.6761 58.1136C77.4261 58.6742 77.3011 59.3598 77.3011 60.1705C77.3011 60.9811 77.4242 61.6705 77.6705 62.2386C77.9167 62.8068 78.2652 63.2405 78.7159 63.5398C79.1667 63.8352 79.6989 63.983 80.3125 63.983C80.8693 63.983 81.3447 63.8845 81.7386 63.6875C82.1364 63.4867 82.4394 63.2045 82.6477 62.8409C82.8598 62.4773 82.9659 62.0473 82.9659 61.5511L83.4659 61.625H80.4659V59.7727H85.3352V61.2386C85.3352 62.2614 85.1193 63.1402 84.6875 63.875C84.2557 64.6061 83.661 65.1705 82.9034 65.5682C82.1458 65.9621 81.2784 66.1591 80.3011 66.1591C79.2102 66.1591 78.2519 65.9186 77.4261 65.4375C76.6004 64.9527 75.9564 64.2652 75.4943 63.375C75.036 62.4811 74.8068 61.4205 74.8068 60.1932C74.8068 59.25 74.9432 58.4091 75.2159 57.6705C75.4924 56.928 75.8788 56.2992 76.375 55.7841C76.8712 55.2689 77.4489 54.8769 78.108 54.608C78.767 54.339 79.4811 54.2045 80.25 54.2045C80.9091 54.2045 81.5227 54.3011 82.0909 54.4943C82.6591 54.6837 83.1629 54.9527 83.6023 55.3011C84.0455 55.6496 84.4072 56.0644 84.6875 56.5455C84.9678 57.0227 85.1477 57.5492 85.2273 58.125H82.7273ZM91.081 66.1705C90.1984 66.1705 89.4351 65.983 88.7912 65.608C88.151 65.2292 87.6567 64.7027 87.3082 64.0284C86.9598 63.3504 86.7855 62.5644 86.7855 61.6705C86.7855 60.7689 86.9598 59.9811 87.3082 59.3068C87.6567 58.6288 88.151 58.1023 88.7912 57.7273C89.4351 57.3485 90.1984 57.1591 91.081 57.1591C91.9635 57.1591 92.7249 57.3485 93.3651 57.7273C94.009 58.1023 94.5052 58.6288 94.8537 59.3068C95.2022 59.9811 95.3764 60.7689 95.3764 61.6705C95.3764 62.5644 95.2022 63.3504 94.8537 64.0284C94.5052 64.7027 94.009 65.2292 93.3651 65.608C92.7249 65.983 91.9635 66.1705 91.081 66.1705ZM91.0923 64.2955C91.4938 64.2955 91.8291 64.1818 92.098 63.9545C92.367 63.7235 92.5696 63.4091 92.706 63.0114C92.8461 62.6136 92.9162 62.161 92.9162 61.6534C92.9162 61.1458 92.8461 60.6932 92.706 60.2955C92.5696 59.8977 92.367 59.5833 92.098 59.3523C91.8291 59.1212 91.4938 59.0057 91.0923 59.0057C90.687 59.0057 90.3461 59.1212 90.0696 59.3523C89.7969 59.5833 89.5904 59.8977 89.4503 60.2955C89.3139 60.6932 89.2457 61.1458 89.2457 61.6534C89.2457 62.161 89.3139 62.6136 89.4503 63.0114C89.5904 63.4091 89.7969 63.7235 90.0696 63.9545C90.3461 64.1818 90.687 64.2955 91.0923 64.2955ZM100.893 66.1705C100.011 66.1705 99.2476 65.983 98.6037 65.608C97.9635 65.2292 97.4692 64.7027 97.1207 64.0284C96.7723 63.3504 96.598 62.5644 96.598 61.6705C96.598 60.7689 96.7723 59.9811 97.1207 59.3068C97.4692 58.6288 97.9635 58.1023 98.6037 57.7273C99.2476 57.3485 100.011 57.1591 100.893 57.1591C101.776 57.1591 102.537 57.3485 103.178 57.7273C103.821 58.1023 104.318 58.6288 104.666 59.3068C105.015 59.9811 105.189 60.7689 105.189 61.6705C105.189 62.5644 105.015 63.3504 104.666 64.0284C104.318 64.7027 103.821 65.2292 103.178 65.608C102.537 65.983 101.776 66.1705 100.893 66.1705ZM100.905 64.2955C101.306 64.2955 101.642 64.1818 101.911 63.9545C102.179 63.7235 102.382 63.4091 102.518 63.0114C102.659 62.6136 102.729 62.161 102.729 61.6534C102.729 61.1458 102.659 60.6932 102.518 60.2955C102.382 59.8977 102.179 59.5833 101.911 59.3523C101.642 59.1212 101.306 59.0057 100.905 59.0057C100.5 59.0057 100.159 59.1212 99.8821 59.3523C99.6094 59.5833 99.4029 59.8977 99.2628 60.2955C99.1264 60.6932 99.0582 61.1458 99.0582 61.6534C99.0582 62.161 99.1264 62.6136 99.2628 63.0114C99.4029 63.4091 99.6094 63.7235 99.8821 63.9545C100.159 64.1818 100.5 64.2955 100.905 64.2955ZM110.695 69.4545C109.911 69.4545 109.238 69.3466 108.678 69.1307C108.121 68.9186 107.678 68.6288 107.348 68.2614C107.018 67.8939 106.804 67.4811 106.706 67.0227L108.945 66.7216C109.013 66.8958 109.121 67.0587 109.268 67.2102C109.416 67.3617 109.611 67.483 109.854 67.5739C110.1 67.6686 110.399 67.7159 110.751 67.7159C111.278 67.7159 111.712 67.5871 112.053 67.3295C112.397 67.0758 112.57 66.6496 112.57 66.0511V64.4545H112.467C112.361 64.697 112.202 64.9261 111.99 65.142C111.778 65.358 111.505 65.5341 111.172 65.6705C110.839 65.8068 110.441 65.875 109.979 65.875C109.323 65.875 108.727 65.7235 108.189 65.4205C107.655 65.1136 107.229 64.6458 106.911 64.017C106.596 63.3845 106.439 62.5852 106.439 61.6193C106.439 60.6307 106.6 59.8049 106.922 59.142C107.244 58.4792 107.672 57.983 108.206 57.6534C108.744 57.3239 109.333 57.1591 109.973 57.1591C110.462 57.1591 110.871 57.2424 111.2 57.4091C111.53 57.572 111.795 57.7765 111.996 58.0227C112.2 58.2652 112.357 58.5038 112.467 58.7386H112.558V57.2727H114.962V66.0852C114.962 66.8277 114.78 67.4489 114.416 67.9489C114.053 68.4489 113.549 68.8239 112.905 69.0739C112.265 69.3277 111.528 69.4545 110.695 69.4545ZM110.746 64.0568C111.136 64.0568 111.465 63.9602 111.734 63.767C112.007 63.5701 112.215 63.2898 112.359 62.9261C112.507 62.5587 112.581 62.1193 112.581 61.608C112.581 61.0966 112.509 60.6534 112.365 60.2784C112.221 59.8996 112.013 59.6061 111.74 59.3977C111.467 59.1894 111.136 59.0852 110.746 59.0852C110.348 59.0852 110.013 59.1932 109.74 59.4091C109.467 59.6212 109.261 59.9167 109.121 60.2955C108.981 60.6742 108.911 61.1117 108.911 61.608C108.911 62.1117 108.981 62.5473 109.121 62.9148C109.265 63.2784 109.471 63.5606 109.74 63.7614C110.013 63.9583 110.348 64.0568 110.746 64.0568ZM119.308 54.3636V66H116.888V54.3636H119.308ZM125.224 66.1705C124.327 66.1705 123.554 65.9886 122.906 65.625C122.262 65.2576 121.766 64.7386 121.418 64.0682C121.069 63.3939 120.895 62.5966 120.895 61.6761C120.895 60.7784 121.069 59.9905 121.418 59.3125C121.766 58.6345 122.257 58.1061 122.889 57.7273C123.526 57.3485 124.272 57.1591 125.128 57.1591C125.704 57.1591 126.24 57.2519 126.736 57.4375C127.236 57.6193 127.671 57.8939 128.043 58.2614C128.418 58.6288 128.709 59.0909 128.918 59.6477C129.126 60.2008 129.23 60.8485 129.23 61.5909V62.2557H121.861V60.7557H126.952C126.952 60.4072 126.876 60.0985 126.724 59.8295C126.573 59.5606 126.363 59.3504 126.094 59.1989C125.829 59.0436 125.52 58.9659 125.168 58.9659C124.8 58.9659 124.474 59.0511 124.19 59.2216C123.91 59.3883 123.69 59.6136 123.531 59.8977C123.372 60.178 123.291 60.4905 123.287 60.8352V62.2614C123.287 62.6932 123.366 63.0663 123.526 63.3807C123.688 63.6951 123.918 63.9375 124.213 64.108C124.509 64.2784 124.859 64.3636 125.264 64.3636C125.533 64.3636 125.779 64.3258 126.003 64.25C126.226 64.1742 126.418 64.0606 126.577 63.9091C126.736 63.7576 126.857 63.572 126.94 63.3523L129.179 63.5C129.065 64.0379 128.832 64.5076 128.48 64.9091C128.132 65.3068 127.681 65.6174 127.128 65.8409C126.579 66.0606 125.944 66.1705 125.224 66.1705ZM134.558 54.3636H137.592L140.797 62.1818H140.933L144.138 54.3636H147.172V66H144.786V58.4261H144.689L141.678 65.9432H140.053L137.041 58.3977H136.945V66H134.558V54.3636ZM151.642 66.1648C151.085 66.1648 150.589 66.0682 150.153 65.875C149.718 65.678 149.373 65.3883 149.119 65.0057C148.869 64.6193 148.744 64.1383 148.744 63.5625C148.744 63.0777 148.833 62.6705 149.011 62.3409C149.189 62.0114 149.432 61.7462 149.739 61.5455C150.045 61.3447 150.394 61.1932 150.784 61.0909C151.178 60.9886 151.591 60.9167 152.023 60.875C152.53 60.822 152.939 60.7727 153.25 60.7273C153.561 60.678 153.786 60.6061 153.926 60.5114C154.066 60.4167 154.136 60.2765 154.136 60.0909V60.0568C154.136 59.697 154.023 59.4186 153.795 59.2216C153.572 59.0246 153.254 58.9261 152.841 58.9261C152.405 58.9261 152.059 59.0227 151.801 59.2159C151.544 59.4053 151.373 59.6439 151.29 59.9318L149.051 59.75C149.165 59.2197 149.388 58.7614 149.722 58.375C150.055 57.9848 150.485 57.6856 151.011 57.4773C151.542 57.2652 152.155 57.1591 152.852 57.1591C153.337 57.1591 153.801 57.2159 154.244 57.3295C154.691 57.4432 155.087 57.6193 155.432 57.858C155.78 58.0966 156.055 58.4034 156.256 58.7784C156.456 59.1496 156.557 59.5947 156.557 60.1136V66H154.261V64.7898H154.193C154.053 65.0625 153.866 65.303 153.631 65.5114C153.396 65.7159 153.114 65.8769 152.784 65.9943C152.455 66.108 152.074 66.1648 151.642 66.1648ZM152.335 64.4943C152.691 64.4943 153.006 64.4242 153.278 64.2841C153.551 64.1402 153.765 63.947 153.92 63.7045C154.076 63.4621 154.153 63.1875 154.153 62.8807V61.9545C154.078 62.0038 153.973 62.0492 153.841 62.0909C153.712 62.1288 153.566 62.1648 153.403 62.1989C153.241 62.2292 153.078 62.2576 152.915 62.2841C152.752 62.3068 152.604 62.3277 152.472 62.3466C152.188 62.3883 151.939 62.4545 151.727 62.5455C151.515 62.6364 151.35 62.7595 151.233 62.9148C151.116 63.0663 151.057 63.2557 151.057 63.483C151.057 63.8125 151.176 64.0644 151.415 64.2386C151.657 64.4091 151.964 64.4943 152.335 64.4943ZM158.435 69.2727V57.2727H160.821V58.7386H160.929C161.035 58.5038 161.188 58.2652 161.389 58.0227C161.594 57.7765 161.859 57.572 162.185 57.4091C162.514 57.2424 162.923 57.1591 163.412 57.1591C164.048 57.1591 164.635 57.3258 165.173 57.6591C165.711 57.9886 166.141 58.4867 166.463 59.1534C166.785 59.8163 166.946 60.6477 166.946 61.6477C166.946 62.6212 166.789 63.4432 166.474 64.1136C166.164 64.7803 165.74 65.286 165.202 65.6307C164.668 65.9716 164.069 66.142 163.406 66.142C162.937 66.142 162.537 66.0644 162.207 65.9091C161.882 65.7538 161.615 65.5587 161.406 65.3239C161.198 65.0852 161.039 64.8447 160.929 64.6023H160.855V69.2727H158.435ZM160.804 61.6364C160.804 62.1553 160.876 62.608 161.02 62.9943C161.164 63.3807 161.372 63.6818 161.645 63.8977C161.918 64.1098 162.249 64.2159 162.639 64.2159C163.033 64.2159 163.366 64.108 163.639 63.892C163.912 63.6723 164.118 63.3693 164.259 62.983C164.402 62.5928 164.474 62.1439 164.474 61.6364C164.474 61.1326 164.404 60.6894 164.264 60.3068C164.124 59.9242 163.918 59.625 163.645 59.4091C163.372 59.1932 163.037 59.0852 162.639 59.0852C162.245 59.0852 161.912 59.1894 161.639 59.3977C161.37 59.6061 161.164 59.9015 161.02 60.2841C160.876 60.6667 160.804 61.1174 160.804 61.6364ZM172.308 66V54.3636H176.899C177.778 54.3636 178.528 54.5208 179.149 54.8352C179.774 55.1458 180.25 55.5871 180.575 56.1591C180.905 56.7273 181.07 57.3958 181.07 58.1648C181.07 58.9375 180.903 59.6023 180.57 60.1591C180.236 60.7121 179.753 61.1364 179.121 61.4318C178.492 61.7273 177.731 61.875 176.837 61.875H173.763V59.8977H176.439C176.909 59.8977 177.299 59.8333 177.609 59.7045C177.92 59.5758 178.151 59.3826 178.303 59.125C178.458 58.8674 178.536 58.5473 178.536 58.1648C178.536 57.7784 178.458 57.4527 178.303 57.1875C178.151 56.9223 177.918 56.7216 177.604 56.5852C177.293 56.4451 176.901 56.375 176.428 56.375H174.768V66H172.308ZM178.592 60.7045L181.484 66H178.768L175.939 60.7045H178.592ZM186.599 66.1705C185.702 66.1705 184.929 65.9886 184.281 65.625C183.637 65.2576 183.141 64.7386 182.793 64.0682C182.444 63.3939 182.27 62.5966 182.27 61.6761C182.27 60.7784 182.444 59.9905 182.793 59.3125C183.141 58.6345 183.632 58.1061 184.264 57.7273C184.901 57.3485 185.647 57.1591 186.503 57.1591C187.079 57.1591 187.615 57.2519 188.111 57.4375C188.611 57.6193 189.046 57.8939 189.418 58.2614C189.793 58.6288 190.084 59.0909 190.293 59.6477C190.501 60.2008 190.605 60.8485 190.605 61.5909V62.2557H183.236V60.7557H188.327C188.327 60.4072 188.251 60.0985 188.099 59.8295C187.948 59.5606 187.738 59.3504 187.469 59.1989C187.204 59.0436 186.895 58.9659 186.543 58.9659C186.175 58.9659 185.849 59.0511 185.565 59.2216C185.285 59.3883 185.065 59.6136 184.906 59.8977C184.747 60.178 184.666 60.4905 184.662 60.8352V62.2614C184.662 62.6932 184.741 63.0663 184.901 63.3807C185.063 63.6951 185.293 63.9375 185.588 64.108C185.884 64.2784 186.234 64.3636 186.639 64.3636C186.908 64.3636 187.154 64.3258 187.378 64.25C187.601 64.1742 187.793 64.0606 187.952 63.9091C188.111 63.7576 188.232 63.572 188.315 63.3523L190.554 63.5C190.44 64.0379 190.207 64.5076 189.855 64.9091C189.507 65.3068 189.056 65.6174 188.503 65.8409C187.954 66.0606 187.319 66.1705 186.599 66.1705ZM200.087 57.2727L197.036 66H194.308L191.257 57.2727H193.814L195.626 63.517H195.717L197.524 57.2727H200.087ZM201.325 66V57.2727H203.746V66H201.325ZM202.541 56.1477C202.181 56.1477 201.873 56.0284 201.615 55.7898C201.361 55.5473 201.234 55.2576 201.234 54.9205C201.234 54.5871 201.361 54.3011 201.615 54.0625C201.873 53.8201 202.181 53.6989 202.541 53.6989C202.901 53.6989 203.208 53.8201 203.462 54.0625C203.719 54.3011 203.848 54.5871 203.848 54.9205C203.848 55.2576 203.719 55.5473 203.462 55.7898C203.208 56.0284 202.901 56.1477 202.541 56.1477ZM209.662 66.1705C208.764 66.1705 207.991 65.9886 207.344 65.625C206.7 65.2576 206.204 64.7386 205.855 64.0682C205.507 63.3939 205.332 62.5966 205.332 61.6761C205.332 60.7784 205.507 59.9905 205.855 59.3125C206.204 58.6345 206.694 58.1061 207.327 57.7273C207.963 57.3485 208.709 57.1591 209.565 57.1591C210.141 57.1591 210.677 57.2519 211.173 57.4375C211.673 57.6193 212.109 57.8939 212.48 58.2614C212.855 58.6288 213.147 59.0909 213.355 59.6477C213.563 60.2008 213.668 60.8485 213.668 61.5909V62.2557H206.298V60.7557H211.389C211.389 60.4072 211.313 60.0985 211.162 59.8295C211.01 59.5606 210.8 59.3504 210.531 59.1989C210.266 59.0436 209.957 58.9659 209.605 58.9659C209.238 58.9659 208.912 59.0511 208.628 59.2216C208.348 59.3883 208.128 59.6136 207.969 59.8977C207.81 60.178 207.728 60.4905 207.724 60.8352V62.2614C207.724 62.6932 207.804 63.0663 207.963 63.3807C208.126 63.6951 208.355 63.9375 208.651 64.108C208.946 64.2784 209.296 64.3636 209.702 64.3636C209.971 64.3636 210.217 64.3258 210.44 64.25C210.664 64.1742 210.855 64.0606 211.014 63.9091C211.173 63.7576 211.295 63.572 211.378 63.3523L213.616 63.5C213.503 64.0379 213.27 64.5076 212.918 64.9091C212.569 65.3068 212.118 65.6174 211.565 65.8409C211.016 66.0606 210.382 66.1705 209.662 66.1705ZM216.906 66L214.531 57.2727H216.98L218.332 63.1364H218.412L219.821 57.2727H222.224L223.656 63.1023H223.73L225.06 57.2727H227.503L225.134 66H222.571L221.071 60.5114H220.963L219.463 66H216.906ZM238.855 57.7102C238.81 57.2519 238.615 56.8958 238.27 56.642C237.925 56.3883 237.457 56.2614 236.866 56.2614C236.465 56.2614 236.126 56.3182 235.849 56.4318C235.573 56.5417 235.361 56.6951 235.213 56.892C235.069 57.089 234.997 57.3125 234.997 57.5625C234.99 57.7708 235.033 57.9527 235.128 58.108C235.226 58.2633 235.361 58.3977 235.531 58.5114C235.702 58.6212 235.899 58.7178 236.122 58.8011C236.346 58.8807 236.584 58.9489 236.838 59.0057L237.884 59.2557C238.391 59.3693 238.857 59.5208 239.281 59.7102C239.705 59.8996 240.073 60.1326 240.384 60.4091C240.694 60.6856 240.935 61.0114 241.105 61.3864C241.279 61.7614 241.368 62.1913 241.372 62.6761C241.368 63.3883 241.187 64.0057 240.827 64.5284C240.471 65.0473 239.955 65.4508 239.281 65.7386C238.611 66.0227 237.802 66.1648 236.855 66.1648C235.916 66.1648 235.098 66.0208 234.401 65.733C233.707 65.4451 233.166 65.0189 232.776 64.4545C232.389 63.8864 232.187 63.1837 232.168 62.3466H234.548C234.575 62.7367 234.687 63.0625 234.884 63.3239C235.084 63.5814 235.351 63.7765 235.685 63.9091C236.022 64.0379 236.402 64.1023 236.827 64.1023C237.243 64.1023 237.605 64.0417 237.912 63.9205C238.223 63.7992 238.463 63.6307 238.634 63.4148C238.804 63.1989 238.889 62.9508 238.889 62.6705C238.889 62.4091 238.812 62.1894 238.656 62.0114C238.505 61.8333 238.281 61.6818 237.986 61.5568C237.694 61.4318 237.336 61.3182 236.912 61.2159L235.645 60.8977C234.664 60.6591 233.889 60.286 233.321 59.7784C232.753 59.2708 232.471 58.5871 232.474 57.7273C232.471 57.0227 232.658 56.4072 233.037 55.8807C233.42 55.3542 233.944 54.9432 234.611 54.6477C235.277 54.3523 236.035 54.2045 236.884 54.2045C237.747 54.2045 238.501 54.3523 239.145 54.6477C239.793 54.9432 240.296 55.3542 240.656 55.8807C241.016 56.4072 241.202 57.017 241.213 57.7102H238.855ZM246.925 66.1705C246.031 66.1705 245.262 65.9811 244.618 65.6023C243.978 65.2197 243.485 64.6894 243.141 64.0114C242.8 63.3333 242.629 62.553 242.629 61.6705C242.629 60.7765 242.802 59.9924 243.146 59.3182C243.495 58.6402 243.989 58.1117 244.629 57.733C245.269 57.3504 246.031 57.1591 246.913 57.1591C247.675 57.1591 248.341 57.2973 248.913 57.5739C249.485 57.8504 249.938 58.2386 250.271 58.7386C250.605 59.2386 250.788 59.8258 250.822 60.5H248.538C248.474 60.0644 248.304 59.714 248.027 59.4489C247.754 59.1799 247.396 59.0455 246.953 59.0455C246.578 59.0455 246.25 59.1477 245.97 59.3523C245.694 59.553 245.478 59.8466 245.322 60.233C245.167 60.6193 245.089 61.0871 245.089 61.6364C245.089 62.1932 245.165 62.6667 245.317 63.0568C245.472 63.447 245.69 63.7443 245.97 63.9489C246.25 64.1534 246.578 64.2557 246.953 64.2557C247.23 64.2557 247.478 64.1989 247.697 64.0852C247.921 63.9716 248.105 63.8068 248.249 63.5909C248.396 63.3712 248.493 63.108 248.538 62.8011H250.822C250.785 63.4678 250.603 64.0549 250.277 64.5625C249.955 65.0663 249.51 65.4602 248.942 65.7443C248.374 66.0284 247.701 66.1705 246.925 66.1705ZM252.372 66V57.2727H254.719V58.7955H254.81C254.969 58.2538 255.236 57.8447 255.611 57.5682C255.986 57.2879 256.418 57.1477 256.906 57.1477C257.027 57.1477 257.158 57.1553 257.298 57.1705C257.438 57.1856 257.562 57.2064 257.668 57.233V59.3807C257.554 59.3466 257.397 59.3163 257.196 59.2898C256.995 59.2633 256.812 59.25 256.645 59.25C256.289 59.25 255.971 59.3277 255.69 59.483C255.414 59.6345 255.194 59.8466 255.031 60.1193C254.872 60.392 254.793 60.7064 254.793 61.0625V66H252.372ZM261.158 66.1648C260.601 66.1648 260.105 66.0682 259.669 65.875C259.233 65.678 258.889 65.3883 258.635 65.0057C258.385 64.6193 258.26 64.1383 258.26 63.5625C258.26 63.0777 258.349 62.6705 258.527 62.3409C258.705 62.0114 258.947 61.7462 259.254 61.5455C259.561 61.3447 259.91 61.1932 260.3 61.0909C260.694 60.9886 261.107 60.9167 261.538 60.875C262.046 60.822 262.455 60.7727 262.766 60.7273C263.076 60.678 263.302 60.6061 263.442 60.5114C263.582 60.4167 263.652 60.2765 263.652 60.0909V60.0568C263.652 59.697 263.538 59.4186 263.311 59.2216C263.088 59.0246 262.769 58.9261 262.357 58.9261C261.921 58.9261 261.574 59.0227 261.317 59.2159C261.059 59.4053 260.889 59.6439 260.805 59.9318L258.567 59.75C258.68 59.2197 258.904 58.7614 259.237 58.375C259.571 57.9848 260 57.6856 260.527 57.4773C261.057 57.2652 261.671 57.1591 262.368 57.1591C262.853 57.1591 263.317 57.2159 263.76 57.3295C264.207 57.4432 264.603 57.6193 264.947 57.858C265.296 58.0966 265.571 58.4034 265.771 58.7784C265.972 59.1496 266.072 59.5947 266.072 60.1136V66H263.777V64.7898H263.709C263.569 65.0625 263.381 65.303 263.146 65.5114C262.911 65.7159 262.629 65.8769 262.3 65.9943C261.97 66.108 261.589 66.1648 261.158 66.1648ZM261.851 64.4943C262.207 64.4943 262.521 64.4242 262.794 64.2841C263.067 64.1402 263.281 63.947 263.436 63.7045C263.591 63.4621 263.669 63.1875 263.669 62.8807V61.9545C263.593 62.0038 263.489 62.0492 263.357 62.0909C263.228 62.1288 263.082 62.1648 262.919 62.1989C262.756 62.2292 262.593 62.2576 262.43 62.2841C262.268 62.3068 262.12 62.3277 261.987 62.3466C261.703 62.3883 261.455 62.4545 261.243 62.5455C261.031 62.6364 260.866 62.7595 260.749 62.9148C260.631 63.0663 260.572 63.2557 260.572 63.483C260.572 63.8125 260.692 64.0644 260.93 64.2386C261.173 64.4091 261.48 64.4943 261.851 64.4943ZM267.95 69.2727V57.2727H270.337V58.7386H270.445C270.551 58.5038 270.704 58.2652 270.905 58.0227C271.109 57.7765 271.375 57.572 271.7 57.4091C272.03 57.2424 272.439 57.1591 272.928 57.1591C273.564 57.1591 274.151 57.3258 274.689 57.6591C275.227 57.9886 275.657 58.4867 275.979 59.1534C276.301 59.8163 276.462 60.6477 276.462 61.6477C276.462 62.6212 276.304 63.4432 275.99 64.1136C275.679 64.7803 275.255 65.286 274.717 65.6307C274.183 65.9716 273.585 66.142 272.922 66.142C272.452 66.142 272.053 66.0644 271.723 65.9091C271.397 65.7538 271.13 65.5587 270.922 65.3239C270.714 65.0852 270.554 64.8447 270.445 64.6023H270.371V69.2727H267.95ZM270.32 61.6364C270.32 62.1553 270.392 62.608 270.536 62.9943C270.679 63.3807 270.888 63.6818 271.161 63.8977C271.433 64.1098 271.765 64.2159 272.155 64.2159C272.549 64.2159 272.882 64.108 273.155 63.892C273.428 63.6723 273.634 63.3693 273.774 62.983C273.918 62.5928 273.99 62.1439 273.99 61.6364C273.99 61.1326 273.92 60.6894 273.78 60.3068C273.64 59.9242 273.433 59.625 273.161 59.4091C272.888 59.1932 272.553 59.0852 272.155 59.0852C271.761 59.0852 271.428 59.1894 271.155 59.3977C270.886 59.6061 270.679 59.9015 270.536 60.2841C270.392 60.6667 270.32 61.1174 270.32 61.6364ZM278.075 69.2727V57.2727H280.462V58.7386H280.57C280.676 58.5038 280.829 58.2652 281.03 58.0227C281.234 57.7765 281.5 57.572 281.825 57.4091C282.155 57.2424 282.564 57.1591 283.053 57.1591C283.689 57.1591 284.276 57.3258 284.814 57.6591C285.352 57.9886 285.782 58.4867 286.104 59.1534C286.426 59.8163 286.587 60.6477 286.587 61.6477C286.587 62.6212 286.429 63.4432 286.115 64.1136C285.804 64.7803 285.38 65.286 284.842 65.6307C284.308 65.9716 283.71 66.142 283.047 66.142C282.577 66.142 282.178 66.0644 281.848 65.9091C281.522 65.7538 281.255 65.5587 281.047 65.3239C280.839 65.0852 280.679 64.8447 280.57 64.6023H280.496V69.2727H278.075ZM280.445 61.6364C280.445 62.1553 280.517 62.608 280.661 62.9943C280.804 63.3807 281.013 63.6818 281.286 63.8977C281.558 64.1098 281.89 64.2159 282.28 64.2159C282.674 64.2159 283.007 64.108 283.28 63.892C283.553 63.6723 283.759 63.3693 283.899 62.983C284.043 62.5928 284.115 62.1439 284.115 61.6364C284.115 61.1326 284.045 60.6894 283.905 60.3068C283.765 59.9242 283.558 59.625 283.286 59.4091C283.013 59.1932 282.678 59.0852 282.28 59.0852C281.886 59.0852 281.553 59.1894 281.28 59.3977C281.011 59.6061 280.804 59.9015 280.661 60.2841C280.517 60.6667 280.445 61.1174 280.445 61.6364ZM292.178 66.1705C291.28 66.1705 290.507 65.9886 289.859 65.625C289.215 65.2576 288.719 64.7386 288.371 64.0682C288.022 63.3939 287.848 62.5966 287.848 61.6761C287.848 60.7784 288.022 59.9905 288.371 59.3125C288.719 58.6345 289.21 58.1061 289.842 57.7273C290.479 57.3485 291.225 57.1591 292.081 57.1591C292.657 57.1591 293.193 57.2519 293.689 57.4375C294.189 57.6193 294.625 57.8939 294.996 58.2614C295.371 58.6288 295.662 59.0909 295.871 59.6477C296.079 60.2008 296.183 60.8485 296.183 61.5909V62.2557H288.814V60.7557H293.905C293.905 60.4072 293.829 60.0985 293.678 59.8295C293.526 59.5606 293.316 59.3504 293.047 59.1989C292.782 59.0436 292.473 58.9659 292.121 58.9659C291.753 58.9659 291.428 59.0511 291.143 59.2216C290.863 59.3883 290.643 59.6136 290.484 59.8977C290.325 60.178 290.244 60.4905 290.24 60.8352V62.2614C290.24 62.6932 290.32 63.0663 290.479 63.3807C290.642 63.6951 290.871 63.9375 291.166 64.108C291.462 64.2784 291.812 64.3636 292.217 64.3636C292.486 64.3636 292.732 64.3258 292.956 64.25C293.179 64.1742 293.371 64.0606 293.53 63.9091C293.689 63.7576 293.81 63.572 293.893 63.3523L296.132 63.5C296.018 64.0379 295.786 64.5076 295.433 64.9091C295.085 65.3068 294.634 65.6174 294.081 65.8409C293.532 66.0606 292.897 66.1705 292.178 66.1705ZM297.763 66V57.2727H300.109V58.7955H300.2C300.359 58.2538 300.626 57.8447 301.001 57.5682C301.376 57.2879 301.808 57.1477 302.297 57.1477C302.418 57.1477 302.549 57.1553 302.689 57.1705C302.829 57.1856 302.952 57.2064 303.058 57.233V59.3807C302.945 59.3466 302.787 59.3163 302.587 59.2898C302.386 59.2633 302.202 59.25 302.036 59.25C301.679 59.25 301.361 59.3277 301.081 59.483C300.804 59.6345 300.585 59.8466 300.422 60.1193C300.263 60.392 300.183 60.7064 300.183 61.0625V66H297.763Z" fill="black"/>
<path d="M99.5511 19.4943C99.358 18.7784 99.0739 18.1477 98.6989 17.6023C98.3239 17.0455 97.8636 16.5739 97.3182 16.1875C96.7727 15.8011 96.1477 15.5114 95.4432 15.3182C94.7386 15.1136 93.9659 15.0114 93.125 15.0114C91.4318 15.0114 89.9659 15.4205 88.7273 16.2386C87.5 17.0568 86.5511 18.25 85.8807 19.8182C85.2102 21.375 84.875 23.267 84.875 25.4943C84.875 27.733 85.1989 29.642 85.8466 31.2216C86.4943 32.8011 87.4318 34.0057 88.6591 34.8352C89.8864 35.6648 91.375 36.0795 93.125 36.0795C94.6705 36.0795 95.9773 35.8295 97.0455 35.3295C98.125 34.8182 98.9432 34.0966 99.5 33.1648C100.057 32.233 100.335 31.1364 100.335 29.875L101.903 30.0625H93.4148V23.9091H108.466V28.5284C108.466 31.6534 107.801 34.3295 106.472 36.5568C105.153 38.7841 103.335 40.4943 101.017 41.6875C98.7102 42.8807 96.0568 43.4773 93.0568 43.4773C89.7273 43.4773 86.8011 42.7557 84.2784 41.3125C81.7557 39.8693 79.7898 37.8125 78.3807 35.142C76.9716 32.4602 76.267 29.2784 76.267 25.5966C76.267 22.733 76.6932 20.1932 77.5455 17.9773C78.3977 15.75 79.5852 13.8636 81.108 12.3182C82.642 10.7727 84.4148 9.60227 86.4261 8.80682C88.4489 8.01136 90.625 7.61364 92.9545 7.61364C94.9773 7.61364 96.858 7.90341 98.5966 8.48295C100.347 9.0625 101.892 9.88068 103.233 10.9375C104.585 11.9943 105.682 13.25 106.523 14.7045C107.364 16.1591 107.886 17.7557 108.091 19.4943H99.5511ZM113.439 8.09091H123.888L132.751 29.7045H133.161L142.024 8.09091H152.473V43H144.257V21.5568H143.967L135.581 42.7784H130.331L121.945 21.4375H121.655V43H113.439V8.09091ZM157.736 43V8.09091H172.156C174.77 8.09091 177.026 8.5625 178.923 9.50568C180.832 10.4375 182.304 11.7784 183.338 13.5284C184.372 15.267 184.889 17.3295 184.889 19.7159C184.889 22.1364 184.361 24.1932 183.304 25.8864C182.247 27.5682 180.747 28.8523 178.804 29.7386C176.861 30.6136 174.56 31.0511 171.901 31.0511H162.781V24.4034H170.332C171.605 24.4034 172.668 24.2386 173.52 23.9091C174.384 23.5682 175.037 23.0568 175.48 22.375C175.923 21.6818 176.145 20.7955 176.145 19.7159C176.145 18.6364 175.923 17.7443 175.48 17.0398C175.037 16.3239 174.384 15.7898 173.52 15.4375C172.656 15.0739 171.594 14.892 170.332 14.892H166.173V43H157.736ZM177.389 27.0455L186.082 43H176.878L168.355 27.0455H177.389ZM208.386 18.5568C208.273 17.3068 207.767 16.3352 206.869 15.642C205.983 14.9375 204.716 14.5852 203.068 14.5852C201.977 14.5852 201.068 14.7273 200.341 15.0114C199.614 15.2955 199.068 15.6875 198.705 16.1875C198.341 16.6761 198.153 17.2386 198.142 17.875C198.119 18.3977 198.222 18.858 198.449 19.2557C198.688 19.6534 199.028 20.0057 199.472 20.3125C199.926 20.608 200.472 20.8693 201.108 21.0966C201.744 21.3239 202.46 21.5227 203.256 21.6932L206.256 22.375C207.983 22.75 209.506 23.25 210.824 23.875C212.153 24.5 213.267 25.2443 214.165 26.108C215.074 26.9716 215.761 27.9659 216.227 29.0909C216.693 30.2159 216.932 31.4773 216.943 32.875C216.932 35.0795 216.375 36.9716 215.273 38.5511C214.17 40.1307 212.585 41.3409 210.517 42.1818C208.46 43.0227 205.977 43.4432 203.068 43.4432C200.148 43.4432 197.602 43.0057 195.432 42.1307C193.261 41.2557 191.574 39.9261 190.369 38.142C189.165 36.358 188.545 34.1023 188.511 31.375H196.591C196.659 32.5 196.96 33.4375 197.494 34.1875C198.028 34.9375 198.761 35.5057 199.693 35.892C200.636 36.2784 201.727 36.4716 202.966 36.4716C204.102 36.4716 205.068 36.3182 205.864 36.0114C206.67 35.7045 207.29 35.2784 207.722 34.733C208.153 34.1875 208.375 33.5625 208.386 32.858C208.375 32.1989 208.17 31.6364 207.773 31.1705C207.375 30.6932 206.761 30.2841 205.932 29.9432C205.114 29.5909 204.068 29.267 202.795 28.9716L199.148 28.1193C196.125 27.4261 193.744 26.3068 192.006 24.7614C190.267 23.2045 189.403 21.1023 189.415 18.4545C189.403 16.2955 189.983 14.4034 191.153 12.7784C192.324 11.1534 193.943 9.88636 196.011 8.97727C198.08 8.06818 200.438 7.61364 203.085 7.61364C205.79 7.61364 208.136 8.07386 210.125 8.99432C212.125 9.90341 213.676 11.1818 214.778 12.8295C215.881 14.4773 216.443 16.3864 216.466 18.5568H208.386Z" fill="#0F9D58"/>
<path d="M5.4 26.5H58.6" stroke="#F4B400" stroke-width="6" stroke-linecap="round" stroke-linejoin="round"/>
<path d="M5.4 45.5H58.6" stroke="#F4B400" stroke-width="6" stroke-linecap="round" stroke-linejoin="round"/>
<path d="M30.4167 7.5C25.0819 16.0488 22.2536 25.9232 22.2536 36C22.2536 46.0768 25.0819 55.9512 30.4167 64.5" stroke="#4285F4" stroke-width="6" stroke-linecap="round" stroke-linejoin="round"/>
<path d="M33.5833 7.5C38.9181 16.0488 41.7463 25.9232 41.7463 36C41.7463 46.0768 38.9181 55.9512 33.5833 64.5" stroke="#4285F4" stroke-width="6" stroke-linecap="round" stroke-linejoin="round"/>
<path d="M3.5 36C3.5 39.7427 4.23717 43.4487 5.66943 46.9065C7.10169 50.3643 9.20099 53.5061 11.8475 56.1525C14.4939 58.799 17.6357 60.8983 21.0935 62.3306C24.5513 63.7628 28.2573 64.5 32 64.5C35.7427 64.5 39.4487 63.7628 42.9065 62.3306C46.3643 60.8983 49.5061 58.799 52.1525 56.1525C54.799 53.5061 56.8983 50.3643 58.3306 46.9065C59.7628 43.4487 60.5 39.7427 60.5 36C60.5 28.4413 57.4973 21.1922 52.1525 15.8475C46.8078 10.5027 39.5587 7.5 32 7.5C24.4413 7.5 17.1922 10.5027 11.8475 15.8475C6.50267 21.1922 3.5 28.4413 3.5 36Z" stroke="#DB4437" stroke-width="6" stroke-linecap="round" stroke-linejoin="round"/>
</svg>
