<svg width="100" height="100" viewBox="0 0 100 100" fill="none" xmlns="http://www.w3.org/2000/svg">
<g clip-path="url(#clip0_2242_2485)">
<path d="M88.0687 50H75.5687C73.9111 50 72.3214 50.6585 71.1493 51.8306C69.9772 53.0027 69.3187 54.5924 69.3187 56.25V71.875C69.3187 73.5326 69.9772 75.1223 71.1493 76.2944C72.3214 77.4665 73.9111 78.125 75.5687 78.125H81.8187C83.4763 78.125 85.066 77.4665 86.2381 76.2944C87.4102 75.1223 88.0687 73.5326 88.0687 71.875V50ZM88.0687 50C88.0687 45.0515 87.0893 40.152 85.1869 35.5837C83.2845 31.0155 80.4968 26.869 76.9845 23.3832C73.4721 19.8973 69.3046 17.1412 64.7221 15.2735C60.1395 13.4058 55.2327 12.4636 50.2843 12.5011C45.336 12.4636 40.4291 13.4058 35.8466 15.2735C31.2641 17.1412 27.0966 19.8973 23.5842 23.3832C20.0719 26.869 17.2842 31.0155 15.3818 35.5837C13.4794 40.152 12.5 45.0515 12.5 50M12.5 50V71.875C12.5 73.5326 13.1585 75.1223 14.3306 76.2944C15.5027 77.4665 17.0924 78.125 18.75 78.125H25C26.6576 78.125 28.2473 77.4665 29.4194 76.2944C30.5915 75.1223 31.25 73.5326 31.25 71.875V56.25C31.25 54.5924 30.5915 53.0027 29.4194 51.8306C28.2473 50.6585 26.6576 50 25 50H12.5Z" stroke="black" stroke-width="9.375" stroke-linecap="round" stroke-linejoin="round"/>
<path d="M88.0687 71.875V81.25C88.0687 84.5652 86.7517 87.7446 84.4075 90.0888C82.0633 92.433 78.8839 93.75 75.5687 93.75H53.125" stroke="black" stroke-width="9.375" stroke-linecap="round" stroke-linejoin="round"/>
</g>
<defs>
<clipPath id="clip0_2242_2485">
<rect width="100" height="100" fill="white"/>
</clipPath>
</defs>
</svg>
