<svg width="86" height="86" viewBox="0 0 86 86" fill="none" xmlns="http://www.w3.org/2000/svg">
<g clip-path="url(#clip0_2242_2491)">
<mask id="mask0_2242_2491" style="mask-type:luminance" maskUnits="userSpaceOnUse" x="0" y="0" width="86" height="86">
<path d="M85.3333 85.3333H0V-2.28882e-05H85.3333V85.3333Z" fill="white"/>
</mask>
<g mask="url(#mask0_2242_2491)">
<path d="M17.168 49.1027H6.95601C4.90668 49.1027 3.24268 47.4387 3.24268 45.3893V8.256C3.24268 6.20667 4.90668 4.54267 6.95601 4.54267H17.168C17.68 4.54267 18.096 4.95867 18.096 5.47067V48.1747C18.096 48.6867 17.68 49.1027 17.168 49.1027ZM24.0733 53.312C33.0645 60.7849 36.7227 68.6453 35.048 76.8933C32.5347 89.264 49.352 80.1787 47.4187 64.5213C45.4853 48.8653 44.9053 52.1507 72.16 52.1507C84.4889 52.1507 85.3373 37.9258 74.7053 9.476C73.3013 5.71733 68.904 2.66667 64.892 2.66667H29.9453C25.9333 2.66667 22.676 5.924 22.676 9.936V50.3333C22.676 51.336 23.3027 52.6707 24.0733 53.312Z" fill="black"/>
</g>
</g>
<defs>
<clipPath id="clip0_2242_2491">
<rect width="85.3333" height="85.3333" fill="white" transform="matrix(1 0 0 -1 0 85.3333)"/>
</clipPath>
</defs>
</svg>
